<svg width="243" height="302" viewBox="0 0 243 302" fill="none" xmlns="http://www.w3.org/2000/svg">
<path d="M242.212 27.8874V273.429C242.212 278.956 240.605 284.106 237.832 288.437C232.879 296.182 224.2 301.317 214.325 301.317H27.9933C26.3329 301.317 24.7083 301.171 23.1271 300.892C15.3059 299.518 8.6078 294.882 4.4861 288.44C1.71271 284.106 0.105957 278.956 0.105957 273.429V27.8874C0.105957 12.4854 12.5913 0 27.9933 0H214.325C229.727 0 242.212 12.4854 242.212 27.8874Z" fill="#434041"/>
<path d="M107.74 145.142L102.899 145.431L101.277 157.193C100.74 161.087 97.9308 164.272 94.1366 165.303C84.8416 167.828 74.8917 170.829 65.323 174.04C50.5094 179.014 39.7536 191.899 37.4561 207.354C35.7726 218.696 34.1915 229.485 34.1915 229.485H230.938C230.938 229.485 229.482 219.284 227.786 207.738C225.476 192.021 214.431 178.95 199.29 174.143C189.882 171.157 180.178 168.312 171.083 165.861C167.281 164.835 164.464 161.647 163.927 157.748L162.228 145.431L157.62 145.155C157.5 142.676 157.441 139.946 157.41 136.845C162.527 130.091 166.357 122.293 168.724 113.926C169.55 114.597 170.75 114.671 171.605 113.727C172.577 112.652 173.408 111.181 174.066 109.211C176.734 101.313 178.154 91.4348 178.835 80.3873C178.932 78.8113 177.451 77.6754 176.179 78.3841C175.604 78.7039 175.005 79.103 174.391 79.5431C174.826 70.4349 175.396 61.2065 175.056 52.1188C174.92 48.5343 174.191 45.3183 173.009 42.3479C173.099 42.2686 173.165 42.1586 173.129 41.9923C172.966 41.2299 172.776 40.4598 172.572 39.6897C174.112 42.5603 175.087 46.2087 175.803 48.565C175.898 48.8772 176.386 48.8465 176.351 48.4832C176.182 46.7997 175.529 43.8907 174.457 41.0738C174.47 41.0252 174.473 40.9715 174.447 40.9126C174.237 40.4342 174.01 39.9302 173.769 39.4134C173.659 39.1703 173.546 38.9324 173.429 38.6944C171.932 35.5705 169.906 32.0424 167.383 29.6707C167.201 29.2716 167.043 28.8494 166.851 28.4631C166.531 27.8184 166.188 27.1813 165.666 26.7156C165.498 26.5647 165.198 26.4368 164.86 26.3114C164.62 24.0625 162.995 23.0647 161.146 22.5351C161.384 22.3304 161.614 22.1027 161.824 21.8366C162.233 21.3198 162.062 20.5625 161.468 20.3451C160.258 19.8973 159.188 19.928 158.075 20.363C158.068 20.079 157.894 19.7975 157.551 19.7617C156.809 19.685 156.064 19.6236 155.32 19.5698C154.294 19.0351 153.045 18.7895 152.211 18.7178C151.876 18.6897 151.759 19.0709 151.858 19.3498C151.313 19.3165 150.768 19.2807 150.226 19.2449C150.198 19.2296 150.167 19.2167 150.136 19.2014C150.267 19.0658 150.397 18.9302 150.523 18.7895C152.204 18.5848 153.89 18.4109 155.601 18.3622C156.351 18.3418 156.328 17.1546 155.601 17.0855C154.445 16.9755 153.245 16.8962 152.03 16.8579C152.114 16.735 152.206 16.6122 152.286 16.492C152.549 16.1005 151.966 15.617 151.682 15.9752C151.436 16.2822 151.168 16.5559 150.907 16.8425C149.63 16.8323 148.343 16.8783 147.064 16.9934C148.363 16.7325 149.63 16.3231 150.802 15.7603C151.111 15.6119 150.873 15.1309 150.587 15.1948C148.653 15.6247 146.859 15.7935 145.055 15.7782C145.147 15.6119 145.135 15.3867 144.912 15.3432C143.579 15.0874 142.377 15.1846 141.225 15.4635C140.885 15.4149 140.555 15.3841 140.204 15.3279C141.486 14.0384 142.586 12.5264 143.487 10.8096C143.727 10.3491 143.134 9.99856 142.86 10.4028C141.415 12.5391 139.644 14.3122 137.631 15.6068C136.052 15.5965 134.481 15.8114 132.915 16.295C133.353 15.9598 133.78 15.6093 134.192 15.2383C135.134 14.9185 136.034 14.6269 136.848 14.3505C137.147 14.2482 137.022 13.7698 136.72 13.8363C136.298 13.9309 135.812 14.041 135.284 14.1663C136.574 12.818 137.712 11.2701 138.68 9.48175C138.948 8.98541 138.28 8.38418 137.943 8.85238C136.062 11.4569 133.88 13.6469 131.298 15.2639C130.528 15.5095 129.738 15.7833 128.947 16.0878C130.208 14.3122 131.173 12.3396 131.685 10.2212C131.825 9.63782 131.078 9.44083 130.889 9.97811C129.766 13.1532 127.77 15.6298 125.317 17.5384C125.207 17.587 125.097 17.6331 124.987 17.6791C124.892 17.6842 124.8 17.6945 124.705 17.7021C124.337 17.5998 123.966 17.4898 123.595 17.3772C125.012 16.382 126.412 15.3842 127.745 14.3531C128.077 14.0947 127.788 13.5216 127.422 13.7442C125.683 14.8034 123.894 15.8472 122.103 16.9116C121.878 16.8399 121.656 16.7709 121.43 16.6941C120.796 16.4869 120.502 17.216 120.734 17.7303C118.056 19.3472 115.408 21.0435 112.939 22.9547C112.916 22.9393 112.898 22.9189 112.875 22.9035C113.97 21.788 115.096 20.7109 116.257 19.6798C116.697 19.2909 116.122 18.4901 115.661 18.8227C114.231 19.8615 112.852 20.9667 111.524 22.1436C111.317 22.049 111.135 21.9262 110.915 21.8443C110.825 21.8111 110.746 21.8085 110.662 21.7957C111.194 21.2942 111.739 20.8107 112.307 20.3553C112.747 20.0022 112.366 19.2244 111.872 19.5315C109.968 20.7211 108.298 22.1974 106.85 23.9499C107.208 23.1798 107.574 22.4149 107.98 21.678C108.241 21.2021 107.609 20.8312 107.325 21.2533C106.095 23.0698 104.634 25.5311 103.795 28.0409C103.687 28.1126 103.58 28.1893 103.472 28.2635C103.649 26.6491 104.015 25.0757 104.537 23.5508C104.667 23.167 104.109 22.9163 103.946 23.2745C103.434 24.3874 102.899 25.8048 102.516 27.299C102.152 26.7156 101.768 26.1912 101.405 25.769C101.131 25.4518 100.686 25.8586 100.87 26.227C101.2 26.8871 101.513 27.5471 101.794 28.2226C101.513 28.2251 101.249 28.3224 101.037 28.5117C100.653 28.2175 100.262 27.9488 99.865 27.7339C99.494 27.5318 99.1665 28.1433 99.5375 28.3556C99.9673 28.6012 100.323 28.8878 100.648 29.1923C100.556 29.6732 100.43 30.1312 100.308 30.5943C98.7213 31.3695 97.2016 32.3264 95.8021 33.4547C92.3328 36.2537 89.9483 39.9071 88.6896 44.4612C88.5821 44.845 89.1168 45.0011 89.2268 44.625C90.6416 39.8534 93.8193 36.1487 97.6954 33.6645C97.7772 33.6133 97.8617 33.5698 97.9435 33.5186C97.8898 33.5928 97.8386 33.6721 97.7874 33.7489C96.4059 34.8234 95.1548 36.0336 94.2005 37.2386C92.1051 39.8841 90.9973 43.1385 90.2707 46.5004C89.9739 47.1093 89.7104 47.7131 89.4929 48.258C88.8558 49.8417 88.7203 51.428 88.7484 53.0347C88.5437 54.1783 88.3595 55.3194 88.206 56.4451C88.1676 56.7291 88.536 56.8596 88.6051 56.5679C88.687 56.2072 88.7816 55.8439 88.8686 55.4832C88.9454 56.5833 89.0273 57.6937 89.0094 58.8219C88.9147 65.4791 88.9659 72.2949 89.8255 78.9469C89.5338 78.7601 89.2371 78.5503 88.9531 78.3943C87.6815 77.6856 86.2001 78.8216 86.2974 80.3976C86.9779 91.4451 88.3979 101.323 91.0664 109.221C91.7239 111.191 92.5554 112.662 93.5276 113.737C94.3847 114.684 95.5846 114.604 96.4136 113.932C98.7981 122.346 102.664 130.183 107.827 136.963C107.832 139.964 107.819 142.661 107.74 145.142ZM167.201 31.8966C167.45 32.4057 167.708 32.9123 167.954 33.424C167.879 33.4189 167.805 33.4112 167.731 33.4086C167.514 32.833 167.301 32.2829 167.068 31.7507C167.107 31.784 167.145 31.8249 167.184 31.8582C167.189 31.8684 167.196 31.8838 167.201 31.8966ZM149.625 21.7343C149.162 21.6013 148.696 21.4657 148.236 21.3352C148.036 21.2789 147.836 21.2303 147.637 21.174C147.719 21.1305 147.798 21.087 147.88 21.041C148.156 21.0563 148.432 21.0742 148.711 21.087C149.072 21.2686 149.428 21.4605 149.776 21.6626C149.722 21.6857 149.676 21.7113 149.625 21.7343ZM157.098 21.7957C157.07 21.7906 157.044 21.7855 157.016 21.7804C157.011 21.719 157.021 21.6499 157.011 21.591C157.032 21.6652 157.062 21.7292 157.098 21.7957ZM156.975 21.4068C156.939 21.2686 156.873 21.1458 156.812 21.0205C156.893 21.0154 156.978 21.0128 157.06 21.0077C156.996 21.1305 156.962 21.2661 156.975 21.4068ZM171.438 39.0066C171.185 38.546 170.911 38.0932 170.635 37.6455C170.548 37.3743 170.441 37.1184 170.307 36.8856C170.1 36.5223 169.926 36.3585 169.722 36.2127C169.711 36.1973 169.704 36.182 169.693 36.1692C170.031 36.402 170.348 36.6783 170.653 36.9879C170.939 37.6429 171.195 38.3209 171.438 39.0066ZM161.593 24.3132C161.486 24.2748 161.376 24.2391 161.266 24.2058C161.353 24.2211 161.442 24.2237 161.529 24.2416C161.55 24.2646 161.573 24.2902 161.593 24.3132ZM158.776 23.8706C159.165 23.8962 159.547 23.9781 159.933 24.0267C159.35 24.0651 158.833 24.2646 158.29 24.3132C157.896 24.1853 157.505 24.06 157.093 23.9551C156.837 23.8911 156.579 23.8374 156.323 23.7785C156.356 23.7427 156.377 23.7018 156.407 23.6634C156.778 23.7146 157.147 23.7401 157.51 23.7427C157.932 23.7862 158.354 23.8246 158.776 23.8706ZM155.015 21.1177C155.141 21.2379 155.23 21.3633 155.299 21.4913C154.647 21.3889 153.977 21.307 153.311 21.2635C153.263 21.2277 153.217 21.1893 153.168 21.1535C153.785 21.1484 154.399 21.1407 155.015 21.1177ZM121.863 18.6897C121.778 18.7511 121.686 18.7844 121.604 18.8509C121.402 19.0121 121.31 19.2167 121.287 19.4214C120.599 19.7719 119.918 20.1327 119.238 20.5037C119.194 20.5139 119.151 20.5267 119.107 20.5369C120 19.8948 120.896 19.2654 121.791 18.6385C121.817 18.6539 121.84 18.6718 121.863 18.6897ZM109.585 23.7325C109.127 23.8399 108.697 24.0779 108.298 24.4028C108.287 24.4028 108.28 24.4054 108.27 24.4079C108.656 23.9218 109.055 23.4485 109.475 22.9982C109.454 23.2438 109.487 23.4997 109.585 23.7325Z" fill="white"/>
<path d="M242.106 27.8874V75.9611C233.43 70.2353 226.266 62.4959 223.685 53.9531C220.126 42.1765 226.666 33.4521 219.737 23.6915C212.246 13.1403 200.4 17.4207 193.421 7.90057C191.778 5.65935 190.627 2.95504 189.931 0H214.219C229.621 0 242.106 12.4854 242.106 27.8874Z" fill="url(#paint0_linear_80_841)"/>
<path d="M242.106 199.528V273.429C242.106 278.956 240.499 284.106 237.726 288.437C232.773 296.182 224.094 301.317 214.219 301.317H27.8873C26.2269 301.317 24.6023 301.171 23.0211 300.892C27.6673 270.114 84.6292 226.095 139.473 216.455C174.286 210.335 195.347 220.331 232.895 203.954C236.178 202.521 239.24 201.04 242.106 199.528Z" fill="url(#paint1_linear_80_841)"/>
<path d="M213.935 301.317H27.8874C18.0117 301.317 9.33591 296.184 4.38014 288.44C1.60675 284.106 0 278.956 0 273.429V31.4922C21.6831 53.7688 39.3801 83.2553 46.0526 113.164C54.9893 153.209 37.5456 164.367 51.3154 190.796C75.9074 238 139.596 217.869 189.473 268.428C198.515 277.589 207.04 289.013 213.935 301.317Z" fill="url(#paint2_linear_80_841)"/>
<path d="M149.07 301.317H27.8874C18.0117 301.317 9.33591 296.184 4.38014 288.44C1.60675 284.106 0 278.956 0 273.429V119.084C5.1016 129.648 9.05444 140.609 11.5131 151.628C20.4499 191.671 3.00623 202.828 16.7759 229.26C40.4137 274.632 100.175 257.795 149.07 301.317Z" fill="url(#paint3_linear_80_841)"/>
<path d="M62.1051 251.762V241.962H66.7391C67.8218 241.962 68.7738 242.163 69.5951 242.564C70.4164 242.965 71.0558 243.53 71.5131 244.258C71.9798 244.986 72.2131 245.854 72.2131 246.862C72.2131 247.861 71.9798 248.729 71.5131 249.466C71.0558 250.194 70.4164 250.759 69.5951 251.16C68.7738 251.561 67.8218 251.762 66.7391 251.762H62.1051ZM64.8771 249.55H66.6271C67.1871 249.55 67.6724 249.447 68.0831 249.242C68.5031 249.027 68.8298 248.719 69.0631 248.318C69.2964 247.907 69.4131 247.422 69.4131 246.862C69.4131 246.293 69.2964 245.807 69.0631 245.406C68.8298 245.005 68.5031 244.701 68.0831 244.496C67.6724 244.281 67.1871 244.174 66.6271 244.174H64.8771V249.55ZM78.0535 251.888C77.2228 251.888 76.4855 251.72 75.8415 251.384C75.1975 251.048 74.6888 250.586 74.3155 249.998C73.9515 249.401 73.7695 248.719 73.7695 247.954C73.7695 247.189 73.9515 246.512 74.3155 245.924C74.6888 245.336 75.1975 244.879 75.8415 244.552C76.4855 244.216 77.2228 244.048 78.0535 244.048C78.8842 244.048 79.6215 244.216 80.2655 244.552C80.9188 244.879 81.4275 245.336 81.7915 245.924C82.1555 246.512 82.3375 247.189 82.3375 247.954C82.3375 248.719 82.1555 249.401 81.7915 249.998C81.4275 250.586 80.9188 251.048 80.2655 251.384C79.6215 251.72 78.8842 251.888 78.0535 251.888ZM78.0535 249.774C78.3615 249.774 78.6322 249.704 78.8655 249.564C79.1082 249.424 79.2995 249.219 79.4395 248.948C79.5795 248.668 79.6495 248.337 79.6495 247.954C79.6495 247.571 79.5795 247.249 79.4395 246.988C79.2995 246.717 79.1082 246.512 78.8655 246.372C78.6322 246.232 78.3615 246.162 78.0535 246.162C77.7548 246.162 77.4842 246.232 77.2415 246.372C77.0082 246.512 76.8168 246.717 76.6675 246.988C76.5275 247.249 76.4575 247.571 76.4575 247.954C76.4575 248.337 76.5275 248.668 76.6675 248.948C76.8168 249.219 77.0082 249.424 77.2415 249.564C77.4842 249.704 77.7548 249.774 78.0535 249.774ZM87.9797 254.604C87.2517 254.604 86.5564 254.52 85.8937 254.352C85.2404 254.184 84.6804 253.937 84.2137 253.61L85.1797 251.748C85.4971 252 85.8891 252.196 86.3557 252.336C86.8317 252.485 87.2937 252.56 87.7417 252.56C88.4604 252.56 88.9784 252.401 89.2957 252.084C89.6131 251.776 89.7717 251.323 89.7717 250.726V249.83L89.9117 247.702L89.8977 245.56V244.174H92.4317V250.376C92.4317 251.813 92.0444 252.877 91.2697 253.568C90.4951 254.259 89.3984 254.604 87.9797 254.604ZM87.5177 251.37C86.8457 251.37 86.2251 251.221 85.6557 250.922C85.0957 250.614 84.6431 250.189 84.2977 249.648C83.9617 249.097 83.7937 248.449 83.7937 247.702C83.7937 246.955 83.9617 246.311 84.2977 245.77C84.6431 245.219 85.0957 244.795 85.6557 244.496C86.2251 244.197 86.8457 244.048 87.5177 244.048C88.1617 244.048 88.7124 244.179 89.1697 244.44C89.6271 244.692 89.9724 245.089 90.2057 245.63C90.4484 246.171 90.5697 246.862 90.5697 247.702C90.5697 248.542 90.4484 249.233 90.2057 249.774C89.9724 250.315 89.6271 250.717 89.1697 250.978C88.7124 251.239 88.1617 251.37 87.5177 251.37ZM88.1477 249.256C88.4651 249.256 88.7451 249.191 88.9877 249.06C89.2397 248.929 89.4357 248.747 89.5757 248.514C89.7251 248.281 89.7997 248.01 89.7997 247.702C89.7997 247.394 89.7251 247.123 89.5757 246.89C89.4357 246.657 89.2397 246.479 88.9877 246.358C88.7451 246.227 88.4651 246.162 88.1477 246.162C87.8304 246.162 87.5457 246.227 87.2937 246.358C87.0417 246.479 86.8411 246.657 86.6917 246.89C86.5517 247.123 86.4817 247.394 86.4817 247.702C86.4817 248.01 86.5517 248.281 86.6917 248.514C86.8411 248.747 87.0417 248.929 87.2937 249.06C87.5457 249.191 87.8304 249.256 88.1477 249.256ZM88.2877 243.39C87.5037 243.39 86.8551 243.189 86.3417 242.788C85.8377 242.387 85.5717 241.836 85.5437 241.136H87.1677C87.1864 241.425 87.2984 241.654 87.5037 241.822C87.7184 241.981 87.9797 242.06 88.2877 242.06C88.5957 242.06 88.8571 241.981 89.0717 241.822C89.2864 241.654 89.3984 241.425 89.4077 241.136H91.0317C91.0037 241.836 90.7331 242.387 90.2197 242.788C89.7157 243.189 89.0717 243.39 88.2877 243.39ZM99.4748 251.762V250.348L99.2928 249.998V247.394C99.2928 246.974 99.1621 246.652 98.9008 246.428C98.6488 246.195 98.2428 246.078 97.6828 246.078C97.3188 246.078 96.9501 246.139 96.5768 246.26C96.2035 246.372 95.8861 246.531 95.6248 246.736L94.7288 244.93C95.1581 244.65 95.6715 244.435 96.2688 244.286C96.8755 244.127 97.4775 244.048 98.0748 244.048C99.3068 244.048 100.259 244.333 100.931 244.902C101.612 245.462 101.953 246.344 101.953 247.548V251.762H99.4748ZM97.2348 251.888C96.6281 251.888 96.1148 251.785 95.6948 251.58C95.2748 251.375 94.9528 251.095 94.7288 250.74C94.5141 250.385 94.4068 249.989 94.4068 249.55C94.4068 249.083 94.5235 248.682 94.7568 248.346C94.9995 248.001 95.3681 247.739 95.8628 247.562C96.3575 247.375 96.9968 247.282 97.7808 247.282H99.5728V248.668H98.1448C97.7155 248.668 97.4121 248.738 97.2348 248.878C97.0668 249.018 96.9828 249.205 96.9828 249.438C96.9828 249.671 97.0715 249.858 97.2488 249.998C97.4261 250.138 97.6688 250.208 97.9768 250.208C98.2661 250.208 98.5275 250.138 98.7608 249.998C99.0035 249.849 99.1808 249.625 99.2928 249.326L99.6568 250.306C99.5168 250.829 99.2415 251.225 98.8308 251.496C98.4295 251.757 97.8975 251.888 97.2348 251.888ZM111.318 251.762V244.16H108.308V241.962H117.086V244.16H114.09V251.762H111.318ZM121.734 251.888C121.118 251.888 120.563 251.767 120.068 251.524C119.583 251.281 119.2 250.903 118.92 250.39C118.65 249.867 118.514 249.209 118.514 248.416V244.174H121.174V247.982C121.174 248.57 121.282 248.99 121.496 249.242C121.72 249.494 122.033 249.62 122.434 249.62C122.696 249.62 122.934 249.559 123.148 249.438C123.363 249.317 123.536 249.125 123.666 248.864C123.797 248.593 123.862 248.248 123.862 247.828V244.174H126.522V251.762H123.988V249.62L124.478 250.222C124.217 250.782 123.839 251.202 123.344 251.482C122.85 251.753 122.313 251.888 121.734 251.888ZM124.002 243.278C123.694 243.278 123.433 243.18 123.218 242.984C123.004 242.779 122.896 242.513 122.896 242.186C122.896 241.859 123.004 241.593 123.218 241.388C123.433 241.183 123.694 241.08 124.002 241.08C124.31 241.08 124.572 241.183 124.786 241.388C125.001 241.593 125.108 241.859 125.108 242.186C125.108 242.513 125.001 242.779 124.786 242.984C124.572 243.18 124.31 243.278 124.002 243.278ZM121.034 243.278C120.726 243.278 120.465 243.18 120.25 242.984C120.036 242.779 119.928 242.513 119.928 242.186C119.928 241.859 120.036 241.593 120.25 241.388C120.465 241.183 120.726 241.08 121.034 241.08C121.342 241.08 121.604 241.183 121.818 241.388C122.033 241.593 122.14 241.859 122.14 242.186C122.14 242.513 122.033 242.779 121.818 242.984C121.604 243.18 121.342 243.278 121.034 243.278ZM128.936 251.762V244.174H131.47V246.386L131.092 245.756C131.316 245.187 131.68 244.762 132.184 244.482C132.688 244.193 133.299 244.048 134.018 244.048V246.442C133.896 246.423 133.789 246.414 133.696 246.414C133.612 246.405 133.518 246.4 133.416 246.4C132.874 246.4 132.436 246.549 132.1 246.848C131.764 247.137 131.596 247.613 131.596 248.276V251.762H128.936ZM138.027 250.362L138.097 247.184L141.191 244.174H144.341L140.911 247.716L139.553 248.808L138.027 250.362ZM135.815 251.762V241.374H138.475V251.762H135.815ZM141.387 251.762L139.063 248.85L140.715 246.806L144.607 251.762H141.387ZM155.97 244.048C156.558 244.048 157.08 244.169 157.538 244.412C158.004 244.645 158.368 245.009 158.63 245.504C158.9 245.999 159.036 246.638 159.036 247.422V251.762H156.376V247.856C156.376 247.315 156.273 246.923 156.068 246.68C155.862 246.428 155.582 246.302 155.228 246.302C154.976 246.302 154.747 246.363 154.542 246.484C154.336 246.605 154.178 246.792 154.066 247.044C153.954 247.287 153.898 247.604 153.898 247.996V251.762H151.238V247.856C151.238 247.315 151.135 246.923 150.93 246.68C150.734 246.428 150.454 246.302 150.09 246.302C149.828 246.302 149.595 246.363 149.39 246.484C149.194 246.605 149.035 246.792 148.914 247.044C148.802 247.287 148.746 247.604 148.746 247.996V251.762H146.086V244.174H148.62V246.288L148.116 245.686C148.396 245.145 148.778 244.739 149.264 244.468C149.749 244.188 150.29 244.048 150.888 244.048C151.569 244.048 152.166 244.225 152.68 244.58C153.202 244.925 153.552 245.467 153.73 246.204L152.862 246.022C153.132 245.406 153.538 244.925 154.08 244.58C154.63 244.225 155.26 244.048 155.97 244.048ZM165.486 251.888C164.59 251.888 163.806 251.72 163.134 251.384C162.472 251.039 161.954 250.572 161.58 249.984C161.216 249.387 161.034 248.71 161.034 247.954C161.034 247.198 161.212 246.526 161.566 245.938C161.93 245.341 162.43 244.879 163.064 244.552C163.699 244.216 164.413 244.048 165.206 244.048C165.953 244.048 166.634 244.202 167.25 244.51C167.866 244.809 168.356 245.252 168.72 245.84C169.084 246.428 169.266 247.142 169.266 247.982C169.266 248.075 169.262 248.183 169.252 248.304C169.243 248.425 169.234 248.537 169.224 248.64H163.218V247.24H167.81L166.802 247.632C166.812 247.287 166.746 246.988 166.606 246.736C166.476 246.484 166.289 246.288 166.046 246.148C165.813 246.008 165.538 245.938 165.22 245.938C164.903 245.938 164.623 246.008 164.38 246.148C164.147 246.288 163.965 246.489 163.834 246.75C163.704 247.002 163.638 247.301 163.638 247.646V248.052C163.638 248.425 163.713 248.747 163.862 249.018C164.021 249.289 164.245 249.499 164.534 249.648C164.824 249.788 165.169 249.858 165.57 249.858C165.944 249.858 166.261 249.807 166.522 249.704C166.793 249.592 167.059 249.424 167.32 249.2L168.72 250.656C168.356 251.057 167.908 251.365 167.376 251.58C166.844 251.785 166.214 251.888 165.486 251.888ZM176.135 244.048C176.723 244.048 177.255 244.169 177.731 244.412C178.207 244.645 178.58 245.009 178.851 245.504C179.131 245.999 179.271 246.638 179.271 247.422V251.762H176.611V247.856C176.611 247.315 176.499 246.923 176.275 246.68C176.06 246.428 175.757 246.302 175.365 246.302C175.085 246.302 174.828 246.367 174.595 246.498C174.361 246.619 174.179 246.811 174.049 247.072C173.918 247.333 173.853 247.674 173.853 248.094V251.762H171.193V244.174H173.727V246.33L173.237 245.7C173.526 245.149 173.923 244.739 174.427 244.468C174.931 244.188 175.5 244.048 176.135 244.048Z" fill="white"/>
<path d="M65.7696 274.902C64.4256 274.902 63.3709 274.524 62.6056 273.768C61.8496 273.012 61.4716 271.92 61.4716 270.492V264.962H63.2916V270.422C63.2916 271.43 63.5062 272.163 63.9356 272.62C64.3742 273.077 64.9902 273.306 65.7836 273.306C66.5769 273.306 67.1882 273.077 67.6176 272.62C68.0469 272.163 68.2616 271.43 68.2616 270.422V264.962H70.0536V270.492C70.0536 271.92 69.6709 273.012 68.9056 273.768C68.1496 274.524 67.1042 274.902 65.7696 274.902ZM73.3024 274.762V264.962H75.1224V274.762H73.3024ZM76.7371 276.162L81.3571 262.974H82.9251L78.3051 276.162H76.7371ZM88.5824 274.902C87.2384 274.902 86.1838 274.524 85.4184 273.768C84.6624 273.012 84.2844 271.92 84.2844 270.492V264.962H86.1044V270.422C86.1044 271.43 86.3191 272.163 86.7484 272.62C87.1871 273.077 87.8031 273.306 88.5964 273.306C89.3898 273.306 90.0011 273.077 90.4304 272.62C90.8598 272.163 91.0744 271.43 91.0744 270.422V264.962H92.8664V270.492C92.8664 271.92 92.4838 273.012 91.7184 273.768C90.9624 274.524 89.9171 274.902 88.5824 274.902ZM94.7886 274.762L98.9186 269.078V270.45L94.9846 264.962H97.0426L99.9686 269.022L99.1286 269.036L102.027 264.962H104.001L100.095 270.352V269.036L104.253 274.762H102.153L99.0726 270.45H99.8986L96.8606 274.762H94.7886ZM110.955 274.762V264.962H115.239C116.303 264.962 117.236 265.167 118.039 265.578C118.841 265.989 119.467 266.558 119.915 267.286C120.363 268.014 120.587 268.873 120.587 269.862C120.587 270.842 120.363 271.701 119.915 272.438C119.467 273.166 118.841 273.735 118.039 274.146C117.236 274.557 116.303 274.762 115.239 274.762H110.955ZM112.775 273.222H115.155C115.892 273.222 116.527 273.082 117.059 272.802C117.6 272.522 118.015 272.13 118.305 271.626C118.603 271.122 118.753 270.534 118.753 269.862C118.753 269.181 118.603 268.593 118.305 268.098C118.015 267.594 117.6 267.202 117.059 266.922C116.527 266.642 115.892 266.502 115.155 266.502H112.775V273.222ZM126.567 274.86C125.737 274.86 125.009 274.697 124.383 274.37C123.767 274.034 123.287 273.577 122.941 272.998C122.605 272.419 122.437 271.761 122.437 271.024C122.437 270.277 122.601 269.619 122.927 269.05C123.263 268.471 123.721 268.019 124.299 267.692C124.887 267.365 125.555 267.202 126.301 267.202C127.029 267.202 127.678 267.361 128.247 267.678C128.817 267.995 129.265 268.443 129.591 269.022C129.918 269.601 130.081 270.282 130.081 271.066C130.081 271.141 130.077 271.225 130.067 271.318C130.067 271.411 130.063 271.5 130.053 271.584H123.823V270.422H129.129L128.443 270.786C128.453 270.357 128.364 269.979 128.177 269.652C127.991 269.325 127.734 269.069 127.407 268.882C127.09 268.695 126.721 268.602 126.301 268.602C125.872 268.602 125.494 268.695 125.167 268.882C124.85 269.069 124.598 269.33 124.411 269.666C124.234 269.993 124.145 270.38 124.145 270.828V271.108C124.145 271.556 124.248 271.953 124.453 272.298C124.659 272.643 124.948 272.909 125.321 273.096C125.695 273.283 126.124 273.376 126.609 273.376C127.029 273.376 127.407 273.311 127.743 273.18C128.079 273.049 128.378 272.844 128.639 272.564L129.577 273.642C129.241 274.034 128.817 274.337 128.303 274.552C127.799 274.757 127.221 274.86 126.567 274.86ZM134.772 274.86C134.147 274.86 133.545 274.781 132.966 274.622C132.397 274.454 131.944 274.253 131.608 274.02L132.28 272.69C132.616 272.905 133.017 273.082 133.484 273.222C133.951 273.362 134.417 273.432 134.884 273.432C135.435 273.432 135.831 273.357 136.074 273.208C136.326 273.059 136.452 272.858 136.452 272.606C136.452 272.401 136.368 272.247 136.2 272.144C136.032 272.032 135.813 271.948 135.542 271.892C135.271 271.836 134.968 271.785 134.632 271.738C134.305 271.691 133.974 271.631 133.638 271.556C133.311 271.472 133.013 271.355 132.742 271.206C132.471 271.047 132.252 270.837 132.084 270.576C131.916 270.315 131.832 269.969 131.832 269.54C131.832 269.064 131.967 268.653 132.238 268.308C132.509 267.953 132.887 267.683 133.372 267.496C133.867 267.3 134.45 267.202 135.122 267.202C135.626 267.202 136.135 267.258 136.648 267.37C137.161 267.482 137.586 267.641 137.922 267.846L137.25 269.176C136.895 268.961 136.536 268.817 136.172 268.742C135.817 268.658 135.463 268.616 135.108 268.616C134.576 268.616 134.179 268.695 133.918 268.854C133.666 269.013 133.54 269.213 133.54 269.456C133.54 269.68 133.624 269.848 133.792 269.96C133.96 270.072 134.179 270.161 134.45 270.226C134.721 270.291 135.019 270.347 135.346 270.394C135.682 270.431 136.013 270.492 136.34 270.576C136.667 270.66 136.965 270.777 137.236 270.926C137.516 271.066 137.74 271.267 137.908 271.528C138.076 271.789 138.16 272.13 138.16 272.55C138.16 273.017 138.02 273.423 137.74 273.768C137.469 274.113 137.082 274.384 136.578 274.58C136.074 274.767 135.472 274.86 134.772 274.86ZM140.367 274.762V267.286H142.117V274.762H140.367ZM141.249 266.054C140.923 266.054 140.652 265.951 140.437 265.746C140.232 265.541 140.129 265.293 140.129 265.004C140.129 264.705 140.232 264.458 140.437 264.262C140.652 264.057 140.923 263.954 141.249 263.954C141.576 263.954 141.842 264.052 142.047 264.248C142.262 264.435 142.369 264.673 142.369 264.962C142.369 265.27 142.267 265.531 142.061 265.746C141.856 265.951 141.585 266.054 141.249 266.054ZM148.502 277.576C147.811 277.576 147.135 277.483 146.472 277.296C145.819 277.119 145.282 276.857 144.862 276.512L145.646 275.196C145.973 275.467 146.383 275.681 146.878 275.84C147.382 276.008 147.891 276.092 148.404 276.092C149.225 276.092 149.827 275.901 150.21 275.518C150.593 275.145 150.784 274.58 150.784 273.824V272.494L150.924 270.8L150.868 269.106V267.286H152.534V273.628C152.534 274.981 152.189 275.975 151.498 276.61C150.807 277.254 149.809 277.576 148.502 277.576ZM148.278 274.426C147.569 274.426 146.925 274.277 146.346 273.978C145.777 273.67 145.324 273.245 144.988 272.704C144.661 272.163 144.498 271.528 144.498 270.8C144.498 270.081 144.661 269.451 144.988 268.91C145.324 268.369 145.777 267.949 146.346 267.65C146.925 267.351 147.569 267.202 148.278 267.202C148.913 267.202 149.482 267.328 149.986 267.58C150.49 267.832 150.891 268.224 151.19 268.756C151.498 269.288 151.652 269.969 151.652 270.8C151.652 271.631 151.498 272.317 151.19 272.858C150.891 273.39 150.49 273.787 149.986 274.048C149.482 274.3 148.913 274.426 148.278 274.426ZM148.544 272.942C148.983 272.942 149.375 272.853 149.72 272.676C150.065 272.489 150.331 272.237 150.518 271.92C150.714 271.593 150.812 271.22 150.812 270.8C150.812 270.38 150.714 270.011 150.518 269.694C150.331 269.367 150.065 269.12 149.72 268.952C149.375 268.775 148.983 268.686 148.544 268.686C148.105 268.686 147.709 268.775 147.354 268.952C147.009 269.12 146.738 269.367 146.542 269.694C146.355 270.011 146.262 270.38 146.262 270.8C146.262 271.22 146.355 271.593 146.542 271.92C146.738 272.237 147.009 272.489 147.354 272.676C147.709 272.853 148.105 272.942 148.544 272.942ZM159.777 267.202C160.374 267.202 160.906 267.319 161.373 267.552C161.849 267.785 162.222 268.145 162.493 268.63C162.763 269.106 162.899 269.722 162.899 270.478V274.762H161.149V270.702C161.149 270.039 160.99 269.545 160.673 269.218C160.365 268.891 159.931 268.728 159.371 268.728C158.96 268.728 158.596 268.812 158.279 268.98C157.961 269.148 157.714 269.4 157.537 269.736C157.369 270.063 157.285 270.478 157.285 270.982V274.762H155.535V267.286H157.201V269.302L156.907 268.686C157.168 268.21 157.546 267.846 158.041 267.594C158.545 267.333 159.123 267.202 159.777 267.202ZM169.346 274.86C168.516 274.86 167.788 274.697 167.162 274.37C166.546 274.034 166.066 273.577 165.72 272.998C165.384 272.419 165.216 271.761 165.216 271.024C165.216 270.277 165.38 269.619 165.706 269.05C166.042 268.471 166.5 268.019 167.078 267.692C167.666 267.365 168.334 267.202 169.08 267.202C169.808 267.202 170.457 267.361 171.026 267.678C171.596 267.995 172.044 268.443 172.37 269.022C172.697 269.601 172.86 270.282 172.86 271.066C172.86 271.141 172.856 271.225 172.846 271.318C172.846 271.411 172.842 271.5 172.832 271.584H166.602V270.422H171.908L171.222 270.786C171.232 270.357 171.143 269.979 170.956 269.652C170.77 269.325 170.513 269.069 170.186 268.882C169.869 268.695 169.5 268.602 169.08 268.602C168.651 268.602 168.273 268.695 167.946 268.882C167.629 269.069 167.377 269.33 167.19 269.666C167.013 269.993 166.924 270.38 166.924 270.828V271.108C166.924 271.556 167.027 271.953 167.232 272.298C167.438 272.643 167.727 272.909 168.1 273.096C168.474 273.283 168.903 273.376 169.388 273.376C169.808 273.376 170.186 273.311 170.522 273.18C170.858 273.049 171.157 272.844 171.418 272.564L172.356 273.642C172.02 274.034 171.596 274.337 171.082 274.552C170.578 274.757 170 274.86 169.346 274.86ZM175.241 274.762V267.286H176.907V269.344L176.711 268.742C176.935 268.238 177.285 267.855 177.761 267.594C178.247 267.333 178.849 267.202 179.567 267.202V268.868C179.493 268.849 179.423 268.84 179.357 268.84C179.292 268.831 179.227 268.826 179.161 268.826C178.499 268.826 177.971 269.022 177.579 269.414C177.187 269.797 176.991 270.371 176.991 271.136V274.762H175.241Z" fill="black"/>
<defs>
<linearGradient id="paint0_linear_80_841" x1="189.931" y1="37.9814" x2="242.106" y2="37.9814" gradientUnits="userSpaceOnUse">
<stop stop-color="#FC051F"/>
<stop offset="1" stop-color="#C21D0A"/>
</linearGradient>
<linearGradient id="paint1_linear_80_841" x1="23.0208" y1="250.423" x2="242.106" y2="250.423" gradientUnits="userSpaceOnUse">
<stop stop-color="#F9061E"/>
<stop offset="1" stop-color="#BD1F08"/>
</linearGradient>
<linearGradient id="paint2_linear_80_841" x1="-0.000332602" y1="166.405" x2="213.934" y2="166.405" gradientUnits="userSpaceOnUse">
<stop stop-color="#FF0420"/>
<stop offset="1" stop-color="#A92700"/>
</linearGradient>
<linearGradient id="paint3_linear_80_841" x1="-0.000332602" y1="210.201" x2="149.069" y2="210.201" gradientUnits="userSpaceOnUse">
<stop stop-color="#F3091C"/>
<stop offset="1" stop-color="#B12403"/>
</linearGradient>
</defs>
</svg>
