<svg width="243" height="302" viewBox="0 0 243 302" fill="none" xmlns="http://www.w3.org/2000/svg">
<path d="M242.212 27.8874V273.429C242.212 278.956 240.605 284.106 237.832 288.437C232.879 296.182 224.2 301.317 214.325 301.317H27.9933C26.3329 301.317 24.7082 301.171 23.1271 300.892C15.3059 299.518 8.6078 294.882 4.4861 288.44C1.71271 284.106 0.105957 278.956 0.105957 273.429V27.8874C0.105957 12.4854 12.5913 0 27.9933 0H214.325C229.727 0 242.212 12.4854 242.212 27.8874Z" fill="#434041"/>
<path d="M208.216 186.065C196.212 181.762 183.051 177.686 170.991 174.411C167.196 173.38 164.387 170.197 163.85 166.301C163.681 165.08 162.64 164.175 161.409 164.175H158.334C158.029 162.507 157.804 160.792 157.651 158.973C158.04 158.426 158.426 157.881 158.853 157.42C158.889 157.41 158.927 157.415 158.963 157.4C159.488 157.213 159.882 156.819 160.017 156.336C160.739 155.729 161.494 155.166 162.241 154.598C162.351 154.762 162.563 154.87 162.796 154.77C164.177 154.166 165.139 152.784 165.487 151.347C165.508 151.267 165.482 151.203 165.457 151.144C165.712 150.587 165.866 149.983 165.871 149.305C165.874 148.865 165.725 148.445 165.562 148.031C165.677 148.013 165.787 147.977 165.899 147.954C166.541 149.287 166.634 150.52 165.692 151.858C165.508 152.122 165.935 152.365 166.119 152.109C166.815 151.147 167.148 150.039 166.877 148.855C166.807 148.548 166.646 148.197 166.46 147.826C166.917 147.688 167.352 147.481 167.775 147.227C167.905 147.852 167.844 148.568 167.455 149.456C167.299 149.814 167.767 150.108 167.99 149.768C168.632 148.791 168.89 147.673 168.685 146.549C168.739 146.498 168.801 146.462 168.854 146.409C169.56 145.708 170.062 144.825 170.246 143.845C170.566 142.128 169.384 141.046 169.241 139.557C169.184 138.992 169.261 138.657 169.412 138.414C169.486 138.503 169.56 138.59 169.632 138.685C170.502 139.821 170.781 141.046 170.98 142.435C171.006 142.615 171.316 142.574 171.298 142.392C171.162 141.046 170.98 139.759 170.238 138.598C170.103 138.385 169.972 138.191 169.847 137.999C170.095 137.846 170.4 137.697 170.742 137.472C171.088 138.153 171.267 138.918 171.055 139.928C170.955 140.401 171.646 140.601 171.784 140.13C172.124 138.956 172.083 137.869 171.556 136.766C171.883 136.408 172.157 135.998 172.362 135.553C172.352 135.939 172.275 136.341 172.086 136.774C171.914 137.165 172.441 137.503 172.674 137.116C173.388 135.927 173.309 134.798 172.863 133.706C173.188 133.074 173.357 132.368 173.37 131.651C174.201 130.029 173.613 128.072 172.664 126.325C172.95 125.422 173.216 124.513 173.465 123.597C175.647 125.23 179.423 124.792 180.357 121.668C180.37 121.627 180.383 121.584 180.393 121.543C185.763 111.539 185.088 104.051 182.614 95.6588C181.839 93.0313 178.472 92.0437 176.202 93.7553C175.946 93.9472 175.685 94.1647 175.424 94.3745C175.028 87.661 174.447 81.142 174.37 75.2575C174.24 65.3537 171.116 56.2404 165.812 48.9283C166.112 48.1991 166.357 47.4802 166.534 46.7996C167.636 42.5321 166.981 37.0058 163.361 34.1122C162.832 33.69 162.059 34.0712 162.212 34.7825C162.345 35.4016 162.484 36.0131 162.617 36.622C161.57 34.9513 160.227 33.3855 158.689 31.8633C158.29 31.4667 157.768 31.4923 157.367 31.7225C156.361 30.6403 155.251 29.6553 154.071 28.788C153.739 28.4016 153.409 28.0179 153.058 27.6315C152.741 27.281 152.303 27.2401 151.917 27.3757C151.459 27.1122 150.996 26.864 150.53 26.6363C140.752 21.8954 129.963 23.7503 119.629 24.9221C119.166 24.9758 119.141 25.6871 119.629 25.6666C124.948 25.4261 131.286 25.1626 137.37 25.7485C137.423 25.8227 137.495 25.8918 137.585 25.9557C138.644 26.69 139.741 27.3706 140.826 28.0486C136.853 26.5186 132.549 25.8099 128.318 25.7664C120.906 25.6922 112.949 30.2079 105.749 28.2379C105.079 28.0537 104.808 28.9184 105.304 29.292C107.963 31.2876 110.017 31.5818 112.954 31.4181C108.74 33.2755 103.961 34.849 103.183 31.1648C103.03 30.4331 101.876 30.4433 101.715 31.1648C101.656 31.4309 101.625 31.679 101.587 31.9298C101.267 31.8351 100.901 31.9144 100.65 32.2982C100.031 33.2448 99.5682 34.2145 99.2484 35.1842C97.0814 38.0471 96.2831 41.4703 96.5261 44.9396C95.9761 42.2737 96.1449 39.2854 96.9099 36.228C96.9918 35.8954 96.4775 35.6421 96.3317 35.985C94.2952 40.7872 94.4717 47.4009 97.4933 51.6633C93.3076 58.4612 90.8796 66.5536 90.7645 75.2575C90.6851 81.142 90.1044 87.661 89.7104 94.3745C89.4494 94.1647 89.1885 93.9472 88.9326 93.7553C86.6632 92.0411 83.2963 93.0313 82.5211 95.6588C80.047 104.051 79.3741 111.539 84.7418 121.543C84.7546 121.584 84.7649 121.627 84.7776 121.668C85.7115 124.79 89.4827 125.23 91.665 123.6C92.0411 124.994 92.4505 126.376 92.9162 127.737C92.4122 129.078 92.2509 130.454 92.865 131.651C92.8777 132.37 93.0466 133.074 93.3715 133.706C92.9263 134.796 92.8471 135.927 93.5609 137.116C93.7937 137.503 94.3207 137.165 94.1493 136.774C93.96 136.341 93.8807 135.939 93.873 135.553C94.0777 135.998 94.3514 136.408 94.6789 136.766C94.1519 137.869 94.111 138.956 94.4513 140.13C94.5869 140.601 95.2802 140.401 95.1804 139.928C94.968 138.918 95.1446 138.15 95.4925 137.472C95.8353 137.697 96.1398 137.846 96.388 137.999C96.2626 138.191 96.1296 138.388 95.9965 138.598C95.2571 139.759 95.0729 141.046 94.9373 142.392C94.9194 142.574 95.229 142.612 95.2546 142.435C95.4567 141.046 95.733 139.821 96.6029 138.685C96.6745 138.59 96.7488 138.503 96.823 138.414C96.9765 138.657 97.0507 138.989 96.9969 139.557C96.8511 141.046 95.6691 142.128 95.9915 143.845C96.1757 144.825 96.6771 145.708 97.3833 146.409C97.437 146.462 97.4958 146.498 97.5521 146.549C97.3474 147.673 97.6033 148.791 98.248 149.768C98.4731 150.108 98.9388 149.814 98.7827 149.456C98.3964 148.568 98.3324 147.852 98.4629 147.227C98.8851 147.481 99.32 147.688 99.778 147.826C99.5886 148.197 99.43 148.548 99.361 148.855C99.0898 150.037 99.4223 151.147 100.118 152.109C100.302 152.365 100.732 152.122 100.546 151.858C99.604 150.52 99.6961 149.29 100.338 147.954C100.451 147.977 100.561 148.013 100.676 148.031C100.512 148.445 100.364 148.865 100.366 149.305C100.372 149.983 100.525 150.587 100.781 151.144C100.755 151.203 100.73 151.265 100.75 151.347C101.098 152.784 102.06 154.166 103.442 154.77C103.675 154.87 103.887 154.762 103.997 154.598C104.744 155.166 105.499 155.729 106.22 156.336C106.356 156.819 106.75 157.213 107.274 157.4C107.29 157.405 107.302 157.403 107.318 157.408C107.128 159.818 106.855 162.026 106.466 164.172H103.728C102.498 164.172 101.456 165.08 101.287 166.298L101.211 166.854C100.673 170.753 97.8566 173.943 94.0547 174.966C82.1782 178.17 69.2656 182.038 57.3303 186.022C47.3881 189.34 40.1578 197.967 38.6125 208.334C36.4481 222.843 34.2017 238.591 34.2017 238.591H230.948C230.948 238.591 228.495 221.856 226.446 208.163C224.91 197.995 217.895 189.534 208.216 186.065ZM98.6779 144.303C98.248 143.6 98.0945 142.645 98.3734 141.343C98.4834 141.507 98.596 141.665 98.7111 141.809C99.0437 142.228 99.3763 142.561 99.6884 142.878C99.4019 143.359 99.0309 143.837 98.6779 144.303ZM166.539 142.878C166.851 142.561 167.184 142.228 167.516 141.809C167.631 141.663 167.744 141.507 167.854 141.343C168.133 142.645 167.977 143.6 167.549 144.303C167.194 143.837 166.823 143.359 166.539 142.878ZM162.146 151.219C162.023 151.605 161.801 152.045 161.514 152.477C162 151.513 162.256 150.449 162.253 149.369C162.297 149.346 162.338 149.31 162.381 149.284C162.407 149.916 162.356 150.561 162.146 151.219ZM159.352 151.766C159.316 151.943 159.109 153.148 159.109 153.148C159.089 153.166 158.531 152.784 157.965 152.393C158.475 152.216 158.945 151.986 159.362 151.692C159.357 151.718 159.357 151.743 159.352 151.766ZM157.382 154.082C157.377 153.949 157.377 153.805 157.372 153.672C157.635 153.874 157.917 154.12 158.214 154.325C158.127 154.358 158.04 154.396 157.95 154.424C157.758 154.348 157.566 154.238 157.382 154.082ZM160.987 151.505C161.089 150.922 161.22 150.28 161.273 149.643C161.378 149.632 161.486 149.627 161.588 149.607C161.501 150.3 161.289 150.973 160.972 151.613C160.974 151.579 160.982 151.536 160.987 151.505ZM157.446 155.678C157.49 155.67 157.533 155.658 157.574 155.647C157.797 155.716 158.024 155.757 158.262 155.763C158.111 155.898 157.95 156.026 157.809 156.169C157.692 156.126 157.574 156.07 157.459 155.998C157.456 155.893 157.451 155.783 157.446 155.678ZM163.18 148.491C163.215 148.435 163.264 148.397 163.297 148.335C163.346 148.248 163.377 148.166 163.412 148.085C163.561 148.095 163.709 148.105 163.858 148.11C164.106 149.151 164.157 150.223 163.144 151.6C163.41 150.584 163.417 149.512 163.18 148.491ZM172.111 131.529C171.86 131.14 171.561 130.782 171.198 130.477C171.321 130.165 171.436 129.85 171.553 129.536C171.745 129.843 171.919 130.157 172.024 130.503C172.121 130.812 172.152 131.117 172.15 131.416C172.139 131.452 172.124 131.49 172.111 131.529ZM107.116 153.148C107.116 153.148 106.908 151.943 106.873 151.766C106.867 151.743 106.865 151.718 106.86 151.692C107.093 151.856 107.328 152.014 107.592 152.142C107.584 152.39 107.571 152.623 107.561 152.866C107.313 153.038 107.129 153.158 107.116 153.148ZM104.954 149.643C105.007 150.28 105.138 150.922 105.24 151.505C105.245 151.536 105.251 151.579 105.258 151.613C104.938 150.971 104.726 150.3 104.642 149.607C104.741 149.627 104.846 149.632 104.954 149.643ZM102.37 148.11C102.518 148.105 102.667 148.097 102.815 148.085C102.851 148.166 102.879 148.248 102.93 148.335C102.963 148.397 103.009 148.435 103.048 148.491C102.812 149.512 102.82 150.584 103.086 151.6C102.07 150.223 102.122 149.151 102.37 148.11ZM103.843 149.284C103.887 149.31 103.925 149.346 103.971 149.369C103.969 150.451 104.225 151.515 104.711 152.48C104.424 152.048 104.202 151.608 104.079 151.221C103.872 150.561 103.818 149.916 103.843 149.284ZM94.1289 131.027C94.1698 131.127 94.2031 131.232 94.244 131.332C94.198 131.396 94.157 131.462 94.1161 131.529C94.1033 131.49 94.0879 131.452 94.0751 131.416C94.0725 131.288 94.1135 131.155 94.1289 131.027ZM165.459 145.708C165.27 145.081 165.275 144.492 165.7 144.022C166.002 144.439 166.334 144.822 166.649 145.209C166.301 145.426 165.899 145.593 165.459 145.708ZM172.51 129.06C172.347 128.822 172.178 128.584 172.001 128.348C172.098 128.07 172.188 127.786 172.283 127.504C172.418 128.013 172.495 128.533 172.51 129.06ZM151.7 29.7269C151.725 29.7653 151.751 29.8037 151.774 29.8421C151.707 29.7781 151.636 29.7167 151.567 29.6527C151.61 29.6758 151.656 29.7013 151.7 29.7269ZM109.234 39.1447C108.423 39.7127 107.635 40.3113 106.867 40.9356C104.299 39.9531 101.584 37.5763 101.712 34.8055C102.551 37.8501 105.657 39.3391 109.234 39.1447ZM102.293 45.2722C102.073 45.5153 101.85 45.7532 101.635 46.0014C100.975 45.0087 100.459 43.9674 100.136 42.8673C100.689 43.7218 101.408 44.5277 102.293 45.2722ZM99.5784 145.206C99.8931 144.822 100.226 144.436 100.528 144.019C100.952 144.49 100.957 145.078 100.768 145.705C100.326 145.593 99.9263 145.426 99.5784 145.206Z" fill="white"/>
<path d="M242.106 27.8874V75.9611C233.43 70.2353 226.266 62.4959 223.685 53.9531C220.126 42.1765 226.666 33.4521 219.737 23.6915C212.246 13.1403 200.4 17.4207 193.421 7.90057C191.778 5.65935 190.627 2.95504 189.931 0H214.219C229.621 0 242.106 12.4854 242.106 27.8874Z" fill="url(#paint0_linear_80_842)"/>
<path d="M242.106 199.528V273.429C242.106 278.956 240.499 284.106 237.726 288.437C232.773 296.182 224.094 301.317 214.219 301.317H27.8873C26.2269 301.317 24.6023 301.171 23.0211 300.892C27.6673 270.114 84.6292 226.095 139.473 216.455C174.286 210.335 195.347 220.331 232.895 203.954C236.178 202.521 239.24 201.04 242.106 199.528Z" fill="url(#paint1_linear_80_842)"/>
<path d="M213.935 301.317H27.8874C18.0117 301.317 9.33591 296.185 4.38014 288.44C1.60675 284.106 0 278.956 0 273.429V31.4923C21.6831 53.769 39.3801 83.2554 46.0526 113.164C54.9893 153.209 37.5456 164.367 51.3154 190.796C75.9074 238 139.596 217.87 189.473 268.428C198.515 277.59 207.04 289.013 213.935 301.317Z" fill="url(#paint2_linear_80_842)"/>
<path d="M149.07 301.317H27.8874C18.0117 301.317 9.33591 296.184 4.38014 288.44C1.60675 284.106 0 278.956 0 273.429V119.084C5.1016 129.648 9.05444 140.609 11.5131 151.628C20.4499 191.671 3.00623 202.828 16.7759 229.26C40.4137 274.632 100.175 257.795 149.07 301.317Z" fill="url(#paint3_linear_80_842)"/>
<path d="M30.1171 240.2H32.8891V250H30.1171V240.2ZM26.3371 250H23.5651V240.2H26.3371V250ZM30.3131 246.178H26.1411V243.882H30.3131V246.178ZM40.0524 250V248.586L39.8704 248.236V245.632C39.8704 245.212 39.7397 244.89 39.4784 244.666C39.2264 244.433 38.8204 244.316 38.2604 244.316C37.8964 244.316 37.5277 244.377 37.1544 244.498C36.781 244.61 36.4637 244.769 36.2024 244.974L35.3064 243.168C35.7357 242.888 36.249 242.673 36.8464 242.524C37.453 242.365 38.055 242.286 38.6524 242.286C39.8844 242.286 40.8364 242.571 41.5084 243.14C42.1897 243.7 42.5304 244.582 42.5304 245.786V250H40.0524ZM37.8124 250.126C37.2057 250.126 36.6924 250.023 36.2724 249.818C35.8524 249.613 35.5304 249.333 35.3064 248.978C35.0917 248.623 34.9844 248.227 34.9844 247.788C34.9844 247.321 35.101 246.92 35.3344 246.584C35.577 246.239 35.9457 245.977 36.4404 245.8C36.935 245.613 37.5744 245.52 38.3584 245.52H40.1504V246.906H38.7224C38.293 246.906 37.9897 246.976 37.8124 247.116C37.6444 247.256 37.5604 247.443 37.5604 247.676C37.5604 247.909 37.649 248.096 37.8264 248.236C38.0037 248.376 38.2464 248.446 38.5544 248.446C38.8437 248.446 39.105 248.376 39.3384 248.236C39.581 248.087 39.7584 247.863 39.8704 247.564L40.2344 248.544C40.0944 249.067 39.819 249.463 39.4084 249.734C39.007 249.995 38.475 250.126 37.8124 250.126ZM47.6674 250.126C47.0234 250.126 46.3934 250.051 45.7774 249.902C45.1707 249.753 44.6807 249.566 44.3074 249.342L45.1054 247.522C45.46 247.737 45.8754 247.909 46.3514 248.04C46.8274 248.161 47.294 248.222 47.7514 248.222C48.1994 248.222 48.5074 248.175 48.6754 248.082C48.8527 247.989 48.9414 247.863 48.9414 247.704C48.9414 247.555 48.8574 247.447 48.6894 247.382C48.5307 247.307 48.316 247.251 48.0454 247.214C47.784 247.177 47.4947 247.135 47.1774 247.088C46.86 247.041 46.538 246.981 46.2114 246.906C45.894 246.822 45.6 246.701 45.3294 246.542C45.068 246.374 44.858 246.15 44.6994 245.87C44.5407 245.59 44.4614 245.235 44.4614 244.806C44.4614 244.321 44.6014 243.891 44.8814 243.518C45.1707 243.135 45.5907 242.837 46.1414 242.622C46.692 242.398 47.364 242.286 48.1574 242.286C48.6894 242.286 49.226 242.342 49.7674 242.454C50.318 242.557 50.78 242.715 51.1534 242.93L50.3554 244.736C49.982 244.521 49.6087 244.377 49.2354 244.302C48.862 244.218 48.5074 244.176 48.1714 244.176C47.7234 244.176 47.406 244.227 47.2194 244.33C47.042 244.433 46.9534 244.559 46.9534 244.708C46.9534 244.857 47.0327 244.974 47.1914 245.058C47.35 245.133 47.56 245.193 47.8214 245.24C48.092 245.277 48.386 245.319 48.7034 245.366C49.0207 245.403 49.338 245.464 49.6554 245.548C49.982 245.632 50.276 245.758 50.5374 245.926C50.808 246.085 51.0227 246.304 51.1814 246.584C51.34 246.855 51.4194 247.205 51.4194 247.634C51.4194 248.101 51.2747 248.521 50.9854 248.894C50.7054 249.267 50.2854 249.566 49.7254 249.79C49.1747 250.014 48.4887 250.126 47.6674 250.126ZM57.8996 250V248.586L57.7176 248.236V245.632C57.7176 245.212 57.587 244.89 57.3256 244.666C57.0736 244.433 56.6676 244.316 56.1076 244.316C55.7436 244.316 55.375 244.377 55.0016 244.498C54.6283 244.61 54.311 244.769 54.0496 244.974L53.1536 243.168C53.583 242.888 54.0963 242.673 54.6936 242.524C55.3003 242.365 55.9023 242.286 56.4996 242.286C57.7316 242.286 58.6836 242.571 59.3556 243.14C60.037 243.7 60.3776 244.582 60.3776 245.786V250H57.8996ZM55.6596 250.126C55.053 250.126 54.5396 250.023 54.1196 249.818C53.6996 249.613 53.3776 249.333 53.1536 248.978C52.939 248.623 52.8316 248.227 52.8316 247.788C52.8316 247.321 52.9483 246.92 53.1816 246.584C53.4243 246.239 53.793 245.977 54.2876 245.8C54.7823 245.613 55.4216 245.52 56.2056 245.52H57.9976V246.906H56.5696C56.1403 246.906 55.837 246.976 55.6596 247.116C55.4916 247.256 55.4076 247.443 55.4076 247.676C55.4076 247.909 55.4963 248.096 55.6736 248.236C55.851 248.376 56.0936 248.446 56.4016 248.446C56.691 248.446 56.9523 248.376 57.1856 248.236C57.4283 248.087 57.6056 247.863 57.7176 247.564L58.0816 248.544C57.9416 249.067 57.6663 249.463 57.2556 249.734C56.8543 249.995 56.3223 250.126 55.6596 250.126ZM67.6986 242.286C68.2866 242.286 68.8186 242.407 69.2946 242.65C69.7706 242.883 70.144 243.247 70.4146 243.742C70.6946 244.237 70.8346 244.876 70.8346 245.66V250H68.1746V246.094C68.1746 245.553 68.0626 245.161 67.8386 244.918C67.624 244.666 67.3206 244.54 66.9286 244.54C66.6486 244.54 66.392 244.605 66.1586 244.736C65.9253 244.857 65.7433 245.049 65.6126 245.31C65.482 245.571 65.4166 245.912 65.4166 246.332V250H62.7566V242.412H65.2906V244.568L64.8006 243.938C65.09 243.387 65.4866 242.977 65.9906 242.706C66.4946 242.426 67.064 242.286 67.6986 242.286ZM84.6569 240.2H87.4289V250H84.6569V240.2ZM80.8769 250H78.1049V240.2H80.8769V250ZM84.8529 246.178H80.6809V243.882H84.8529V246.178ZM93.1502 250.126C92.5342 250.126 91.9789 250.005 91.4842 249.762C90.9989 249.519 90.6162 249.141 90.3362 248.628C90.0655 248.105 89.9302 247.447 89.9302 246.654V242.412H92.5902V246.22C92.5902 246.808 92.6975 247.228 92.9122 247.48C93.1362 247.732 93.4489 247.858 93.8502 247.858C94.1115 247.858 94.3495 247.797 94.5642 247.676C94.7789 247.555 94.9515 247.363 95.0822 247.102C95.2129 246.831 95.2782 246.486 95.2782 246.066V242.412H97.9382V250H95.4042V247.858L95.8942 248.46C95.6329 249.02 95.2549 249.44 94.7602 249.72C94.2655 249.991 93.7289 250.126 93.1502 250.126ZM95.4182 241.516C95.1102 241.516 94.8489 241.418 94.6342 241.222C94.4195 241.017 94.3122 240.751 94.3122 240.424C94.3122 240.097 94.4195 239.831 94.6342 239.626C94.8489 239.421 95.1102 239.318 95.4182 239.318C95.7262 239.318 95.9875 239.421 96.2022 239.626C96.4169 239.831 96.5242 240.097 96.5242 240.424C96.5242 240.751 96.4169 241.017 96.2022 241.222C95.9875 241.418 95.7262 241.516 95.4182 241.516ZM92.4502 241.516C92.1422 241.516 91.8809 241.418 91.6662 241.222C91.4515 241.017 91.3442 240.751 91.3442 240.424C91.3442 240.097 91.4515 239.831 91.6662 239.626C91.8809 239.421 92.1422 239.318 92.4502 239.318C92.7582 239.318 93.0195 239.421 93.2342 239.626C93.4489 239.831 93.5562 240.097 93.5562 240.424C93.5562 240.751 93.4489 241.017 93.2342 241.222C93.0195 241.418 92.7582 241.516 92.4502 241.516ZM103.11 250.126C102.466 250.126 101.836 250.051 101.22 249.902C100.613 249.753 100.123 249.566 99.7496 249.342L100.548 247.522C100.902 247.737 101.318 247.909 101.794 248.04C102.27 248.161 102.736 248.222 103.194 248.222C103.642 248.222 103.95 248.175 104.118 248.082C104.295 247.989 104.384 247.863 104.384 247.704C104.384 247.555 104.3 247.447 104.132 247.382C103.973 247.307 103.758 247.251 103.488 247.214C103.226 247.177 102.937 247.135 102.62 247.088C102.302 247.041 101.98 246.981 101.654 246.906C101.336 246.822 101.042 246.701 100.772 246.542C100.51 246.374 100.3 246.15 100.142 245.87C99.9829 245.59 99.9036 245.235 99.9036 244.806C99.9036 244.321 100.044 243.891 100.324 243.518C100.613 243.135 101.033 242.837 101.584 242.622C102.134 242.398 102.806 242.286 103.6 242.286C104.132 242.286 104.668 242.342 105.21 242.454C105.76 242.557 106.222 242.715 106.596 242.93L105.798 244.736C105.424 244.521 105.051 244.377 104.678 244.302C104.304 244.218 103.95 244.176 103.614 244.176C103.166 244.176 102.848 244.227 102.662 244.33C102.484 244.433 102.396 244.559 102.396 244.708C102.396 244.857 102.475 244.974 102.634 245.058C102.792 245.133 103.002 245.193 103.264 245.24C103.534 245.277 103.828 245.319 104.146 245.366C104.463 245.403 104.78 245.464 105.098 245.548C105.424 245.632 105.718 245.758 105.98 245.926C106.25 246.085 106.465 246.304 106.624 246.584C106.782 246.855 106.862 247.205 106.862 247.634C106.862 248.101 106.717 248.521 106.428 248.894C106.148 249.267 105.728 249.566 105.168 249.79C104.617 250.014 103.931 250.126 103.11 250.126ZM112.684 250.126C111.788 250.126 111.004 249.958 110.332 249.622C109.669 249.277 109.151 248.81 108.778 248.222C108.414 247.625 108.232 246.948 108.232 246.192C108.232 245.436 108.409 244.764 108.764 244.176C109.128 243.579 109.627 243.117 110.262 242.79C110.896 242.454 111.61 242.286 112.404 242.286C113.15 242.286 113.832 242.44 114.448 242.748C115.064 243.047 115.554 243.49 115.918 244.078C116.282 244.666 116.464 245.38 116.464 246.22C116.464 246.313 116.459 246.421 116.45 246.542C116.44 246.663 116.431 246.775 116.422 246.878H110.416V245.478H115.008L114 245.87C114.009 245.525 113.944 245.226 113.804 244.974C113.673 244.722 113.486 244.526 113.244 244.386C113.01 244.246 112.735 244.176 112.418 244.176C112.1 244.176 111.82 244.246 111.578 244.386C111.344 244.526 111.162 244.727 111.032 244.988C110.901 245.24 110.836 245.539 110.836 245.884V246.29C110.836 246.663 110.91 246.985 111.06 247.256C111.218 247.527 111.442 247.737 111.732 247.886C112.021 248.026 112.366 248.096 112.768 248.096C113.141 248.096 113.458 248.045 113.72 247.942C113.99 247.83 114.256 247.662 114.518 247.438L115.918 248.894C115.554 249.295 115.106 249.603 114.574 249.818C114.042 250.023 113.412 250.126 112.684 250.126ZM119.556 252.842C119.154 252.842 118.748 252.777 118.338 252.646C117.936 252.525 117.61 252.361 117.358 252.156L118.282 250.294C118.44 250.434 118.622 250.541 118.828 250.616C119.042 250.7 119.252 250.742 119.458 250.742C119.747 250.742 119.976 250.677 120.144 250.546C120.312 250.415 120.456 250.21 120.578 249.93L120.928 249.048L121.138 248.782L123.714 242.412H126.248L122.972 250.308C122.71 250.961 122.407 251.47 122.062 251.834C121.726 252.207 121.348 252.469 120.928 252.618C120.517 252.767 120.06 252.842 119.556 252.842ZM120.592 250.322L117.246 242.412H119.976L122.44 248.544L120.592 250.322ZM127.635 250V242.412H130.295V250H127.635ZM128.965 241.572C128.48 241.572 128.088 241.437 127.789 241.166C127.49 240.895 127.341 240.559 127.341 240.158C127.341 239.757 127.49 239.421 127.789 239.15C128.088 238.879 128.48 238.744 128.965 238.744C129.45 238.744 129.842 238.875 130.141 239.136C130.44 239.388 130.589 239.715 130.589 240.116C130.589 240.536 130.44 240.886 130.141 241.166C129.852 241.437 129.46 241.572 128.965 241.572ZM137.666 242.286C138.254 242.286 138.786 242.407 139.262 242.65C139.738 242.883 140.111 243.247 140.382 243.742C140.662 244.237 140.802 244.876 140.802 245.66V250H138.142V246.094C138.142 245.553 138.03 245.161 137.806 244.918C137.591 244.666 137.288 244.54 136.896 244.54C136.616 244.54 136.359 244.605 136.126 244.736C135.892 244.857 135.71 245.049 135.58 245.31C135.449 245.571 135.384 245.912 135.384 246.332V250H132.724V242.412H135.258V244.568L134.768 243.938C135.057 243.387 135.454 242.977 135.958 242.706C136.462 242.426 137.031 242.286 137.666 242.286ZM150.55 250V245.856L151.194 247.522L146.812 240.2H149.738L152.902 245.506H151.208L154.386 240.2H157.074L152.706 247.522L153.322 245.856V250H150.55ZM161.053 250.126C160.437 250.126 159.882 250.005 159.387 249.762C158.902 249.519 158.519 249.141 158.239 248.628C157.968 248.105 157.833 247.447 157.833 246.654V242.412H160.493V246.22C160.493 246.808 160.6 247.228 160.815 247.48C161.039 247.732 161.352 247.858 161.753 247.858C162.014 247.858 162.252 247.797 162.467 247.676C162.682 247.555 162.854 247.363 162.985 247.102C163.116 246.831 163.181 246.486 163.181 246.066V242.412H165.841V250H163.307V247.858L163.797 248.46C163.536 249.02 163.158 249.44 162.663 249.72C162.168 249.991 161.632 250.126 161.053 250.126ZM168.254 250V242.412H170.788V244.624L170.41 243.994C170.634 243.425 170.998 243 171.502 242.72C172.006 242.431 172.618 242.286 173.336 242.286V244.68C173.215 244.661 173.108 244.652 173.014 244.652C172.93 244.643 172.837 244.638 172.734 244.638C172.193 244.638 171.754 244.787 171.418 245.086C171.082 245.375 170.914 245.851 170.914 246.514V250H168.254ZM178.37 250.126C177.679 250.126 177.049 249.967 176.48 249.65C175.92 249.323 175.472 248.871 175.136 248.292C174.8 247.704 174.632 247.004 174.632 246.192C174.632 245.389 174.8 244.699 175.136 244.12C175.472 243.532 175.92 243.079 176.48 242.762C177.049 242.445 177.679 242.286 178.37 242.286C179.023 242.286 179.574 242.426 180.022 242.706C180.479 242.986 180.824 243.415 181.058 243.994C181.291 244.573 181.408 245.305 181.408 246.192C181.408 247.097 181.296 247.839 181.072 248.418C180.848 248.997 180.512 249.426 180.064 249.706C179.616 249.986 179.051 250.126 178.37 250.126ZM178.93 248.012C179.228 248.012 179.494 247.942 179.728 247.802C179.97 247.662 180.162 247.457 180.302 247.186C180.442 246.906 180.512 246.575 180.512 246.192C180.512 245.809 180.442 245.487 180.302 245.226C180.162 244.955 179.97 244.75 179.728 244.61C179.494 244.47 179.228 244.4 178.93 244.4C178.622 244.4 178.346 244.47 178.104 244.61C177.87 244.75 177.684 244.955 177.544 245.226C177.404 245.487 177.334 245.809 177.334 246.192C177.334 246.575 177.404 246.906 177.544 247.186C177.684 247.457 177.87 247.662 178.104 247.802C178.346 247.942 178.622 248.012 178.93 248.012ZM180.596 250V248.698L180.61 246.192L180.47 243.686V239.612H183.13V250H180.596ZM190.175 250V248.586L189.993 248.236V245.632C189.993 245.212 189.862 244.89 189.601 244.666C189.349 244.433 188.943 244.316 188.383 244.316C188.019 244.316 187.65 244.377 187.277 244.498C186.904 244.61 186.586 244.769 186.325 244.974L185.429 243.168C185.858 242.888 186.372 242.673 186.969 242.524C187.576 242.365 188.178 242.286 188.775 242.286C190.007 242.286 190.959 242.571 191.631 243.14C192.312 243.7 192.653 244.582 192.653 245.786V250H190.175ZM187.935 250.126C187.328 250.126 186.815 250.023 186.395 249.818C185.975 249.613 185.653 249.333 185.429 248.978C185.214 248.623 185.107 248.227 185.107 247.788C185.107 247.321 185.224 246.92 185.457 246.584C185.7 246.239 186.068 245.977 186.563 245.8C187.058 245.613 187.697 245.52 188.481 245.52H190.273V246.906H188.845C188.416 246.906 188.112 246.976 187.935 247.116C187.767 247.256 187.683 247.443 187.683 247.676C187.683 247.909 187.772 248.096 187.949 248.236C188.126 248.376 188.369 248.446 188.677 248.446C188.966 248.446 189.228 248.376 189.461 248.236C189.704 248.087 189.881 247.863 189.993 247.564L190.357 248.544C190.217 249.067 189.942 249.463 189.531 249.734C189.13 249.995 188.598 250.126 187.935 250.126ZM198.838 252.842C198.11 252.842 197.414 252.758 196.752 252.59C196.098 252.422 195.538 252.175 195.072 251.848L196.038 249.986C196.355 250.238 196.747 250.434 197.214 250.574C197.69 250.723 198.152 250.798 198.6 250.798C199.318 250.798 199.836 250.639 200.154 250.322C200.471 250.014 200.63 249.561 200.63 248.964V248.068L200.77 245.94L200.756 243.798V242.412H203.29V248.614C203.29 250.051 202.902 251.115 202.128 251.806C201.353 252.497 200.256 252.842 198.838 252.842ZM198.376 249.608C197.704 249.608 197.083 249.459 196.514 249.16C195.954 248.852 195.501 248.427 195.156 247.886C194.82 247.335 194.652 246.687 194.652 245.94C194.652 245.193 194.82 244.549 195.156 244.008C195.501 243.457 195.954 243.033 196.514 242.734C197.083 242.435 197.704 242.286 198.376 242.286C199.02 242.286 199.57 242.417 200.028 242.678C200.485 242.93 200.83 243.327 201.064 243.868C201.306 244.409 201.428 245.1 201.428 245.94C201.428 246.78 201.306 247.471 201.064 248.012C200.83 248.553 200.485 248.955 200.028 249.216C199.57 249.477 199.02 249.608 198.376 249.608ZM199.006 247.494C199.323 247.494 199.603 247.429 199.846 247.298C200.098 247.167 200.294 246.985 200.434 246.752C200.583 246.519 200.658 246.248 200.658 245.94C200.658 245.632 200.583 245.361 200.434 245.128C200.294 244.895 200.098 244.717 199.846 244.596C199.603 244.465 199.323 244.4 199.006 244.4C198.688 244.4 198.404 244.465 198.152 244.596C197.9 244.717 197.699 244.895 197.55 245.128C197.41 245.361 197.34 245.632 197.34 245.94C197.34 246.248 197.41 246.519 197.55 246.752C197.699 246.985 197.9 247.167 198.152 247.298C198.404 247.429 198.688 247.494 199.006 247.494ZM208.891 250.126C208.275 250.126 207.719 250.005 207.225 249.762C206.739 249.519 206.357 249.141 206.077 248.628C205.806 248.105 205.671 247.447 205.671 246.654V242.412H208.331V246.22C208.331 246.808 208.438 247.228 208.653 247.48C208.877 247.732 209.189 247.858 209.591 247.858C209.852 247.858 210.09 247.797 210.305 247.676C210.519 247.555 210.692 247.363 210.823 247.102C210.953 246.831 211.019 246.486 211.019 246.066V242.412H213.679V250H211.145V247.858L211.635 248.46C211.373 249.02 210.995 249.44 210.501 249.72C210.006 249.991 209.469 250.126 208.891 250.126ZM211.159 241.516C210.851 241.516 210.589 241.418 210.375 241.222C210.16 241.017 210.053 240.751 210.053 240.424C210.053 240.097 210.16 239.831 210.375 239.626C210.589 239.421 210.851 239.318 211.159 239.318C211.467 239.318 211.728 239.421 211.943 239.626C212.157 239.831 212.265 240.097 212.265 240.424C212.265 240.751 212.157 241.017 211.943 241.222C211.728 241.418 211.467 241.516 211.159 241.516ZM208.191 241.516C207.883 241.516 207.621 241.418 207.407 241.222C207.192 241.017 207.085 240.751 207.085 240.424C207.085 240.097 207.192 239.831 207.407 239.626C207.621 239.421 207.883 239.318 208.191 239.318C208.499 239.318 208.76 239.421 208.975 239.626C209.189 239.831 209.297 240.097 209.297 240.424C209.297 240.751 209.189 241.017 208.975 241.222C208.76 241.418 208.499 241.516 208.191 241.516ZM216.092 250V239.612H218.752V250H216.092Z" fill="white"/>
<path d="M66.5184 273V263.2H70.8024C71.8664 263.2 72.7998 263.405 73.6024 263.816C74.4051 264.227 75.0304 264.796 75.4784 265.524C75.9264 266.252 76.1504 267.111 76.1504 268.1C76.1504 269.08 75.9264 269.939 75.4784 270.676C75.0304 271.404 74.4051 271.973 73.6024 272.384C72.7998 272.795 71.8664 273 70.8024 273H66.5184ZM68.3384 271.46H70.7184C71.4558 271.46 72.0904 271.32 72.6224 271.04C73.1638 270.76 73.5791 270.368 73.8684 269.864C74.1671 269.36 74.3164 268.772 74.3164 268.1C74.3164 267.419 74.1671 266.831 73.8684 266.336C73.5791 265.832 73.1638 265.44 72.6224 265.16C72.0904 264.88 71.4558 264.74 70.7184 264.74H68.3384V271.46ZM83.2228 273V271.488L83.1248 271.166V268.52C83.1248 268.007 82.9708 267.61 82.6628 267.33C82.3548 267.041 81.8882 266.896 81.2628 266.896C80.8428 266.896 80.4275 266.961 80.0168 267.092C79.6155 267.223 79.2748 267.405 78.9948 267.638L78.3088 266.364C78.7102 266.056 79.1862 265.827 79.7368 265.678C80.2968 265.519 80.8755 265.44 81.4728 265.44C82.5555 265.44 83.3908 265.701 83.9788 266.224C84.5762 266.737 84.8748 267.535 84.8748 268.618V273H83.2228ZM80.8708 273.098C80.3108 273.098 79.8208 273.005 79.4008 272.818C78.9808 272.622 78.6542 272.356 78.4208 272.02C78.1968 271.675 78.0848 271.287 78.0848 270.858C78.0848 270.438 78.1828 270.06 78.3788 269.724C78.5842 269.388 78.9155 269.122 79.3728 268.926C79.8302 268.73 80.4368 268.632 81.1928 268.632H83.3628V269.794H81.3188C80.7215 269.794 80.3202 269.892 80.1148 270.088C79.9095 270.275 79.8068 270.508 79.8068 270.788C79.8068 271.105 79.9328 271.357 80.1848 271.544C80.4368 271.731 80.7868 271.824 81.2348 271.824C81.6642 271.824 82.0468 271.726 82.3828 271.53C82.7282 271.334 82.9755 271.045 83.1248 270.662L83.4188 271.712C83.2508 272.151 82.9475 272.491 82.5088 272.734C82.0795 272.977 81.5335 273.098 80.8708 273.098ZM90.6348 273.098C89.8134 273.098 89.1788 272.888 88.7308 272.468C88.2828 272.039 88.0588 271.409 88.0588 270.578V263.872H89.8088V270.536C89.8088 270.891 89.8974 271.166 90.0748 271.362C90.2614 271.558 90.5181 271.656 90.8448 271.656C91.2368 271.656 91.5634 271.553 91.8248 271.348L92.3148 272.594C92.1094 272.762 91.8574 272.888 91.5588 272.972C91.2601 273.056 90.9521 273.098 90.6348 273.098ZM86.8268 266.98V265.58H91.8108V266.98H86.8268ZM99.0603 273V271.488L98.9623 271.166V268.52C98.9623 268.007 98.8083 267.61 98.5003 267.33C98.1923 267.041 97.7257 266.896 97.1003 266.896C96.6803 266.896 96.265 266.961 95.8543 267.092C95.453 267.223 95.1123 267.405 94.8323 267.638L94.1463 266.364C94.5477 266.056 95.0237 265.827 95.5743 265.678C96.1343 265.519 96.713 265.44 97.3103 265.44C98.393 265.44 99.2283 265.701 99.8163 266.224C100.414 266.737 100.712 267.535 100.712 268.618V273H99.0603ZM96.7083 273.098C96.1483 273.098 95.6583 273.005 95.2383 272.818C94.8183 272.622 94.4917 272.356 94.2583 272.02C94.0343 271.675 93.9223 271.287 93.9223 270.858C93.9223 270.438 94.0203 270.06 94.2163 269.724C94.4217 269.388 94.753 269.122 95.2103 268.926C95.6677 268.73 96.2743 268.632 97.0303 268.632H99.2003V269.794H97.1563C96.559 269.794 96.1577 269.892 95.9523 270.088C95.747 270.275 95.6443 270.508 95.6443 270.788C95.6443 271.105 95.7703 271.357 96.0223 271.544C96.2743 271.731 96.6243 271.824 97.0723 271.824C97.5017 271.824 97.8843 271.726 98.2203 271.53C98.5657 271.334 98.813 271.045 98.9623 270.662L99.2563 271.712C99.0883 272.151 98.785 272.491 98.3463 272.734C97.917 272.977 97.371 273.098 96.7083 273.098ZM111.433 273.14C110.668 273.14 109.935 273.033 109.235 272.818C108.535 272.594 107.98 272.309 107.569 271.964L108.199 270.55C108.591 270.858 109.077 271.115 109.655 271.32C110.234 271.525 110.827 271.628 111.433 271.628C111.947 271.628 112.362 271.572 112.679 271.46C112.997 271.348 113.23 271.199 113.379 271.012C113.529 270.816 113.603 270.597 113.603 270.354C113.603 270.055 113.496 269.817 113.281 269.64C113.067 269.453 112.787 269.309 112.441 269.206C112.105 269.094 111.727 268.991 111.307 268.898C110.897 268.805 110.481 268.697 110.061 268.576C109.651 268.445 109.273 268.282 108.927 268.086C108.591 267.881 108.316 267.61 108.101 267.274C107.887 266.938 107.779 266.509 107.779 265.986C107.779 265.454 107.919 264.969 108.199 264.53C108.489 264.082 108.923 263.727 109.501 263.466C110.089 263.195 110.831 263.06 111.727 263.06C112.315 263.06 112.899 263.135 113.477 263.284C114.056 263.433 114.56 263.648 114.989 263.928L114.415 265.342C113.977 265.081 113.524 264.889 113.057 264.768C112.591 264.637 112.143 264.572 111.713 264.572C111.209 264.572 110.799 264.633 110.481 264.754C110.173 264.875 109.945 265.034 109.795 265.23C109.655 265.426 109.585 265.65 109.585 265.902C109.585 266.201 109.688 266.443 109.893 266.63C110.108 266.807 110.383 266.947 110.719 267.05C111.065 267.153 111.447 267.255 111.867 267.358C112.287 267.451 112.703 267.559 113.113 267.68C113.533 267.801 113.911 267.96 114.247 268.156C114.593 268.352 114.868 268.618 115.073 268.954C115.288 269.29 115.395 269.715 115.395 270.228C115.395 270.751 115.251 271.236 114.961 271.684C114.681 272.123 114.247 272.477 113.659 272.748C113.071 273.009 112.329 273.14 111.433 273.14ZM121.162 273.098C120.378 273.098 119.678 272.935 119.062 272.608C118.455 272.272 117.979 271.815 117.634 271.236C117.289 270.657 117.116 269.999 117.116 269.262C117.116 268.515 117.289 267.857 117.634 267.288C117.979 266.709 118.455 266.257 119.062 265.93C119.678 265.603 120.378 265.44 121.162 265.44C121.89 265.44 122.529 265.589 123.08 265.888C123.64 266.177 124.065 266.607 124.354 267.176L123.01 267.96C122.786 267.605 122.511 267.344 122.184 267.176C121.867 267.008 121.521 266.924 121.148 266.924C120.719 266.924 120.331 267.017 119.986 267.204C119.641 267.391 119.37 267.661 119.174 268.016C118.978 268.361 118.88 268.777 118.88 269.262C118.88 269.747 118.978 270.167 119.174 270.522C119.37 270.867 119.641 271.133 119.986 271.32C120.331 271.507 120.719 271.6 121.148 271.6C121.521 271.6 121.867 271.516 122.184 271.348C122.511 271.18 122.786 270.919 123.01 270.564L124.354 271.348C124.065 271.908 123.64 272.342 123.08 272.65C122.529 272.949 121.89 273.098 121.162 273.098ZM126.498 273V265.524H128.248V273H126.498ZM127.38 264.292C127.054 264.292 126.783 264.189 126.568 263.984C126.363 263.779 126.26 263.531 126.26 263.242C126.26 262.943 126.363 262.696 126.568 262.5C126.783 262.295 127.054 262.192 127.38 262.192C127.707 262.192 127.973 262.29 128.178 262.486C128.393 262.673 128.5 262.911 128.5 263.2C128.5 263.508 128.398 263.769 128.192 263.984C127.987 264.189 127.716 264.292 127.38 264.292ZM134.759 273.098C133.929 273.098 133.201 272.935 132.575 272.608C131.959 272.272 131.479 271.815 131.133 271.236C130.797 270.657 130.629 269.999 130.629 269.262C130.629 268.515 130.793 267.857 131.119 267.288C131.455 266.709 131.913 266.257 132.491 265.93C133.079 265.603 133.747 265.44 134.493 265.44C135.221 265.44 135.87 265.599 136.439 265.916C137.009 266.233 137.457 266.681 137.783 267.26C138.11 267.839 138.273 268.52 138.273 269.304C138.273 269.379 138.269 269.463 138.259 269.556C138.259 269.649 138.255 269.738 138.245 269.822H132.015V268.66H137.321L136.635 269.024C136.645 268.595 136.556 268.217 136.369 267.89C136.183 267.563 135.926 267.307 135.599 267.12C135.282 266.933 134.913 266.84 134.493 266.84C134.064 266.84 133.686 266.933 133.359 267.12C133.042 267.307 132.79 267.568 132.603 267.904C132.426 268.231 132.337 268.618 132.337 269.066V269.346C132.337 269.794 132.44 270.191 132.645 270.536C132.851 270.881 133.14 271.147 133.513 271.334C133.887 271.521 134.316 271.614 134.801 271.614C135.221 271.614 135.599 271.549 135.935 271.418C136.271 271.287 136.57 271.082 136.831 270.802L137.769 271.88C137.433 272.272 137.009 272.575 136.495 272.79C135.991 272.995 135.413 273.098 134.759 273.098ZM144.896 265.44C145.494 265.44 146.026 265.557 146.492 265.79C146.968 266.023 147.342 266.383 147.612 266.868C147.883 267.344 148.018 267.96 148.018 268.716V273H146.268V268.94C146.268 268.277 146.11 267.783 145.792 267.456C145.484 267.129 145.05 266.966 144.49 266.966C144.08 266.966 143.716 267.05 143.398 267.218C143.081 267.386 142.834 267.638 142.656 267.974C142.488 268.301 142.404 268.716 142.404 269.22V273H140.654V265.524H142.32V267.54L142.026 266.924C142.288 266.448 142.666 266.084 143.16 265.832C143.664 265.571 144.243 265.44 144.896 265.44ZM153.752 273.098C152.931 273.098 152.296 272.888 151.848 272.468C151.4 272.039 151.176 271.409 151.176 270.578V263.872H152.926V270.536C152.926 270.891 153.015 271.166 153.192 271.362C153.379 271.558 153.636 271.656 153.962 271.656C154.354 271.656 154.681 271.553 154.942 271.348L155.432 272.594C155.227 272.762 154.975 272.888 154.676 272.972C154.378 273.056 154.07 273.098 153.752 273.098ZM149.944 266.98V265.58H154.928V266.98H149.944ZM157.572 273V265.524H159.322V273H157.572ZM158.454 264.292C158.127 264.292 157.857 264.189 157.642 263.984C157.437 263.779 157.334 263.531 157.334 263.242C157.334 262.943 157.437 262.696 157.642 262.5C157.857 262.295 158.127 262.192 158.454 262.192C158.781 262.192 159.047 262.29 159.252 262.486C159.467 262.673 159.574 262.911 159.574 263.2C159.574 263.508 159.471 263.769 159.266 263.984C159.061 264.189 158.79 264.292 158.454 264.292ZM164.629 273.098C164.003 273.098 163.401 273.019 162.823 272.86C162.253 272.692 161.801 272.491 161.465 272.258L162.137 270.928C162.473 271.143 162.874 271.32 163.341 271.46C163.807 271.6 164.274 271.67 164.741 271.67C165.291 271.67 165.688 271.595 165.931 271.446C166.183 271.297 166.309 271.096 166.309 270.844C166.309 270.639 166.225 270.485 166.057 270.382C165.889 270.27 165.669 270.186 165.399 270.13C165.128 270.074 164.825 270.023 164.489 269.976C164.162 269.929 163.831 269.869 163.495 269.794C163.168 269.71 162.869 269.593 162.599 269.444C162.328 269.285 162.109 269.075 161.941 268.814C161.773 268.553 161.689 268.207 161.689 267.778C161.689 267.302 161.824 266.891 162.095 266.546C162.365 266.191 162.743 265.921 163.229 265.734C163.723 265.538 164.307 265.44 164.979 265.44C165.483 265.44 165.991 265.496 166.505 265.608C167.018 265.72 167.443 265.879 167.779 266.084L167.107 267.414C166.752 267.199 166.393 267.055 166.029 266.98C165.674 266.896 165.319 266.854 164.965 266.854C164.433 266.854 164.036 266.933 163.775 267.092C163.523 267.251 163.397 267.451 163.397 267.694C163.397 267.918 163.481 268.086 163.649 268.198C163.817 268.31 164.036 268.399 164.307 268.464C164.577 268.529 164.876 268.585 165.203 268.632C165.539 268.669 165.87 268.73 166.197 268.814C166.523 268.898 166.822 269.015 167.093 269.164C167.373 269.304 167.597 269.505 167.765 269.766C167.933 270.027 168.017 270.368 168.017 270.788C168.017 271.255 167.877 271.661 167.597 272.006C167.326 272.351 166.939 272.622 166.435 272.818C165.931 273.005 165.329 273.098 164.629 273.098ZM173.038 273.098C172.217 273.098 171.582 272.888 171.134 272.468C170.686 272.039 170.462 271.409 170.462 270.578V263.872H172.212V270.536C172.212 270.891 172.301 271.166 172.478 271.362C172.665 271.558 172.921 271.656 173.248 271.656C173.64 271.656 173.967 271.553 174.228 271.348L174.718 272.594C174.513 272.762 174.261 272.888 173.962 272.972C173.663 273.056 173.355 273.098 173.038 273.098ZM169.23 266.98V265.58H174.214V266.98H169.23Z" fill="black"/>
<defs>
<linearGradient id="paint0_linear_80_842" x1="189.931" y1="37.9806" x2="242.106" y2="37.9806" gradientUnits="userSpaceOnUse">
<stop stop-color="#FFC602"/>
<stop offset="1" stop-color="#FF5700"/>
</linearGradient>
<linearGradient id="paint1_linear_80_842" x1="23.0208" y1="250.422" x2="242.106" y2="250.422" gradientUnits="userSpaceOnUse">
<stop stop-color="#FFC602"/>
<stop offset="1" stop-color="#FF5700"/>
</linearGradient>
<linearGradient id="paint2_linear_80_842" x1="-0.000332602" y1="166.405" x2="213.934" y2="166.405" gradientUnits="userSpaceOnUse">
<stop stop-color="#FFC602"/>
<stop offset="1" stop-color="#FF5700"/>
</linearGradient>
<linearGradient id="paint3_linear_80_842" x1="-0.000332602" y1="210.2" x2="149.069" y2="210.2" gradientUnits="userSpaceOnUse">
<stop stop-color="#FFC602"/>
<stop offset="1" stop-color="#FF5700"/>
</linearGradient>
</defs>
</svg>
