<svg width="243" height="302" viewBox="0 0 243 302" fill="none" xmlns="http://www.w3.org/2000/svg">
<path d="M242.106 27.8874V273.429C242.106 278.956 240.499 284.106 237.726 288.437C232.773 296.182 224.094 301.317 214.219 301.317H27.8874C26.2269 301.317 24.6023 301.171 23.0212 300.892C15.1999 299.518 8.50181 294.882 4.38011 288.44C1.60672 284.106 0 278.956 0 273.429V27.8874C0 12.4854 12.4854 0 27.8874 0H214.219C229.621 0 242.106 12.4854 242.106 27.8874Z" fill="#434041"/>
<path d="M216.8 191.034C215.974 185.139 211.481 180.403 205.627 179.324C190.719 176.576 173.772 168.368 156.909 161.941L154.839 152.715C153.391 152.452 151.943 152.206 150.495 151.976V138.296L151.679 137.086C154.703 133.995 156.574 129.973 156.993 125.67C157.223 123.306 157.482 120.832 157.748 118.299C158.843 119.596 161.726 120.003 162.847 118.739C163.771 117.7 164.53 116.308 165.091 114.476C166.935 108.525 167.89 101.451 168.248 93.6197C168.394 90.419 165.487 88.3313 162.76 88.8686C164.937 74.2264 164.651 61.9688 162.965 49.532C158.475 46.2546 154.854 44.4202 149.174 44.2155L144.032 35.5755C125.547 25.8175 96.3701 31.0394 79.8065 46.8763C77.3888 57.2638 77.2199 71.5835 79.4023 88.8839C76.6596 88.3057 73.7123 90.4011 73.8581 93.6222C74.2163 101.454 75.1706 108.528 77.0153 114.479C77.5756 116.311 78.3354 117.703 79.259 118.741C80.3797 120.005 83.2631 119.598 84.3581 118.301C84.6242 120.837 84.8826 123.311 85.1128 125.68C85.5324 129.978 87.4001 133.995 90.4191 137.086L91.6114 138.306V151.978C90.1633 152.209 88.7152 152.454 87.2671 152.718L85.1614 162.102C68.5493 168.555 51.8194 176.722 36.5171 179.387C30.5917 180.421 26.0607 185.236 25.2394 191.195C23.602 203.053 22.7014 215.326 22.6809 228.096H219.428C219.428 213.049 218.023 199.761 216.8 191.034Z" fill="white"/>
<path d="M242.106 27.8874V75.9611C233.43 70.2353 226.266 62.4959 223.685 53.9531C220.126 42.1765 226.665 33.4521 219.737 23.6915C212.246 13.1403 200.4 17.4207 193.421 7.90057C191.778 5.65935 190.627 2.95504 189.931 0H214.219C229.621 0 242.106 12.4854 242.106 27.8874Z" fill="url(#paint0_linear_80_845)"/>
<path d="M242.106 199.528V273.429C242.106 278.956 240.499 284.106 237.726 288.437C232.773 296.182 224.094 301.317 214.219 301.317H27.8873C26.2269 301.317 24.6023 301.171 23.0211 300.892C27.6673 270.114 84.6292 226.095 139.473 216.455C174.286 210.335 195.347 220.331 232.895 203.954C236.178 202.521 239.24 201.04 242.106 199.528Z" fill="url(#paint1_linear_80_845)"/>
<path d="M213.935 301.317H27.8874C18.0117 301.317 9.33588 296.184 4.38011 288.44C1.60672 284.106 0 278.956 0 273.429V31.4922C21.6831 53.7688 39.3801 83.2553 46.0526 113.164C54.9893 153.209 37.5456 164.367 51.3153 190.796C75.9074 238 139.596 217.869 189.473 268.428C198.515 277.589 207.04 289.013 213.935 301.317Z" fill="url(#paint2_linear_80_845)"/>
<path d="M149.07 301.317H27.8874C18.0117 301.317 9.33588 296.184 4.38011 288.44C1.60672 284.106 0 278.956 0 273.429V119.084C5.1016 129.648 9.05444 140.609 11.5131 151.628C20.4499 191.671 3.00621 202.828 16.7759 229.26C40.4137 274.632 100.175 257.795 149.07 301.317Z" fill="url(#paint3_linear_80_845)"/>
<path d="M45.1905 251.762V241.962H47.9625V251.762H45.1905ZM46.5765 241.192C46.1752 241.192 45.8439 241.066 45.5825 240.814C45.3212 240.553 45.1905 240.217 45.1905 239.806C45.1905 239.405 45.3212 239.078 45.5825 238.826C45.8439 238.565 46.1752 238.434 46.5765 238.434C46.9779 238.434 47.3092 238.565 47.5705 238.826C47.8319 239.078 47.9625 239.405 47.9625 239.806C47.9625 240.217 47.8319 240.553 47.5705 240.814C47.3092 241.066 46.9779 241.192 46.5765 241.192ZM55.2827 251.888C54.6014 251.888 54.032 251.748 53.5747 251.468C53.1267 251.188 52.7907 250.759 52.5667 250.18C52.3427 249.601 52.2307 248.859 52.2307 247.954C52.2307 247.067 52.3474 246.335 52.5807 245.756C52.8234 245.177 53.1734 244.748 53.6307 244.468C54.088 244.188 54.6387 244.048 55.2827 244.048C55.9734 244.048 56.5987 244.207 57.1587 244.524C57.728 244.841 58.176 245.294 58.5027 245.882C58.8387 246.461 59.0067 247.151 59.0067 247.954C59.0067 248.766 58.8387 249.466 58.5027 250.054C58.176 250.633 57.728 251.085 57.1587 251.412C56.5987 251.729 55.9734 251.888 55.2827 251.888ZM50.5087 251.762V241.374H53.1687V245.448L53.0287 247.954L53.0427 250.46V251.762H50.5087ZM54.7227 249.774C55.0214 249.774 55.2874 249.704 55.5207 249.564C55.7634 249.424 55.9547 249.219 56.0947 248.948C56.244 248.668 56.3187 248.337 56.3187 247.954C56.3187 247.571 56.244 247.249 56.0947 246.988C55.9547 246.717 55.7634 246.512 55.5207 246.372C55.2874 246.232 55.0214 246.162 54.7227 246.162C54.424 246.162 54.1534 246.232 53.9107 246.372C53.6774 246.512 53.486 246.717 53.3367 246.988C53.1967 247.249 53.1267 247.571 53.1267 247.954C53.1267 248.337 53.1967 248.668 53.3367 248.948C53.486 249.219 53.6774 249.424 53.9107 249.564C54.1534 249.704 54.424 249.774 54.7227 249.774ZM60.9431 251.762V244.174H63.4771V246.386L63.0991 245.756C63.3231 245.187 63.6871 244.762 64.1911 244.482C64.6951 244.193 65.3064 244.048 66.0251 244.048V246.442C65.9037 246.423 65.7964 246.414 65.7031 246.414C65.6191 246.405 65.5257 246.4 65.4231 246.4C64.8817 246.4 64.4431 246.549 64.1071 246.848C63.7711 247.137 63.6031 247.613 63.6031 248.276V251.762H60.9431ZM72.0056 251.762V250.348L71.8236 249.998V247.394C71.8236 246.974 71.6929 246.652 71.4316 246.428C71.1796 246.195 70.7736 246.078 70.2136 246.078C69.8496 246.078 69.4809 246.139 69.1076 246.26C68.7342 246.372 68.4169 246.531 68.1556 246.736L67.2596 244.93C67.6889 244.65 68.2022 244.435 68.7996 244.286C69.4062 244.127 70.0082 244.048 70.6056 244.048C71.8376 244.048 72.7896 244.333 73.4616 244.902C74.1429 245.462 74.4836 246.344 74.4836 247.548V251.762H72.0056ZM69.7656 251.888C69.1589 251.888 68.6456 251.785 68.2256 251.58C67.8056 251.375 67.4836 251.095 67.2596 250.74C67.0449 250.385 66.9376 249.989 66.9376 249.55C66.9376 249.083 67.0542 248.682 67.2876 248.346C67.5302 248.001 67.8989 247.739 68.3936 247.562C68.8882 247.375 69.5276 247.282 70.3116 247.282H72.1036V248.668H70.6756C70.2462 248.668 69.9429 248.738 69.7656 248.878C69.5976 249.018 69.5136 249.205 69.5136 249.438C69.5136 249.671 69.6022 249.858 69.7796 249.998C69.9569 250.138 70.1996 250.208 70.5076 250.208C70.7969 250.208 71.0582 250.138 71.2916 249.998C71.5342 249.849 71.7116 249.625 71.8236 249.326L72.1876 250.306C72.0476 250.829 71.7722 251.225 71.3616 251.496C70.9602 251.757 70.4282 251.888 69.7656 251.888ZM81.8046 244.048C82.3926 244.048 82.9246 244.169 83.4006 244.412C83.8766 244.645 84.2499 245.009 84.5206 245.504C84.8006 245.999 84.9406 246.638 84.9406 247.422V251.762H82.2806V247.856C82.2806 247.315 82.1686 246.923 81.9446 246.68C81.7299 246.428 81.4266 246.302 81.0346 246.302C80.7546 246.302 80.4979 246.367 80.2646 246.498C80.0313 246.619 79.8493 246.811 79.7186 247.072C79.5879 247.333 79.5226 247.674 79.5226 248.094V251.762H76.8626V241.374H79.5226V246.33L78.9066 245.7C79.1959 245.149 79.5926 244.739 80.0966 244.468C80.6006 244.188 81.1699 244.048 81.8046 244.048ZM87.3106 251.762V244.174H89.9706V251.762H87.3106ZM88.6406 243.334C88.1553 243.334 87.7633 243.199 87.4646 242.928C87.166 242.657 87.0166 242.321 87.0166 241.92C87.0166 241.519 87.166 241.183 87.4646 240.912C87.7633 240.641 88.1553 240.506 88.6406 240.506C89.126 240.506 89.518 240.637 89.8166 240.898C90.1153 241.15 90.2646 241.477 90.2646 241.878C90.2646 242.298 90.1153 242.648 89.8166 242.928C89.5273 243.199 89.1353 243.334 88.6406 243.334ZM102.283 244.048C102.871 244.048 103.394 244.169 103.851 244.412C104.318 244.645 104.682 245.009 104.943 245.504C105.214 245.999 105.349 246.638 105.349 247.422V251.762H102.689V247.856C102.689 247.315 102.587 246.923 102.381 246.68C102.176 246.428 101.896 246.302 101.541 246.302C101.289 246.302 101.061 246.363 100.855 246.484C100.65 246.605 100.491 246.792 100.379 247.044C100.267 247.287 100.211 247.604 100.211 247.996V251.762H97.5513V247.856C97.5513 247.315 97.4486 246.923 97.2433 246.68C97.0473 246.428 96.7673 246.302 96.4033 246.302C96.142 246.302 95.9086 246.363 95.7033 246.484C95.5073 246.605 95.3486 246.792 95.2273 247.044C95.1153 247.287 95.0593 247.604 95.0593 247.996V251.762H92.3993V244.174H94.9333V246.288L94.4293 245.686C94.7093 245.145 95.092 244.739 95.5773 244.468C96.0626 244.188 96.604 244.048 97.2013 244.048C97.8826 244.048 98.48 244.225 98.9933 244.58C99.516 244.925 99.866 245.467 100.043 246.204L99.1753 246.022C99.446 245.406 99.852 244.925 100.393 244.58C100.944 244.225 101.574 244.048 102.283 244.048ZM117.514 251.958C116.74 251.958 116.021 251.837 115.358 251.594C114.705 251.342 114.136 250.987 113.65 250.53C113.174 250.073 112.801 249.536 112.53 248.92C112.26 248.295 112.124 247.609 112.124 246.862C112.124 246.115 112.26 245.434 112.53 244.818C112.801 244.193 113.174 243.651 113.65 243.194C114.136 242.737 114.705 242.387 115.358 242.144C116.021 241.892 116.74 241.766 117.514 241.766C118.42 241.766 119.227 241.925 119.936 242.242C120.655 242.559 121.252 243.017 121.728 243.614L119.964 245.21C119.647 244.837 119.297 244.552 118.914 244.356C118.541 244.16 118.121 244.062 117.654 244.062C117.253 244.062 116.884 244.127 116.548 244.258C116.212 244.389 115.923 244.58 115.68 244.832C115.447 245.075 115.26 245.369 115.12 245.714C114.99 246.059 114.924 246.442 114.924 246.862C114.924 247.282 114.99 247.665 115.12 248.01C115.26 248.355 115.447 248.654 115.68 248.906C115.923 249.149 116.212 249.335 116.548 249.466C116.884 249.597 117.253 249.662 117.654 249.662C118.121 249.662 118.541 249.564 118.914 249.368C119.297 249.172 119.647 248.887 119.964 248.514L121.728 250.11C121.252 250.698 120.655 251.155 119.936 251.482C119.227 251.799 118.42 251.958 117.514 251.958ZM128.145 251.762V250.348L127.963 249.998V247.394C127.963 246.974 127.832 246.652 127.571 246.428C127.319 246.195 126.913 246.078 126.353 246.078C125.989 246.078 125.62 246.139 125.247 246.26C124.874 246.372 124.556 246.531 124.295 246.736L123.399 244.93C123.828 244.65 124.342 244.435 124.939 244.286C125.546 244.127 126.148 244.048 126.745 244.048C127.977 244.048 128.929 244.333 129.601 244.902C130.282 245.462 130.623 246.344 130.623 247.548V251.762H128.145ZM125.905 251.888C125.298 251.888 124.785 251.785 124.365 251.58C123.945 251.375 123.623 251.095 123.399 250.74C123.184 250.385 123.077 249.989 123.077 249.55C123.077 249.083 123.194 248.682 123.427 248.346C123.67 248.001 124.038 247.739 124.533 247.562C125.028 247.375 125.667 247.282 126.451 247.282H128.243V248.668H126.815C126.386 248.668 126.082 248.738 125.905 248.878C125.737 249.018 125.653 249.205 125.653 249.438C125.653 249.671 125.742 249.858 125.919 249.998C126.096 250.138 126.339 250.208 126.647 250.208C126.936 250.208 127.198 250.138 127.431 249.998C127.674 249.849 127.851 249.625 127.963 249.326L128.327 250.306C128.187 250.829 127.912 251.225 127.501 251.496C127.1 251.757 126.568 251.888 125.905 251.888ZM137.944 244.048C138.532 244.048 139.064 244.169 139.54 244.412C140.016 244.645 140.389 245.009 140.66 245.504C140.94 245.999 141.08 246.638 141.08 247.422V251.762H138.42V247.856C138.42 247.315 138.308 246.923 138.084 246.68C137.869 246.428 137.566 246.302 137.174 246.302C136.894 246.302 136.637 246.367 136.404 246.498C136.171 246.619 135.989 246.811 135.858 247.072C135.727 247.333 135.662 247.674 135.662 248.094V251.762H133.002V244.174H135.536V246.33L135.046 245.7C135.335 245.149 135.732 244.739 136.236 244.468C136.74 244.188 137.309 244.048 137.944 244.048ZM153.292 251.958C152.508 251.958 151.785 251.832 151.122 251.58C150.46 251.328 149.881 250.973 149.386 250.516C148.901 250.049 148.523 249.508 148.252 248.892C147.982 248.276 147.846 247.599 147.846 246.862C147.846 246.125 147.982 245.448 148.252 244.832C148.523 244.216 148.901 243.679 149.386 243.222C149.881 242.755 150.46 242.396 151.122 242.144C151.785 241.892 152.508 241.766 153.292 241.766C154.086 241.766 154.809 241.892 155.462 242.144C156.125 242.396 156.699 242.755 157.184 243.222C157.67 243.679 158.048 244.216 158.318 244.832C158.598 245.448 158.738 246.125 158.738 246.862C158.738 247.599 158.598 248.281 158.318 248.906C158.048 249.522 157.67 250.059 157.184 250.516C156.699 250.973 156.125 251.328 155.462 251.58C154.809 251.832 154.086 251.958 153.292 251.958ZM153.292 249.662C153.666 249.662 154.011 249.597 154.328 249.466C154.655 249.335 154.935 249.149 155.168 248.906C155.411 248.654 155.598 248.355 155.728 248.01C155.868 247.665 155.938 247.282 155.938 246.862C155.938 246.433 155.868 246.05 155.728 245.714C155.598 245.369 155.411 245.075 155.168 244.832C154.935 244.58 154.655 244.389 154.328 244.258C154.011 244.127 153.666 244.062 153.292 244.062C152.919 244.062 152.569 244.127 152.242 244.258C151.925 244.389 151.645 244.58 151.402 244.832C151.169 245.075 150.982 245.369 150.842 245.714C150.712 246.05 150.646 246.433 150.646 246.862C150.646 247.282 150.712 247.665 150.842 248.01C150.982 248.355 151.169 248.654 151.402 248.906C151.645 249.149 151.925 249.335 152.242 249.466C152.569 249.597 152.919 249.662 153.292 249.662ZM154.776 241.178C154.468 241.178 154.207 241.08 153.992 240.884C153.778 240.679 153.67 240.413 153.67 240.086C153.67 239.759 153.778 239.493 153.992 239.288C154.207 239.083 154.468 238.98 154.776 238.98C155.084 238.98 155.346 239.083 155.56 239.288C155.775 239.493 155.882 239.759 155.882 240.086C155.882 240.413 155.775 240.679 155.56 240.884C155.346 241.08 155.084 241.178 154.776 241.178ZM151.808 241.178C151.5 241.178 151.239 241.08 151.024 240.884C150.81 240.679 150.702 240.413 150.702 240.086C150.702 239.759 150.81 239.493 151.024 239.288C151.239 239.083 151.5 238.98 151.808 238.98C152.116 238.98 152.378 239.083 152.592 239.288C152.807 239.493 152.914 239.759 152.914 240.086C152.914 240.413 152.807 240.679 152.592 240.884C152.378 241.08 152.116 241.178 151.808 241.178ZM160.372 251.762V250.194L164.628 245.294L165.076 246.148H160.47V244.174H167.232V245.728L162.962 250.642L162.514 249.774H167.372V251.762H160.372ZM171.455 250.362L171.525 247.184L174.619 244.174H177.769L174.339 247.716L172.981 248.808L171.455 250.362ZM169.243 251.762V241.374H171.903V251.762H169.243ZM174.815 251.762L172.491 248.85L174.143 246.806L178.035 251.762H174.815ZM184.038 251.762V250.348L183.856 249.998V247.394C183.856 246.974 183.726 246.652 183.464 246.428C183.212 246.195 182.806 246.078 182.246 246.078C181.882 246.078 181.514 246.139 181.14 246.26C180.767 246.372 180.45 246.531 180.188 246.736L179.292 244.93C179.722 244.65 180.235 244.435 180.832 244.286C181.439 244.127 182.041 244.048 182.638 244.048C183.87 244.048 184.822 244.333 185.494 244.902C186.176 245.462 186.516 246.344 186.516 247.548V251.762H184.038ZM181.798 251.888C181.192 251.888 180.678 251.785 180.258 251.58C179.838 251.375 179.516 251.095 179.292 250.74C179.078 250.385 178.97 249.989 178.97 249.55C178.97 249.083 179.087 248.682 179.32 248.346C179.563 248.001 179.932 247.739 180.426 247.562C180.921 247.375 181.56 247.282 182.344 247.282H184.136V248.668H182.708C182.279 248.668 181.976 248.738 181.798 248.878C181.63 249.018 181.546 249.205 181.546 249.438C181.546 249.671 181.635 249.858 181.812 249.998C181.99 250.138 182.232 250.208 182.54 250.208C182.83 250.208 183.091 250.138 183.324 249.998C183.567 249.849 183.744 249.625 183.856 249.326L184.22 250.306C184.08 250.829 183.805 251.225 183.394 251.496C182.993 251.757 182.461 251.888 181.798 251.888ZM193.837 244.048C194.425 244.048 194.957 244.169 195.433 244.412C195.909 244.645 196.283 245.009 196.553 245.504C196.833 245.999 196.973 246.638 196.973 247.422V251.762H194.313V247.856C194.313 247.315 194.201 246.923 193.977 246.68C193.763 246.428 193.459 246.302 193.067 246.302C192.787 246.302 192.531 246.367 192.297 246.498C192.064 246.619 191.882 246.811 191.751 247.072C191.621 247.333 191.555 247.674 191.555 248.094V251.762H188.895V244.174H191.429V246.33L190.939 245.7C191.229 245.149 191.625 244.739 192.129 244.468C192.633 244.188 193.203 244.048 193.837 244.048Z" fill="white"/>
<path d="M56.5649 274.902C55.7996 274.902 55.0669 274.795 54.3669 274.58C53.6669 274.356 53.1116 274.071 52.7009 273.726L53.3309 272.312C53.7229 272.62 54.2083 272.877 54.7869 273.082C55.3656 273.287 55.9583 273.39 56.5649 273.39C57.0783 273.39 57.4936 273.334 57.8109 273.222C58.1283 273.11 58.3616 272.961 58.5109 272.774C58.6603 272.578 58.7349 272.359 58.7349 272.116C58.7349 271.817 58.6276 271.579 58.4129 271.402C58.1983 271.215 57.9183 271.071 57.5729 270.968C57.2369 270.856 56.8589 270.753 56.4389 270.66C56.0283 270.567 55.6129 270.459 55.1929 270.338C54.7823 270.207 54.4043 270.044 54.0589 269.848C53.7229 269.643 53.4476 269.372 53.2329 269.036C53.0183 268.7 52.9109 268.271 52.9109 267.748C52.9109 267.216 53.0509 266.731 53.3309 266.292C53.6203 265.844 54.0543 265.489 54.6329 265.228C55.2209 264.957 55.9629 264.822 56.8589 264.822C57.4469 264.822 58.0303 264.897 58.6089 265.046C59.1876 265.195 59.6916 265.41 60.1209 265.69L59.5469 267.104C59.1083 266.843 58.6556 266.651 58.1889 266.53C57.7223 266.399 57.2743 266.334 56.8449 266.334C56.3409 266.334 55.9303 266.395 55.6129 266.516C55.3049 266.637 55.0763 266.796 54.9269 266.992C54.7869 267.188 54.7169 267.412 54.7169 267.664C54.7169 267.963 54.8196 268.205 55.0249 268.392C55.2396 268.569 55.5149 268.709 55.8509 268.812C56.1963 268.915 56.5789 269.017 56.9989 269.12C57.4189 269.213 57.8343 269.321 58.2449 269.442C58.6649 269.563 59.0429 269.722 59.3789 269.918C59.7243 270.114 59.9996 270.38 60.2049 270.716C60.4196 271.052 60.5269 271.477 60.5269 271.99C60.5269 272.513 60.3823 272.998 60.0929 273.446C59.8129 273.885 59.3789 274.239 58.7909 274.51C58.2029 274.771 57.4609 274.902 56.5649 274.902ZM66.0276 274.86C65.393 274.86 64.833 274.743 64.3476 274.51C63.8623 274.267 63.4843 273.903 63.2136 273.418C62.943 272.923 62.8076 272.303 62.8076 271.556V267.286H64.5576V271.318C64.5576 271.99 64.707 272.494 65.0056 272.83C65.3136 273.157 65.7476 273.32 66.3076 273.32C66.7183 273.32 67.073 273.236 67.3716 273.068C67.6796 272.9 67.9176 272.648 68.0856 272.312C68.263 271.976 68.3516 271.561 68.3516 271.066V267.286H70.1016V274.762H68.4356V272.746L68.7296 273.362C68.4776 273.847 68.109 274.221 67.6236 274.482C67.1383 274.734 66.6063 274.86 66.0276 274.86ZM77.2369 274.86C76.6303 274.86 76.0749 274.72 75.5709 274.44C75.0763 274.16 74.6796 273.74 74.3809 273.18C74.0916 272.611 73.9469 271.892 73.9469 271.024C73.9469 270.147 74.0869 269.428 74.3669 268.868C74.6563 268.308 75.0483 267.893 75.5429 267.622C76.0376 267.342 76.6023 267.202 77.2369 267.202C77.9743 267.202 78.6229 267.361 79.1829 267.678C79.7523 267.995 80.2003 268.439 80.5269 269.008C80.8629 269.577 81.0309 270.249 81.0309 271.024C81.0309 271.799 80.8629 272.475 80.5269 273.054C80.2003 273.623 79.7523 274.067 79.1829 274.384C78.6229 274.701 77.9743 274.86 77.2369 274.86ZM73.0929 277.478V267.286H74.7589V269.05L74.7029 271.038L74.8429 273.026V277.478H73.0929ZM77.0409 273.362C77.4609 273.362 77.8343 273.269 78.1609 273.082C78.4969 272.895 78.7629 272.625 78.9589 272.27C79.1549 271.915 79.2529 271.5 79.2529 271.024C79.2529 270.539 79.1549 270.123 78.9589 269.778C78.7629 269.423 78.4969 269.153 78.1609 268.966C77.8343 268.779 77.4609 268.686 77.0409 268.686C76.6209 268.686 76.2429 268.779 75.9069 268.966C75.5709 269.153 75.3049 269.423 75.1089 269.778C74.9129 270.123 74.8149 270.539 74.8149 271.024C74.8149 271.5 74.9129 271.915 75.1089 272.27C75.3049 272.625 75.5709 272.895 75.9069 273.082C76.2429 273.269 76.6209 273.362 77.0409 273.362ZM87.5346 274.86C86.9279 274.86 86.3726 274.72 85.8686 274.44C85.3739 274.16 84.9772 273.74 84.6786 273.18C84.3892 272.611 84.2446 271.892 84.2446 271.024C84.2446 270.147 84.3846 269.428 84.6646 268.868C84.9539 268.308 85.3459 267.893 85.8406 267.622C86.3352 267.342 86.8999 267.202 87.5346 267.202C88.2719 267.202 88.9206 267.361 89.4806 267.678C90.0499 267.995 90.4979 268.439 90.8246 269.008C91.1606 269.577 91.3286 270.249 91.3286 271.024C91.3286 271.799 91.1606 272.475 90.8246 273.054C90.4979 273.623 90.0499 274.067 89.4806 274.384C88.9206 274.701 88.2719 274.86 87.5346 274.86ZM83.3906 277.478V267.286H85.0566V269.05L85.0006 271.038L85.1406 273.026V277.478H83.3906ZM87.3386 273.362C87.7586 273.362 88.1319 273.269 88.4586 273.082C88.7946 272.895 89.0606 272.625 89.2566 272.27C89.4526 271.915 89.5506 271.5 89.5506 271.024C89.5506 270.539 89.4526 270.123 89.2566 269.778C89.0606 269.423 88.7946 269.153 88.4586 268.966C88.1319 268.779 87.7586 268.686 87.3386 268.686C86.9186 268.686 86.5406 268.779 86.2046 268.966C85.8686 269.153 85.6026 269.423 85.4066 269.778C85.2106 270.123 85.1126 270.539 85.1126 271.024C85.1126 271.5 85.2106 271.915 85.4066 272.27C85.6026 272.625 85.8686 272.895 86.2046 273.082C86.5406 273.269 86.9186 273.362 87.3386 273.362ZM97.0482 274.86C96.2829 274.86 95.6016 274.697 95.0042 274.37C94.4069 274.034 93.9356 273.577 93.5902 272.998C93.2449 272.419 93.0722 271.761 93.0722 271.024C93.0722 270.277 93.2449 269.619 93.5902 269.05C93.9356 268.471 94.4069 268.019 95.0042 267.692C95.6016 267.365 96.2829 267.202 97.0482 267.202C97.8229 267.202 98.5089 267.365 99.1062 267.692C99.7129 268.019 100.184 268.467 100.52 269.036C100.866 269.605 101.038 270.268 101.038 271.024C101.038 271.761 100.866 272.419 100.52 272.998C100.184 273.577 99.7129 274.034 99.1062 274.37C98.5089 274.697 97.8229 274.86 97.0482 274.86ZM97.0482 273.362C97.4776 273.362 97.8602 273.269 98.1962 273.082C98.5322 272.895 98.7936 272.625 98.9802 272.27C99.1762 271.915 99.2742 271.5 99.2742 271.024C99.2742 270.539 99.1762 270.123 98.9802 269.778C98.7936 269.423 98.5322 269.153 98.1962 268.966C97.8602 268.779 97.4822 268.686 97.0622 268.686C96.6329 268.686 96.2502 268.779 95.9142 268.966C95.5876 269.153 95.3262 269.423 95.1302 269.778C94.9342 270.123 94.8362 270.539 94.8362 271.024C94.8362 271.5 94.9342 271.915 95.1302 272.27C95.3262 272.625 95.5876 272.895 95.9142 273.082C96.2502 273.269 96.6282 273.362 97.0482 273.362ZM103.412 274.762V267.286H105.078V269.344L104.882 268.742C105.106 268.238 105.456 267.855 105.932 267.594C106.417 267.333 107.019 267.202 107.738 267.202V268.868C107.663 268.849 107.593 268.84 107.528 268.84C107.462 268.831 107.397 268.826 107.332 268.826C106.669 268.826 106.142 269.022 105.75 269.414C105.358 269.797 105.162 270.371 105.162 271.136V274.762H103.412ZM113.01 274.86C112.188 274.86 111.554 274.65 111.106 274.23C110.658 273.801 110.434 273.171 110.434 272.34V265.634H112.184V272.298C112.184 272.653 112.272 272.928 112.45 273.124C112.636 273.32 112.893 273.418 113.22 273.418C113.612 273.418 113.938 273.315 114.2 273.11L114.69 274.356C114.484 274.524 114.232 274.65 113.934 274.734C113.635 274.818 113.327 274.86 113.01 274.86ZM109.202 268.742V267.342H114.186V268.742H109.202ZM123.246 269.036H128.118V270.534H123.246V269.036ZM123.386 273.236H128.916V274.762H121.566V264.962H128.72V266.488H123.386V273.236ZM135.719 267.202C136.317 267.202 136.849 267.319 137.315 267.552C137.791 267.785 138.165 268.145 138.435 268.63C138.706 269.106 138.841 269.722 138.841 270.478V274.762H137.091V270.702C137.091 270.039 136.933 269.545 136.615 269.218C136.307 268.891 135.873 268.728 135.313 268.728C134.903 268.728 134.539 268.812 134.221 268.98C133.904 269.148 133.657 269.4 133.479 269.736C133.311 270.063 133.227 270.478 133.227 270.982V274.762H131.477V267.286H133.143V269.302L132.849 268.686C133.111 268.21 133.489 267.846 133.983 267.594C134.487 267.333 135.066 267.202 135.719 267.202ZM145.163 277.576C144.472 277.576 143.796 277.483 143.133 277.296C142.48 277.119 141.943 276.857 141.523 276.512L142.307 275.196C142.634 275.467 143.044 275.681 143.539 275.84C144.043 276.008 144.552 276.092 145.065 276.092C145.886 276.092 146.488 275.901 146.871 275.518C147.254 275.145 147.445 274.58 147.445 273.824V272.494L147.585 270.8L147.529 269.106V267.286H149.195V273.628C149.195 274.981 148.85 275.975 148.159 276.61C147.468 277.254 146.47 277.576 145.163 277.576ZM144.939 274.426C144.23 274.426 143.586 274.277 143.007 273.978C142.438 273.67 141.985 273.245 141.649 272.704C141.322 272.163 141.159 271.528 141.159 270.8C141.159 270.081 141.322 269.451 141.649 268.91C141.985 268.369 142.438 267.949 143.007 267.65C143.586 267.351 144.23 267.202 144.939 267.202C145.574 267.202 146.143 267.328 146.647 267.58C147.151 267.832 147.552 268.224 147.851 268.756C148.159 269.288 148.313 269.969 148.313 270.8C148.313 271.631 148.159 272.317 147.851 272.858C147.552 273.39 147.151 273.787 146.647 274.048C146.143 274.3 145.574 274.426 144.939 274.426ZM145.205 272.942C145.644 272.942 146.036 272.853 146.381 272.676C146.726 272.489 146.992 272.237 147.179 271.92C147.375 271.593 147.473 271.22 147.473 270.8C147.473 270.38 147.375 270.011 147.179 269.694C146.992 269.367 146.726 269.12 146.381 268.952C146.036 268.775 145.644 268.686 145.205 268.686C144.766 268.686 144.37 268.775 144.015 268.952C143.67 269.12 143.399 269.367 143.203 269.694C143.016 270.011 142.923 270.38 142.923 270.8C142.923 271.22 143.016 271.593 143.203 271.92C143.399 272.237 143.67 272.489 144.015 272.676C144.37 272.853 144.766 272.942 145.205 272.942ZM152.196 274.762V267.286H153.946V274.762H152.196ZM153.078 266.054C152.751 266.054 152.48 265.951 152.266 265.746C152.06 265.541 151.958 265.293 151.958 265.004C151.958 264.705 152.06 264.458 152.266 264.262C152.48 264.057 152.751 263.954 153.078 263.954C153.404 263.954 153.67 264.052 153.876 264.248C154.09 264.435 154.198 264.673 154.198 264.962C154.198 265.27 154.095 265.531 153.89 265.746C153.684 265.951 153.414 266.054 153.078 266.054ZM161.185 267.202C161.782 267.202 162.314 267.319 162.781 267.552C163.257 267.785 163.63 268.145 163.901 268.63C164.171 269.106 164.307 269.722 164.307 270.478V274.762H162.557V270.702C162.557 270.039 162.398 269.545 162.081 269.218C161.773 268.891 161.339 268.728 160.779 268.728C160.368 268.728 160.004 268.812 159.687 268.98C159.369 269.148 159.122 269.4 158.945 269.736C158.777 270.063 158.693 270.478 158.693 270.982V274.762H156.943V267.286H158.609V269.302L158.315 268.686C158.576 268.21 158.954 267.846 159.449 267.594C159.953 267.333 160.531 267.202 161.185 267.202ZM170.754 274.86C169.924 274.86 169.196 274.697 168.57 274.37C167.954 274.034 167.474 273.577 167.128 272.998C166.792 272.419 166.624 271.761 166.624 271.024C166.624 270.277 166.788 269.619 167.114 269.05C167.45 268.471 167.908 268.019 168.486 267.692C169.074 267.365 169.742 267.202 170.488 267.202C171.216 267.202 171.865 267.361 172.434 267.678C173.004 267.995 173.452 268.443 173.778 269.022C174.105 269.601 174.268 270.282 174.268 271.066C174.268 271.141 174.264 271.225 174.254 271.318C174.254 271.411 174.25 271.5 174.24 271.584H168.01V270.422H173.316L172.63 270.786C172.64 270.357 172.551 269.979 172.364 269.652C172.178 269.325 171.921 269.069 171.594 268.882C171.277 268.695 170.908 268.602 170.488 268.602C170.059 268.602 169.681 268.695 169.354 268.882C169.037 269.069 168.785 269.33 168.598 269.666C168.421 269.993 168.332 270.38 168.332 270.828V271.108C168.332 271.556 168.435 271.953 168.64 272.298C168.846 272.643 169.135 272.909 169.508 273.096C169.882 273.283 170.311 273.376 170.796 273.376C171.216 273.376 171.594 273.311 171.93 273.18C172.266 273.049 172.565 272.844 172.826 272.564L173.764 273.642C173.428 274.034 173.004 274.337 172.49 274.552C171.986 274.757 171.408 274.86 170.754 274.86ZM180.163 274.86C179.333 274.86 178.605 274.697 177.979 274.37C177.363 274.034 176.883 273.577 176.537 272.998C176.201 272.419 176.033 271.761 176.033 271.024C176.033 270.277 176.197 269.619 176.523 269.05C176.859 268.471 177.317 268.019 177.895 267.692C178.483 267.365 179.151 267.202 179.897 267.202C180.625 267.202 181.274 267.361 181.843 267.678C182.413 267.995 182.861 268.443 183.187 269.022C183.514 269.601 183.677 270.282 183.677 271.066C183.677 271.141 183.673 271.225 183.663 271.318C183.663 271.411 183.659 271.5 183.649 271.584H177.419V270.422H182.725L182.039 270.786C182.049 270.357 181.96 269.979 181.773 269.652C181.587 269.325 181.33 269.069 181.003 268.882C180.686 268.695 180.317 268.602 179.897 268.602C179.468 268.602 179.09 268.695 178.763 268.882C178.446 269.069 178.194 269.33 178.007 269.666C177.83 269.993 177.741 270.38 177.741 270.828V271.108C177.741 271.556 177.844 271.953 178.049 272.298C178.255 272.643 178.544 272.909 178.917 273.096C179.291 273.283 179.72 273.376 180.205 273.376C180.625 273.376 181.003 273.311 181.339 273.18C181.675 273.049 181.974 272.844 182.235 272.564L183.173 273.642C182.837 274.034 182.413 274.337 181.899 274.552C181.395 274.757 180.817 274.86 180.163 274.86ZM186.058 274.762V267.286H187.724V269.344L187.528 268.742C187.752 268.238 188.102 267.855 188.578 267.594C189.063 267.333 189.665 267.202 190.384 267.202V268.868C190.309 268.849 190.239 268.84 190.174 268.84C190.109 268.831 190.043 268.826 189.978 268.826C189.315 268.826 188.788 269.022 188.396 269.414C188.004 269.797 187.808 270.371 187.808 271.136V274.762H186.058Z" fill="black"/>
<defs>
<linearGradient id="paint0_linear_80_845" x1="189.931" y1="37.9814" x2="242.106" y2="37.9814" gradientUnits="userSpaceOnUse">
<stop stop-color="#36A9E1"/>
<stop offset="1" stop-color="#29235C"/>
</linearGradient>
<linearGradient id="paint1_linear_80_845" x1="23.0211" y1="250.423" x2="242.106" y2="250.423" gradientUnits="userSpaceOnUse">
<stop offset="0.00341113" stop-color="#36A9E1"/>
<stop offset="1" stop-color="#29235C"/>
</linearGradient>
<linearGradient id="paint2_linear_80_845" x1="0" y1="166.405" x2="213.935" y2="166.405" gradientUnits="userSpaceOnUse">
<stop stop-color="#36A9E1"/>
<stop offset="1" stop-color="#29235C"/>
</linearGradient>
<linearGradient id="paint3_linear_80_845" x1="0" y1="210.201" x2="149.07" y2="210.201" gradientUnits="userSpaceOnUse">
<stop stop-color="#36A9E1"/>
<stop offset="1" stop-color="#29235C"/>
</linearGradient>
</defs>
</svg>
