<?xml version="1.0" encoding="utf-8"?>
<!-- Generator: Adobe Illustrator 27.1.1, SVG Export Plug-In . SVG Version: 6.00 Build 0)  -->
<svg version="1.1" id="Layer_1" xmlns="http://www.w3.org/2000/svg" xmlns:xlink="http://www.w3.org/1999/xlink" x="0px" y="0px"
	 viewBox="0 0 2125.98 2125.98" style="enable-background:new 0 0 2125.98 2125.98;" xml:space="preserve">
<style type="text/css">
	.st0{enable-background:new    ;}
	.st1{clip-path:url(#SVGID_00000149373167474429077230000012035419300966682754_);enable-background:new    ;}
	.st2{fill:url(#SVGID_00000155132998567151474740000000690029641704322959_);}
	.st3{fill:url(#SVGID_00000054984591501769697100000010371984454541900972_);}
	.st4{fill:url(#SVGID_00000066499301336393092050000002298068920496434848_);}
	.st5{clip-path:url(#SVGID_00000103975843382648772990000016963942222365681547_);enable-background:new    ;}
	.st6{fill:url(#SVGID_00000050661472580182903490000003676460289458977437_);}
	.st7{clip-path:url(#SVGID_00000182500695010591590500000000667575728165871525_);enable-background:new    ;}
	.st8{fill:url(#SVGID_00000131352904730676836240000013385235730597701527_);}
	.st9{clip-path:url(#SVGID_00000009576637178514571220000012871847156951205250_);enable-background:new    ;}
	.st10{fill:url(#SVGID_00000093876088762618169280000012211178584885575833_);}
	.st11{fill:url(#SVGID_00000026120880018147340490000000979572019796418440_);}
	.st12{fill:url(#SVGID_00000034080286978263566750000006402058770481570751_);}
	.st13{fill:url(#SVGID_00000125567673908242215970000013433974290207394734_);}
	.st14{fill:url(#SVGID_00000086666155436982747370000004272160926230028467_);}
	.st15{clip-path:url(#SVGID_00000129891804189617995180000014786149934621014144_);enable-background:new    ;}
	.st16{fill:url(#SVGID_00000167360730782573486100000002181043865044990362_);}
	.st17{clip-path:url(#SVGID_00000085225434372171073700000005565473084784804790_);enable-background:new    ;}
	.st18{fill:url(#SVGID_00000119815917464155368160000016932308737475857054_);}
	.st19{fill:url(#SVGID_00000038382989991376737310000001262351382948952722_);}
	.st20{fill:url(#SVGID_00000102537050065884800860000004065329711338326178_);}
	.st21{fill:url(#SVGID_00000136406148663385937700000000327686723190994095_);}
	.st22{fill:url(#SVGID_00000172432489319845972600000015671771690010987424_);}
	.st23{clip-path:url(#SVGID_00000018232972891227874120000013862688257638751120_);enable-background:new    ;}
	.st24{fill:url(#SVGID_00000030474532760724427050000016905627895017599675_);}
	.st25{clip-path:url(#SVGID_00000164493056556127964990000001392221820865944506_);enable-background:new    ;}
	.st26{fill:url(#SVGID_00000068670210603539935170000016462030092383770790_);}
	.st27{clip-path:url(#SVGID_00000106864957167797783740000006852156158142514365_);enable-background:new    ;}
	.st28{fill:url(#SVGID_00000180348922402911486060000003162814657711173505_);}
	.st29{clip-path:url(#SVGID_00000037687173133235698790000004915373525457962113_);enable-background:new    ;}
	.st30{fill:url(#SVGID_00000169539555474281928820000003301340341844701573_);}
	.st31{fill:url(#SVGID_00000088094228668100219450000010720772351619773831_);}
	.st32{fill:url(#SVGID_00000093152815419846521380000001541668776698569395_);}
	.st33{fill:url(#SVGID_00000137127245771407696390000004957644742972304812_);}
	.st34{clip-path:url(#SVGID_00000009551912154992953820000012225121682596888245_);enable-background:new    ;}
	.st35{fill:url(#SVGID_00000107557603718032963940000017865345055281677458_);}
	.st36{fill:url(#SVGID_00000090287982063115108670000005297625187935876225_);}
	.st37{fill:url(#SVGID_00000089566668511943061160000005230863678959835290_);}
	.st38{fill:url(#SVGID_00000178912200833104024060000013059092466584079282_);}
	.st39{clip-path:url(#SVGID_00000002349942579969070960000018004907834608999076_);enable-background:new    ;}
	.st40{fill:url(#SVGID_00000158720497875835933620000003700728109886333322_);}
	.st41{fill:url(#SVGID_00000176018274716354832420000001644955013345358526_);}
	.st42{fill:url(#SVGID_00000166665451409612180700000005930752742633678003_);}
	.st43{fill:url(#SVGID_00000059291048684131808410000008191838729706966674_);}
	.st44{fill:url(#SVGID_00000047053485070472405810000017748700796132664229_);}
</style>
<g class="st0">
	<g class="st0">
		<defs>
			<path id="SVGID_1_" class="st0" d="M1799.69,1565.29c-9.65-8.33-19.29-16.67-28.94-25.01c9.97,8.62,17.08,13.01,18.38,13.82
				l28.94,25.01C1816.77,1578.3,1809.66,1573.9,1799.69,1565.29z"/>
		</defs>
		
			<linearGradient id="SVGID_00000168796231808774446720000017602471978914628262_" gradientUnits="userSpaceOnUse" x1="1770.7465" y1="1559.6927" x2="1818.071" y2="1559.6927">
			<stop  offset="0" style="stop-color:#472624"/>
			<stop  offset="0.4384" style="stop-color:#F5E27B"/>
			<stop  offset="0.5" style="stop-color:#F5F2C0"/>
			<stop  offset="0.5517" style="stop-color:#CB9B51"/>
			<stop  offset="0.9261" style="stop-color:#5F431F"/>
		</linearGradient>
		<use xlink:href="#SVGID_1_"  style="overflow:visible;fill:url(#SVGID_00000168796231808774446720000017602471978914628262_);"/>
		<clipPath id="SVGID_00000166639279443326020060000009626972274556756139_">
			<use xlink:href="#SVGID_1_"  style="overflow:visible;"/>
		</clipPath>
		<g style="clip-path:url(#SVGID_00000166639279443326020060000009626972274556756139_);enable-background:new    ;">
			
				<linearGradient id="SVGID_00000097496537075153089080000006395404181550955453_" gradientUnits="userSpaceOnUse" x1="1770.7465" y1="1559.6698" x2="1817.9988" y2="1559.6698">
				<stop  offset="0" style="stop-color:#472624"/>
				<stop  offset="0.4384" style="stop-color:#F5E27B"/>
				<stop  offset="0.5" style="stop-color:#F5F2C0"/>
				<stop  offset="0.5517" style="stop-color:#CB9B51"/>
				<stop  offset="0.9261" style="stop-color:#5F431F"/>
			</linearGradient>
			<path style="fill:url(#SVGID_00000097496537075153089080000006395404181550955453_);" d="M1799.69,1565.29l-28.94-25.01
				c9.8,8.47,16.84,12.87,18.31,13.78l28.94,25.01C1816.53,1578.16,1809.49,1573.76,1799.69,1565.29"/>
			
				<linearGradient id="SVGID_00000035515769149264862090000016908489223156241584_" gradientUnits="userSpaceOnUse" x1="1789.0583" y1="1566.5819" x2="1818.071" y2="1566.5819">
				<stop  offset="0" style="stop-color:#472624"/>
				<stop  offset="0.4384" style="stop-color:#F5E27B"/>
				<stop  offset="0.5" style="stop-color:#F5F2C0"/>
				<stop  offset="0.5517" style="stop-color:#CB9B51"/>
				<stop  offset="0.9261" style="stop-color:#5F431F"/>
			</linearGradient>
			<path style="fill:url(#SVGID_00000035515769149264862090000016908489223156241584_);" d="M1818,1579.06l-28.94-25.01
				c0.02,0.01,0.05,0.02,0.07,0.04l28.94,25.01C1818.05,1579.09,1818.02,1579.08,1818,1579.06"/>
		</g>
	</g>
	
		<linearGradient id="SVGID_00000063630958746254306830000007902905758973055387_" gradientUnits="userSpaceOnUse" x1="1676.7229" y1="1610.1606" x2="1749.1072" y2="1610.1606">
		<stop  offset="0" style="stop-color:#472624"/>
		<stop  offset="0.4384" style="stop-color:#F5E27B"/>
		<stop  offset="0.5" style="stop-color:#F5F2C0"/>
		<stop  offset="0.5517" style="stop-color:#CB9B51"/>
		<stop  offset="0.9261" style="stop-color:#5F431F"/>
	</linearGradient>
	<path style="fill:url(#SVGID_00000063630958746254306830000007902905758973055387_);" d="M1714.86,1615.01
		c0.56,0.45,1.1,0.88,1.65,1.31c0.91,0.71,1.81,1.41,2.7,2.09c0.54,0.42,1.09,0.83,1.62,1.23c0.88,0.66,1.74,1.3,2.6,1.92
		c0.48,0.35,0.97,0.72,1.44,1.05c1.01,0.74,1.99,1.43,2.96,2.11c0.27,0.19,0.55,0.39,0.81,0.57c1.2,0.83,2.35,1.62,3.46,2.37
		c0.4,0.27,0.77,0.51,1.16,0.77c0.72,0.48,1.43,0.95,2.11,1.38c0.41,0.27,0.81,0.52,1.21,0.78c0.63,0.4,1.24,0.78,1.83,1.15
		c0.17,0.11,0.37,0.24,0.54,0.34c0.25,0.15,0.47,0.29,0.71,0.44c0.26,0.16,0.52,0.32,0.78,0.48c0.5,0.3,0.97,0.58,1.43,0.85
		c0.2,0.12,0.42,0.25,0.61,0.36c0.62,0.37,1.21,0.71,1.76,1.02c0.13,0.08,0.24,0.13,0.36,0.2c0.42,0.24,0.83,0.47,1.2,0.68
		c0.19,0.11,0.35,0.19,0.52,0.29c0.28,0.15,0.55,0.3,0.79,0.43c0.16,0.09,0.31,0.16,0.45,0.25c0.23,0.12,0.44,0.24,0.63,0.34
		c0.1,0.05,0.2,0.11,0.29,0.15c0.25,0.13,0.46,0.25,0.63,0.33l-28.94-25.01c-0.15-0.08-0.36-0.18-0.58-0.3
		c-0.14-0.07-0.31-0.17-0.48-0.26c-0.13-0.07-0.27-0.14-0.41-0.22c-0.19-0.1-0.39-0.21-0.61-0.33c-0.19-0.1-0.39-0.22-0.6-0.33
		c-0.22-0.12-0.44-0.25-0.69-0.38c-0.29-0.16-0.62-0.35-0.95-0.53c-0.2-0.11-0.38-0.21-0.58-0.33c-0.54-0.31-1.12-0.65-1.73-1
		c-0.2-0.12-0.41-0.25-0.62-0.37c-0.46-0.27-0.94-0.56-1.44-0.86c-0.25-0.15-0.5-0.31-0.76-0.47c-0.4-0.25-0.83-0.51-1.26-0.78
		c-0.6-0.38-1.24-0.78-1.88-1.19c-0.37-0.24-0.73-0.47-1.12-0.72c-0.73-0.48-1.51-0.99-2.29-1.51c-0.33-0.22-0.64-0.42-0.98-0.65
		c-1.13-0.76-2.31-1.56-3.52-2.41c-0.19-0.13-0.4-0.29-0.59-0.42c-1.03-0.73-2.09-1.48-3.18-2.27c-0.44-0.32-0.89-0.66-1.34-0.98
		c-0.88-0.65-1.78-1.31-2.69-2c-0.52-0.39-1.04-0.79-1.57-1.19c-0.9-0.69-1.81-1.4-2.74-2.12c-0.54-0.42-1.08-0.84-1.63-1.28
		c-1-0.8-2.02-1.63-3.05-2.47c-0.49-0.4-0.97-0.79-1.47-1.2c-1.53-1.27-3.09-2.58-4.68-3.95l0.02,0.02
		c-0.01-0.01-0.01-0.02-0.02-0.02c9.65,8.33,19.29,16.67,28.94,25.01c1.59,1.37,3.14,2.68,4.67,3.95c0.5,0.41,0.99,0.81,1.48,1.21
		C1712.85,1613.4,1713.86,1614.22,1714.86,1615.01z"/>
	<g class="st0">
		<defs>
			<path id="SVGID_00000003075050215794339360000017116520808025935497_" class="st0" d="M1494.66,1655.56
				c-0.44-0.38-1.01-0.88-1.45-1.25c-4.34-3.75-8.68-7.5-13.03-11.26c-4.82-4.17-9.65-8.33-14.47-12.5
				c-58.45-50.5-82.12-106.77-84.07-111.4l28.94,25.01C1412.54,1548.79,1436.22,1605.06,1494.66,1655.56z"/>
		</defs>
		
			<linearGradient id="SVGID_00000030482582071873457560000002597148285059766974_" gradientUnits="userSpaceOnUse" x1="1381.6487" y1="1587.3538" x2="1494.6628" y2="1587.3538">
			<stop  offset="0" style="stop-color:#472624"/>
			<stop  offset="0.4384" style="stop-color:#F5E27B"/>
			<stop  offset="0.5" style="stop-color:#F5F2C0"/>
			<stop  offset="0.5517" style="stop-color:#CB9B51"/>
			<stop  offset="0.9261" style="stop-color:#5F431F"/>
		</linearGradient>
		
			<use xlink:href="#SVGID_00000003075050215794339360000017116520808025935497_"  style="overflow:visible;fill:url(#SVGID_00000030482582071873457560000002597148285059766974_);"/>
		<clipPath id="SVGID_00000091013943565007784480000002219162290572884656_">
			<use xlink:href="#SVGID_00000003075050215794339360000017116520808025935497_"  style="overflow:visible;"/>
		</clipPath>
		<g style="clip-path:url(#SVGID_00000091013943565007784480000002219162290572884656_);enable-background:new    ;">
			
				<linearGradient id="SVGID_00000088112448377015740890000016980163228985687736_" gradientUnits="userSpaceOnUse" x1="1381.6487" y1="1587.3538" x2="1494.6628" y2="1587.3538">
				<stop  offset="0" style="stop-color:#472624"/>
				<stop  offset="0.4384" style="stop-color:#F5E27B"/>
				<stop  offset="0.5" style="stop-color:#F5F2C0"/>
				<stop  offset="0.5517" style="stop-color:#CB9B51"/>
				<stop  offset="0.9261" style="stop-color:#5F431F"/>
			</linearGradient>
			<path style="fill:url(#SVGID_00000088112448377015740890000016980163228985687736_);" d="M1494.66,1655.56l-28.94-25.01
				c-58.45-50.5-82.12-106.77-84.07-111.4l28.94,25.01C1412.54,1548.79,1436.22,1605.06,1494.66,1655.56"/>
		</g>
	</g>
	<g class="st0">
		<defs>
			<path id="SVGID_00000015331275084005745560000010382512363590893458_" class="st0" d="M1589.49,1575.8
				c-9.65-8.33-19.3-16.68-28.94-25.01c-87.67-75.76-116.49-194.74-118.65-203.64l28.94,25.01
				C1473,1381.06,1501.82,1500.04,1589.49,1575.8z"/>
		</defs>
		
			<linearGradient id="SVGID_00000161619633530251387330000005718815004907535804_" gradientUnits="userSpaceOnUse" x1="1441.9036" y1="1461.473" x2="1589.4934" y2="1461.473">
			<stop  offset="0" style="stop-color:#472624"/>
			<stop  offset="0.4384" style="stop-color:#F5E27B"/>
			<stop  offset="0.5" style="stop-color:#F5F2C0"/>
			<stop  offset="0.5517" style="stop-color:#CB9B51"/>
			<stop  offset="0.9261" style="stop-color:#5F431F"/>
		</linearGradient>
		
			<use xlink:href="#SVGID_00000015331275084005745560000010382512363590893458_"  style="overflow:visible;fill:url(#SVGID_00000161619633530251387330000005718815004907535804_);"/>
		<clipPath id="SVGID_00000124852778486117065970000006754036880466797467_">
			<use xlink:href="#SVGID_00000015331275084005745560000010382512363590893458_"  style="overflow:visible;"/>
		</clipPath>
		<g style="clip-path:url(#SVGID_00000124852778486117065970000006754036880466797467_);enable-background:new    ;">
			
				<linearGradient id="SVGID_00000079458539254575804550000002789729690403913633_" gradientUnits="userSpaceOnUse" x1="1441.9036" y1="1461.473" x2="1589.4934" y2="1461.473">
				<stop  offset="0" style="stop-color:#472624"/>
				<stop  offset="0.4384" style="stop-color:#F5E27B"/>
				<stop  offset="0.5" style="stop-color:#F5F2C0"/>
				<stop  offset="0.5517" style="stop-color:#CB9B51"/>
				<stop  offset="0.9261" style="stop-color:#5F431F"/>
			</linearGradient>
			<path style="fill:url(#SVGID_00000079458539254575804550000002789729690403913633_);" d="M1589.49,1575.8l-28.94-25.01
				c-87.67-75.76-116.49-194.74-118.65-203.64l28.94,25.01C1473,1381.06,1501.82,1500.04,1589.49,1575.8"/>
		</g>
	</g>
	<g class="st0">
		<defs>
			<path id="SVGID_00000058563880640228637200000013925317061387722403_" class="st0" d="M1708.05,1523.04
				c-9.65-8.34-19.29-16.68-28.94-25.01c-132.12-114.16-121.73-338.47-121.07-352.72l28.94,25.01
				C1586.32,1184.56,1575.94,1408.88,1708.05,1523.04z"/>
		</defs>
		
			<linearGradient id="SVGID_00000015320209766089593390000017177592195988940686_" gradientUnits="userSpaceOnUse" x1="1557.5994" y1="1334.172" x2="1708.0515" y2="1334.172">
			<stop  offset="0" style="stop-color:#472624"/>
			<stop  offset="0.4384" style="stop-color:#F5E27B"/>
			<stop  offset="0.5" style="stop-color:#F5F2C0"/>
			<stop  offset="0.5517" style="stop-color:#CB9B51"/>
			<stop  offset="0.9261" style="stop-color:#5F431F"/>
		</linearGradient>
		
			<use xlink:href="#SVGID_00000058563880640228637200000013925317061387722403_"  style="overflow:visible;fill:url(#SVGID_00000015320209766089593390000017177592195988940686_);"/>
		<clipPath id="SVGID_00000093865195601265245980000013185635864636797064_">
			<use xlink:href="#SVGID_00000058563880640228637200000013925317061387722403_"  style="overflow:visible;"/>
		</clipPath>
		<g style="clip-path:url(#SVGID_00000093865195601265245980000013185635864636797064_);enable-background:new    ;">
			
				<linearGradient id="SVGID_00000152232182929514584350000016200402752305694877_" gradientUnits="userSpaceOnUse" x1="1557.5994" y1="1334.172" x2="1708.0515" y2="1334.172">
				<stop  offset="0" style="stop-color:#472624"/>
				<stop  offset="0.4384" style="stop-color:#F5E27B"/>
				<stop  offset="0.5" style="stop-color:#F5F2C0"/>
				<stop  offset="0.5517" style="stop-color:#CB9B51"/>
				<stop  offset="0.9261" style="stop-color:#5F431F"/>
			</linearGradient>
			<path style="fill:url(#SVGID_00000152232182929514584350000016200402752305694877_);" d="M1708.05,1523.04l-28.94-25.01
				c-132.12-114.16-121.73-338.47-121.07-352.72l28.94,25.01C1586.32,1184.56,1575.94,1408.88,1708.05,1523.04"/>
		</g>
	</g>
	<g>
		
			<linearGradient id="SVGID_00000137102248192986945520000002775483843039862191_" gradientUnits="userSpaceOnUse" x1="1284.5935" y1="1536.4379" x2="1357.9866" y2="1536.4379">
			<stop  offset="0" style="stop-color:#472624"/>
			<stop  offset="0.4384" style="stop-color:#F5E27B"/>
			<stop  offset="0.5" style="stop-color:#F5F2C0"/>
			<stop  offset="0.5517" style="stop-color:#CB9B51"/>
			<stop  offset="0.9261" style="stop-color:#5F431F"/>
		</linearGradient>
		<polygon style="fill:url(#SVGID_00000137102248192986945520000002775483843039862191_);" points="1313.54,2004.62 1284.59,1979.6 
			1329.04,1068.26 1357.99,1093.27 		"/>
	</g>
	<g>
		
			<linearGradient id="SVGID_00000046303365128071476150000016037523773636484752_" gradientUnits="userSpaceOnUse" x1="1329.0428" y1="1000.1439" x2="1594.4363" y2="1000.1439">
			<stop  offset="0" style="stop-color:#472624"/>
			<stop  offset="0.4384" style="stop-color:#F5E27B"/>
			<stop  offset="0.5" style="stop-color:#F5F2C0"/>
			<stop  offset="0.5517" style="stop-color:#CB9B51"/>
			<stop  offset="0.9261" style="stop-color:#5F431F"/>
		</linearGradient>
		<polygon style="fill:url(#SVGID_00000046303365128071476150000016037523773636484752_);" points="1357.99,1093.27 
			1329.04,1068.26 1565.5,907.02 1594.44,932.03 		"/>
	</g>
	<g>
		
			<linearGradient id="SVGID_00000017513265686597622800000012473950711654102178_" gradientUnits="userSpaceOnUse" x1="1565.4958" y1="806.1337" x2="1625.1132" y2="806.1337">
			<stop  offset="0" style="stop-color:#472624"/>
			<stop  offset="0.4384" style="stop-color:#F5E27B"/>
			<stop  offset="0.5" style="stop-color:#F5F2C0"/>
			<stop  offset="0.5517" style="stop-color:#CB9B51"/>
			<stop  offset="0.9261" style="stop-color:#5F431F"/>
		</linearGradient>
		<polygon style="fill:url(#SVGID_00000017513265686597622800000012473950711654102178_);" points="1594.44,932.03 1565.5,907.02 
			1596.17,680.24 1625.11,705.25 		"/>
	</g>
	<g>
		
			<linearGradient id="SVGID_00000080183898981513486120000016195865577565469113_" gradientUnits="userSpaceOnUse" x1="884.2039" y1="1414.5457" x2="1054.0779" y2="1414.5457">
			<stop  offset="0" style="stop-color:#472624"/>
			<stop  offset="0.4384" style="stop-color:#F5E27B"/>
			<stop  offset="0.5" style="stop-color:#F5F2C0"/>
			<stop  offset="0.5517" style="stop-color:#CB9B51"/>
			<stop  offset="0.9261" style="stop-color:#5F431F"/>
		</linearGradient>
		<polygon style="fill:url(#SVGID_00000080183898981513486120000016195865577565469113_);" points="1054.08,1524.47 
			1025.13,1499.46 884.2,1304.62 913.15,1329.63 		"/>
	</g>
	<g class="st0">
		<defs>
			<path id="SVGID_00000103262732425503787570000017090289628412449212_" class="st0" d="M752.02,2004.62l-28.94-25.01
				c-97.13-218.58-58.33-449.2-56.29-461.34l28.94,25.01C693.7,1555.42,654.89,1786.04,752.02,2004.62z"/>
		</defs>
		
			<linearGradient id="SVGID_00000152248268953715919520000008802405596729407651_" gradientUnits="userSpaceOnUse" x1="657.4413" y1="1761.4418" x2="752.0227" y2="1761.4418">
			<stop  offset="0" style="stop-color:#472624"/>
			<stop  offset="0.4384" style="stop-color:#F5E27B"/>
			<stop  offset="0.5" style="stop-color:#F5F2C0"/>
			<stop  offset="0.5517" style="stop-color:#CB9B51"/>
			<stop  offset="0.9261" style="stop-color:#5F431F"/>
		</linearGradient>
		
			<use xlink:href="#SVGID_00000103262732425503787570000017090289628412449212_"  style="overflow:visible;fill:url(#SVGID_00000152248268953715919520000008802405596729407651_);"/>
		<clipPath id="SVGID_00000104680215165729246660000016484409918084537488_">
			<use xlink:href="#SVGID_00000103262732425503787570000017090289628412449212_"  style="overflow:visible;"/>
		</clipPath>
		<g style="clip-path:url(#SVGID_00000104680215165729246660000016484409918084537488_);enable-background:new    ;">
			
				<linearGradient id="SVGID_00000077315178252092727070000017655271394446496388_" gradientUnits="userSpaceOnUse" x1="657.4413" y1="1761.4418" x2="752.0227" y2="1761.4418">
				<stop  offset="0" style="stop-color:#472624"/>
				<stop  offset="0.4384" style="stop-color:#F5E27B"/>
				<stop  offset="0.5" style="stop-color:#F5F2C0"/>
				<stop  offset="0.5517" style="stop-color:#CB9B51"/>
				<stop  offset="0.9261" style="stop-color:#5F431F"/>
			</linearGradient>
			<path style="fill:url(#SVGID_00000077315178252092727070000017655271394446496388_);" d="M752.02,2004.62l-28.94-25.01
				c-97.13-218.58-58.33-449.2-56.29-461.34l28.94,25.01C693.7,1555.42,654.89,1786.04,752.02,2004.62"/>
		</g>
	</g>
	<g class="st0">
		<defs>
			<path id="SVGID_00000016767829173871805650000001509727996103766955_" class="st0" d="M1697,244.81
				c9.65,8.34,19.3,16.67,28.94,25.01c-5.64-4.87-11.67-9.19-18.11-12.91l-28.94-25.01C1685.33,235.61,1691.36,239.93,1697,244.81z"
				/>
		</defs>
		
			<linearGradient id="SVGID_00000178203989984075496540000016388664664770427813_" gradientUnits="userSpaceOnUse" x1="1678.8962" y1="250.8561" x2="1725.946" y2="250.8561">
			<stop  offset="0" style="stop-color:#472624"/>
			<stop  offset="0.4384" style="stop-color:#F5E27B"/>
			<stop  offset="0.5" style="stop-color:#F5F2C0"/>
			<stop  offset="0.5517" style="stop-color:#CB9B51"/>
			<stop  offset="0.9261" style="stop-color:#5F431F"/>
		</linearGradient>
		
			<use xlink:href="#SVGID_00000016767829173871805650000001509727996103766955_"  style="overflow:visible;fill:url(#SVGID_00000178203989984075496540000016388664664770427813_);"/>
		<clipPath id="SVGID_00000137128827656551958840000006636377384583818138_">
			<use xlink:href="#SVGID_00000016767829173871805650000001509727996103766955_"  style="overflow:visible;"/>
		</clipPath>
		<g style="clip-path:url(#SVGID_00000137128827656551958840000006636377384583818138_);enable-background:new    ;">
			
				<linearGradient id="SVGID_00000084516363825816841400000018434147703276302731_" gradientUnits="userSpaceOnUse" x1="1678.8962" y1="245.0712" x2="1710.1023" y2="245.0712">
				<stop  offset="0" style="stop-color:#472624"/>
				<stop  offset="0.4384" style="stop-color:#F5E27B"/>
				<stop  offset="0.5" style="stop-color:#F5F2C0"/>
				<stop  offset="0.5517" style="stop-color:#CB9B51"/>
				<stop  offset="0.9261" style="stop-color:#5F431F"/>
			</linearGradient>
			<path style="fill:url(#SVGID_00000084516363825816841400000018434147703276302731_);" d="M1707.84,256.9l-28.94-25.01
				c0.76,0.44,1.51,0.89,2.26,1.34l28.94,25.01C1709.35,257.79,1708.6,257.34,1707.84,256.9"/>
			
				<linearGradient id="SVGID_00000163765019584754668730000012264136560416170385_" gradientUnits="userSpaceOnUse" x1="1681.1591" y1="251.527" x2="1725.946" y2="251.527">
				<stop  offset="0" style="stop-color:#472624"/>
				<stop  offset="0.4384" style="stop-color:#F5E27B"/>
				<stop  offset="0.5" style="stop-color:#F5F2C0"/>
				<stop  offset="0.5517" style="stop-color:#CB9B51"/>
				<stop  offset="0.9261" style="stop-color:#5F431F"/>
			</linearGradient>
			<path style="fill:url(#SVGID_00000163765019584754668730000012264136560416170385_);" d="M1710.1,258.25l-28.94-25.01
				c5.59,3.4,10.87,7.27,15.84,11.57l28.94,25.01C1720.97,265.52,1715.7,261.65,1710.1,258.25"/>
		</g>
	</g>
	
		<linearGradient id="SVGID_00000069383989404611356980000002019451608561476274_" gradientUnits="userSpaceOnUse" x1="416.0115" y1="1537.0392" x2="649.8938" y2="1537.0392">
		<stop  offset="0" style="stop-color:#472624"/>
		<stop  offset="0.4384" style="stop-color:#F5E27B"/>
		<stop  offset="0.5" style="stop-color:#F5F2C0"/>
		<stop  offset="0.5517" style="stop-color:#CB9B51"/>
		<stop  offset="0.9261" style="stop-color:#5F431F"/>
	</linearGradient>
	<path style="fill:url(#SVGID_00000069383989404611356980000002019451608561476274_);" d="M516.49,1657.61
		c1.09-1.18,2.17-2.36,3.24-3.53c1.46-1.61,2.9-3.21,4.34-4.81c1-1.12,2.02-2.25,3.01-3.36c1.51-1.7,2.98-3.39,4.45-5.08
		c0.87-0.99,1.75-2,2.6-2.99c1.85-2.15,3.66-4.29,5.45-6.42c0.44-0.52,0.89-1.05,1.32-1.56c2.2-2.63,4.35-5.24,6.46-7.84
		c0.71-0.87,1.38-1.73,2.08-2.6c1.4-1.74,2.8-3.49,4.17-5.22c0.82-1.05,1.63-2.09,2.44-3.14c1.19-1.53,2.38-3.07,3.55-4.59
		c0.84-1.1,1.66-2.19,2.49-3.29c1.1-1.46,2.2-2.93,3.27-4.38c0.82-1.1,1.62-2.2,2.42-3.3c1.04-1.43,2.08-2.86,3.1-4.29
		c0.78-1.09,1.56-2.18,2.33-3.27c1.01-1.43,2-2.85,2.98-4.26c0.74-1.06,1.47-2.12,2.19-3.17c0.99-1.45,1.96-2.89,2.93-4.34
		c0.67-0.99,1.34-1.99,1.99-2.98c1.03-1.56,2.04-3.11,3.04-4.67c0.55-0.85,1.11-1.7,1.66-2.55c1.4-2.2,2.78-4.38,4.12-6.55
		c0.22-0.35,0.43-0.7,0.65-1.05c1.33-2.17,2.64-4.32,3.92-6.46c0.49-0.83,0.97-1.65,1.45-2.47c0.87-1.48,1.75-2.97,2.59-4.44
		c0.54-0.94,1.07-1.88,1.6-2.82c0.75-1.33,1.5-2.66,2.24-3.98c0.54-0.98,1.07-1.95,1.6-2.92c0.69-1.27,1.38-2.53,2.05-3.79
		c0.52-0.97,1.03-1.95,1.54-2.91c0.65-1.24,1.29-2.48,1.92-3.72c0.49-0.95,0.97-1.9,1.45-2.85c0.62-1.24,1.23-2.47,1.84-3.7
		c0.45-0.91,0.9-1.82,1.34-2.73c0.61-1.27,1.21-2.54,1.8-3.79c0.4-0.84,0.8-1.69,1.19-2.53c0.64-1.39,1.26-2.76,1.88-4.13
		c0.31-0.69,0.63-1.38,0.93-2.06c0.9-2.03,1.77-4.04,2.62-6.03c0.17-0.4,0.32-0.79,0.49-1.18c0.67-1.6,1.33-3.19,1.97-4.77
		c0.3-0.75,0.59-1.49,0.89-2.23c0.48-1.21,0.96-2.42,1.42-3.61c0.31-0.81,0.61-1.61,0.92-2.42c0.42-1.11,0.84-2.21,1.23-3.3
		c0.3-0.82,0.59-1.63,0.89-2.45c0.38-1.07,0.75-2.12,1.12-3.17c0.28-0.81,0.56-1.61,0.83-2.41c0.35-1.03,0.69-2.05,1.03-3.07
		c0.26-0.79,0.52-1.58,0.78-2.37c0.33-1.01,0.64-2.01,0.95-3.02c0.24-0.75,0.47-1.51,0.7-2.26c0.32-1.04,0.62-2.07,0.92-3.1
		c0.2-0.68,0.4-1.36,0.6-2.03c0.34-1.17,0.65-2.31,0.97-3.46c0.14-0.51,0.29-1.03,0.42-1.54c0.44-1.63,0.86-3.24,1.25-4.83
		c0.11-0.43,0.21-0.85,0.31-1.28c0.29-1.16,0.57-2.32,0.84-3.46c0.14-0.61,0.27-1.2,0.41-1.81c0.21-0.93,0.43-1.87,0.62-2.79
		c0.14-0.64,0.27-1.27,0.4-1.92c0.18-0.86,0.36-1.71,0.53-2.56c0.13-0.64,0.25-1.27,0.37-1.9c0.16-0.81,0.31-1.62,0.46-2.42
		c0.11-0.62,0.22-1.23,0.33-1.84c0.14-0.8,0.28-1.59,0.41-2.38c0.09-0.58,0.19-1.16,0.28-1.74c0.13-0.79,0.25-1.57,0.36-2.34
		c0.08-0.55,0.16-1.1,0.24-1.63c0.12-0.79,0.22-1.57,0.32-2.34c0.07-0.49,0.14-0.99,0.2-1.47c0.11-0.9,0.22-1.77,0.32-2.65
		c0.04-0.33,0.08-0.68,0.12-1c0.13-1.18,0.25-2.33,0.36-3.47c0.03-0.34,0.06-0.67,0.09-1.01c0.07-0.78,0.14-1.57,0.21-2.33
		c0.03-0.44,0.06-0.85,0.09-1.27c0.05-0.65,0.1-1.29,0.14-1.92c0.03-0.44,0.05-0.86,0.08-1.28c0.04-0.6,0.07-1.19,0.1-1.77
		c0.02-0.42,0.04-0.83,0.06-1.24c0.02-0.55,0.05-1.1,0.07-1.63c0.01-0.4,0.03-0.8,0.04-1.19c0.02-0.52,0.03-1.03,0.04-1.55
		c0.01-0.37,0.02-0.74,0.02-1.1c0-0.51,0.01-1,0.01-1.49c0-0.33,0-0.66,0-0.98c0-0.51,0-1-0.01-1.49c-0.01-0.27-0.01-0.55-0.01-0.82
		c-0.01-0.62-0.02-1.21-0.04-1.79c0-0.11,0-0.22-0.01-0.33c-0.02-0.68-0.04-1.33-0.07-1.96c-0.01-0.19-0.02-0.37-0.03-0.57
		c-0.02-0.42-0.04-0.84-0.06-1.22c-0.01-0.23-0.03-0.43-0.04-0.65c-0.02-0.33-0.04-0.66-0.06-0.97c-0.02-0.22-0.03-0.42-0.05-0.62
		c-0.02-0.28-0.04-0.56-0.06-0.82c-0.02-0.19-0.03-0.37-0.05-0.56c-0.02-0.25-0.04-0.48-0.07-0.71c-0.02-0.16-0.03-0.33-0.05-0.48
		c-0.02-0.22-0.04-0.42-0.06-0.62c-0.01-0.13-0.03-0.25-0.04-0.37c-0.03-0.2-0.05-0.38-0.07-0.56c-0.01-0.09-0.02-0.17-0.03-0.26
		c-0.03-0.2-0.05-0.37-0.07-0.53c-0.01-0.03-0.01-0.07-0.01-0.1c-0.02-0.18-0.04-0.34-0.06-0.46l-28.94-25.01
		c0.02,0.12,0.04,0.27,0.06,0.46c0,0.03,0.01,0.07,0.01,0.1c0.02,0.15,0.04,0.33,0.07,0.52c0.01,0.08,0.02,0.18,0.03,0.27
		c0.02,0.17,0.04,0.35,0.06,0.55c0.01,0.12,0.03,0.26,0.04,0.39c0.02,0.19,0.04,0.39,0.06,0.6c0.02,0.16,0.03,0.33,0.05,0.5
		c0.02,0.23,0.04,0.46,0.06,0.7c0.02,0.18,0.03,0.36,0.05,0.55c0.02,0.27,0.05,0.56,0.07,0.85c0.02,0.19,0.03,0.39,0.04,0.59
		c0.02,0.3,0.04,0.64,0.06,0.96c0.01,0.23,0.03,0.44,0.04,0.68c0.02,0.37,0.04,0.76,0.06,1.15c0.01,0.21,0.02,0.41,0.03,0.62
		c0.03,0.62,0.05,1.28,0.07,1.96c0,0.1,0.01,0.21,0.01,0.32c0.02,0.59,0.03,1.19,0.04,1.82c0,0.24,0,0.51,0.01,0.76
		c0,0.5,0.01,1.01,0.01,1.54c0,0.32,0,0.64,0,0.97c0,0.49-0.01,0.98-0.01,1.49c0,0.36-0.02,0.73-0.02,1.1
		c-0.01,0.51-0.03,1.02-0.04,1.55c-0.01,0.39-0.02,0.79-0.04,1.19c-0.02,0.54-0.04,1.09-0.07,1.64c-0.02,0.4-0.04,0.81-0.06,1.22
		c-0.03,0.58-0.06,1.18-0.1,1.79c-0.03,0.42-0.05,0.83-0.08,1.27c-0.04,0.63-0.09,1.29-0.14,1.95c-0.03,0.41-0.06,0.82-0.09,1.24
		c-0.06,0.78-0.14,1.58-0.21,2.38c-0.03,0.32-0.06,0.64-0.09,0.97c-0.11,1.14-0.23,2.3-0.36,3.49c-0.03,0.26-0.07,0.53-0.1,0.79
		c-0.11,0.94-0.22,1.89-0.34,2.86c-0.06,0.45-0.12,0.91-0.18,1.37c-0.11,0.8-0.21,1.61-0.33,2.43c-0.08,0.53-0.16,1.06-0.24,1.6
		c-0.12,0.79-0.24,1.58-0.37,2.38c-0.09,0.56-0.18,1.13-0.28,1.7c-0.13,0.8-0.27,1.6-0.41,2.42c-0.11,0.59-0.21,1.19-0.33,1.8
		c-0.15,0.81-0.3,1.64-0.47,2.47c-0.12,0.61-0.24,1.23-0.36,1.85c-0.17,0.87-0.36,1.75-0.54,2.63c-0.13,0.61-0.25,1.21-0.39,1.83
		c-0.21,0.95-0.43,1.92-0.65,2.89c-0.13,0.57-0.25,1.14-0.39,1.71c-0.28,1.2-0.58,2.43-0.88,3.66c-0.09,0.36-0.17,0.71-0.26,1.07
		c-0.4,1.6-0.82,3.22-1.27,4.86c-0.12,0.46-0.26,0.93-0.38,1.4c-0.33,1.19-0.66,2.39-1,3.61c-0.18,0.64-0.38,1.29-0.57,1.94
		c-0.31,1.07-0.62,2.13-0.95,3.21c-0.21,0.71-0.44,1.42-0.66,2.14c-0.32,1.04-0.65,2.08-0.99,3.14c-0.24,0.76-0.49,1.52-0.75,2.28
		c-0.34,1.04-0.69,2.09-1.05,3.14c-0.27,0.78-0.53,1.57-0.81,2.35c-0.37,1.07-0.76,2.16-1.15,3.24c-0.28,0.78-0.57,1.57-0.86,2.37
		c-0.41,1.13-0.84,2.27-1.28,3.42c-0.29,0.77-0.58,1.53-0.88,2.3c-0.48,1.24-0.98,2.5-1.48,3.76c-0.28,0.7-0.54,1.38-0.83,2.08
		c-0.66,1.62-1.34,3.26-2.03,4.91c-0.15,0.35-0.29,0.7-0.44,1.06c-0.85,1.99-1.72,4.01-2.62,6.04c-0.29,0.65-0.59,1.31-0.89,1.97
		c-0.63,1.4-1.26,2.81-1.92,4.23c-0.38,0.82-0.77,1.65-1.16,2.47c-0.6,1.28-1.2,2.56-1.83,3.85c-0.43,0.89-0.87,1.78-1.31,2.68
		c-0.61,1.25-1.23,2.5-1.87,3.77c-0.47,0.93-0.94,1.86-1.42,2.8c-0.64,1.25-1.29,2.5-1.95,3.77c-0.5,0.95-1,1.91-1.51,2.86
		c-0.69,1.29-1.39,2.58-2.09,3.88c-0.51,0.94-1.02,1.89-1.55,2.84c-0.74,1.34-1.51,2.69-2.27,4.05c-0.52,0.93-1.04,1.85-1.58,2.79
		c-0.85,1.47-1.72,2.96-2.6,4.45c-0.48,0.82-0.95,1.63-1.44,2.46c-1.29,2.17-2.61,4.35-3.97,6.55c-0.18,0.29-0.36,0.58-0.54,0.88
		c-1.36,2.2-2.76,4.42-4.18,6.65c-0.53,0.83-1.09,1.67-1.62,2.5c-1.01,1.57-2.03,3.13-3.07,4.71c-0.65,0.98-1.32,1.97-1.98,2.95
		c-0.97,1.45-1.95,2.9-2.95,4.37c-0.71,1.04-1.44,2.1-2.17,3.15c-0.99,1.42-1.98,2.85-3,4.29c-0.77,1.08-1.54,2.17-2.32,3.25
		c-1.02,1.42-2.05,2.85-3.1,4.29c-0.8,1.1-1.61,2.2-2.43,3.31c-1.08,1.45-2.17,2.91-3.27,4.38c-0.82,1.09-1.64,2.18-2.48,3.28
		c-1.17,1.53-2.36,3.06-3.55,4.6c-0.81,1.05-1.62,2.09-2.45,3.14c-1.35,1.72-2.73,3.44-4.12,5.17c-0.71,0.89-1.4,1.76-2.12,2.65
		c-2.11,2.6-4.25,5.21-6.45,7.83c-0.44,0.53-0.9,1.05-1.34,1.58c-1.79,2.12-3.59,4.25-5.43,6.4c-0.86,1-1.76,2.02-2.64,3.03
		c-1.46,1.67-2.92,3.35-4.41,5.03c-1,1.13-2.03,2.27-3.05,3.4c-1.42,1.58-2.84,3.17-4.29,4.76c-1.08,1.19-2.18,2.38-3.28,3.57
		c-1.43,1.56-2.88,3.12-4.35,4.68c-1.14,1.22-2.29,2.44-3.45,3.66c-1.57,1.65-3.15,3.31-4.76,4.97c-0.96,1-1.92,2-2.89,3
		c-1.9,1.95-3.83,3.91-5.77,5.86c-0.75,0.76-1.49,1.52-2.25,2.27c-2.69,2.69-5.42,5.4-8.21,8.11c-0.7,0.68-1.42,1.36-2.12,2.04
		c-2.14,2.07-4.3,4.15-6.49,6.24c-1.03,0.98-2.08,1.97-3.12,2.95c-1.95,1.83-3.91,3.67-5.9,5.51c-1.1,1.01-2.2,2.03-3.31,3.05
		c-2.09,1.93-4.22,3.85-6.36,5.79c-0.99,0.9-1.97,1.79-2.97,2.68c-3.14,2.82-6.32,5.64-9.57,8.47l28.94,25.01
		c3.25-2.84,6.43-5.66,9.57-8.47c1-0.89,1.97-1.78,2.95-2.66c2.15-1.94,4.28-3.88,6.38-5.81c1.11-1.02,2.21-2.03,3.3-3.05
		c1.99-1.84,3.96-3.69,5.91-5.52c1.04-0.97,2.08-1.95,3.1-2.92c2.21-2.1,4.38-4.19,6.53-6.28c0.69-0.67,1.39-1.34,2.08-2.01
		c2.78-2.72,5.52-5.43,8.22-8.12c0.74-0.75,1.46-1.48,2.2-2.23c1.96-1.98,3.91-3.95,5.82-5.91c0.96-0.99,1.9-1.97,2.85-2.95
		c0.9-0.94,1.82-1.87,2.72-2.81c0.71-0.74,1.39-1.47,2.09-2.22c1.15-1.21,2.29-2.42,3.42-3.63
		C513.59,1660.75,515.05,1659.17,516.49,1657.61z"/>
	<g>
		
			<linearGradient id="SVGID_00000091735647897651963190000003410585753367148460_" gradientUnits="userSpaceOnUse" x1="884.2039" y1="1142.4432" x2="976.4256" y2="1142.4432">
			<stop  offset="0" style="stop-color:#472624"/>
			<stop  offset="0.4384" style="stop-color:#F5E27B"/>
			<stop  offset="0.5" style="stop-color:#F5F2C0"/>
			<stop  offset="0.5517" style="stop-color:#CB9B51"/>
			<stop  offset="0.9261" style="stop-color:#5F431F"/>
		</linearGradient>
		<polygon style="fill:url(#SVGID_00000091735647897651963190000003410585753367148460_);" points="913.15,1329.63 884.2,1304.62 
			947.48,955.26 976.43,980.27 		"/>
	</g>
	
		<linearGradient id="SVGID_00000105422911464824387490000004218989555061364390_" gradientUnits="userSpaceOnUse" x1="1164.6678" y1="478.9597" x2="1714.5541" y2="478.9597">
		<stop  offset="0" style="stop-color:#472624"/>
		<stop  offset="0.4384" style="stop-color:#F5E27B"/>
		<stop  offset="0.5" style="stop-color:#F5F2C0"/>
		<stop  offset="0.5517" style="stop-color:#CB9B51"/>
		<stop  offset="0.9261" style="stop-color:#5F431F"/>
	</linearGradient>
	<path style="fill:url(#SVGID_00000105422911464824387490000004218989555061364390_);" d="M1707.84,256.9l-28.94-25.01
		c0.05,0.09,0.1,0.21,0.16,0.34c0.02,0.04,0.04,0.08,0.06,0.13c0.05,0.11,0.11,0.23,0.17,0.35c0.03,0.06,0.06,0.12,0.08,0.18
		c0.06,0.13,0.13,0.28,0.2,0.43c0.03,0.06,0.06,0.13,0.09,0.2c0.09,0.2,0.18,0.41,0.28,0.64c0.02,0.04,0.03,0.07,0.04,0.1
		c0.12,0.27,0.24,0.56,0.36,0.87c0.02,0.05,0.04,0.1,0.06,0.15c0.1,0.27,0.21,0.54,0.33,0.84c0.03,0.09,0.07,0.17,0.1,0.26
		c0.1,0.27,0.21,0.56,0.31,0.85c0.04,0.1,0.07,0.2,0.11,0.3c0.12,0.34,0.24,0.68,0.36,1.05c0.02,0.07,0.04,0.13,0.07,0.19
		c0.29,0.89,0.59,1.86,0.88,2.9c0.03,0.09,0.05,0.18,0.07,0.26c0.12,0.44,0.24,0.89,0.36,1.35c0.03,0.12,0.06,0.24,0.09,0.36
		c0.12,0.48,0.24,0.97,0.35,1.48c0.02,0.09,0.04,0.18,0.06,0.27c0.28,1.24,0.54,2.56,0.79,3.96c0.01,0.05,0.02,0.1,0.02,0.14
		c0.11,0.64,0.21,1.29,0.31,1.96c0.02,0.12,0.04,0.24,0.05,0.36c0.09,0.63,0.17,1.28,0.25,1.94c0.02,0.12,0.03,0.23,0.04,0.34
		c0.27,2.35,0.48,4.89,0.57,7.6c0,0.1,0.01,0.2,0.01,0.3c0.03,0.81,0.04,1.63,0.05,2.47c0,0.13,0,0.25,0,0.38
		c0,0.9,0,1.82-0.02,2.76c0,0.03,0,0.05,0,0.08c-0.04,2.02-0.14,4.13-0.31,6.32c0,0.03,0,0.05-0.01,0.08
		c-0.08,1.03-0.18,2.07-0.29,3.13c-0.01,0.12-0.03,0.25-0.04,0.37c-0.11,1.04-0.24,2.09-0.38,3.16c-0.01,0.07-0.02,0.13-0.03,0.2
		c-0.47,3.5-1.11,7.18-1.96,11.03c-0.02,0.08-0.04,0.17-0.06,0.25c-0.27,1.21-0.55,2.43-0.86,3.67c-0.02,0.09-0.04,0.18-0.07,0.27
		c-1,4-2.22,8.18-3.68,12.54c0,0.01-0.01,0.02-0.01,0.03c-0.48,1.41-0.98,2.84-1.51,4.29c-0.04,0.1-0.07,0.19-0.11,0.29
		c-2.19,5.95-4.83,12.21-8.02,18.78c-0.04,0.08-0.07,0.15-0.11,0.23c-0.78,1.6-1.59,3.22-2.43,4.87c-0.02,0.03-0.03,0.06-0.05,0.09
		c-3.49,6.77-7.55,13.85-12.25,21.23c-0.04,0.06-0.07,0.11-0.11,0.17c-4.71,7.38-10.06,15.06-16.13,23.04
		c-0.04,0.05-0.07,0.1-0.11,0.15c-7.62,10.01-16.38,20.49-26.42,31.41c-0.01,0.01-0.02,0.02-0.02,0.02
		c-26.19,28.5-61.11,60.09-107.5,94.59c-0.13,0.1-0.27,0.2-0.41,0.3c-3.9,2.9-7.88,5.81-11.94,8.75c-0.5,0.36-1,0.72-1.5,1.09
		c-2,1.44-4.02,2.89-6.06,4.34c-0.51,0.37-1.03,0.73-1.55,1.1c-4.04,2.87-8.16,5.75-12.36,8.66c-0.32,0.22-0.64,0.45-0.96,0.67
		c-2.1,1.45-4.22,2.9-6.35,4.36c-0.74,0.51-1.49,1.02-2.24,1.52c-6.6,4.49-13.4,9.02-20.39,13.59c-0.9,0.59-1.8,1.18-2.71,1.77
		c-6.93,4.51-14.05,9.07-21.36,13.67c-1.02,0.64-2.05,1.29-3.08,1.93c-2.28,1.43-4.57,2.86-6.89,4.29
		c-0.91,0.56-1.83,1.12-2.74,1.69c-4.22,2.6-8.51,5.22-12.85,7.85c-1.13,0.69-2.26,1.37-3.4,2.06c-2.34,1.41-4.71,2.83-7.09,4.25
		c-1.23,0.73-2.47,1.47-3.71,2.2c-4.3,2.55-8.67,5.12-13.09,7.69c-1.16,0.67-2.3,1.35-3.47,2.02c-2.42,1.4-4.87,2.81-7.32,4.22
		c-1.44,0.83-2.88,1.65-4.33,2.48c-5.39,3.08-10.86,6.18-16.42,9.29c-0.28,0.15-0.55,0.31-0.82,0.46c-2.5,1.4-5.04,2.81-7.58,4.21
		c-1.61,0.89-3.23,1.79-4.86,2.68c-2.67,1.47-5.35,2.95-8.06,4.43c-2.17,1.18-4.34,2.37-6.53,3.55c-1.79,0.97-3.59,1.94-5.4,2.91
		c-2.16,1.16-4.33,2.33-6.51,3.49c-1.85,0.99-3.7,1.98-5.56,2.96c-2.19,1.16-4.39,2.33-6.6,3.5c-1.89,1-3.79,2-5.69,3
		c-2.22,1.17-4.46,2.34-6.71,3.51c-1.94,1.01-3.87,2.02-5.82,3.03c-2.3,1.19-4.62,2.39-6.95,3.58c-1.91,0.99-3.82,1.97-5.76,2.96
		c-2.47,1.26-4.97,2.53-7.46,3.8c-1.84,0.93-3.66,1.86-5.51,2.8c-2.75,1.39-5.54,2.79-8.33,4.19c-1.64,0.82-3.25,1.63-4.9,2.46
		c-4.44,2.21-8.91,4.44-13.43,6.66c-0.04,0.03-0.13,0.1-0.25,0.19c-0.01,0.01-0.04,0.03-0.06,0.04c-0.1,0.08-0.24,0.18-0.39,0.3
		c-0.06,0.05-0.13,0.1-0.2,0.15c-0.19,0.14-0.4,0.29-0.66,0.47c-0.03,0.02-0.06,0.04-0.09,0.07c-0.28,0.19-0.61,0.42-0.96,0.65
		c-0.11,0.07-0.23,0.15-0.35,0.23c-0.34,0.22-0.7,0.45-1.1,0.7c-0.08,0.05-0.14,0.09-0.22,0.14c-0.46,0.28-0.97,0.59-1.5,0.91
		c-0.16,0.1-0.34,0.2-0.51,0.3c-0.47,0.27-0.97,0.56-1.5,0.85c-0.14,0.08-0.27,0.15-0.42,0.24c-0.65,0.36-1.35,0.73-2.08,1.11
		c-0.2,0.1-0.4,0.21-0.61,0.31c-0.73,0.38-1.49,0.76-2.31,1.16c-0.07,0.03-0.13,0.07-0.21,0.1c-0.88,0.42-1.82,0.86-2.79,1.31
		c-0.23,0.1-0.47,0.21-0.7,0.32c-0.99,0.45-2.02,0.9-3.11,1.36c-0.03,0.01-0.05,0.02-0.08,0.03c-1.09,0.46-2.25,0.93-3.44,1.4
		c-0.31,0.12-0.62,0.25-0.94,0.37c-1.15,0.45-2.37,0.9-3.6,1.36c-0.27,0.1-0.52,0.2-0.8,0.29c-1.12,0.4-2.3,0.81-3.49,1.22
		c-0.38,0.13-0.75,0.26-1.14,0.39c-1.13,0.38-2.33,0.76-3.53,1.14c-0.49,0.15-0.95,0.31-1.44,0.46c-1.7,0.52-3.45,1.05-5.28,1.57
		l28.94,25.01c7.09-2.01,13.19-4.08,18.4-6.08c0.31-0.12,0.6-0.24,0.91-0.36c0.31-0.12,0.6-0.24,0.9-0.35
		c1.19-0.47,2.36-0.94,3.45-1.41c0.04-0.02,0.07-0.03,0.11-0.05c1.07-0.45,2.08-0.9,3.05-1.34c0.25-0.11,0.51-0.23,0.76-0.34
		c0.96-0.44,1.88-0.87,2.75-1.29c0.09-0.05,0.18-0.09,0.27-0.13c0.79-0.39,1.53-0.76,2.25-1.13c0.21-0.11,0.41-0.21,0.61-0.32
		c0.7-0.37,1.38-0.73,2.01-1.07c0.03-0.02,0.05-0.03,0.08-0.05c0.13-0.07,0.24-0.14,0.37-0.21c0.55-0.31,1.07-0.6,1.56-0.88
		c0.16-0.09,0.32-0.19,0.47-0.28c0.54-0.32,1.06-0.63,1.53-0.92c0.07-0.04,0.12-0.08,0.19-0.12c0.41-0.26,0.78-0.49,1.13-0.72
		c0.11-0.07,0.22-0.14,0.33-0.21c0.35-0.24,0.68-0.46,0.96-0.65c0.04-0.02,0.06-0.04,0.09-0.07c0.26-0.18,0.47-0.33,0.67-0.48
		c0.07-0.05,0.12-0.09,0.19-0.14c0.04-0.03,0.08-0.06,0.12-0.09c0.08-0.06,0.14-0.1,0.2-0.16c0.07-0.05,0.13-0.1,0.18-0.14
		c0.1-0.08,0.17-0.13,0.2-0.16c4.54-2.24,9.03-4.47,13.49-6.69c1.45-0.72,2.87-1.44,4.31-2.16c3-1.51,6.01-3.01,8.97-4.51
		c1.66-0.84,3.3-1.68,4.95-2.52c2.69-1.37,5.38-2.73,8.04-4.09c1.79-0.92,3.55-1.83,5.33-2.74c2.47-1.27,4.93-2.54,7.37-3.8
		c1.85-0.96,3.68-1.91,5.51-2.87c2.34-1.22,4.67-2.44,6.99-3.65c1.85-0.97,3.68-1.94,5.51-2.9c2.27-1.2,4.52-2.39,6.76-3.58
		c1.83-0.97,3.65-1.94,5.46-2.91c2.21-1.18,4.4-2.36,6.58-3.54c1.79-0.96,3.57-1.93,5.35-2.89c2.2-1.19,4.38-2.38,6.55-3.57
		c1.08-0.59,2.19-1.19,3.27-1.78c1.83-1,3.6-1.99,5.4-2.99c2.08-1.15,4.17-2.3,6.23-3.44c2.27-1.26,4.52-2.52,6.77-3.78
		c1.94-1.09,3.87-2.17,5.79-3.25c3.36-1.9,6.7-3.79,10-5.68c2.17-1.24,4.33-2.47,6.47-3.71c2.17-1.25,4.32-2.49,6.46-3.74
		c1.78-1.03,3.55-2.07,5.31-3.1c2.1-1.23,4.21-2.46,6.29-3.69c3.17-1.87,6.31-3.73,9.42-5.59c2.08-1.24,4.12-2.48,6.17-3.71
		c1.63-0.98,3.25-1.96,4.86-2.94c2.04-1.24,4.08-2.48,6.1-3.71c1.73-1.06,3.43-2.11,5.14-3.17c3.24-2,6.44-3.99,9.61-5.97
		c1.48-0.93,2.96-1.85,4.42-2.78c1.98-1.25,3.96-2.5,5.91-3.74c1.41-0.9,2.8-1.79,4.19-2.68c3.31-2.12,6.58-4.24,9.81-6.34
		c1.31-0.85,2.63-1.71,3.92-2.56c1.92-1.26,3.81-2.51,5.7-3.76c1.24-0.82,2.46-1.64,3.68-2.45c3.36-2.24,6.67-4.47,9.94-6.69
		c1.03-0.7,2.07-1.4,3.1-2.1c1.85-1.27,3.68-2.53,5.5-3.79c1.11-0.76,2.2-1.53,3.3-2.29c6.03-4.2,11.9-8.35,17.6-12.47
		c0.96-0.69,1.92-1.39,2.87-2.08c1.76-1.28,3.52-2.56,5.25-3.83c0.53-0.39,1.05-0.78,1.57-1.17c1.99-1.47,3.99-2.94,5.94-4.39
		c41.18-30.8,73.21-59.27,98.05-85.28C1743.77,329.38,1710.55,262.38,1707.84,256.9z"/>
	<g class="st0">
		<defs>
			<path id="SVGID_00000160150161154835856680000000609962768443390642_" class="st0" d="M1298.39,624.41
				c-0.87-0.75-2.03-1.75-2.89-2.5c-0.87-0.75-2.03-1.75-2.9-2.5c-2.89-2.5-5.79-5-8.68-7.5c-4.82-4.17-9.65-8.34-14.47-12.51
				c-6.53-5.64-11.9-14.64-14.24-28.75l28.94,25.01C1286.49,609.77,1291.86,618.76,1298.39,624.41z"/>
		</defs>
		
			<linearGradient id="SVGID_00000174571415058614871080000003829563239677861527_" gradientUnits="userSpaceOnUse" x1="1255.2122" y1="597.528" x2="1298.3925" y2="597.528">
			<stop  offset="0" style="stop-color:#472624"/>
			<stop  offset="0.4384" style="stop-color:#F5E27B"/>
			<stop  offset="0.5" style="stop-color:#F5F2C0"/>
			<stop  offset="0.5517" style="stop-color:#CB9B51"/>
			<stop  offset="0.9261" style="stop-color:#5F431F"/>
		</linearGradient>
		
			<use xlink:href="#SVGID_00000160150161154835856680000000609962768443390642_"  style="overflow:visible;fill:url(#SVGID_00000174571415058614871080000003829563239677861527_);"/>
		<clipPath id="SVGID_00000157285073976061285120000010893155283194290087_">
			<use xlink:href="#SVGID_00000160150161154835856680000000609962768443390642_"  style="overflow:visible;"/>
		</clipPath>
		<g style="clip-path:url(#SVGID_00000157285073976061285120000010893155283194290087_);enable-background:new    ;">
			
				<linearGradient id="SVGID_00000172414999881592709850000001699382260564426411_" gradientUnits="userSpaceOnUse" x1="1255.2122" y1="597.528" x2="1298.3925" y2="597.528">
				<stop  offset="0" style="stop-color:#472624"/>
				<stop  offset="0.4384" style="stop-color:#F5E27B"/>
				<stop  offset="0.5" style="stop-color:#F5F2C0"/>
				<stop  offset="0.5517" style="stop-color:#CB9B51"/>
				<stop  offset="0.9261" style="stop-color:#5F431F"/>
			</linearGradient>
			<path style="fill:url(#SVGID_00000172414999881592709850000001699382260564426411_);" d="M1298.39,624.41l-28.94-25.01
				c-6.53-5.64-11.9-14.64-14.24-28.75l28.94,25.01C1286.49,609.77,1291.86,618.76,1298.39,624.41"/>
		</g>
	</g>
	<g class="st0">
		<defs>
			<path id="SVGID_00000121262781824638954020000010770812439214995343_" class="st0" d="M1226.97,567.86
				c-9.65-8.34-19.29-16.67-28.94-25.01c-10.82-9.35-22.18-21.83-33.13-38.51l28.94,25.01
				C1204.8,546.03,1216.16,558.51,1226.97,567.86z"/>
		</defs>
		
			<linearGradient id="SVGID_00000075879724990774080670000011472322552600191370_" gradientUnits="userSpaceOnUse" x1="1164.8958" y1="536.0997" x2="1226.9705" y2="536.0997">
			<stop  offset="0" style="stop-color:#472624"/>
			<stop  offset="0.4384" style="stop-color:#F5E27B"/>
			<stop  offset="0.5" style="stop-color:#F5F2C0"/>
			<stop  offset="0.5517" style="stop-color:#CB9B51"/>
			<stop  offset="0.9261" style="stop-color:#5F431F"/>
		</linearGradient>
		
			<use xlink:href="#SVGID_00000121262781824638954020000010770812439214995343_"  style="overflow:visible;fill:url(#SVGID_00000075879724990774080670000011472322552600191370_);"/>
		<clipPath id="SVGID_00000123439647983383937270000013560866431900174005_">
			<use xlink:href="#SVGID_00000121262781824638954020000010770812439214995343_"  style="overflow:visible;"/>
		</clipPath>
		<g style="clip-path:url(#SVGID_00000123439647983383937270000013560866431900174005_);enable-background:new    ;">
			
				<linearGradient id="SVGID_00000047050758313027276340000016339344820721836973_" gradientUnits="userSpaceOnUse" x1="1164.8958" y1="536.0997" x2="1226.9705" y2="536.0997">
				<stop  offset="0" style="stop-color:#472624"/>
				<stop  offset="0.4384" style="stop-color:#F5E27B"/>
				<stop  offset="0.5" style="stop-color:#F5F2C0"/>
				<stop  offset="0.5517" style="stop-color:#CB9B51"/>
				<stop  offset="0.9261" style="stop-color:#5F431F"/>
			</linearGradient>
			<path style="fill:url(#SVGID_00000047050758313027276340000016339344820721836973_);" d="M1226.97,567.86l-28.94-25.01
				c-10.82-9.35-22.18-21.83-33.13-38.51l28.94,25.01C1204.8,546.03,1216.16,558.51,1226.97,567.86"/>
		</g>
	</g>
	<g class="st0">
		<defs>
			<path id="SVGID_00000105401277034405487900000007237395758480550825_" class="st0" d="M1261.77,357.92
				c9.65,8.34,19.29,16.67,28.94,25.01c-0.31-0.27-0.52-0.43-0.61-0.5l-28.94-25.01C1261.25,357.49,1261.46,357.65,1261.77,357.92z"
				/>
		</defs>
		
			<linearGradient id="SVGID_00000171686116227205243310000017988956158152288414_" gradientUnits="userSpaceOnUse" x1="1261.1619" y1="370.1767" x2="1290.7166" y2="370.1767">
			<stop  offset="0" style="stop-color:#472624"/>
			<stop  offset="0.4384" style="stop-color:#F5E27B"/>
			<stop  offset="0.5" style="stop-color:#F5F2C0"/>
			<stop  offset="0.5517" style="stop-color:#CB9B51"/>
			<stop  offset="0.9261" style="stop-color:#5F431F"/>
		</linearGradient>
		
			<use xlink:href="#SVGID_00000105401277034405487900000007237395758480550825_"  style="overflow:visible;fill:url(#SVGID_00000171686116227205243310000017988956158152288414_);"/>
		<clipPath id="SVGID_00000015314686837856763190000005296587129190153093_">
			<use xlink:href="#SVGID_00000105401277034405487900000007237395758480550825_"  style="overflow:visible;"/>
		</clipPath>
		<g style="clip-path:url(#SVGID_00000015314686837856763190000005296587129190153093_);enable-background:new    ;">
			
				<linearGradient id="SVGID_00000077286870478421600860000001817751707960469168_" gradientUnits="userSpaceOnUse" x1="1261.1619" y1="370.1767" x2="1290.7166" y2="370.1767">
				<stop  offset="0" style="stop-color:#472624"/>
				<stop  offset="0.4384" style="stop-color:#F5E27B"/>
				<stop  offset="0.5" style="stop-color:#F5F2C0"/>
				<stop  offset="0.5517" style="stop-color:#CB9B51"/>
				<stop  offset="0.9261" style="stop-color:#5F431F"/>
			</linearGradient>
			<path style="fill:url(#SVGID_00000077286870478421600860000001817751707960469168_);" d="M1290.1,382.43l-28.94-25.01
				c0.09,0.07,0.3,0.23,0.61,0.5l28.94,25.01C1290.4,382.66,1290.2,382.5,1290.1,382.43"/>
		</g>
	</g>
	<g class="st0">
		<defs>
			<path id="SVGID_00000103265450976892632110000015445662789792713897_" class="st0" d="M1189.35,522.5l-28.94-25.01
				c-5.62-8.59-9.21-14.08-11.37-17.38l28.94,25.01C1180.15,508.42,1183.73,513.91,1189.35,522.5z"/>
		</defs>
		
			<linearGradient id="SVGID_00000036246256728318411540000009967626342836930464_" gradientUnits="userSpaceOnUse" x1="1149.0437" y1="501.3046" x2="1189.3533" y2="501.3046">
			<stop  offset="0" style="stop-color:#472624"/>
			<stop  offset="0.4384" style="stop-color:#F5E27B"/>
			<stop  offset="0.5" style="stop-color:#F5F2C0"/>
			<stop  offset="0.5517" style="stop-color:#CB9B51"/>
			<stop  offset="0.9261" style="stop-color:#5F431F"/>
		</linearGradient>
		
			<use xlink:href="#SVGID_00000103265450976892632110000015445662789792713897_"  style="overflow:visible;fill:url(#SVGID_00000036246256728318411540000009967626342836930464_);"/>
		<clipPath id="SVGID_00000069363545453748969920000001600505695775728319_">
			<use xlink:href="#SVGID_00000103265450976892632110000015445662789792713897_"  style="overflow:visible;"/>
		</clipPath>
		<g style="clip-path:url(#SVGID_00000069363545453748969920000001600505695775728319_);enable-background:new    ;">
			
				<linearGradient id="SVGID_00000181048240772283438400000013506666732293878688_" gradientUnits="userSpaceOnUse" x1="1149.0437" y1="501.3046" x2="1189.3533" y2="501.3046">
				<stop  offset="0" style="stop-color:#472624"/>
				<stop  offset="0.4384" style="stop-color:#F5E27B"/>
				<stop  offset="0.5" style="stop-color:#F5F2C0"/>
				<stop  offset="0.5517" style="stop-color:#CB9B51"/>
				<stop  offset="0.9261" style="stop-color:#5F431F"/>
			</linearGradient>
			<path style="fill:url(#SVGID_00000181048240772283438400000013506666732293878688_);" d="M1189.35,522.5l-28.94-25.01
				c-5.62-8.59-9.21-14.08-11.37-17.38l28.94,25.01C1180.15,508.42,1183.73,513.91,1189.35,522.5"/>
		</g>
	</g>
	
		<linearGradient id="SVGID_00000101792933294750008740000012467041719193553025_" gradientUnits="userSpaceOnUse" x1="320.3006" y1="1394.1556" x2="552.2947" y2="1394.1556">
		<stop  offset="0" style="stop-color:#472624"/>
		<stop  offset="0.4384" style="stop-color:#F5E27B"/>
		<stop  offset="0.5" style="stop-color:#F5F2C0"/>
		<stop  offset="0.5517" style="stop-color:#CB9B51"/>
		<stop  offset="0.9261" style="stop-color:#5F431F"/>
	</linearGradient>
	<path style="fill:url(#SVGID_00000101792933294750008740000012467041719193553025_);" d="M548.68,1178.48
		c-0.07-0.56-0.14-1.06-0.2-1.51c-0.11-0.83-0.2-1.46-0.26-1.89l-28.94-25.01c0.03,0.21,0.07,0.48,0.11,0.8
		c0.01,0.06,0.02,0.14,0.03,0.19c0.04,0.28,0.08,0.56,0.13,0.91c0.02,0.12,0.03,0.26,0.05,0.39c0.04,0.32,0.08,0.65,0.14,1.02
		c0.02,0.14,0.04,0.3,0.05,0.44c0.05,0.4,0.1,0.81,0.16,1.27c0.01,0.08,0.02,0.18,0.03,0.27c0.14,1.18,0.3,2.51,0.47,4.02
		c0,0.02,0,0.04,0,0.06c0.09,0.79,0.18,1.62,0.27,2.5c0,0.02,0,0.05,0.01,0.07c0.09,0.88,0.18,1.79,0.28,2.75c0,0.01,0,0.02,0,0.03
		c2.19,22.7,4.79,68.58-2.2,124.29c0,0.01,0,0.02,0,0.03c-0.3,2.41-0.62,4.84-0.96,7.29c0,0.01,0,0.02-0.01,0.04
		c-0.34,2.44-0.7,4.89-1.07,7.37c-0.01,0.04-0.01,0.07-0.02,0.11c-0.38,2.46-0.77,4.93-1.18,7.42c0,0.03-0.01,0.06-0.02,0.09
		c-0.41,2.49-0.85,4.99-1.31,7.51c-0.01,0.05-0.02,0.1-0.03,0.14c-0.45,2.5-0.92,5.01-1.42,7.53c-0.02,0.08-0.03,0.15-0.05,0.23
		c-0.49,2.5-1,5.02-1.54,7.55c-0.01,0.08-0.03,0.16-0.05,0.24c-0.53,2.52-1.09,5.05-1.67,7.59c-0.02,0.1-0.05,0.2-0.07,0.31
		c-0.58,2.52-1.17,5.05-1.79,7.59c-0.03,0.12-0.06,0.24-0.09,0.36c-0.62,2.52-1.26,5.05-1.92,7.59c-0.04,0.14-0.07,0.28-0.11,0.42
		c-0.66,2.52-1.34,5.05-2.05,7.59c-0.05,0.16-0.09,0.32-0.14,0.48c-0.7,2.52-1.43,5.04-2.19,7.58c-0.05,0.17-0.11,0.35-0.16,0.53
		c-0.75,2.51-1.52,5.04-2.32,7.56c-0.06,0.19-0.13,0.39-0.19,0.58c-0.8,2.51-1.62,5.03-2.46,7.55c-0.07,0.21-0.14,0.42-0.21,0.62
		c-0.84,2.5-1.72,5.01-2.61,7.53c-0.08,0.23-0.16,0.45-0.24,0.68c-0.89,2.49-1.81,4.98-2.75,7.48c-0.09,0.25-0.19,0.51-0.29,0.76
		c-0.94,2.48-1.9,4.96-2.89,7.43c-0.11,0.26-0.21,0.52-0.32,0.78c-0.99,2.46-2,4.93-3.04,7.39c-0.12,0.29-0.25,0.57-0.37,0.86
		c-1.04,2.44-2.1,4.88-3.19,7.32c-0.14,0.31-0.28,0.61-0.41,0.92c-1.09,2.42-2.2,4.84-3.34,7.25c-0.15,0.33-0.31,0.65-0.46,0.97
		c-1.14,2.4-2.3,4.79-3.49,7.18c-0.17,0.35-0.35,0.7-0.52,1.04c-1.19,2.38-2.4,4.74-3.64,7.11c-0.19,0.35-0.38,0.71-0.57,1.06
		c-1.24,2.36-2.51,4.7-3.8,7.04c-0.21,0.37-0.42,0.75-0.62,1.12c-1.29,2.32-2.61,4.63-3.95,6.94c-0.23,0.4-0.47,0.79-0.7,1.19
		c-1.34,2.28-2.71,4.57-4.1,6.84c-0.25,0.42-0.51,0.83-0.77,1.24c-1.4,2.25-2.81,4.51-4.26,6.75c-0.28,0.43-0.55,0.85-0.83,1.29
		c-1.45,2.22-2.92,4.44-4.43,6.65c-0.3,0.45-0.6,0.89-0.9,1.33c-1.5,2.19-3.03,4.37-4.58,6.55c-0.33,0.46-0.66,0.92-0.99,1.37
		c-1.55,2.16-3.13,4.3-4.74,6.44c-0.36,0.47-0.71,0.95-1.07,1.42c-1.6,2.11-3.23,4.21-4.89,6.3c-0.39,0.5-0.78,0.99-1.18,1.48
		c-1.65,2.07-3.33,4.12-5.04,6.17c-0.42,0.51-0.85,1.02-1.27,1.53c-1.71,2.03-3.44,4.04-5.2,6.05c-0.46,0.52-0.91,1.03-1.37,1.55
		c-1.76,1.99-3.55,3.96-5.36,5.92c-0.49,0.53-0.98,1.06-1.47,1.59c-2.09,2.24-4.21,4.48-6.38,6.69c-0.45,0.46-0.89,0.92-1.34,1.38
		c-2.41,2.44-4.88,4.86-7.39,7.28c-0.67,0.65-1.36,1.28-2.04,1.93c-2.05,1.95-4.14,3.88-6.26,5.8c-0.64,0.58-1.27,1.16-1.91,1.74
		c-2.63,2.36-5.32,4.7-8.05,7.02c-0.61,0.52-1.23,1.03-1.85,1.54c-2.28,1.91-4.58,3.8-6.93,5.68c-0.75,0.6-1.5,1.21-2.26,1.81
		c-2.88,2.27-5.8,4.53-8.78,6.75c-0.54,0.4-1.1,0.8-1.64,1.2c-2.54,1.88-5.12,3.75-7.75,5.59c-1.03,0.73-2.07,1.44-3.11,2.17
		c-2.3,1.59-4.64,3.17-6.99,4.73c-1.01,0.67-2,1.34-3.02,2c-3.32,2.16-6.68,4.3-10.12,6.4l28.94,25.01c3.44-2.1,6.79-4.24,10.12-6.4
		c1.01-0.66,2-1.32,3-1.98c2.38-1.58,4.73-3.17,7.05-4.77c1.02-0.7,2.03-1.4,3.04-2.11c2.64-1.86,5.24-3.74,7.81-5.64
		c0.53-0.39,1.08-0.78,1.61-1.18c0.12-0.09,0.26-0.18,0.38-0.28c2.85-2.14,5.64-4.3,8.4-6.48c0.76-0.6,1.5-1.2,2.25-1.8
		c2.36-1.89,4.69-3.8,6.98-5.72c0.59-0.5,1.2-0.99,1.79-1.49c2.75-2.33,5.45-4.69,8.11-7.07c0.6-0.54,1.19-1.08,1.79-1.62
		c2.18-1.98,4.32-3.96,6.44-5.96c0.62-0.59,1.26-1.19,1.88-1.79c2.54-2.44,5.05-4.9,7.5-7.38c0.38-0.38,0.75-0.77,1.12-1.16
		c1.37-1.4,2.74-2.8,4.08-4.2C574.6,1421.86,552.75,1210.17,548.68,1178.48z"/>
	
		<linearGradient id="SVGID_00000034777797995162537950000007294783532483042731_" gradientUnits="userSpaceOnUse" x1="1238.9919" y1="295.1535" x2="1294.9026" y2="295.1535">
		<stop  offset="0" style="stop-color:#472624"/>
		<stop  offset="0.4384" style="stop-color:#F5E27B"/>
		<stop  offset="0.5" style="stop-color:#F5F2C0"/>
		<stop  offset="0.5517" style="stop-color:#CB9B51"/>
		<stop  offset="0.9261" style="stop-color:#5F431F"/>
	</linearGradient>
	<path style="fill:url(#SVGID_00000034777797995162537950000007294783532483042731_);" d="M1265.96,272.4
		c-0.78,0.4-1.54,0.81-2.29,1.22c-0.14,0.08-0.26,0.15-0.4,0.23c-0.77,0.43-1.51,0.86-2.24,1.29c-0.34,0.2-0.68,0.39-1.01,0.59
		c-0.92,0.55-1.8,1.1-2.65,1.65c-0.11,0.07-0.24,0.15-0.35,0.22c-0.98,0.63-1.91,1.26-2.81,1.89c-0.2,0.14-0.39,0.28-0.59,0.43
		c-0.67,0.47-1.32,0.94-1.94,1.4c-0.06,0.05-0.13,0.1-0.2,0.14c-0.45,0.34-0.82,0.65-1.24,0.98c-0.6,0.47-1.22,0.94-1.77,1.39
		c-0.52,0.42-0.98,0.82-1.45,1.22c-0.43,0.36-0.84,0.72-1.23,1.06c-0.44,0.39-0.85,0.76-1.25,1.12c-0.36,0.33-0.68,0.63-1,0.94
		c-0.34,0.33-0.68,0.64-0.98,0.94c-0.34,0.33-0.62,0.62-0.91,0.92c-0.16,0.16-0.37,0.36-0.51,0.51c-1.29,1.35-1.99,2.21-2.11,2.36
		l28.94,25.01c0.14-0.17,1.06-1.27,2.68-2.93c0.28-0.29,0.57-0.58,0.89-0.9c0.29-0.28,0.61-0.59,0.93-0.89
		c0.35-0.33,0.72-0.68,1.11-1.04c0.37-0.33,0.75-0.68,1.16-1.04c0.44-0.38,0.91-0.79,1.39-1.19c0.43-0.36,0.86-0.73,1.33-1.11
		c0.6-0.49,1.26-1,1.92-1.51c0.43-0.33,0.82-0.65,1.28-0.99c0.6-0.44,1.23-0.9,1.87-1.35c0.23-0.16,0.44-0.32,0.67-0.48
		c0.89-0.62,1.81-1.24,2.78-1.87c0.17-0.11,0.36-0.22,0.53-0.34c0.8-0.51,1.62-1.02,2.47-1.54c0.36-0.22,0.75-0.44,1.12-0.65
		c0.69-0.41,1.39-0.81,2.12-1.21c0.89-0.49,1.78-0.98,2.72-1.47L1265.96,272.4z"/>
	
		<linearGradient id="SVGID_00000019679222800251165710000007480947822772543641_" gradientUnits="userSpaceOnUse" x1="1178.7371" y1="295.9865" x2="1283.7058" y2="295.9865">
		<stop  offset="0" style="stop-color:#472624"/>
		<stop  offset="0.4384" style="stop-color:#F5E27B"/>
		<stop  offset="0.5" style="stop-color:#F5F2C0"/>
		<stop  offset="0.5517" style="stop-color:#CB9B51"/>
		<stop  offset="0.9261" style="stop-color:#5F431F"/>
	</linearGradient>
	<path style="fill:url(#SVGID_00000019679222800251165710000007480947822772543641_);" d="M1255.09,294.55
		c1.46-1.02,2.99-2.06,4.54-3.12c0.19-0.13,0.37-0.26,0.56-0.38c1.45-0.98,2.95-1.98,4.48-3c0.32-0.21,0.62-0.41,0.94-0.62
		c1.41-0.93,2.88-1.89,4.37-2.85c0.46-0.3,0.9-0.59,1.37-0.89c1.48-0.96,3.03-1.94,4.58-2.92c0.48-0.3,0.94-0.6,1.43-0.91
		c2.05-1.29,4.16-2.61,6.34-3.95l-28.94-25.01c-16.82,10.37-29.92,19.3-40.12,26.93l0,0l0,0l0,0c-0.59,0.44-1.12,0.85-1.69,1.28
		c-0.78,0.59-1.57,1.18-2.31,1.76c-0.61,0.47-1.18,0.92-1.76,1.38c-0.71,0.56-1.43,1.12-2.11,1.66c-0.56,0.45-1.08,0.88-1.62,1.31
		c-0.65,0.53-1.31,1.06-1.93,1.58c-0.51,0.43-1,0.84-1.49,1.26c-0.59,0.5-1.18,1-1.74,1.48c-0.47,0.41-0.92,0.8-1.37,1.2
		c-0.53,0.47-1.07,0.94-1.57,1.39c-0.43,0.39-0.83,0.76-1.24,1.14c-0.47,0.43-0.95,0.87-1.4,1.3c-0.4,0.38-0.77,0.74-1.15,1.1
		c-0.42,0.4-0.84,0.8-1.23,1.19c-0.36,0.36-0.71,0.71-1.05,1.06c-0.36,0.37-0.73,0.73-1.07,1.09c-0.1,0.11-0.22,0.22-0.32,0.33
		c-0.22,0.23-0.41,0.44-0.62,0.67c-0.33,0.35-0.65,0.69-0.95,1.03c-0.29,0.32-0.57,0.63-0.85,0.95c-0.28,0.31-0.56,0.63-0.82,0.93
		c-0.26,0.31-0.51,0.6-0.75,0.89c-0.24,0.29-0.48,0.58-0.7,0.86c-0.23,0.28-0.44,0.56-0.65,0.83c-0.21,0.27-0.42,0.53-0.61,0.79
		c-0.19,0.26-0.38,0.51-0.56,0.76c-0.18,0.25-0.35,0.49-0.51,0.72c-0.17,0.24-0.32,0.47-0.48,0.7c-0.15,0.22-0.29,0.44-0.43,0.65
		c-0.14,0.22-0.27,0.43-0.39,0.63c-0.13,0.21-0.24,0.4-0.36,0.6c-0.11,0.19-0.22,0.38-0.32,0.56c-0.1,0.19-0.19,0.36-0.28,0.54
		c-0.09,0.17-0.18,0.34-0.26,0.5c-0.08,0.16-0.15,0.32-0.22,0.47c-0.07,0.15-0.14,0.3-0.2,0.45c-0.06,0.14-0.12,0.28-0.17,0.41
		c-0.05,0.13-0.11,0.26-0.15,0.38c-0.05,0.13-0.08,0.24-0.12,0.36c-0.04,0.11-0.08,0.22-0.11,0.32c-0.03,0.11-0.06,0.21-0.09,0.31
		c-0.03,0.09-0.05,0.18-0.07,0.26c-0.02,0.09-0.04,0.17-0.06,0.26c-0.01,0.07-0.03,0.14-0.04,0.2c-0.01,0.08-0.02,0.14-0.03,0.2
		c0,0.05-0.02,0.1-0.02,0.15c0,0.06-0.01,0.11-0.01,0.15c0,0.03,0,0.06,0,0.09c-0.01,0.06-0.01,0.11-0.01,0.14l28.94,25.01
		c0-0.03,0-0.08,0.01-0.14c0-0.03,0.01-0.07,0.01-0.09c0-0.05,0.01-0.09,0.01-0.15c0-0.04,0.02-0.1,0.02-0.16
		c0.01-0.06,0.01-0.12,0.03-0.19c0.01-0.06,0.03-0.14,0.04-0.21c0.02-0.08,0.03-0.16,0.06-0.25c0.02-0.08,0.05-0.17,0.07-0.26
		c0.03-0.1,0.05-0.2,0.08-0.31c0.03-0.1,0.07-0.22,0.11-0.33c0.04-0.12,0.08-0.23,0.12-0.36c0.04-0.12,0.1-0.26,0.15-0.39
		c0.05-0.13,0.11-0.27,0.17-0.41c0.06-0.14,0.13-0.3,0.2-0.45c0.07-0.15,0.14-0.3,0.22-0.47c0.08-0.16,0.17-0.34,0.26-0.51
		c0.09-0.17,0.18-0.35,0.28-0.53c0.1-0.18,0.21-0.38,0.32-0.57c0.11-0.19,0.23-0.39,0.35-0.6c0.13-0.21,0.26-0.42,0.4-0.64
		c0.13-0.21,0.27-0.43,0.42-0.65c0.15-0.23,0.31-0.46,0.48-0.7c0.16-0.24,0.33-0.48,0.52-0.73c0.18-0.24,0.36-0.49,0.55-0.75
		c0.2-0.26,0.41-0.53,0.62-0.8c0.21-0.27,0.42-0.54,0.65-0.81c0.23-0.28,0.47-0.58,0.72-0.87c0.24-0.29,0.48-0.58,0.74-0.88
		c0.27-0.31,0.55-0.63,0.83-0.95c0.27-0.31,0.55-0.62,0.84-0.94c0.31-0.34,0.64-0.69,0.96-1.04c0.31-0.32,0.61-0.65,0.93-0.99
		c0.35-0.36,0.71-0.73,1.08-1.1c0.34-0.35,0.68-0.69,1.04-1.05c0.39-0.39,0.81-0.79,1.23-1.19c0.38-0.36,0.75-0.72,1.15-1.1
		c0.45-0.42,0.93-0.86,1.4-1.3c0.41-0.38,0.81-0.75,1.24-1.14c0.51-0.46,1.04-0.93,1.58-1.4c0.45-0.39,0.89-0.78,1.35-1.19
		c0.56-0.49,1.16-0.99,1.76-1.49c0.49-0.41,0.97-0.82,1.47-1.24c0.62-0.51,1.28-1.05,1.93-1.58c0.54-0.44,1.06-0.87,1.62-1.31
		c0.68-0.54,1.4-1.11,2.11-1.66c0.59-0.46,1.15-0.91,1.76-1.38c0.74-0.57,1.53-1.17,2.31-1.76c3.88-2.94,8.19-6.07,12.98-9.42
		C1254.96,294.64,1255.02,294.6,1255.09,294.55z"/>
	<g class="st0">
		<defs>
			<path id="SVGID_00000124882425922899148920000000594250585647362432_" class="st0" d="M949.56,706.2l-28.94-25.01
				c-36.06-31.75-48.64-86.82-18.9-175.97l28.94,25.01C900.92,619.38,913.5,674.45,949.56,706.2z"/>
		</defs>
		
			<linearGradient id="SVGID_00000175309394327718484470000014097590155290817676_" gradientUnits="userSpaceOnUse" x1="885.1059" y1="605.7094" x2="949.5555" y2="605.7094">
			<stop  offset="0" style="stop-color:#472624"/>
			<stop  offset="0.4384" style="stop-color:#F5E27B"/>
			<stop  offset="0.5" style="stop-color:#F5F2C0"/>
			<stop  offset="0.5517" style="stop-color:#CB9B51"/>
			<stop  offset="0.9261" style="stop-color:#5F431F"/>
		</linearGradient>
		
			<use xlink:href="#SVGID_00000124882425922899148920000000594250585647362432_"  style="overflow:visible;fill:url(#SVGID_00000175309394327718484470000014097590155290817676_);"/>
		<clipPath id="SVGID_00000131345624188356646400000003259625054839439287_">
			<use xlink:href="#SVGID_00000124882425922899148920000000594250585647362432_"  style="overflow:visible;"/>
		</clipPath>
		<g style="clip-path:url(#SVGID_00000131345624188356646400000003259625054839439287_);enable-background:new    ;">
			
				<linearGradient id="SVGID_00000057118432883051124220000010816950013660977073_" gradientUnits="userSpaceOnUse" x1="885.1059" y1="605.7094" x2="949.5555" y2="605.7094">
				<stop  offset="0" style="stop-color:#472624"/>
				<stop  offset="0.4384" style="stop-color:#F5E27B"/>
				<stop  offset="0.5" style="stop-color:#F5F2C0"/>
				<stop  offset="0.5517" style="stop-color:#CB9B51"/>
				<stop  offset="0.9261" style="stop-color:#5F431F"/>
			</linearGradient>
			<path style="fill:url(#SVGID_00000057118432883051124220000010816950013660977073_);" d="M949.56,706.2l-28.94-25.01
				c-36.06-31.75-48.64-86.82-18.9-175.97l28.94,25.01C900.92,619.38,913.5,674.45,949.56,706.2"/>
		</g>
	</g>
	<g>
		
			<linearGradient id="SVGID_00000043453915365349120200000016631193727002178233_" gradientUnits="userSpaceOnUse" x1="535.1365" y1="1001.5783" x2="786.9646" y2="1001.5783">
			<stop  offset="0" style="stop-color:#472624"/>
			<stop  offset="0.4384" style="stop-color:#F5E27B"/>
			<stop  offset="0.5" style="stop-color:#F5F2C0"/>
			<stop  offset="0.5517" style="stop-color:#CB9B51"/>
			<stop  offset="0.9261" style="stop-color:#5F431F"/>
		</linearGradient>
		<polygon style="fill:url(#SVGID_00000043453915365349120200000016631193727002178233_);" points="564.08,934.58 535.14,909.57 
			758.02,1068.58 786.96,1093.59 		"/>
	</g>
	
		<linearGradient id="SVGID_00000116200584758647074490000016299286231956918924_" gradientUnits="userSpaceOnUse" x1="850.0144" y1="463.4211" x2="1029.9246" y2="463.4211">
		<stop  offset="0" style="stop-color:#472624"/>
		<stop  offset="0.4384" style="stop-color:#F5E27B"/>
		<stop  offset="0.5" style="stop-color:#F5F2C0"/>
		<stop  offset="0.5517" style="stop-color:#CB9B51"/>
		<stop  offset="0.9261" style="stop-color:#5F431F"/>
	</linearGradient>
	<path style="fill:url(#SVGID_00000116200584758647074490000016299286231956918924_);" d="M1007.94,411.81
		c2.02-1.28,4.09-2.56,6.18-3.84c0.31-0.19,0.61-0.38,0.92-0.57c2.03-1.24,4.11-2.48,6.19-3.72c0.38-0.23,0.75-0.45,1.13-0.68
		c2.48-1.46,5-2.92,7.56-4.38l-28.94-25.01c-20.3,11.55-37.92,23.21-53.21,34.65l0,0l0,0l0,0c-0.17,0.13-0.33,0.26-0.5,0.39
		c-1.94,1.45-3.83,2.9-5.69,4.35c-0.44,0.34-0.89,0.69-1.33,1.03c-1.97,1.54-3.89,3.08-5.78,4.61c-0.37,0.3-0.72,0.59-1.08,0.89
		c-1.69,1.39-3.35,2.77-4.98,4.14c-0.3,0.26-0.61,0.51-0.92,0.77c-1.79,1.52-3.53,3.04-5.24,4.55c-0.39,0.35-0.78,0.69-1.17,1.04
		c-1.64,1.46-3.26,2.92-4.83,4.36c-0.09,0.08-0.18,0.17-0.28,0.25c-1.64,1.51-3.22,3.01-4.78,4.5c-0.36,0.35-0.73,0.7-1.09,1.05
		c-1.52,1.47-3.01,2.93-4.45,4.38c-0.2,0.2-0.39,0.39-0.58,0.59c-1.3,1.31-2.58,2.62-3.82,3.92c-0.19,0.19-0.39,0.39-0.58,0.59
		c-0.14,0.14-0.27,0.29-0.4,0.43c-1.05,1.1-2.08,2.2-3.08,3.28c-0.09,0.1-0.19,0.21-0.29,0.31c-1.09,1.18-2.15,2.36-3.19,3.52
		c-0.34,0.38-0.67,0.76-1.01,1.14c-0.72,0.82-1.44,1.63-2.13,2.44c-0.35,0.4-0.7,0.8-1.04,1.2c-0.73,0.86-1.45,1.71-2.17,2.56
		c-0.25,0.3-0.5,0.59-0.75,0.89c-0.93,1.12-1.83,2.23-2.71,3.33c-0.24,0.29-0.46,0.58-0.7,0.87c-0.66,0.82-1.3,1.64-1.94,2.45
		c-0.3,0.38-0.59,0.76-0.88,1.14c-0.58,0.75-1.15,1.5-1.71,2.25c-0.26,0.34-0.52,0.68-0.77,1.02c-0.78,1.05-1.54,2.09-2.28,3.11
		c-0.07,0.1-0.15,0.21-0.22,0.31c-0.67,0.93-1.32,1.85-1.96,2.77c-0.24,0.34-0.47,0.68-0.7,1.02c-0.48,0.69-0.94,1.37-1.4,2.04
		c-0.24,0.35-0.47,0.69-0.7,1.03c-0.5,0.75-0.98,1.48-1.46,2.21c-0.15,0.23-0.3,0.46-0.45,0.69c-0.6,0.93-1.19,1.86-1.75,2.76
		c-0.18,0.28-0.35,0.56-0.52,0.84c-0.4,0.65-0.79,1.29-1.17,1.92c-0.2,0.32-0.39,0.64-0.58,0.96c-0.37,0.61-0.72,1.22-1.07,1.82
		c-0.16,0.27-0.32,0.55-0.48,0.82c-0.48,0.84-0.95,1.66-1.4,2.46c-0.1,0.18-0.19,0.35-0.29,0.53c-0.36,0.64-0.7,1.28-1.04,1.9
		c-0.16,0.29-0.31,0.58-0.46,0.86c-0.27,0.51-0.54,1.01-0.79,1.51c-0.15,0.28-0.29,0.57-0.44,0.85c-0.29,0.56-0.56,1.1-0.83,1.64
		c-0.09,0.18-0.19,0.37-0.27,0.55c-0.34,0.7-0.67,1.37-0.99,2.03c-0.1,0.22-0.2,0.44-0.31,0.66c-0.22,0.46-0.43,0.91-0.63,1.35
		c-0.11,0.24-0.22,0.47-0.32,0.71c-0.2,0.43-0.38,0.85-0.57,1.27c-0.09,0.19-0.17,0.39-0.26,0.59c-0.25,0.57-0.49,1.13-0.71,1.67
		c-0.07,0.16-0.13,0.3-0.19,0.46c-0.16,0.4-0.33,0.79-0.48,1.17c-0.08,0.19-0.15,0.38-0.22,0.56c-0.13,0.33-0.26,0.66-0.38,0.98
		c-0.06,0.17-0.13,0.33-0.19,0.5c-0.15,0.38-0.28,0.74-0.41,1.1c-0.03,0.08-0.06,0.16-0.09,0.24c-0.15,0.41-0.29,0.8-0.42,1.17
		c-0.05,0.14-0.1,0.27-0.14,0.4c-0.08,0.24-0.16,0.47-0.23,0.69c-0.05,0.13-0.09,0.26-0.13,0.38c-0.07,0.22-0.14,0.42-0.2,0.61
		c-0.03,0.1-0.06,0.2-0.09,0.29c-0.08,0.26-0.16,0.51-0.23,0.73c-0.03,0.08-0.04,0.14-0.07,0.22c-0.05,0.15-0.09,0.3-0.13,0.43
		c-0.02,0.07-0.04,0.13-0.05,0.19c-0.03,0.12-0.06,0.22-0.09,0.32c-0.01,0.05-0.03,0.1-0.04,0.14c-0.03,0.11-0.06,0.21-0.07,0.28
		l28.94,25.01c0.02-0.07,0.05-0.18,0.08-0.3c0.01-0.03,0.02-0.06,0.02-0.09c0.03-0.11,0.07-0.24,0.11-0.39
		c0.01-0.04,0.02-0.08,0.04-0.12c0.05-0.16,0.1-0.34,0.15-0.53c0.01-0.05,0.02-0.08,0.04-0.13c0.07-0.23,0.15-0.49,0.24-0.77
		c0.02-0.06,0.04-0.13,0.06-0.2c0.07-0.23,0.15-0.47,0.24-0.73c0.03-0.1,0.06-0.2,0.1-0.29c0.08-0.25,0.18-0.52,0.27-0.8
		c0.04-0.1,0.07-0.2,0.11-0.3c0.27-0.77,0.58-1.63,0.94-2.57c0.05-0.13,0.1-0.26,0.15-0.38c0.14-0.37,0.29-0.74,0.45-1.13
		c0.06-0.14,0.11-0.28,0.17-0.43c0.18-0.45,0.38-0.92,0.58-1.41c0.03-0.08,0.06-0.15,0.09-0.23c0.24-0.57,0.49-1.15,0.75-1.76
		c0.06-0.13,0.12-0.27,0.18-0.41c0.21-0.48,0.43-0.97,0.65-1.47c0.09-0.19,0.17-0.38,0.26-0.57c0.23-0.5,0.47-1.01,0.71-1.53
		c0.08-0.17,0.16-0.34,0.24-0.51c0.33-0.69,0.67-1.4,1.02-2.12c0.05-0.09,0.09-0.18,0.14-0.27c0.32-0.63,0.64-1.28,0.98-1.94
		c0.12-0.23,0.24-0.46,0.36-0.69c0.29-0.56,0.58-1.12,0.89-1.7c0.13-0.24,0.25-0.47,0.38-0.71c0.39-0.72,0.79-1.46,1.2-2.2
		c0.05-0.08,0.09-0.16,0.13-0.24c0.46-0.83,0.95-1.68,1.44-2.55c0.13-0.22,0.26-0.45,0.39-0.68c0.38-0.66,0.77-1.32,1.18-2
		c0.16-0.27,0.32-0.54,0.49-0.82c0.42-0.69,0.85-1.39,1.28-2.1c0.14-0.23,0.28-0.46,0.43-0.69c0.58-0.93,1.18-1.87,1.79-2.83
		c0.11-0.18,0.23-0.36,0.35-0.53c0.51-0.79,1.03-1.58,1.57-2.38c0.21-0.31,0.42-0.63,0.63-0.94c0.48-0.71,0.97-1.43,1.47-2.15
		c0.22-0.31,0.43-0.62,0.65-0.94c0.69-0.98,1.38-1.97,2.11-2.98c0.02-0.03,0.05-0.07,0.07-0.1c0.75-1.04,1.53-2.1,2.32-3.16
		c0.23-0.31,0.47-0.62,0.71-0.94c0.58-0.78,1.18-1.56,1.79-2.35c0.27-0.35,0.55-0.71,0.82-1.06c0.66-0.85,1.33-1.7,2.02-2.56
		c0.21-0.26,0.41-0.52,0.62-0.78c0.89-1.11,1.81-2.23,2.75-3.36c0.23-0.27,0.46-0.54,0.68-0.81c0.73-0.87,1.47-1.75,2.23-2.64
		c0.33-0.39,0.66-0.77,1-1.16c0.71-0.83,1.44-1.66,2.18-2.49c0.32-0.36,0.64-0.73,0.96-1.09c1.05-1.18,2.12-2.36,3.22-3.55
		c0.06-0.06,0.11-0.12,0.17-0.18c1.05-1.13,2.12-2.28,3.21-3.42c0.31-0.33,0.63-0.65,0.94-0.98c1.25-1.3,2.52-2.61,3.83-3.93
		c0.2-0.2,0.39-0.4,0.6-0.61c1.44-1.44,2.93-2.9,4.44-4.37c0.36-0.35,0.73-0.7,1.1-1.05c1.55-1.49,3.13-2.98,4.76-4.49
		c0.1-0.1,0.21-0.19,0.32-0.29c1.56-1.43,3.16-2.88,4.78-4.32c0.4-0.35,0.79-0.7,1.2-1.06c1.7-1.5,3.44-3.01,5.21-4.52
		c0.32-0.27,0.65-0.54,0.97-0.82c1.6-1.36,3.25-2.72,4.92-4.09c0.37-0.31,0.74-0.61,1.12-0.92c1.87-1.52,3.78-3.04,5.73-4.57
		c0.47-0.36,0.94-0.73,1.41-1.09c1.81-1.4,3.65-2.81,5.52-4.22c9.54-7.17,20-14.42,31.46-21.68
		C1007.68,411.98,1007.81,411.89,1007.94,411.81z"/>
	
		<linearGradient id="SVGID_00000052787392813721120750000016977428539458773659_" gradientUnits="userSpaceOnUse" x1="948.575" y1="357.1259" x2="1207.6805" y2="357.1259">
		<stop  offset="0" style="stop-color:#472624"/>
		<stop  offset="0.4384" style="stop-color:#F5E27B"/>
		<stop  offset="0.5" style="stop-color:#F5F2C0"/>
		<stop  offset="0.5517" style="stop-color:#CB9B51"/>
		<stop  offset="0.9261" style="stop-color:#5F431F"/>
	</linearGradient>
	<path style="fill:url(#SVGID_00000052787392813721120750000016977428539458773659_);" d="M1207.68,341.09l-28.94-25.01
		c-3.23-0.75-6.42-1.4-9.59-2.02c-0.7-0.14-1.42-0.31-2.13-0.45c-0.85-0.16-1.69-0.3-2.54-0.45c-0.84-0.15-1.69-0.3-2.52-0.44
		c-1.77-0.3-3.54-0.58-5.29-0.84c-0.61-0.09-1.22-0.19-1.82-0.28c-2.34-0.33-4.66-0.63-6.97-0.9c-0.52-0.06-1.03-0.11-1.54-0.16
		c-1.79-0.2-3.58-0.38-5.35-0.54c-0.79-0.07-1.57-0.13-2.35-0.19c-1.52-0.12-3.02-0.23-4.52-0.32c-0.81-0.05-1.61-0.1-2.41-0.14
		c-1.54-0.08-3.06-0.14-4.58-0.2c-0.7-0.02-1.4-0.05-2.09-0.07c-2.18-0.06-4.35-0.09-6.49-0.09c-5.52,0-10.9,0.17-16.16,0.51
		c-0.26,0.02-0.51,0.05-0.77,0.06c-3.2,0.21-6.35,0.47-9.45,0.79c-0.3,0.03-0.59,0.08-0.89,0.11c-2.8,0.31-5.57,0.65-8.29,1.04
		c-1.12,0.16-2.21,0.35-3.31,0.52c-1.88,0.3-3.75,0.6-5.59,0.94c-1.23,0.22-2.45,0.46-3.67,0.7c-1.67,0.33-3.32,0.68-4.95,1.04
		c-0.72,0.16-1.47,0.29-2.18,0.46l0.03,0.03l-0.03-0.03c-0.52,0.12-1.02,0.26-1.54,0.39c-1.38,0.33-2.73,0.67-4.08,1.02
		c-1.3,0.33-2.61,0.66-3.89,1.01c-1.21,0.33-2.39,0.68-3.57,1.03c-1.37,0.4-2.75,0.79-4.09,1.21c-0.69,0.21-1.35,0.44-2.03,0.66
		c-4.28,1.38-8.46,2.82-12.46,4.36c-1.23,0.47-2.4,0.97-3.61,1.46c-0.82,0.33-1.65,0.66-2.46,0.99c-1.48,0.62-2.93,1.25-4.37,1.89
		c-0.72,0.32-1.43,0.63-2.14,0.95c-1.5,0.68-2.98,1.36-4.43,2.06c-0.49,0.24-0.98,0.48-1.46,0.71c-3.48,1.69-6.86,3.41-10.06,5.17
		c-0.43,0.24-0.82,0.48-1.24,0.71c-1.79,1-3.54,2-5.24,3.01c-0.58,0.34-1.17,0.68-1.74,1.03c-2.18,1.31-4.29,2.63-6.32,3.94
		c-0.37,0.24-0.71,0.47-1.07,0.71c-1.68,1.1-3.31,2.2-4.89,3.29c-0.57,0.4-1.13,0.79-1.68,1.18c-1.45,1.02-2.84,2.03-4.19,3.03
		c-0.28,0.21-0.59,0.42-0.87,0.63c-0.13,0.1-0.25,0.19-0.37,0.29c-0.78,0.58-1.51,1.15-2.25,1.72c-0.61,0.47-1.24,0.95-1.82,1.41
		c-0.73,0.57-1.41,1.13-2.1,1.69c-0.55,0.44-1.11,0.89-1.63,1.32c-0.71,0.59-1.37,1.15-2.04,1.72c-0.45,0.38-0.93,0.78-1.36,1.15
		c-0.79,0.68-1.52,1.33-2.25,1.98c-0.32,0.29-0.67,0.59-0.98,0.87c-0.91,0.82-1.77,1.61-2.58,2.37c-0.32,0.3-0.6,0.57-0.9,0.86
		c-0.52,0.49-1.05,0.99-1.52,1.46c-0.34,0.33-0.63,0.62-0.94,0.93c-0.38,0.38-0.78,0.77-1.13,1.13c-0.35,0.35-0.65,0.66-0.96,0.99
		c-0.26,0.27-0.54,0.55-0.77,0.79c-0.05,0.05-0.1,0.11-0.15,0.15c-1.95,2.05-3.12,3.4-3.49,3.83l28.94,25.01
		c0.38-0.44,1.59-1.84,3.62-3.96c0.27-0.28,0.58-0.6,0.88-0.91c0.29-0.29,0.56-0.57,0.87-0.89c0.35-0.35,0.75-0.74,1.13-1.12
		c0.32-0.31,0.61-0.61,0.95-0.94c0.45-0.44,0.95-0.91,1.44-1.37c0.33-0.31,0.63-0.61,0.98-0.94c0.86-0.8,1.77-1.64,2.74-2.51
		c0.18-0.16,0.38-0.33,0.56-0.49c0.81-0.72,1.63-1.46,2.51-2.22c0.42-0.36,0.88-0.74,1.31-1.11c0.69-0.58,1.36-1.16,2.09-1.77
		c0.52-0.43,1.08-0.87,1.61-1.3c0.7-0.57,1.39-1.13,2.12-1.71c0.59-0.47,1.22-0.94,1.84-1.42c0.74-0.57,1.46-1.13,2.22-1.71
		c0.41-0.31,0.86-0.63,1.28-0.94c1.33-0.99,2.72-1.99,4.15-3c0.56-0.4,1.13-0.8,1.71-1.2c1.58-1.09,3.21-2.19,4.89-3.3
		c0.36-0.23,0.69-0.46,1.05-0.7c2.03-1.32,4.15-2.64,6.34-3.95c0.55-0.33,1.13-0.67,1.69-1c1.72-1.02,3.5-2.04,5.32-3.05
		c1.57-0.88,3.19-1.74,4.83-2.61c0.29-0.15,0.57-0.3,0.86-0.45c1.53-0.8,3.09-1.58,4.68-2.36c0.5-0.24,1-0.49,1.5-0.73
		c1.53-0.74,3.07-1.47,4.65-2.19c0.57-0.26,1.16-0.52,1.73-0.77c1.59-0.71,3.2-1.42,4.84-2.12c0.23-0.1,0.47-0.19,0.7-0.28
		c3.72-1.55,7.57-3.04,11.56-4.45c0.33-0.12,0.64-0.24,0.97-0.36c1.5-0.53,3.05-1.03,4.59-1.53c0.94-0.31,1.86-0.62,2.81-0.92
		c1.38-0.43,2.81-0.85,4.22-1.26c1.16-0.34,2.31-0.68,3.48-1c1.34-0.37,2.7-0.72,4.07-1.08c1.3-0.33,2.62-0.67,3.94-0.98
		c1.28-0.31,2.57-0.6,3.86-0.89c1.65-0.37,3.32-0.71,5-1.05c1.21-0.24,2.41-0.48,3.63-0.71c1.93-0.35,3.89-0.67,5.86-0.98
		c1.02-0.16,2.03-0.34,3.06-0.49c3.02-0.44,6.07-0.83,9.19-1.16c0.45-0.05,0.92-0.08,1.38-0.12c2.7-0.27,5.42-0.5,8.19-0.69
		c5.53-0.37,11.2-0.58,17.02-0.58c2.15,0,4.31,0.04,6.49,0.09c0.69,0.02,1.39,0.05,2.09,0.07c1.52,0.05,3.05,0.12,4.59,0.2
		c0.8,0.04,1.6,0.09,2.41,0.14c1.5,0.09,3.01,0.2,4.52,0.32c0.78,0.06,1.56,0.12,2.35,0.19c1.76,0.16,3.54,0.34,5.32,0.53
		c0.53,0.06,1.05,0.1,1.57,0.17c2.3,0.27,4.62,0.57,6.95,0.9c0.63,0.09,1.26,0.19,1.89,0.29c1.72,0.26,3.45,0.53,5.19,0.82
		c0.87,0.15,1.75,0.31,2.62,0.46c1.44,0.26,2.89,0.55,4.33,0.83C1201.08,339.65,1204.36,340.32,1207.68,341.09z"/>
	<g class="st0">
		<defs>
			<path id="SVGID_00000131359227234674359610000013733063619320984992_" class="st0" d="M638.74,510.48
				c-4.82-4.17-9.65-8.34-14.47-12.51c-4.83-4.17-9.65-8.34-14.47-12.51c101.99,88.13,237.37,159.95,310.82,195.72l28.94,25.01
				C876.11,670.43,740.73,598.61,638.74,510.48z"/>
		</defs>
		
			<linearGradient id="SVGID_00000170257873282969063370000015279666582095089571_" gradientUnits="userSpaceOnUse" x1="609.7913" y1="595.8322" x2="949.5555" y2="595.8322">
			<stop  offset="0" style="stop-color:#472624"/>
			<stop  offset="0.4384" style="stop-color:#F5E27B"/>
			<stop  offset="0.5" style="stop-color:#F5F2C0"/>
			<stop  offset="0.5517" style="stop-color:#CB9B51"/>
			<stop  offset="0.9261" style="stop-color:#5F431F"/>
		</linearGradient>
		
			<use xlink:href="#SVGID_00000131359227234674359610000013733063619320984992_"  style="overflow:visible;fill:url(#SVGID_00000170257873282969063370000015279666582095089571_);"/>
		<clipPath id="SVGID_00000034088061335131261280000002137438160725102721_">
			<use xlink:href="#SVGID_00000131359227234674359610000013733063619320984992_"  style="overflow:visible;"/>
		</clipPath>
		<g style="clip-path:url(#SVGID_00000034088061335131261280000002137438160725102721_);enable-background:new    ;">
			
				<linearGradient id="SVGID_00000005946152163791229870000018202833297469627041_" gradientUnits="userSpaceOnUse" x1="609.7913" y1="550.1652" x2="783.3601" y2="550.1652">
				<stop  offset="0" style="stop-color:#472624"/>
				<stop  offset="0.4384" style="stop-color:#F5E27B"/>
				<stop  offset="0.5" style="stop-color:#F5F2C0"/>
				<stop  offset="0.5517" style="stop-color:#CB9B51"/>
				<stop  offset="0.9261" style="stop-color:#5F431F"/>
			</linearGradient>
			<path style="fill:url(#SVGID_00000005946152163791229870000018202833297469627041_);" d="M638.74,510.48l-28.94-25.01
				c44.49,38.44,95.34,73.79,144.62,104.39l28.94,25.01C734.07,584.26,683.23,548.92,638.74,510.48"/>
			
				<linearGradient id="SVGID_00000050659822164444335180000002096334546003194274_" gradientUnits="userSpaceOnUse" x1="754.4163" y1="648.0256" x2="949.5555" y2="648.0256">
				<stop  offset="0" style="stop-color:#472624"/>
				<stop  offset="0.4384" style="stop-color:#F5E27B"/>
				<stop  offset="0.5" style="stop-color:#F5F2C0"/>
				<stop  offset="0.5517" style="stop-color:#CB9B51"/>
				<stop  offset="0.9261" style="stop-color:#5F431F"/>
			</linearGradient>
			<path style="fill:url(#SVGID_00000050659822164444335180000002096334546003194274_);" d="M783.36,614.86l-28.94-25.01
				c63.7,39.54,124.79,71.17,166.2,91.34l28.94,25.01C908.15,686.03,847.06,654.41,783.36,614.86"/>
		</g>
	</g>
	<g>
		
			<linearGradient id="SVGID_00000118363516284829430390000000962315726124197564_" gradientUnits="userSpaceOnUse" x1="300.5458" y1="231.9998" x2="1877.2665" y2="1781.1954">
			<stop  offset="0" style="stop-color:#472624"/>
			<stop  offset="0.4384" style="stop-color:#F5E27B"/>
			<stop  offset="0.5" style="stop-color:#F5F2C0"/>
			<stop  offset="0.5517" style="stop-color:#CB9B51"/>
			<stop  offset="0.9261" style="stop-color:#5F431F"/>
		</linearGradient>
		<path style="fill:url(#SVGID_00000118363516284829430390000000962315726124197564_);" d="M1749.11,1637.93
			c-215.48-6.55-275.12-252.82-278.26-265.78c-16.62,190.51,164.03,348.26,173.54,356.57c-170.96-35.25-230.65-177.1-233.79-184.56
			c10.28,273.23-91.69,451.1-97.06,460.46l44.45-911.35l236.45-161.24l30.68-226.78c-247.79,176.04-436.52,271.35-446.45,276.37
			l32.71,349.8l-157.29,193.06l-140.93-194.84l63.28-349.36c-152.82-73.9-409.28-264.96-422.78-275.02l10.43,229.33l222.88,159.01
			l-34.94,911.03c-97.13-218.58-58.33-449.2-56.29-461.34c-100.58,164.83-243.27,182.69-250.78,183.63
			c225.58-197.06,205.09-346.85,204.01-354.74c-97.92,266.94-289.63,266.1-299.72,266.06c243.03-148.71,201.19-447.42,198.98-463.15
			c-11.08,345.8-252.13,400.27-264.82,403.14c118.76-72.59,126.58-225.48,126.99-233.52c40.5-167.21-1.43-496.27-3.63-513.59
			C362.61,295.44,503.6,258.83,511.03,256.9C458.86,446.67,812.32,639.36,949.56,706.2c-36.06-31.75-48.64-86.82-18.9-175.97
			c-3.55-0.47-13.6,2.47-51.69,23c1.11-4.06,22.13-81.27,150.97-154.61c-0.1-0.03-1.88-0.51-6.66-0.51
			c-7.29,0-21.33,1.18-45.74,7.16c3.07-3.56,61.52-71.27,169.96-71.26c18.7,0.01,38.8,2.12,60.21,7.09
			c0.01-0.92,0.21-18.46,76.03-65.19c-0.85,0.53-17.06,10.54-15.77,42.01c0.46-0.57,9.25-11.33,26.97-20.5
			c-0.66,1.31-13.29,26.24-4.8,85.02c1.37,1.04,27.27,20.86,62.44,147.06c0.76,0.88,15.12,17.58,21.03,37.29
			c0.58,2.73,11.54,54.59-34.04,64.48c-0.32,0.1-6.42,2.02-14.94,2.02c-14.55,0-35.19-5.86-40.44-37.61
			c-2.46-0.19-49.21-3.76-90.32-66.31c-0.78,0.16-92,39.33-2.9,192.16l2.68,4.52c30.84-8.75,43.1-18.61,43.75-19.13
			c557.37-274.72,474.82-441.23,470.48-449.99c131.82,76.15,92.32,403.42,46.58,608.84c-45.69,206.87-42.27,330.54-41.53,489.2
			c0.73,159.55,99.96,220.93,105.19,224.16c-247.2-60.91-231.89-391.4-231.09-408.79
			C1531.22,1523.87,1738.21,1632.23,1749.11,1637.93z M1177.99,505.12c2.16,3.29,5.75,8.78,11.37,17.38
			C1185.79,517.06,1180.95,509.64,1177.99,505.12"/>
	</g>
	<g class="st0">
		
			<linearGradient id="SVGID_00000124162807412782484600000007169272890629440153_" gradientUnits="userSpaceOnUse" x1="254.4676" y1="905.0612" x2="511.0262" y2="905.0612">
			<stop  offset="0" style="stop-color:#472624"/>
			<stop  offset="0.4384" style="stop-color:#F5E27B"/>
			<stop  offset="0.5" style="stop-color:#F5F2C0"/>
			<stop  offset="0.5517" style="stop-color:#CB9B51"/>
			<stop  offset="0.9261" style="stop-color:#5F431F"/>
		</linearGradient>
		<path style="fill:url(#SVGID_00000124162807412782484600000007169272890629440153_);" d="M482.08,231.9
			c-0.57,0.15-1.91,0.5-3.88,1.25c-0.01,0-0.02,0.01-0.03,0.01c-0.42,0.16-0.86,0.34-1.33,0.54c-0.03,0.01-0.05,0.02-0.07,0.03
			c-0.49,0.2-1,0.43-1.54,0.68c-0.02,0.01-0.06,0.03-0.08,0.04c-0.52,0.24-1.06,0.5-1.63,0.79c-0.06,0.03-0.12,0.06-0.17,0.09
			c-0.56,0.28-1.13,0.58-1.73,0.91c-0.03,0.02-0.06,0.03-0.09,0.05c-0.03,0.02-0.07,0.04-0.1,0.06c-0.58,0.32-1.18,0.66-1.8,1.03
			c-0.09,0.05-0.17,0.1-0.26,0.16c-0.61,0.36-1.24,0.76-1.89,1.17c-0.1,0.06-0.19,0.12-0.29,0.18c-0.66,0.43-1.34,0.88-2.03,1.36
			c-0.08,0.06-0.16,0.11-0.25,0.17c-0.73,0.51-1.49,1.06-2.26,1.63c-0.03,0.02-0.06,0.04-0.09,0.07c-0.02,0.01-0.03,0.02-0.05,0.04
			c-0.92,0.69-1.86,1.43-2.83,2.22c-0.09,0.07-0.18,0.14-0.26,0.22c-0.98,0.81-1.99,1.66-3.01,2.57c-0.02,0.02-0.04,0.03-0.06,0.05
			c-1.01,0.9-2.05,1.87-3.1,2.88c-0.09,0.08-0.17,0.17-0.26,0.25c-1.06,1.03-2.13,2.11-3.22,3.25c-0.02,0.02-0.03,0.03-0.05,0.05
			c-0.08,0.09-0.17,0.19-0.25,0.27c-0.47,0.5-0.94,1-1.42,1.52c-0.18,0.19-0.36,0.39-0.54,0.59c-0.5,0.55-1,1.12-1.51,1.7
			c-0.09,0.1-0.17,0.19-0.26,0.3c-0.58,0.66-1.15,1.35-1.74,2.04c-0.18,0.21-0.36,0.43-0.54,0.65c-0.46,0.55-0.91,1.11-1.37,1.69
			c-0.16,0.2-0.32,0.39-0.48,0.59c-0.59,0.74-1.17,1.5-1.77,2.28c-0.15,0.2-0.31,0.41-0.46,0.61c-0.47,0.62-0.94,1.26-1.41,1.9
			c-0.18,0.25-0.37,0.5-0.55,0.75c-0.6,0.83-1.2,1.68-1.81,2.55c-0.08,0.11-0.16,0.23-0.24,0.35c-0.54,0.78-1.08,1.58-1.62,2.38
			c-0.19,0.29-0.38,0.58-0.58,0.87c-0.5,0.76-1,1.53-1.5,2.31c-0.13,0.2-0.26,0.4-0.39,0.6c-0.61,0.96-1.22,1.94-1.83,2.94
			c-0.17,0.29-0.35,0.58-0.52,0.87c-0.48,0.79-0.95,1.59-1.43,2.41c-0.17,0.3-0.35,0.59-0.52,0.89c-0.61,1.06-1.22,2.13-1.83,3.23
			c-0.13,0.24-0.26,0.48-0.39,0.72c-0.5,0.91-1,1.84-1.51,2.78c-0.19,0.35-0.37,0.7-0.56,1.05c-0.58,1.11-1.17,2.24-1.75,3.39
			c-0.04,0.08-0.08,0.15-0.12,0.23c-0.62,1.22-1.23,2.46-1.84,3.73c-0.18,0.37-0.36,0.75-0.54,1.13c-0.49,1.03-0.98,2.07-1.47,3.12
			c-0.14,0.31-0.29,0.61-0.43,0.91c-0.61,1.32-1.21,2.66-1.81,4.02c-0.16,0.36-0.32,0.72-0.48,1.09c-0.48,1.09-0.95,2.19-1.42,3.31
			c-0.17,0.41-0.35,0.82-0.52,1.23c-0.6,1.44-1.2,2.89-1.8,4.38c-0.09,0.23-0.18,0.46-0.27,0.69c-0.52,1.3-1.03,2.61-1.55,3.95
			c-0.18,0.46-0.35,0.93-0.53,1.39c-0.51,1.35-1.02,2.73-1.53,4.12c-0.09,0.24-0.18,0.48-0.27,0.72c-0.58,1.61-1.16,3.25-1.74,4.91
			c-0.16,0.46-0.32,0.94-0.48,1.4c-0.46,1.34-0.91,2.69-1.37,4.06c-0.14,0.43-0.29,0.86-0.43,1.3c-0.57,1.73-1.13,3.48-1.69,5.27
			c-0.13,0.41-0.26,0.83-0.38,1.24c-0.45,1.45-0.9,2.92-1.34,4.41c-0.16,0.54-0.32,1.08-0.48,1.62c-0.55,1.87-1.1,3.77-1.64,5.7
			c-0.04,0.14-0.08,0.28-0.12,0.41c-0.51,1.82-1.01,3.67-1.51,5.54c-0.15,0.57-0.3,1.15-0.46,1.73c-0.44,1.68-0.88,3.38-1.32,5.1
			c-0.1,0.39-0.2,0.77-0.3,1.17c-0.51,2.06-1.02,4.16-1.53,6.28c-0.13,0.55-0.26,1.11-0.39,1.67c-0.4,1.7-0.79,3.43-1.19,5.17
			c-0.13,0.58-0.26,1.16-0.39,1.74c-0.49,2.2-0.97,4.43-1.45,6.69c-0.09,0.42-0.18,0.86-0.26,1.28c-0.4,1.91-0.79,3.84-1.18,5.8
			c-0.13,0.68-0.27,1.35-0.4,2.03c-0.43,2.22-0.86,4.46-1.28,6.73c-0.03,0.17-0.06,0.34-0.09,0.51c-0.45,2.43-0.88,4.9-1.32,7.39
			c-0.12,0.7-0.24,1.4-0.36,2.1c-0.35,2.03-0.69,4.08-1.02,6.15c-0.09,0.58-0.19,1.15-0.28,1.74c-0.41,2.56-0.81,5.16-1.2,7.79
			c-0.09,0.63-0.18,1.27-0.28,1.91c-0.31,2.13-0.62,4.29-0.92,6.46c-0.11,0.75-0.21,1.49-0.31,2.24c-0.37,2.74-0.74,5.5-1.09,8.31
			c-0.04,0.35-0.08,0.7-0.13,1.05c-0.31,2.5-0.62,5.04-0.92,7.6c-0.1,0.83-0.19,1.65-0.29,2.49c-0.29,2.53-0.57,5.08-0.84,7.66
			c-0.05,0.44-0.1,0.86-0.14,1.3c-0.31,2.96-0.61,5.97-0.9,9c-0.08,0.82-0.15,1.65-0.23,2.48c-0.23,2.44-0.45,4.91-0.67,7.4
			c-0.07,0.77-0.14,1.53-0.2,2.31c-0.26,3.13-0.52,6.3-0.77,9.51c-0.05,0.65-0.1,1.32-0.14,1.98c-0.2,2.66-0.39,5.35-0.57,8.06
			c-0.06,0.93-0.12,1.85-0.18,2.78c-0.22,3.33-0.43,6.67-0.62,10.08c-0.01,0.14-0.01,0.29-0.02,0.43c-0.19,3.28-0.36,6.6-0.52,9.95
			c-0.05,0.98-0.1,1.98-0.14,2.97c-0.14,2.91-0.27,5.84-0.38,8.81c-0.03,0.69-0.06,1.36-0.09,2.05c-0.14,3.57-0.27,7.18-0.38,10.82
			c-0.03,0.91-0.06,1.83-0.08,2.75c-0.09,2.94-0.17,5.91-0.24,8.9c-0.02,0.97-0.05,1.94-0.07,2.92c-0.08,3.76-0.15,7.55-0.21,11.39
			c-0.01,0.63-0.01,1.27-0.02,1.9c-0.04,3.3-0.08,6.63-0.1,9.99c-0.01,1.11-0.02,2.22-0.03,3.33c-0.02,3.67-0.03,7.36-0.03,11.09
			c0,0.34,0,0.68,0,1.03c0,4.05,0.03,8.15,0.06,12.29c0.01,1.11,0.02,2.23,0.03,3.34c0.03,3.39,0.07,6.81,0.13,10.27
			c0.01,0.91,0.03,1.82,0.04,2.74c0.07,4.23,0.15,8.51,0.25,12.83c0.02,0.97,0.05,1.95,0.07,2.92c0.09,3.53,0.18,7.09,0.29,10.68
			c0.04,1.18,0.07,2.36,0.11,3.55c0.14,4.45,0.29,8.93,0.46,13.46c0.02,0.47,0.04,0.94,0.06,1.41c0.16,4.13,0.33,8.3,0.51,12.5
			c0.06,1.29,0.11,2.58,0.17,3.88c0.18,4.02,0.38,8.07,0.58,12.16c0.04,0.73,0.07,1.45,0.11,2.18c0.24,4.72,0.5,9.5,0.78,14.32
			c0.07,1.26,0.15,2.54,0.22,3.81c0.23,3.88,0.47,7.79,0.71,11.73c0.08,1.22,0.15,2.44,0.23,3.66c0.32,4.93,0.65,9.9,1,14.93
			c0.07,0.98,0.14,1.98,0.21,2.97c0.3,4.22,0.61,8.47,0.93,12.75c0.11,1.41,0.21,2.81,0.32,4.23c0.4,5.21,0.81,10.45,1.25,15.76
			c2.21,17.32,44.14,346.37,3.63,513.59c-0.01,0.12-0.01,0.27-0.02,0.45c0,0.04,0,0.09-0.01,0.13c-0.01,0.14-0.02,0.3-0.03,0.47
			c0,0.09-0.01,0.18-0.02,0.28c-0.01,0.17-0.02,0.36-0.03,0.56c-0.01,0.1-0.01,0.21-0.02,0.32c-0.02,0.22-0.03,0.46-0.05,0.71
			c-0.01,0.11-0.01,0.22-0.02,0.34c-0.02,0.32-0.05,0.66-0.07,1.02c-0.01,0.07-0.01,0.12-0.02,0.18c-0.03,0.45-0.07,0.91-0.11,1.41
			c0,0.07-0.01,0.14-0.02,0.2c-0.03,0.43-0.07,0.87-0.11,1.34c-0.01,0.15-0.03,0.32-0.04,0.48c-0.04,0.39-0.07,0.79-0.11,1.21
			c-0.02,0.2-0.04,0.41-0.06,0.61c-0.04,0.4-0.08,0.82-0.13,1.25c-0.02,0.23-0.05,0.45-0.07,0.69c-0.05,0.46-0.1,0.94-0.15,1.42
			c-0.02,0.2-0.04,0.4-0.06,0.6c-0.07,0.63-0.14,1.27-0.22,1.94c-0.01,0.09-0.02,0.17-0.03,0.26c-0.09,0.76-0.18,1.54-0.28,2.33
			c-0.02,0.19-0.05,0.38-0.07,0.57c-0.08,0.61-0.16,1.23-0.24,1.87c-0.04,0.28-0.07,0.56-0.12,0.84c-0.08,0.58-0.16,1.16-0.24,1.76
			c-0.05,0.31-0.09,0.63-0.14,0.95c-0.08,0.58-0.17,1.18-0.26,1.78c-0.05,0.33-0.1,0.66-0.15,1c-0.1,0.67-0.21,1.36-0.32,2.05
			c-0.05,0.27-0.09,0.54-0.13,0.81c-0.16,0.98-0.32,1.98-0.49,3c-0.01,0.06-0.02,0.12-0.03,0.19c-0.16,0.95-0.33,1.91-0.5,2.89
			c-0.05,0.31-0.12,0.63-0.17,0.95c-0.13,0.74-0.27,1.48-0.41,2.23c-0.07,0.4-0.15,0.8-0.23,1.2c-0.13,0.7-0.27,1.4-0.4,2.1
			c-0.08,0.43-0.17,0.86-0.25,1.29c-0.15,0.72-0.29,1.45-0.45,2.19c-0.08,0.42-0.17,0.82-0.25,1.24c-0.19,0.89-0.38,1.8-0.58,2.7
			c-0.06,0.27-0.11,0.53-0.17,0.79c-0.26,1.19-0.53,2.39-0.81,3.6c-0.06,0.28-0.13,0.56-0.2,0.84c-0.22,0.94-0.44,1.87-0.67,2.83
			c-0.1,0.43-0.21,0.88-0.32,1.32c-0.2,0.81-0.4,1.62-0.6,2.44c-0.12,0.49-0.25,0.97-0.37,1.46c-0.21,0.8-0.41,1.61-0.63,2.42
			c-0.13,0.49-0.26,0.98-0.39,1.48c-0.23,0.87-0.47,1.74-0.71,2.62c-0.12,0.44-0.24,0.87-0.36,1.3c-0.34,1.23-0.7,2.48-1.06,3.73
			c-0.02,0.09-0.05,0.17-0.07,0.25c-0.39,1.34-0.79,2.68-1.21,4.04c-0.13,0.41-0.26,0.83-0.38,1.24c-0.29,0.95-0.59,1.9-0.89,2.86
			c-0.16,0.51-0.32,1.01-0.49,1.52c-0.28,0.89-0.57,1.77-0.87,2.66c-0.18,0.54-0.36,1.07-0.54,1.61c-0.3,0.89-0.61,1.79-0.92,2.69
			c-0.18,0.52-0.36,1.03-0.54,1.56c-0.35,1-0.71,2.01-1.07,3.01c-0.15,0.42-0.3,0.83-0.45,1.25c-0.52,1.42-1.05,2.84-1.59,4.27
			c-0.1,0.26-0.2,0.52-0.3,0.78c-0.45,1.17-0.91,2.35-1.38,3.53c-0.2,0.5-0.4,1-0.6,1.51c-0.38,0.95-0.77,1.9-1.16,2.86
			c-0.23,0.56-0.47,1.12-0.7,1.68c-0.38,0.91-0.77,1.83-1.17,2.74c-0.25,0.57-0.49,1.14-0.74,1.7c-0.41,0.95-0.84,1.9-1.27,2.86
			c-0.23,0.52-0.47,1.04-0.7,1.56c-0.54,1.18-1.09,2.36-1.64,3.54c-0.14,0.29-0.27,0.58-0.4,0.86c-0.7,1.47-1.41,2.94-2.14,4.41
			c-0.19,0.4-0.4,0.8-0.6,1.19c-0.54,1.08-1.08,2.16-1.64,3.24c-0.28,0.53-0.55,1.06-0.83,1.59c-0.5,0.95-1,1.9-1.51,2.86
			c-0.3,0.56-0.61,1.13-0.92,1.69c-0.51,0.94-1.03,1.88-1.56,2.82c-0.31,0.55-0.62,1.11-0.93,1.65c-0.58,1.01-1.17,2.03-1.76,3.04
			c-0.27,0.46-0.53,0.93-0.81,1.39c-0.87,1.47-1.76,2.94-2.66,4.4c-0.04,0.06-0.07,0.11-0.11,0.17c-0.87,1.41-1.76,2.81-2.66,4.21
			c-0.3,0.46-0.6,0.92-0.9,1.38c-0.66,1-1.31,2.01-1.98,3.01c-0.36,0.53-0.72,1.06-1.08,1.59c-0.63,0.93-1.28,1.86-1.92,2.79
			c-0.38,0.54-0.77,1.09-1.15,1.63c-0.67,0.94-1.35,1.88-2.04,2.81c-0.37,0.5-0.73,1.01-1.1,1.51c-0.81,1.09-1.63,2.17-2.47,3.26
			c-0.26,0.34-0.51,0.68-0.77,1.01c-1.1,1.42-2.22,2.83-3.37,4.24c-0.23,0.28-0.47,0.56-0.7,0.84c-0.91,1.11-1.83,2.22-2.76,3.32
			c-0.4,0.48-0.82,0.95-1.23,1.42c-0.79,0.92-1.58,1.83-2.39,2.73c-0.45,0.51-0.9,1.01-1.35,1.51c-0.8,0.89-1.61,1.77-2.43,2.64
			c-0.46,0.49-0.91,0.98-1.37,1.47c-0.83,0.88-1.69,1.74-2.54,2.6c-1.22,1.26-2.46,2.51-3.73,3.75c-0.86,0.84-1.74,1.68-2.61,2.52
			c-1.27,1.21-2.56,2.4-3.86,3.58c-0.84,0.77-1.68,1.54-2.54,2.29c-1.82,1.6-3.68,3.19-5.57,4.75c-0.5,0.42-1.01,0.84-1.51,1.25
			c-2.09,1.69-4.22,3.36-6.39,5c-2.74,2.07-5.57,4.1-8.45,6.08c-0.23,0.16-0.44,0.33-0.68,0.49c-3.08,2.1-6.25,4.16-9.5,6.14
			l28.94,25.01c6.25-3.82,12.2-7.86,17.85-12.1l-0.02-0.02l0,0l0.02,0.02c0.23-0.17,0.44-0.35,0.67-0.52
			c2.26-1.7,4.48-3.44,6.65-5.2c0.8-0.66,1.58-1.33,2.37-2c1.4-1.17,2.8-2.35,4.16-3.55c1.02-0.9,2.02-1.81,3.03-2.72
			c1.09-0.99,2.17-2,3.24-3c1.03-0.97,2.06-1.94,3.06-2.92c1.06-1.04,2.09-2.09,3.13-3.15c0.81-0.82,1.65-1.63,2.44-2.46
			c0.27-0.29,0.53-0.57,0.8-0.85c0.45-0.48,0.89-0.95,1.34-1.43c0.83-0.9,1.66-1.8,2.47-2.7c0.44-0.49,0.87-0.97,1.31-1.45
			c0.83-0.94,1.64-1.87,2.46-2.81c0.39-0.45,0.78-0.9,1.16-1.35c0.97-1.14,1.92-2.28,2.86-3.44c0.2-0.25,0.41-0.49,0.61-0.74
			c1.15-1.41,2.28-2.84,3.39-4.27c0.23-0.3,0.46-0.6,0.69-0.91c0.86-1.12,1.71-2.24,2.55-3.37c0.35-0.47,0.7-0.95,1.04-1.42
			c0.71-0.97,1.41-1.94,2.11-2.92c0.36-0.51,0.73-1.03,1.09-1.54c0.67-0.96,1.33-1.92,1.99-2.88c0.34-0.51,0.69-1.01,1.03-1.51
			c0.69-1.03,1.37-2.07,2.05-3.11c0.28-0.42,0.56-0.85,0.83-1.27c1.89-2.94,3.71-5.89,5.46-8.85c0.24-0.4,0.47-0.81,0.71-1.21
			c0.63-1.08,1.25-2.16,1.87-3.23c0.29-0.51,0.57-1.01,0.85-1.51c0.56-0.99,1.11-1.99,1.65-2.98c0.28-0.52,0.57-1.04,0.84-1.56
			c0.54-1,1.07-2.01,1.59-3.01c0.25-0.49,0.51-0.97,0.76-1.46c0.59-1.16,1.17-2.31,1.75-3.46c0.16-0.32,0.33-0.65,0.49-0.97
			c0.74-1.5,1.47-3,2.18-4.49c0.09-0.19,0.18-0.38,0.27-0.57c0.61-1.29,1.21-2.57,1.79-3.86c0.2-0.45,0.4-0.9,0.61-1.35
			c0.46-1.03,0.92-2.06,1.37-3.09c0.22-0.5,0.44-1.01,0.66-1.51c0.42-0.99,0.84-1.98,1.26-2.96c0.21-0.49,0.41-0.98,0.62-1.48
			c0.43-1.04,0.86-2.09,1.27-3.13c0.17-0.41,0.34-0.83,0.5-1.24c0.54-1.35,1.06-2.7,1.58-4.04c0.04-0.09,0.07-0.18,0.11-0.28
			c0.56-1.47,1.1-2.93,1.64-4.39c0.12-0.32,0.23-0.64,0.34-0.95c0.4-1.12,0.8-2.23,1.19-3.34c0.16-0.45,0.31-0.89,0.46-1.33
			c0.34-0.98,0.67-1.96,1-2.93c0.16-0.47,0.32-0.94,0.47-1.41c0.32-0.96,0.63-1.92,0.94-2.87c0.14-0.45,0.29-0.89,0.43-1.34
			c0.33-1.05,0.66-2.09,0.98-3.13c0.1-0.33,0.21-0.66,0.3-0.98c0.84-2.75,1.63-5.47,2.37-8.13c0.1-0.35,0.19-0.7,0.29-1.05
			c0.27-0.97,0.53-1.94,0.79-2.89c0.11-0.43,0.23-0.85,0.34-1.28c0.24-0.9,0.47-1.79,0.69-2.67c0.11-0.41,0.21-0.82,0.31-1.23
			c0.23-0.91,0.45-1.82,0.67-2.72c0.09-0.36,0.18-0.72,0.26-1.08c0.26-1.09,0.51-2.17,0.76-3.23c0.03-0.15,0.07-0.3,0.1-0.45
			c0.29-1.25,0.57-2.5,0.83-3.72c0.03-0.12,0.05-0.25,0.08-0.37c0.23-1.06,0.46-2.1,0.67-3.14c0.07-0.33,0.13-0.66,0.2-0.98
			c0.17-0.83,0.34-1.65,0.5-2.47c0.07-0.36,0.14-0.72,0.22-1.09c0.15-0.78,0.3-1.55,0.45-2.31c0.07-0.34,0.13-0.69,0.19-1.03
			c0.15-0.82,0.3-1.64,0.45-2.44c0.04-0.25,0.09-0.5,0.14-0.75c0.38-2.13,0.72-4.19,1.04-6.17c0.03-0.2,0.06-0.39,0.09-0.59
			c0.12-0.77,0.24-1.54,0.36-2.29c0.04-0.28,0.08-0.55,0.13-0.83c0.1-0.67,0.19-1.32,0.29-1.96c0.04-0.27,0.08-0.54,0.11-0.81
			c0.09-0.65,0.18-1.27,0.26-1.89c0.03-0.25,0.07-0.5,0.1-0.75c0.09-0.68,0.17-1.34,0.26-1.99c0.02-0.15,0.04-0.31,0.06-0.47
			c0.2-1.62,0.38-3.15,0.54-4.58c0.02-0.18,0.04-0.35,0.06-0.53c0.06-0.51,0.11-1.01,0.16-1.5c0.02-0.22,0.04-0.42,0.06-0.62
			c0.05-0.47,0.09-0.92,0.14-1.36c0.02-0.16,0.03-0.33,0.05-0.49c0.04-0.46,0.08-0.89,0.12-1.32c0.01-0.14,0.03-0.28,0.04-0.41
			c0.04-0.5,0.08-0.97,0.12-1.41c0-0.04,0.01-0.09,0.01-0.13c0.04-0.51,0.08-0.98,0.11-1.43c0.01-0.05,0.01-0.09,0.01-0.13
			c0.03-0.38,0.05-0.74,0.08-1.08c0.01-0.11,0.02-0.21,0.02-0.32c0.02-0.26,0.03-0.51,0.05-0.73c0.01-0.11,0.01-0.2,0.02-0.3
			c0.01-0.2,0.02-0.39,0.03-0.57c0.01-0.09,0.01-0.18,0.02-0.26c0.01-0.18,0.02-0.34,0.03-0.48c0-0.04,0-0.09,0.01-0.13
			c0.01-0.18,0.02-0.33,0.02-0.45c40.5-167.21-1.43-496.27-3.63-513.59c-0.44-5.31-0.85-10.55-1.25-15.76
			c-0.11-1.41-0.22-2.82-0.32-4.23c-0.32-4.28-0.64-8.53-0.93-12.75c-0.07-0.99-0.14-1.99-0.21-2.97
			c-0.35-5.04-0.69-10.02-1.01-14.96c-0.08-1.19-0.15-2.37-0.22-3.55c-0.25-4-0.49-7.97-0.72-11.91c-0.07-1.21-0.14-2.43-0.21-3.64
			c-0.28-4.85-0.54-9.66-0.78-14.42c-0.03-0.68-0.07-1.35-0.1-2.04c-0.21-4.14-0.4-8.24-0.59-12.32c-0.06-1.26-0.11-2.52-0.17-3.78
			c-0.18-4.3-0.36-8.56-0.52-12.78c-0.02-0.38-0.03-0.76-0.05-1.13c-0.17-4.58-0.32-9.1-0.46-13.59c-0.03-1.13-0.07-2.25-0.1-3.37
			c-0.11-3.68-0.21-7.33-0.3-10.94c-0.02-0.9-0.05-1.81-0.07-2.71c-0.1-4.36-0.19-8.68-0.26-12.95c-0.01-0.85-0.02-1.68-0.04-2.53
			c-0.05-3.54-0.1-7.04-0.13-10.52c-0.01-1.06-0.02-2.12-0.03-3.17c-0.03-4.18-0.06-8.34-0.06-12.43c0-0.21,0-0.41,0-0.62
			c0-3.88,0.01-7.71,0.03-11.51c0.01-1.06,0.02-2.11,0.02-3.17c0.03-3.45,0.06-6.87,0.11-10.25c0.01-0.55,0.01-1.12,0.02-1.67
			c0.06-3.89,0.13-7.73,0.21-11.53c0.02-0.9,0.04-1.78,0.06-2.67c0.07-3.1,0.16-6.18,0.25-9.23c0.03-0.83,0.05-1.67,0.07-2.49
			c0.12-3.7,0.25-7.36,0.39-10.98c0.02-0.59,0.05-1.17,0.07-1.75c0.12-3.08,0.26-6.13,0.4-9.15c0.04-0.92,0.09-1.83,0.13-2.75
			c0.17-3.5,0.35-6.97,0.54-10.39c0-0.01,0-0.02,0-0.03c0.19-3.46,0.41-6.86,0.63-10.23c0.06-0.86,0.11-1.72,0.17-2.57
			c0.19-2.82,0.39-5.61,0.59-8.37c0.04-0.57,0.08-1.15,0.12-1.72c0.25-3.26,0.51-6.49,0.78-9.68c0.06-0.67,0.12-1.34,0.17-2.01
			c0.23-2.62,0.46-5.21,0.7-7.78c0.07-0.73,0.14-1.47,0.2-2.2c0.3-3.1,0.6-6.16,0.92-9.19c0.03-0.32,0.07-0.63,0.1-0.94
			c0.29-2.71,0.58-5.39,0.89-8.04c0.09-0.76,0.17-1.52,0.26-2.27c0.31-2.68,0.64-5.34,0.96-7.96c0.03-0.24,0.06-0.5,0.09-0.74
			c0.36-2.85,0.73-5.66,1.11-8.44c0.09-0.69,0.19-1.37,0.28-2.06c0.31-2.27,0.63-4.51,0.96-6.74c0.08-0.55,0.16-1.11,0.25-1.67
			c0.4-2.68,0.81-5.33,1.22-7.94c0.08-0.5,0.16-0.99,0.24-1.49c0.35-2.17,0.71-4.31,1.07-6.43c0.11-0.64,0.22-1.27,0.33-1.91
			c0.44-2.54,0.89-5.05,1.34-7.52c0.01-0.07,0.03-0.14,0.04-0.22c0.44-2.39,0.89-4.74,1.34-7.07c0.12-0.61,0.24-1.22,0.36-1.83
			c0.4-2.05,0.81-4.07,1.23-6.07c0.07-0.35,0.15-0.71,0.22-1.06c0.48-2.31,0.98-4.57,1.47-6.81c0.12-0.52,0.23-1.03,0.35-1.55
			c0.41-1.82,0.82-3.62,1.24-5.4c0.12-0.5,0.24-1.01,0.35-1.5c0.51-2.16,1.03-4.29,1.55-6.38c0.08-0.33,0.17-0.65,0.25-0.98
			c0.46-1.8,0.91-3.57,1.37-5.32c0.14-0.52,0.28-1.05,0.41-1.56c0.53-1.97,1.05-3.92,1.59-5.83c0.01-0.05,0.03-0.11,0.04-0.16
			c0.55-1.97,1.11-3.89,1.67-5.8c0.15-0.49,0.29-0.98,0.44-1.47c0.47-1.56,0.93-3.11,1.41-4.63c0.11-0.35,0.22-0.71,0.33-1.07
			c0.57-1.81,1.14-3.6,1.71-5.36c0.13-0.39,0.26-0.77,0.38-1.15c0.48-1.43,0.95-2.85,1.43-4.24c0.15-0.42,0.29-0.85,0.44-1.27
			c0.59-1.69,1.17-3.36,1.77-5c0.06-0.18,0.13-0.36,0.2-0.54c0.54-1.46,1.07-2.9,1.61-4.32c0.16-0.43,0.32-0.86,0.49-1.28
			c0.54-1.4,1.07-2.79,1.62-4.14c0.07-0.17,0.14-0.35,0.2-0.52c0.61-1.51,1.22-3,1.83-4.46c0.16-0.38,0.32-0.74,0.47-1.11
			c0.5-1.17,0.99-2.33,1.49-3.47c0.14-0.32,0.28-0.64,0.42-0.95c0.61-1.39,1.23-2.76,1.85-4.1c0.12-0.27,0.25-0.53,0.37-0.79
			c0.51-1.1,1.03-2.19,1.54-3.26c0.17-0.35,0.33-0.69,0.5-1.03c0.62-1.28,1.25-2.55,1.87-3.79c0.02-0.03,0.03-0.07,0.05-0.1
			c0.61-1.2,1.22-2.38,1.83-3.53c0.17-0.33,0.35-0.65,0.52-0.98c0.52-0.98,1.04-1.94,1.56-2.89c0.11-0.21,0.23-0.42,0.35-0.63
			c0.62-1.12,1.24-2.22,1.87-3.29c0.16-0.27,0.31-0.53,0.47-0.8c0.5-0.85,1-1.69,1.5-2.52c0.16-0.26,0.32-0.53,0.48-0.79
			c0.62-1.02,1.24-2.02,1.86-3c0.1-0.16,0.2-0.31,0.3-0.47c0.53-0.83,1.06-1.65,1.59-2.46c0.17-0.26,0.35-0.52,0.52-0.79
			c0.58-0.87,1.15-1.72,1.73-2.55c0.05-0.07,0.09-0.13,0.14-0.2c0.62-0.89,1.23-1.75,1.85-2.6c0.17-0.23,0.33-0.46,0.5-0.68
			c0.5-0.68,0.99-1.35,1.48-2c0.13-0.18,0.27-0.36,0.4-0.53c0.6-0.79,1.2-1.56,1.8-2.32c0.14-0.18,0.28-0.36,0.43-0.53
			c0.48-0.6,0.96-1.19,1.44-1.77c0.16-0.2,0.32-0.4,0.49-0.59c0.59-0.71,1.18-1.41,1.77-2.09c0.06-0.07,0.11-0.13,0.17-0.19
			c0.54-0.62,1.08-1.22,1.61-1.81c0.16-0.18,0.32-0.35,0.48-0.52c0.51-0.56,1.02-1.1,1.52-1.63c0.07-0.08,0.14-0.15,0.22-0.23
			c1.1-1.15,2.18-2.23,3.24-3.27c0.09-0.08,0.17-0.17,0.26-0.25c1.05-1.01,2.08-1.97,3.09-2.88c0.02-0.02,0.05-0.04,0.07-0.06
			c1.02-0.91,2.02-1.76,3-2.57c0.09-0.07,0.17-0.14,0.26-0.21c0.98-0.8,1.93-1.55,2.86-2.25c0,0,0.01,0,0.01-0.01
			c0.82-0.61,1.62-1.19,2.4-1.74c0.03-0.02,0.06-0.04,0.09-0.06c0.75-0.52,1.47-1.01,2.19-1.47c0.06-0.04,0.11-0.07,0.16-0.1
			c0.69-0.44,1.35-0.85,2-1.24c0.06-0.04,0.12-0.07,0.18-0.11c0.65-0.38,1.28-0.74,1.88-1.08c0.04-0.02,0.08-0.04,0.12-0.07
			c0.62-0.34,1.23-0.66,1.81-0.95c0.03-0.01,0.06-0.03,0.09-0.05c0.6-0.3,1.17-0.58,1.71-0.83c0,0,0.01,0,0.01,0
			c0.56-0.26,1.09-0.49,1.58-0.7c0,0,0.01,0,0.01,0c0.49-0.2,0.94-0.39,1.37-0.55c1.99-0.76,3.35-1.12,3.92-1.26L482.08,231.9z"/>
		
			<linearGradient id="SVGID_00000106130933835721722270000000322278718270686124_" gradientUnits="userSpaceOnUse" x1="478.2015" y1="245.0243" x2="511.0262" y2="245.0243">
			<stop  offset="0" style="stop-color:#472624"/>
			<stop  offset="0.4384" style="stop-color:#F5E27B"/>
			<stop  offset="0.5" style="stop-color:#F5F2C0"/>
			<stop  offset="0.5517" style="stop-color:#CB9B51"/>
			<stop  offset="0.9261" style="stop-color:#5F431F"/>
		</linearGradient>
		<path style="fill:url(#SVGID_00000106130933835721722270000000322278718270686124_);" d="M482.08,231.9
			c-0.57,0.15-1.91,0.49-3.88,1.25l28.94,25.01c1.97-0.75,3.31-1.1,3.88-1.25L482.08,231.9z"/>
	</g>
</g>
</svg>
