<svg width="622" height="417" viewBox="0 0 622 417" fill="none" xmlns="http://www.w3.org/2000/svg">
<path d="M222.334 375.25C222.334 375.25 220.871 383.091 220.118 390.859C219.823 393.894 222.141 396.556 225.187 396.711C235.537 397.242 257.673 398.292 265.623 398.012C266.818 397.97 267.61 396.756 267.18 395.639C266.818 394.704 266.112 393.945 265.204 393.517L228.783 376.355L222.334 375.25Z" fill="url(#paint0_linear_91_904)"/>
<path d="M221.242 370.625L222.267 380.029C222.267 380.029 228.648 383.073 233.055 379.756L230.502 369.262L221.242 370.625Z" fill="url(#paint1_linear_91_904)"/>
<path d="M223.764 194.019C223.26 196.467 220.012 316.417 232.322 370.303C232.522 371.182 232.069 372.082 231.232 372.415C229.258 373.198 225.391 374.326 220.769 374.437C219.337 374.473 218.062 373.529 217.672 372.153C214.126 359.645 197.156 296.98 195.435 237.255C193.51 170.519 195.457 234.984 195.457 234.984L197.353 193.761L223.764 194.019Z" fill="url(#paint2_linear_91_904)"/>
<path d="M180.215 378.946C180.215 378.946 177.968 382.889 175.73 393.406C175.326 395.304 176.638 397.138 178.567 397.346C181.982 397.715 187.241 398.197 191.457 398.21C193.4 398.214 194.934 396.538 194.718 394.607C194.288 390.757 192.894 384.434 188.447 379.472L180.215 378.946Z" fill="url(#paint3_linear_91_904)"/>
<path d="M178.39 366.844L180.858 381.075C180.858 381.075 183.416 383.015 188.522 381.675L187.425 366.378L178.39 366.844Z" fill="url(#paint4_linear_91_904)"/>
<path d="M172.973 197.216C161.882 260.413 173.755 353.681 177.886 371.953C178.139 373.072 179.032 373.935 180.162 374.133C182.08 374.47 185.241 374.759 188.37 373.884C189.446 373.582 190.212 372.621 190.266 371.502C190.983 356.767 190.807 266.274 200.922 230.606C201.435 228.799 202.556 227.229 204.099 226.155L223.196 212.852L224.859 191.068L172.973 197.216Z" fill="url(#paint5_linear_91_904)"/>
<path d="M240.948 77.9164C209.522 77.0972 174.758 85.538 174.758 85.538C164.867 140.117 171.996 203.245 171.996 203.245C196.268 209.859 223.815 199.837 223.815 199.837C228.078 177.026 247.561 112.898 247.561 112.898C262.935 111.14 275.63 106.829 286.104 101.07C278.245 91.7832 274.611 80.0255 273.05 73.0811C261.903 76.4312 250.641 78.1695 240.948 77.9164Z" fill="url(#paint6_linear_91_904)"/>
<path d="M334.231 32.5066C331.178 28.748 327.253 30.4752 327.253 30.4752C322.442 49.9699 298.037 65.5794 273.047 73.0855C274.608 80.03 278.242 91.7876 286.102 101.074C327.675 78.2184 334.231 32.5066 334.231 32.5066Z" fill="url(#paint7_linear_91_904)"/>
<path d="M333.473 33.448C333.786 34.4781 330.029 36.0055 327.867 31.7851C327.809 29.7715 326.668 21.1353 327.887 19.5058C334.376 10.8319 346.904 0 346.904 0C348.984 2.09133 347.235 4.1094 347.235 4.1094L341.15 10.3301C342.389 12.619 343.907 14.5572 344.602 17.319C345.128 19.4103 344.773 21.6371 343.701 23.5264C342.624 25.4223 341.159 27.8844 339.775 29.8114C337.156 33.4546 333.473 33.448 333.473 33.448Z" fill="url(#paint8_linear_91_904)"/>
<path d="M338.471 14.3773L332.934 18.9796L331.165 23.5974L336.009 29.0766C336.009 29.0766 337.743 19.8965 338.986 17.9161C340.232 15.9403 339.606 14.9701 338.471 14.3773Z" fill="url(#paint9_linear_91_904)"/>
<path d="M186.521 116.089L174.757 85.5403C174.757 85.5403 145.208 105.208 140.139 130.453C145.683 130.915 155.762 132.453 165.597 137.537C167.879 125.615 186.521 116.089 186.521 116.089Z" fill="url(#paint10_linear_91_904)"/>
<path d="M211.904 144.972C211.904 144.972 178.764 163.286 167.793 147.275C165.515 143.949 164.995 140.661 165.592 137.537C155.76 132.453 145.678 130.915 140.135 130.453C138.607 138.063 139.298 146.18 143.7 154.419C162.842 190.242 216.186 153.14 216.186 153.14L211.904 144.972Z" fill="url(#paint11_linear_91_904)"/>
<path d="M209.353 52.0967L199.076 80.9225C198.905 81.3998 199.098 81.9326 199.54 82.1813C202.251 83.7154 212.032 88.1644 223.939 80.7737C225.18 80.0034 226.03 78.7357 226.232 77.2904L229.709 52.2899L209.353 52.0967Z" fill="url(#paint12_linear_91_904)"/>
<path d="M231.37 25.52C231.37 25.52 242.155 46.2979 240.668 54.6344C239.18 62.9708 225.576 62.2426 213.756 55.347L205.664 32.9462L231.37 25.52Z" fill="url(#paint13_linear_91_904)"/>
<path d="M214.384 44.3908C214.867 44.1821 215.052 43.5916 214.768 43.1476C213.9 41.7955 212.277 39.0382 211.775 36.6316C211.775 36.6316 209.812 35.3484 216.828 33.7388C223.843 32.1314 234.304 29.6294 236.556 23.6929C238.749 17.9051 233.27 3.24353 224.192 14.7969C223.846 15.2365 223.177 15.241 222.842 14.7925C221.39 12.8655 217.565 8.85818 212.177 11.2137C207.135 13.4183 206.533 17.0925 206.584 18.9463C206.6 19.4924 206.107 19.912 205.572 19.8032C203.039 19.2948 196.951 18.822 194.047 25.0427C191.656 30.1667 193.15 33.095 194.522 34.5336C194.967 34.9998 194.762 35.7591 194.145 35.9411C192.471 36.4362 190.304 37.8304 190.482 41.74C190.728 47.146 196.774 46.7286 198.496 46.4977C198.778 46.4599 199.063 46.5598 199.251 46.773C200.71 48.4181 207.29 55.4114 214.472 56.3172C215.094 56.3949 215.582 55.7844 215.385 55.1894L212.359 46.1136C212.219 45.6918 212.423 45.2322 212.832 45.0569L214.384 44.3908Z" fill="url(#paint14_linear_91_904)"/>
<path d="M215.622 45.6874C215.622 45.6874 207.854 40.2481 207.239 44.7594C206.624 49.2706 214.217 51.3708 218.005 49.7213L215.622 45.6874Z" fill="url(#paint15_linear_91_904)"/>
<path d="M205.133 173.916L223.184 110.872C223.389 110.157 223.999 109.635 224.739 109.548C228.009 109.167 237.486 108.094 248.429 107.171C261.61 106.056 276.917 105.153 286.064 105.921C287.365 106.03 288.151 107.406 287.572 108.576C282.37 119.099 260.975 161.907 250.261 175.929C249.906 176.393 249.357 176.666 248.771 176.66L206.887 176.269C205.67 176.256 204.798 175.088 205.133 173.916Z" fill="url(#paint16_linear_91_904)"/>
<path d="M209.493 158.684C209.493 158.684 206.978 148.342 207.993 144.675C209.007 141.005 210.972 136.289 217.523 137.337C224.075 138.385 231.803 141.145 231.803 141.145C231.803 141.145 231.412 145.922 226.433 144.382L229.521 146.771C229.521 146.771 229.079 150.596 224.874 148.553L227.745 151.721C227.745 151.721 225.938 154.863 222.845 152.849C219.752 150.833 218.269 159.929 209.493 158.684Z" fill="url(#paint17_linear_91_904)"/>
<path d="M247.228 125.988C247.228 128.914 249.601 131.288 252.527 131.288C255.453 131.288 257.826 128.914 257.826 125.988C257.826 123.062 255.453 120.689 252.527 120.689C249.599 120.689 247.228 123.062 247.228 125.988Z" fill="#91B3FA"/>
<path d="M225.227 129.483L223.875 129.083L227.549 116.615C228.149 114.584 229.787 113.058 231.827 112.634C243.478 110.201 274.162 109.706 275.461 109.686L275.483 111.096C275.166 111.1 243.634 111.611 232.116 114.013C230.586 114.333 229.354 115.481 228.901 117.012L225.227 129.483Z" fill="#91B3FA"/>
<path d="M11.5756 305.914C9.65082 308.762 2.0026 373.234 0.805963 397.047C0.72382 398.656 2.01369 399.999 3.62548 399.999C5.01526 399.999 6.19857 398.987 6.41392 397.613L20.4027 307.965L11.5756 305.914Z" fill="#7D97F4"/>
<path d="M73.0683 305.914C74.9931 308.762 82.6414 373.234 83.838 397.047C83.9202 398.656 82.6303 399.999 81.0185 399.999C79.6287 399.999 78.4454 398.987 78.23 397.613L64.2412 307.965L73.0683 305.914Z" fill="#7D97F4"/>
<path d="M0.00703062 300.883L0.000370601 301.587C-0.0462514 306.644 4.3118 310.794 9.7688 310.887L74.4291 311.986C79.8062 312.077 84.2886 308.192 84.5505 303.212L84.5838 302.568C84.8569 297.375 80.4456 293 74.8376 292.9L10.1484 291.741C4.61151 291.641 0.0536526 295.75 0.00703062 300.883Z" fill="#7D97F4"/>
<path d="M136.219 394.704C124.725 394.704 119.639 393.719 117.363 392.819C117.805 394.707 119.486 396.196 121.61 396.196H162.274C163.643 396.196 164.507 394.886 164.181 393.699C159.547 394.072 149.701 394.704 136.219 394.704Z" fill="#91B3FA"/>
<path d="M164.184 393.699C164.117 393.459 164.021 393.224 163.851 393.006C160.754 389.052 154.531 382.84 146.065 382.96C133.666 383.135 129.341 384.479 119.706 383.036L117.433 390.571C117.202 391.339 117.197 392.107 117.364 392.817C119.637 393.716 124.724 394.702 136.219 394.702C149.702 394.704 159.548 394.072 164.184 393.699Z" fill="url(#paint18_linear_91_904)"/>
<path d="M122.496 374.917L119.706 384.408C119.706 384.408 125.886 387.223 131.323 384.963L132.391 376.742L122.496 374.917Z" fill="url(#paint19_linear_91_904)"/>
<path d="M206.778 388.728C197.818 395.928 193.238 398.348 190.905 399.074C192.426 400.261 194.666 400.363 196.322 399.034L228.02 373.565C229.088 372.708 228.944 371.149 227.949 370.432C224.57 373.627 217.288 380.283 206.778 388.728Z" fill="#91B3FA"/>
<path d="M227.951 370.434C227.751 370.29 227.527 370.168 227.261 370.106C222.381 368.978 213.658 368.057 207.136 373.451C197.578 381.353 195.047 385.105 186.635 390.02L189.559 397.291C189.857 398.032 190.332 398.629 190.907 399.078C193.24 398.352 197.82 395.932 206.78 388.732C217.288 380.283 224.57 373.627 227.951 370.434Z" fill="url(#paint20_linear_91_904)"/>
<path d="M62.8064 266.794C62.8064 266.794 131.625 272.413 145.743 279.057C159.86 285.702 134.22 378.848 134.22 378.848C134.22 378.848 130.377 380.698 121.825 378.04C121.825 378.04 130.595 309.304 124.07 294.398L49.5591 282.21L62.8064 266.794Z" fill="url(#paint21_linear_91_904)"/>
<path d="M179.795 376.935C180.435 377.516 186.633 390.018 186.633 390.018C186.633 390.018 193.533 388.526 194.941 384.157L188.731 372.874L179.795 376.935Z" fill="url(#paint22_linear_91_904)"/>
<path d="M21.3576 266.218C21.3576 266.218 19.1153 271.616 19.2063 278.786C19.3329 288.704 27.3052 296.751 37.2113 297.247L118.565 300.956C120.283 301.034 121.737 302.224 122.168 303.889C124.079 311.284 133.424 333.991 179.102 379.304C180.317 380.509 182.21 380.713 183.658 379.801L190.16 375.694C190.842 375.263 191.062 374.368 190.653 373.671L143.285 292.782C140.797 288.677 136.798 285.711 132.147 284.521L62.809 266.796L21.3576 266.218Z" fill="url(#paint23_linear_91_904)"/>
<path d="M101.532 139.864C101.532 139.864 92.8182 155.274 83.9312 162.738L102.298 172.986C102.298 172.986 106.436 156.672 115.892 151.897L101.532 139.864Z" fill="url(#paint24_linear_91_904)"/>
<path d="M19.8799 266.793C19.8799 266.793 41.8433 272.146 62.8055 266.793C62.8055 266.793 92.1396 227.36 103.487 216.628C103.487 216.628 121.589 245.192 161.88 249.241L164.126 244.22C164.126 244.22 132.05 229.434 122.175 206.713C112.3 183.993 108.335 174.304 99.3505 168.374C93.7558 164.682 90.4057 162.16 88.674 160.784C87.726 160.029 86.4184 159.945 85.3838 160.575C75.853 166.385 30.9915 197.111 19.8799 266.793Z" fill="url(#paint25_linear_91_904)"/>
<path d="M102.298 216.073C101.874 216.073 101.457 215.882 101.179 215.523C94.1859 206.403 90.2896 196.35 90.1275 195.928C89.85 195.202 90.2119 194.387 90.9379 194.108C91.6661 193.828 92.4786 194.192 92.7584 194.918C92.7961 195.018 96.6791 205.022 103.415 213.809C103.888 214.426 103.772 215.31 103.155 215.785C102.9 215.978 102.598 216.073 102.298 216.073Z" fill="url(#paint26_linear_91_904)"/>
<path d="M159.459 241.598L163.995 240.39L177.764 237.202C179.423 236.818 181.163 237.111 182.604 238.019L194.444 245.467L161.748 245.412L159.459 241.598Z" fill="url(#paint27_linear_91_904)"/>
<path d="M115.369 116.759C115.369 116.759 123.838 130.839 125.308 138.621C126.778 146.402 129.138 151.266 120.28 154.039C111.424 156.812 103.191 153.302 98.0275 146.038C98.0275 146.038 89.9597 134.86 90.7656 129.74C91.5715 124.621 115.369 116.759 115.369 116.759Z" fill="url(#paint28_linear_91_904)"/>
<path d="M100.386 140.015L101.532 139.864C101.532 139.864 95.5354 130.801 99.4583 128.555C103.383 126.306 119.375 120.791 122.152 114.493C124.83 108.421 120.824 101.563 115.996 100.131C115.689 100.04 115.367 100.222 115.256 100.519L114.972 101.283C114.779 101.807 114.044 101.827 113.822 101.316C113.609 100.83 112.914 100.81 112.697 101.292C111.842 103.179 109.276 106.4 101.585 108.894C90.6733 112.43 83.8754 117.932 84.7124 125.684C84.7657 126.175 84.2772 126.514 83.8266 126.315C82.9341 125.919 81.582 125.857 80.0124 127.576C77.2817 130.562 79.4197 137.095 86.8792 141.718C87.2344 141.937 87.2966 142.437 86.9791 142.708C85.8624 143.662 84.2928 145.794 89.3391 147.692C94.5008 149.635 97.3181 148.977 98.3593 148.56C98.639 148.447 98.7989 148.158 98.7412 147.861L97.4158 141.067C97.3469 140.716 97.5889 140.379 97.9442 140.332L100.386 140.015Z" fill="url(#paint29_linear_91_904)"/>
<path d="M100.855 141.411C100.855 141.411 97.1182 132.198 93.1931 135.437C89.268 138.676 96.8207 145.834 100.306 145.738L100.855 141.411Z" fill="url(#paint30_linear_91_904)"/>
<path d="M146.827 251.879C146.88 251.881 146.933 251.883 146.987 251.883L216.838 251.815C218.565 251.812 219.964 250.414 219.961 248.691C219.959 246.966 218.554 245.543 216.831 245.574L146.98 245.643C145.253 245.645 143.856 247.044 143.856 248.766C143.861 250.436 145.175 251.797 146.827 251.879Z" fill="url(#paint31_linear_91_904)"/>
<path d="M243.889 183.473C243.865 183.52 243.84 183.569 243.818 183.618L214.429 246.984C213.703 248.549 214.38 250.407 215.945 251.133C217.51 251.859 219.393 251.184 220.092 249.61L249.482 186.244C250.208 184.676 249.531 182.82 247.965 182.095C246.449 181.393 244.66 182.01 243.889 183.473Z" fill="url(#paint32_linear_91_904)"/>
<path d="M426.798 315.56H419.425V395.286H426.798V315.56Z" fill="#7D97F4"/>
<path d="M455.396 396.825H390.827C390.827 394.174 392.976 392.025 395.627 392.025H450.599C453.25 392.027 455.396 394.174 455.396 396.825Z" fill="#7D97F4"/>
<path d="M464.98 312.794C464.98 317.154 461.413 320.722 457.052 320.722H391.724C387.364 320.722 383.796 317.154 383.796 312.794V305.625C383.796 301.265 387.364 297.697 391.724 297.697H457.052C461.413 297.697 464.98 301.265 464.98 305.625V312.794Z" fill="#7D97F4"/>
<path d="M368.685 262.402C368.685 262.402 357.731 264.1 345.413 272.335C343.475 273.631 342.412 275.889 342.703 278.202C344.177 289.885 350.242 327.697 370.239 364.629C371.293 366.576 371.595 368.842 371.131 371.007L367.657 387.174L361.214 393.215H377.809L388.859 363.314L384.134 361.82C380.471 360.661 377.958 357.293 377.891 353.45L377.336 321.377C377.809 307.086 368.573 297.227 368.573 297.227L395.075 295.937L368.685 262.402Z" fill="url(#paint33_linear_91_904)"/>
<path d="M354.735 396.132C353.223 398.11 371.001 400.721 379.982 396.394C379.982 396.394 392.432 374.732 392.432 363.581C392.432 363.581 391.444 361.307 384.133 361.822C384.133 361.822 379.953 387.471 375.539 390.344C371.126 393.217 363.189 390.635 363.189 390.635C363.189 390.635 356.966 393.212 354.735 396.132Z" fill="url(#paint34_linear_91_904)"/>
<path d="M391.723 297.697C391.581 297.453 363.19 294.283 363.19 294.283C363.19 294.283 364.121 302.914 361.217 314.799C358.313 326.683 316.626 378.169 316.626 378.169L320.997 392.025C307.484 396.731 294.19 397.484 281.109 394.425L308.196 378.169C308.196 378.169 333.548 291.776 349.075 276.364L377.534 266.518L391.723 297.697Z" fill="url(#paint35_linear_91_904)"/>
<path d="M455.395 247.428C455.395 247.428 471.753 271.758 473.096 282.856C474.439 293.954 468.616 298.463 451.452 299.207C434.288 299.951 388.468 299.939 388.468 299.939L349.361 266.518C349.361 266.518 377.86 256.348 385.271 253.473C392.679 250.598 455.395 247.428 455.395 247.428Z" fill="url(#paint36_linear_91_904)"/>
<path d="M319.343 387.36C319.343 387.36 324.049 391.918 320.87 396.989C320.87 396.989 283.593 403.596 273.471 400.599C273.471 400.599 275.574 395.801 286.969 390.342L286.128 390.988C285.065 391.805 285.688 393.505 287.027 393.43C294.538 393.001 310.081 391.625 319.343 387.36Z" fill="url(#paint37_linear_91_904)"/>
<path d="M384.539 93.1286C417.978 87.443 433.721 114.717 432.568 120.447C432.415 121.206 433.132 121.85 433.88 121.648C437.719 120.616 446.2 119.312 451.457 125.899C456.099 131.716 452.629 137.204 449.801 140.217C449.117 140.945 449.692 142.126 450.682 142.002C457.74 141.112 473.076 140.898 475.585 155.265C477.925 168.663 468.6 172.439 463.07 173.505C462.133 173.685 461.916 174.915 462.719 175.425C465.479 177.175 468.676 180.794 467.384 187.931C465.359 199.118 443.425 198.204 440.863 198.057C440.701 198.048 440.547 198.002 440.405 197.919L405.272 177.883C404.999 177.728 404.808 177.457 404.755 177.146L397.662 136.183C397.604 135.852 397.708 135.512 397.941 135.27L375.037 102.948C366.725 101.723 384.144 93.1952 384.539 93.1286Z" fill="url(#paint38_linear_91_904)"/>
<path d="M411.158 244.208C411.158 244.208 392.11 226.07 382.732 214.055C377.664 207.561 376.072 199.012 378.416 191.115C382.697 176.693 390.305 161.754 391 159.43C392.063 155.866 413.423 156.015 413.423 156.015C413.423 156.015 455.454 183.293 471.967 229.5L453.42 235.275C453.42 235.275 442.446 216.864 431.603 205.159C431.603 205.159 450.365 229.944 451.027 240.092L411.158 244.208Z" fill="url(#paint39_linear_91_904)"/>
<path d="M388.416 139.513C388.638 140.255 394.212 158.735 394.65 159.119C395.085 159.503 406.876 160.136 412.424 156.344L398.659 129.418L388.416 139.513Z" fill="url(#paint40_linear_91_904)"/>
<path d="M366.068 115.765C366.068 115.765 363.373 126.352 370.828 140.592C378.281 154.832 386.72 154.816 391.333 150.258C395.946 145.7 401.634 137.966 400.282 124.199C398.93 110.432 369.958 102.298 366.068 115.765Z" fill="url(#paint41_linear_91_904)"/>
<path d="M389.972 124.947C389.972 124.947 377.606 106.041 366.008 120.92L365.799 126.332C365.799 126.332 352.217 124.721 354.594 112.266C356.972 99.8111 368.71 92.0274 383.826 97.4222C398.943 102.817 407.606 108.35 408.58 119.184C409.555 130.018 400.937 127.642 400.937 127.642C400.937 127.642 398.126 120.014 394.128 119.221C390.131 118.429 391.17 124.376 391.17 124.376L389.972 124.947Z" fill="url(#paint42_linear_91_904)"/>
<path d="M393.137 124.694C393.137 124.694 386.724 115.012 393.295 113.569C399.867 112.126 398.848 123.002 398.137 127.025L393.137 124.694Z" fill="url(#paint43_linear_91_904)"/>
<path d="M372.35 245.554L386.346 232.064L405.707 240.243C405.707 240.243 424.98 243.229 436.009 240.243C447.039 237.257 447.039 237.257 447.039 237.257L471.964 229.498L475.878 240.561C476.872 243.369 475.873 246.488 473.444 248.213C471.289 249.745 468.76 251.43 467.148 252.134C463.865 253.571 386.232 251.142 386.232 251.142L372.35 245.554Z" fill="url(#paint44_linear_91_904)"/>
<path d="M425.316 251.914C425.254 251.917 425.192 251.919 425.13 251.919L343.943 251.83C341.936 251.828 340.311 250.201 340.313 248.194C340.315 246.187 341.949 244.528 343.952 244.564L425.138 244.653C427.145 244.655 428.771 246.282 428.768 248.289C428.764 250.232 427.236 251.819 425.316 251.914Z" fill="url(#paint45_linear_91_904)"/>
<path d="M270.959 178.203H338.572C343.56 178.203 348.101 181.082 350.227 185.594L381.484 251.872H297.46C294.245 251.872 291.357 249.907 290.176 246.919L265.937 185.587C264.536 182.041 267.149 178.203 270.959 178.203Z" fill="url(#paint46_linear_91_904)"/>
<path d="M318.593 212.186C320.058 216.737 318.975 221.159 316.175 222.061C313.376 222.962 309.917 220.003 308.451 215.452C306.986 210.9 308.07 206.478 310.869 205.577C313.669 204.673 317.128 207.632 318.593 212.186Z" fill="#7D97F4"/>
<path d="M517.873 386.776C517.873 386.776 518.725 391.507 519.061 397.124C519.205 399.517 517.431 401.598 515.044 401.829C506.735 402.634 487.819 404.122 475.742 402.379C474.05 402.135 473.378 400.057 474.63 398.891C479.609 394.251 491.638 385.227 511.432 383.253L517.873 386.776Z" fill="url(#paint47_linear_91_904)"/>
<path d="M522.005 376.111L517.805 386.41C517.23 387.822 515.798 388.699 514.281 388.539C513.253 388.432 512.035 388.235 510.849 387.875C508.478 387.156 507.142 384.643 507.85 382.267L511.02 371.66L522.005 376.111Z" fill="url(#paint48_linear_91_904)"/>
<path d="M593.834 394.977C593.834 394.977 585.419 402.017 582.143 411.046C581.241 413.531 583.146 416.146 585.788 416.146H603.1C605.633 416.146 607.576 413.866 607.136 411.37C606.035 405.136 602.854 395.004 593.834 394.977Z" fill="url(#paint49_linear_91_904)"/>
<path d="M604.257 385.817C604.257 385.817 602.559 393.339 601.251 398.31C601.014 399.211 600.053 399.706 599.173 399.393C596.554 398.456 594.422 398.043 592.871 398.25C592.153 398.345 591.53 397.75 591.519 397.026L591.356 384.534L604.257 385.817Z" fill="url(#paint50_linear_91_904)"/>
<path d="M559.511 216.561L508.337 372.679C508.337 372.679 518.152 379.106 522.828 378.839L583.61 253.373C583.61 253.373 594.246 330.681 589.091 386.181L606.501 387.509C606.501 387.509 634.81 245.676 613.368 197.096L559.511 216.561Z" fill="url(#paint51_linear_91_904)"/>
<path d="M583.284 252.025C583.304 252.025 583.326 252.023 583.346 252.021C583.617 251.988 583.81 251.739 583.777 251.468L581.79 235.705C581.757 235.435 581.51 235.246 581.237 235.275C580.966 235.308 580.773 235.557 580.806 235.827L582.793 251.59C582.825 251.841 583.038 252.025 583.284 252.025Z" fill="url(#paint52_linear_91_904)"/>
<path d="M549.918 79.1864C549.918 79.1864 591.378 82.8673 585.513 112.41C585.513 112.41 608.431 155.54 619.145 206.347C619.493 208.001 618.386 209.613 616.721 209.897L547.676 221.719C545.771 222.045 543.935 220.857 543.451 218.986L526.953 155.227L520.524 184.87L500.097 179.548L517.294 92.4404C517.294 92.4404 519.693 79.7325 549.918 79.1864Z" fill="url(#paint53_linear_91_904)"/>
<path d="M526.603 152.374C526.638 152.374 526.676 152.37 526.711 152.363C526.989 152.303 527.164 152.028 527.104 151.75L521.35 125.322C521.29 125.045 521.019 124.872 520.737 124.929C520.46 124.989 520.284 125.264 520.344 125.542L526.099 151.97C526.154 152.21 526.367 152.374 526.603 152.374Z" fill="#91B3FA"/>
<path d="M530.769 231.014C532.945 229.818 535.491 229.487 537.898 230.086L542.702 231.283C543.724 231.538 544.736 230.835 544.854 229.789L549.824 185.542C556.041 188.495 565.008 188.142 567.965 187.925L556.522 240.088H516.483L530.769 231.014Z" fill="url(#paint54_linear_91_904)"/>
<path d="M424.387 135.035L425.597 131.012C426.294 128.697 428.003 126.825 430.248 125.924L452.136 117.121C452.136 117.121 452.466 114.315 447.511 112.406C442.556 110.499 443.715 104.948 443.715 104.948C443.715 104.948 450.484 108.037 460.394 112.934C466.062 115.736 469.242 120.68 470.929 124.403L520.526 184.867L514.702 188.868C507.045 194.13 496.513 191.545 492.162 183.336L465.294 131.814C451.803 135.87 438.154 136.645 424.387 135.035Z" fill="url(#paint55_linear_91_904)"/>
<path d="M536.486 50.98L549.239 86.6703C549.239 86.6703 537.947 95.4974 529.706 92.5136L523.281 72.0554C523.279 72.0532 528.188 47.0505 536.486 50.98Z" fill="url(#paint56_linear_91_904)"/>
<path d="M498.427 38.1611C498.427 38.7117 510.711 72.9345 510.711 72.9345L530.104 65.5061L523.281 31.3388C523.279 31.3388 498.427 28.9544 498.427 38.1611Z" fill="url(#paint57_linear_91_904)"/>
<path d="M519.878 39.6642L524.877 57.3695C524.942 57.5959 524.975 57.8246 524.975 58.0621C524.977 59.5052 524.62 64.476 519.558 63.7989C514.965 63.1862 510.764 62.6933 508.093 63.9521C506.894 64.516 506.319 65.8969 506.768 67.1446C507.885 70.2527 510.531 77.2127 513.752 82.9095C514.405 84.0662 515.839 84.5146 517.049 83.964C520.692 82.3078 528.274 78.598 533.678 74.1845C534.41 73.5873 534.761 72.646 534.588 71.718C533.738 67.189 531.207 53.4133 531.096 49.4659C530.991 45.7606 535.15 42.9322 536.979 41.8688C537.578 41.5202 538.007 40.9452 538.169 40.2703C538.744 37.8859 539.232 32.4889 532.346 31.2989C530.905 31.0502 529.966 29.6716 530.259 28.2374C530.84 25.3845 530.654 21.1886 525.239 19.6412C519.733 18.0693 516.27 21.3839 514.507 23.9237C513.795 24.9516 512.462 25.2846 511.319 24.774C510.669 24.4832 509.885 24.4699 509.041 25.1825C507.905 26.1416 506.173 25.8485 505.338 24.6186C503.733 22.2564 500.816 19.8965 495.878 21.4949C487.118 24.33 487.535 34.4314 490.748 39.9217C493.96 45.412 503.282 41.7999 507.698 38.1612C511.055 35.395 516.163 37.0489 518.421 38.0014C519.134 38.3033 519.667 38.916 519.878 39.6642Z" fill="url(#paint58_linear_91_904)"/>
<path d="M532.853 55.9286C532.853 55.9286 527.666 46.1203 531.097 43.041C534.524 39.9617 540.334 40.4657 540.179 48.1361C539.984 57.6736 532.853 55.9286 532.853 55.9286Z" fill="url(#paint59_linear_91_904)"/>
<path d="M563.942 188.586C566.773 188.586 568.791 188.371 569.011 188.346L569.379 188.304L584.476 117.916C584.536 117.638 584.358 117.365 584.081 117.305C583.801 117.243 583.53 117.423 583.47 117.701L568.529 187.358C566.282 187.556 554.285 188.353 547.951 183.866L561.03 122.714L558.299 117.57C558.166 117.319 557.855 117.223 557.604 117.356C557.353 117.49 557.258 117.801 557.391 118.051L559.946 122.865L546.808 184.299L547.07 184.497C551.647 187.936 559.018 188.586 563.942 188.586Z" fill="#91B3FA"/>
<path d="M111.352 403.189C111.006 403.189 110.653 403.114 110.313 402.954C108.979 402.328 108.361 400.639 108.936 399.182L164.104 259.205C164.676 257.749 166.224 257.076 167.56 257.702C168.895 258.328 169.512 260.018 168.937 261.474L113.77 401.449C113.341 402.539 112.371 403.189 111.352 403.189Z" fill="url(#paint60_linear_91_904)"/>
<path d="M173.499 403.189C172.48 403.189 171.51 402.539 171.081 401.451L115.914 261.476C115.339 260.02 115.956 258.33 117.29 257.704C118.625 257.078 120.172 257.751 120.747 259.207L175.914 399.184C176.489 400.641 175.872 402.33 174.538 402.956C174.198 403.114 173.845 403.189 173.499 403.189Z" fill="url(#paint61_linear_91_904)"/>
<path d="M485.754 403.189C485.407 403.189 485.054 403.114 484.715 402.954C483.38 402.328 482.763 400.639 483.338 399.182L538.505 259.205C539.08 257.749 540.626 257.076 541.962 257.702C543.296 258.328 543.914 260.018 543.339 261.474L488.171 401.449C487.745 402.539 486.775 403.189 485.754 403.189Z" fill="url(#paint62_linear_91_904)"/>
<path d="M547.901 403.189C546.882 403.189 545.911 402.539 545.483 401.451L490.316 261.476C489.741 260.02 490.358 258.33 491.692 257.704C493.027 257.078 494.574 257.751 495.149 259.207L550.316 399.184C550.891 400.641 550.274 402.33 548.94 402.956C548.602 403.114 548.249 403.189 547.901 403.189Z" fill="url(#paint63_linear_91_904)"/>
<path d="M477.75 249.321H557.652V241.076H477.75C479.46 241.076 479.46 249.321 477.75 249.321Z" fill="#91B3FA"/>
<path d="M556.9 249.321C557.313 249.321 557.651 248.984 557.651 248.571V241.826C557.651 241.413 557.313 241.076 556.9 241.076H476.062C475.649 241.076 475.312 240.738 475.312 240.325V239.961C475.312 239.548 475.649 239.211 476.062 239.211H562.224C564.129 239.211 565.674 240.756 565.674 242.661V247.932C565.674 249.728 564.218 251.184 562.42 251.184H476.06C475.647 251.184 475.31 250.847 475.31 250.434V250.069C475.31 249.657 475.647 249.319 476.06 249.319H556.9V249.321Z" fill="url(#paint64_linear_91_904)"/>
<path d="M569.233 254.88C569.501 253.959 569.135 253.009 568.236 252.285C567.337 251.561 565.998 251.144 564.584 251.144H85.822C83.9638 251.144 82.2321 251.772 81.2309 252.811C80.2296 253.85 80.0942 255.156 80.8756 256.275L86.064 263.723C87.2517 265.428 89.8271 266.52 92.6599 266.52H561.298C563.933 266.52 566.198 265.282 566.697 263.565L569.233 254.88Z" fill="url(#paint65_linear_91_904)"/>
<defs>
<linearGradient id="paint0_linear_91_904" x1="264.78" y1="364.8" x2="129.441" y2="509.233" gradientUnits="userSpaceOnUse">
<stop stop-color="#09005D"/>
<stop offset="1" stop-color="#1A0F91"/>
</linearGradient>
<linearGradient id="paint1_linear_91_904" x1="221.198" y1="375.208" x2="233.097" y2="375.321" gradientUnits="userSpaceOnUse">
<stop stop-color="#FEBBBA"/>
<stop offset="1" stop-color="#FF928E"/>
</linearGradient>
<linearGradient id="paint2_linear_91_904" x1="276.901" y1="200.113" x2="161.443" y2="353.529" gradientUnits="userSpaceOnUse">
<stop stop-color="#09005D"/>
<stop offset="1" stop-color="#1A0F91"/>
</linearGradient>
<linearGradient id="paint3_linear_91_904" x1="234.993" y1="336.883" x2="99.6481" y2="481.322" gradientUnits="userSpaceOnUse">
<stop stop-color="#09005D"/>
<stop offset="1" stop-color="#1A0F91"/>
</linearGradient>
<linearGradient id="paint4_linear_91_904" x1="178.32" y1="374.188" x2="188.593" y2="374.286" gradientUnits="userSpaceOnUse">
<stop stop-color="#FEBBBA"/>
<stop offset="1" stop-color="#FF928E"/>
</linearGradient>
<linearGradient id="paint5_linear_91_904" x1="256.728" y1="184.931" x2="141.271" y2="338.345" gradientUnits="userSpaceOnUse">
<stop stop-color="#09005D"/>
<stop offset="1" stop-color="#1A0F91"/>
</linearGradient>
<linearGradient id="paint6_linear_91_904" x1="-242.023" y1="-667.047" x2="-136.997" y2="-485.002" gradientUnits="userSpaceOnUse">
<stop stop-color="#FF928E"/>
<stop offset="1" stop-color="#FE7062"/>
</linearGradient>
<linearGradient id="paint7_linear_91_904" x1="273.123" y1="65.2465" x2="333.914" y2="65.824" gradientUnits="userSpaceOnUse">
<stop stop-color="#FEBBBA"/>
<stop offset="1" stop-color="#FF928E"/>
</linearGradient>
<linearGradient id="paint8_linear_91_904" x1="320.47" y1="55.5068" x2="278.797" y2="147.929" gradientUnits="userSpaceOnUse">
<stop stop-color="#FEBBBA"/>
<stop offset="1" stop-color="#FF928E"/>
</linearGradient>
<linearGradient id="paint9_linear_91_904" x1="334.013" y1="24.7237" x2="351.283" y2="-1.28423" gradientUnits="userSpaceOnUse">
<stop stop-color="#FEBBBA"/>
<stop offset="1" stop-color="#FF928E"/>
</linearGradient>
<linearGradient id="paint10_linear_91_904" x1="-277.789" y1="-646.415" x2="-172.764" y2="-464.371" gradientUnits="userSpaceOnUse">
<stop stop-color="#FF928E"/>
<stop offset="1" stop-color="#FE7062"/>
</linearGradient>
<linearGradient id="paint11_linear_91_904" x1="139.282" y1="150.084" x2="216.211" y2="150.815" gradientUnits="userSpaceOnUse">
<stop stop-color="#FEBBBA"/>
<stop offset="1" stop-color="#FF928E"/>
</linearGradient>
<linearGradient id="paint12_linear_91_904" x1="199.137" y1="68.4042" x2="229.553" y2="68.6931" gradientUnits="userSpaceOnUse">
<stop stop-color="#FEBBBA"/>
<stop offset="1" stop-color="#FF928E"/>
</linearGradient>
<linearGradient id="paint13_linear_91_904" x1="236.972" y1="49.4124" x2="203.724" y2="28.6978" gradientUnits="userSpaceOnUse">
<stop stop-color="#FEBBBA"/>
<stop offset="1" stop-color="#FF928E"/>
</linearGradient>
<linearGradient id="paint14_linear_91_904" x1="186.226" y1="7.02861" x2="229.105" y2="41.5614" gradientUnits="userSpaceOnUse">
<stop stop-color="#09005D"/>
<stop offset="1" stop-color="#1A0F91"/>
</linearGradient>
<linearGradient id="paint15_linear_91_904" x1="228.116" y1="56.9352" x2="198.202" y2="38.298" gradientUnits="userSpaceOnUse">
<stop stop-color="#FEBBBA"/>
<stop offset="1" stop-color="#FF928E"/>
</linearGradient>
<linearGradient id="paint16_linear_91_904" x1="236.84" y1="101.203" x2="279.289" y2="278.076" gradientUnits="userSpaceOnUse">
<stop stop-color="#09005D"/>
<stop offset="1" stop-color="#1A0F91"/>
</linearGradient>
<linearGradient id="paint17_linear_91_904" x1="207.752" y1="147.995" x2="231.803" y2="147.995" gradientUnits="userSpaceOnUse">
<stop stop-color="#FEBBBA"/>
<stop offset="1" stop-color="#FF928E"/>
</linearGradient>
<linearGradient id="paint18_linear_91_904" x1="135.503" y1="265.1" x2="140.504" y2="387.63" gradientUnits="userSpaceOnUse">
<stop stop-color="#4F52FF"/>
<stop offset="1" stop-color="#4042E2"/>
</linearGradient>
<linearGradient id="paint19_linear_91_904" x1="119.706" y1="380.379" x2="132.392" y2="380.379" gradientUnits="userSpaceOnUse">
<stop stop-color="#FEBBBA"/>
<stop offset="1" stop-color="#FF928E"/>
</linearGradient>
<linearGradient id="paint20_linear_91_904" x1="202.481" y1="262.366" x2="207.482" y2="384.896" gradientUnits="userSpaceOnUse">
<stop stop-color="#4F52FF"/>
<stop offset="1" stop-color="#4042E2"/>
</linearGradient>
<linearGradient id="paint21_linear_91_904" x1="49.557" y1="323.135" x2="149.983" y2="323.135" gradientUnits="userSpaceOnUse">
<stop stop-color="#09005D"/>
<stop offset="1" stop-color="#1A0F91"/>
</linearGradient>
<linearGradient id="paint22_linear_91_904" x1="179.795" y1="381.446" x2="194.941" y2="381.446" gradientUnits="userSpaceOnUse">
<stop stop-color="#FEBBBA"/>
<stop offset="1" stop-color="#FF928E"/>
</linearGradient>
<linearGradient id="paint23_linear_91_904" x1="140.78" y1="281.293" x2="30.5282" y2="406.297" gradientUnits="userSpaceOnUse">
<stop stop-color="#09005D"/>
<stop offset="1" stop-color="#1A0F91"/>
</linearGradient>
<linearGradient id="paint24_linear_91_904" x1="95.6659" y1="168.02" x2="103.133" y2="149.19" gradientUnits="userSpaceOnUse">
<stop stop-color="#FEBBBA"/>
<stop offset="1" stop-color="#FF928E"/>
</linearGradient>
<linearGradient id="paint25_linear_91_904" x1="297.361" y1="-70.3947" x2="68.269" y2="278.697" gradientUnits="userSpaceOnUse">
<stop stop-color="#4F52FF"/>
<stop offset="1" stop-color="#4042E2"/>
</linearGradient>
<linearGradient id="paint26_linear_91_904" x1="100.51" y1="198.977" x2="245.663" y2="-42.9442" gradientUnits="userSpaceOnUse">
<stop stop-color="#09005D"/>
<stop offset="1" stop-color="#1A0F91"/>
</linearGradient>
<linearGradient id="paint27_linear_91_904" x1="159.46" y1="241.25" x2="194.444" y2="241.25" gradientUnits="userSpaceOnUse">
<stop stop-color="#FEBBBA"/>
<stop offset="1" stop-color="#FF928E"/>
</linearGradient>
<linearGradient id="paint28_linear_91_904" x1="118.465" y1="129.726" x2="85.0425" y2="163.062" gradientUnits="userSpaceOnUse">
<stop stop-color="#FEBBBA"/>
<stop offset="1" stop-color="#FF928E"/>
</linearGradient>
<linearGradient id="paint29_linear_91_904" x1="89.3934" y1="110.716" x2="128.759" y2="149.615" gradientUnits="userSpaceOnUse">
<stop stop-color="#09005D"/>
<stop offset="1" stop-color="#1A0F91"/>
</linearGradient>
<linearGradient id="paint30_linear_91_904" x1="113.059" y1="124.308" x2="79.6373" y2="157.644" gradientUnits="userSpaceOnUse">
<stop stop-color="#FEBBBA"/>
<stop offset="1" stop-color="#FF928E"/>
</linearGradient>
<linearGradient id="paint31_linear_91_904" x1="-7337.62" y1="-7762.02" x2="-7214.19" y2="-7630.05" gradientUnits="userSpaceOnUse">
<stop stop-color="#09005D"/>
<stop offset="1" stop-color="#1A0F91"/>
</linearGradient>
<linearGradient id="paint32_linear_91_904" x1="10663.5" y1="-3223.42" x2="10491.8" y2="-3167.15" gradientUnits="userSpaceOnUse">
<stop stop-color="#09005D"/>
<stop offset="1" stop-color="#1A0F91"/>
</linearGradient>
<linearGradient id="paint33_linear_91_904" x1="287.635" y1="632.494" x2="381.142" y2="258.466" gradientUnits="userSpaceOnUse">
<stop stop-color="#FEBBBA"/>
<stop offset="1" stop-color="#FF928E"/>
</linearGradient>
<linearGradient id="paint34_linear_91_904" x1="499.217" y1="174.27" x2="410.325" y2="323.924" gradientUnits="userSpaceOnUse">
<stop stop-color="#09005D"/>
<stop offset="1" stop-color="#1A0F91"/>
</linearGradient>
<linearGradient id="paint35_linear_91_904" x1="333.072" y1="395.93" x2="351.773" y2="116.969" gradientUnits="userSpaceOnUse">
<stop stop-color="#FEBBBA"/>
<stop offset="1" stop-color="#FF928E"/>
</linearGradient>
<linearGradient id="paint36_linear_91_904" x1="349.36" y1="273.685" x2="473.281" y2="273.685" gradientUnits="userSpaceOnUse">
<stop stop-color="#09005D"/>
<stop offset="1" stop-color="#1A0F91"/>
</linearGradient>
<linearGradient id="paint37_linear_91_904" x1="448.441" y1="144.111" x2="359.561" y2="293.745" gradientUnits="userSpaceOnUse">
<stop stop-color="#09005D"/>
<stop offset="1" stop-color="#1A0F91"/>
</linearGradient>
<linearGradient id="paint38_linear_91_904" x1="436.65" y1="66.7079" x2="418.403" y2="162.57" gradientUnits="userSpaceOnUse">
<stop stop-color="#09005D"/>
<stop offset="1" stop-color="#1A0F91"/>
</linearGradient>
<linearGradient id="paint39_linear_91_904" x1="350.026" y1="377.072" x2="419.789" y2="220.667" gradientUnits="userSpaceOnUse">
<stop stop-color="#4F52FF"/>
<stop offset="1" stop-color="#4042E2"/>
</linearGradient>
<linearGradient id="paint40_linear_91_904" x1="406.454" y1="186.643" x2="398.987" y2="138.731" gradientUnits="userSpaceOnUse">
<stop stop-color="#FEBBBA"/>
<stop offset="1" stop-color="#FF928E"/>
</linearGradient>
<linearGradient id="paint41_linear_91_904" x1="365.858" y1="135.854" x2="421.839" y2="116.969" gradientUnits="userSpaceOnUse">
<stop stop-color="#FEBBBA"/>
<stop offset="1" stop-color="#FF928E"/>
</linearGradient>
<linearGradient id="paint42_linear_91_904" x1="353.916" y1="85.8854" x2="419.275" y2="158.346" gradientUnits="userSpaceOnUse">
<stop stop-color="#09005D"/>
<stop offset="1" stop-color="#1A0F91"/>
</linearGradient>
<linearGradient id="paint43_linear_91_904" x1="364.191" y1="130.914" x2="420.172" y2="112.029" gradientUnits="userSpaceOnUse">
<stop stop-color="#FEBBBA"/>
<stop offset="1" stop-color="#FF928E"/>
</linearGradient>
<linearGradient id="paint44_linear_91_904" x1="437.115" y1="241.044" x2="541.025" y2="241.044" gradientUnits="userSpaceOnUse">
<stop stop-color="#FEBBBA"/>
<stop offset="1" stop-color="#FF928E"/>
</linearGradient>
<linearGradient id="paint45_linear_91_904" x1="439.089" y1="230.343" x2="374.641" y2="251.48" gradientUnits="userSpaceOnUse">
<stop stop-color="#09005D"/>
<stop offset="1" stop-color="#1A0F91"/>
</linearGradient>
<linearGradient id="paint46_linear_91_904" x1="350.557" y1="188.086" x2="304.144" y2="237.142" gradientUnits="userSpaceOnUse">
<stop stop-color="#09005D"/>
<stop offset="1" stop-color="#1A0F91"/>
</linearGradient>
<linearGradient id="paint47_linear_91_904" x1="495.832" y1="472.452" x2="495.146" y2="545.098" gradientUnits="userSpaceOnUse">
<stop stop-color="#09005D"/>
<stop offset="1" stop-color="#1A0F91"/>
</linearGradient>
<linearGradient id="paint48_linear_91_904" x1="513.344" y1="391.325" x2="517.113" y2="361.855" gradientUnits="userSpaceOnUse">
<stop stop-color="#FEBBBA"/>
<stop offset="1" stop-color="#FF928E"/>
</linearGradient>
<linearGradient id="paint49_linear_91_904" x1="593.981" y1="473.378" x2="593.296" y2="546.024" gradientUnits="userSpaceOnUse">
<stop stop-color="#09005D"/>
<stop offset="1" stop-color="#1A0F91"/>
</linearGradient>
<linearGradient id="paint50_linear_91_904" x1="595.728" y1="401.425" x2="599.401" y2="372.708" gradientUnits="userSpaceOnUse">
<stop stop-color="#FEBBBA"/>
<stop offset="1" stop-color="#FF928E"/>
</linearGradient>
<linearGradient id="paint51_linear_91_904" x1="537.922" y1="169.578" x2="571.93" y2="335.118" gradientUnits="userSpaceOnUse">
<stop stop-color="#09005D"/>
<stop offset="1" stop-color="#1A0F91"/>
</linearGradient>
<linearGradient id="paint52_linear_91_904" x1="597.947" y1="274.958" x2="593.835" y2="266.734" gradientUnits="userSpaceOnUse">
<stop stop-color="#4F52FF"/>
<stop offset="1" stop-color="#4042E2"/>
</linearGradient>
<linearGradient id="paint53_linear_91_904" x1="530.279" y1="102.211" x2="600.868" y2="311.924" gradientUnits="userSpaceOnUse">
<stop stop-color="#4F52FF"/>
<stop offset="1" stop-color="#4042E2"/>
</linearGradient>
<linearGradient id="paint54_linear_91_904" x1="567.966" y1="212.814" x2="516.485" y2="212.814" gradientUnits="userSpaceOnUse">
<stop stop-color="#FEBBBA"/>
<stop offset="1" stop-color="#FF928E"/>
</linearGradient>
<linearGradient id="paint55_linear_91_904" x1="520.525" y1="148.279" x2="424.386" y2="148.279" gradientUnits="userSpaceOnUse">
<stop stop-color="#FEBBBA"/>
<stop offset="1" stop-color="#FF928E"/>
</linearGradient>
<linearGradient id="paint56_linear_91_904" x1="555.136" y1="94.3585" x2="521.678" y2="60.031" gradientUnits="userSpaceOnUse">
<stop stop-color="#FEBBBA"/>
<stop offset="1" stop-color="#FF928E"/>
</linearGradient>
<linearGradient id="paint57_linear_91_904" x1="506.613" y1="38.4027" x2="548.328" y2="93.5873" gradientUnits="userSpaceOnUse">
<stop stop-color="#FEBBBA"/>
<stop offset="1" stop-color="#FF928E"/>
</linearGradient>
<linearGradient id="paint58_linear_91_904" x1="570.202" y1="-118.543" x2="526.191" y2="8.98844" gradientUnits="userSpaceOnUse">
<stop stop-color="#E1473D"/>
<stop offset="1" stop-color="#E9605A"/>
</linearGradient>
<linearGradient id="paint59_linear_91_904" x1="567.709" y1="82.1046" x2="534.251" y2="47.7774" gradientUnits="userSpaceOnUse">
<stop stop-color="#FEBBBA"/>
<stop offset="1" stop-color="#FF928E"/>
</linearGradient>
<linearGradient id="paint60_linear_91_904" x1="30.8629" y1="715.726" x2="154.772" y2="273.862" gradientUnits="userSpaceOnUse">
<stop stop-color="#4F52FF"/>
<stop offset="1" stop-color="#4042E2"/>
</linearGradient>
<linearGradient id="paint61_linear_91_904" x1="37.3323" y1="717.54" x2="161.241" y2="275.676" gradientUnits="userSpaceOnUse">
<stop stop-color="#4F52FF"/>
<stop offset="1" stop-color="#4042E2"/>
</linearGradient>
<linearGradient id="paint62_linear_91_904" x1="377.97" y1="813.064" x2="501.879" y2="371.199" gradientUnits="userSpaceOnUse">
<stop stop-color="#4F52FF"/>
<stop offset="1" stop-color="#4042E2"/>
</linearGradient>
<linearGradient id="paint63_linear_91_904" x1="384.439" y1="814.877" x2="508.348" y2="373.012" gradientUnits="userSpaceOnUse">
<stop stop-color="#4F52FF"/>
<stop offset="1" stop-color="#4042E2"/>
</linearGradient>
<linearGradient id="paint64_linear_91_904" x1="552.776" y1="108.515" x2="532.867" y2="192.131" gradientUnits="userSpaceOnUse">
<stop stop-color="#09005D"/>
<stop offset="1" stop-color="#1A0F91"/>
</linearGradient>
<linearGradient id="paint65_linear_91_904" x1="183.504" y1="758.529" x2="307.413" y2="316.665" gradientUnits="userSpaceOnUse">
<stop stop-color="#4F52FF"/>
<stop offset="1" stop-color="#4042E2"/>
</linearGradient>
</defs>
</svg>
