<svg width="167" height="270" viewBox="0 0 167 270" fill="none" xmlns="http://www.w3.org/2000/svg">
<path d="M43.64 224.24H42.77L42.65 223.38C42.26 220.51 41.88 218.01 41.55 215.8C40.03 205.68 39.4 201.5 42.5 196.63C45.69 191.62 50.11 188.47 54.38 185.42C58.89 182.2 63.56 178.88 66.76 173.32C69.83 167.99 69.67 162.1 66.35 157.95C62.38 152.99 54.95 151.6 46.47 154.22C41.41 155.79 38.11 157.47 35.71 158.69C28.62 162.29 28.11 161.49 19.49 148.14C18.6 146.76 17.62 145.24 16.53 143.56L16.05 142.82L16.73 142.25C34.49 127.37 56.24 122.78 74.92 129.96C88.59 135.21 97.79 145.81 99.54 158.31C101.53 172.52 93.61 187.13 77.25 199.46C66.61 207.48 67.08 212.94 67.38 216.56C67.53 218.33 67.67 220 66.46 221.32C64.41 223.53 58.87 224.24 43.64 224.24ZM54.51 150.92C60.13 150.92 64.88 152.9 67.92 156.7C71.76 161.51 71.99 168.26 68.5 174.32C65.09 180.25 60.24 183.71 55.55 187.05C51.24 190.12 47.17 193.02 44.19 197.7C41.49 201.94 42.05 205.63 43.53 215.5C43.83 217.49 44.16 219.72 44.51 222.24C57.74 222.21 63.5 221.57 64.98 219.96C65.57 219.32 65.52 218.41 65.38 216.72C65.04 212.67 64.51 206.54 76.03 197.86C91.79 185.98 99.43 172.04 97.55 158.58C95.9 146.82 87.17 136.81 74.19 131.82C56.44 124.99 35.75 129.26 18.69 143.21C19.59 144.6 20.41 145.87 21.17 147.05C25.28 153.42 27.54 156.93 29.24 158.09C30.56 158.99 31.62 158.52 34.8 156.9C37.27 155.64 40.65 153.92 45.88 152.3C48.9 151.38 51.8 150.92 54.51 150.92Z" fill="#00B8AD"/>
<path d="M53.14 265.48C45.33 265.48 36.93 260.54 36.93 249.7C36.93 238.89 45.33 233.96 53.14 233.96C61.24 233.96 69.45 239.37 69.45 249.7C69.45 254.56 67.67 258.65 64.32 261.54C61.36 264.08 57.39 265.48 53.14 265.48ZM53.14 235.96C46.29 235.96 38.93 240.26 38.93 249.7C38.93 259.17 46.3 263.48 53.14 263.48C60.03 263.48 67.45 259.17 67.45 249.7C67.45 240.26 60.04 235.96 53.14 235.96Z" fill="#00B8AD"/>
<path d="M43.64 228.56H39L38.37 223.96C38 221.23 37.64 218.84 37.32 216.72L37.28 216.43C35.69 205.85 34.89 200.53 38.86 194.3C39.16 193.84 39.46 193.39 39.77 192.95L41.4 194.11C41.11 194.52 40.82 194.94 40.55 195.37C36.99 200.97 37.75 206.04 39.26 216.13L39.3 216.42C39.62 218.55 39.98 220.95 40.35 223.68L40.74 226.55H43.64C60.04 226.55 65.54 225.73 68.16 222.87C69.17 221.77 69.68 220.48 69.77 218.82L71.77 218.93C71.65 221.05 70.96 222.79 69.63 224.22C66.47 227.67 61.13 228.56 43.64 228.56Z" fill="#00B8AD"/>
<path d="M66.58 166.77L64.59 166.55C64.63 166.21 64.65 165.88 64.65 165.55C64.65 164.1 64.3 162.76 63.61 161.57C61.86 158.54 57.99 156.95 53.24 157.27L53.1 155.27C58.66 154.89 63.19 156.85 65.34 160.56C66.21 162.06 66.65 163.74 66.65 165.55C66.65 165.95 66.63 166.36 66.58 166.77Z" fill="#00B8AD"/>
<path d="M30.57 164.87C25.14 164.87 22.61 160.95 15.86 150.49L15.8 150.4C14.93 149.05 13.96 147.55 12.9 145.91L10.33 141.96L13.94 138.93C22.52 131.74 31.85 126.81 41.67 124.27L42.17 126.21C32.64 128.67 23.57 133.47 15.22 140.47L12.96 142.36L14.56 144.83C15.63 146.47 16.59 147.97 17.47 149.32L16.69 149.95L17.53 149.41C24.03 159.48 26.22 162.88 30.56 162.88C32.1 162.88 33.5 162.36 35.14 161.57L36.01 163.37C34.13 164.27 32.49 164.87 30.57 164.87Z" fill="#00B8AD"/>
<path d="M92.79 190.77L91.26 189.49C98.4 180.96 102.18 171.68 102.18 162.66C102.18 160.29 101.92 157.92 101.41 155.59L103.36 155.16C103.9 157.62 104.17 160.15 104.17 162.66C104.18 172.16 100.24 181.88 92.79 190.77Z" fill="#00B8AD"/>
<path d="M53.24 269.8H53.15C42.95 269.8 32.62 262.9 32.62 249.7C32.62 247.27 32.98 244.97 33.68 242.85L35.58 243.48C34.94 245.4 34.62 247.49 34.62 249.7C34.62 261.58 43.94 267.8 53.15 267.8L53.24 269.8ZM71.63 259.13L69.85 258.22C71.13 255.71 71.77 252.84 71.77 249.7C71.77 245.59 70.68 242 68.52 239.03L70.14 237.86C72.55 241.19 73.77 245.17 73.77 249.71C73.77 253.16 73.05 256.33 71.63 259.13Z" fill="#00B8AD"/>
<path d="M127.9 155.13H127.03L126.91 154.27C126.68 152.57 126.45 151.08 126.26 149.77C125.34 143.66 124.96 141.13 126.88 138.11C128.82 135.07 131.47 133.17 134.05 131.34C136.82 129.37 139.43 127.5 141.29 124.28C143.03 121.26 142.95 117.94 141.08 115.6C138.83 112.79 134.58 112.01 129.71 113.52C126.74 114.44 124.8 115.43 123.38 116.15C118.84 118.46 118.31 117.63 113.22 109.74C112.69 108.92 112.11 108.02 111.46 107.02L110.98 106.28L111.66 105.71C122.32 96.7799 135.4 94.0199 146.63 98.3399C154.89 101.51 160.45 107.93 161.51 115.5C162.71 124.09 157.96 132.91 148.11 140.33C141.97 144.96 142.22 147.95 142.41 150.13C142.5 151.22 142.6 152.35 141.76 153.27C140.43 154.7 137.19 155.13 127.9 155.13ZM134.35 110.77C137.81 110.77 140.74 112 142.63 114.36C145.02 117.35 145.17 121.53 143.01 125.28C140.94 128.88 138.02 130.96 135.2 132.97C132.67 134.77 130.29 136.47 128.56 139.18C127.04 141.57 127.36 143.72 128.23 149.47C128.39 150.56 128.58 151.77 128.77 153.13C134.06 153.11 139.34 152.93 140.28 151.91C140.52 151.65 140.49 151.18 140.41 150.29C140.21 147.95 139.88 144.02 146.9 138.73C156.14 131.77 160.62 123.62 159.52 115.78C158.56 108.94 153.47 103.12 145.9 100.21C135.59 96.2499 123.58 98.6699 113.61 106.68C114.07 107.39 114.49 108.04 114.89 108.65C117.3 112.39 118.63 114.45 119.57 115.09C120.14 115.48 120.56 115.32 122.46 114.36C123.94 113.61 125.97 112.58 129.1 111.6C130.94 111.04 132.71 110.77 134.35 110.77Z" fill="#003359"/>
<path d="M133.54 179.64C128.55 179.64 123.5 176.28 123.5 169.86C123.5 163.46 128.55 160.11 133.54 160.11C138.56 160.11 143.63 163.46 143.63 169.86C143.64 176.28 138.56 179.64 133.54 179.64ZM133.54 162.1C129.67 162.1 125.5 164.53 125.5 169.85C125.5 175.2 129.67 177.63 133.54 177.63C137.44 177.63 141.63 175.19 141.63 169.85C141.64 164.53 137.44 162.1 133.54 162.1Z" fill="#003359"/>
<path d="M127.9 159.45H123.26L122.63 154.85C122.4 153.2 122.19 151.75 122 150.48C121.03 144.03 120.45 140.17 123.24 135.79C125.63 132.04 128.77 129.8 131.54 127.82L132.5 127.14L133.67 128.76L132.71 129.45C130.08 131.32 127.11 133.44 124.93 136.86C122.54 140.61 123.02 143.79 123.97 150.12C124.17 151.47 124.39 152.92 124.62 154.59L125.01 157.46H127.91C137.19 157.46 141.4 157.1 143.47 154.84C145 153.17 144.83 151.23 144.72 149.94C144.54 147.85 144.76 145.85 149.21 142.42L150.43 144C146.48 147.04 146.6 148.43 146.71 149.77C146.83 151.21 147.06 153.89 144.94 156.2C142.38 158.96 138.25 159.45 127.9 159.45Z" fill="#003359"/>
<path d="M140 121.39L138.07 120.86C138.16 120.52 138.21 120.19 138.21 119.87C138.21 119.39 138.1 118.95 137.88 118.58C137.71 118.29 137.47 118.03 137.18 117.82L138.34 116.19C138.87 116.57 139.29 117.03 139.61 117.57C140 118.25 140.2 119.02 140.2 119.86C140.21 120.37 140.14 120.88 140 121.39Z" fill="#003359"/>
<path d="M120.13 121.62C115.73 121.62 113.8 118.63 109.58 112.08L105.26 105.42L108.87 102.39C117.7 94.99 127.98 91.39 138.29 92.12L138.15 94.12C128.35 93.43 118.59 96.87 110.16 103.93L107.91 105.82L111.27 111C115.32 117.27 116.83 119.62 120.14 119.62C121.67 119.62 122.95 118.97 124.43 118.22C125.84 117.5 127.6 116.6 130.39 115.74C131.38 115.43 132.34 115.23 133.24 115.14L133.44 117.13C132.67 117.21 131.84 117.38 130.98 117.65C128.35 118.46 126.68 119.32 125.33 120C123.76 120.8 122.14 121.62 120.13 121.62Z" fill="#003359"/>
<path d="M162.57 130.75L160.82 129.78C162.94 125.97 164.02 122.07 164.02 118.18C164.02 116.59 163.84 114.99 163.48 113.44L165.43 112.99C165.82 114.69 166.02 116.44 166.02 118.18C166.03 122.41 164.86 126.64 162.57 130.75Z" fill="#003359"/>
<path d="M133.54 183.95C126.41 183.95 119.18 179.11 119.18 169.85C119.18 160.61 126.4 155.78 133.54 155.78C140.53 155.78 147.95 160.71 147.95 169.85C147.95 172.6 147.28 175.08 145.96 177.25L144.25 176.21C145.37 174.37 145.95 172.23 145.95 169.86C145.95 162.02 139.55 157.79 133.54 157.79C127.4 157.79 121.18 161.94 121.18 169.86C121.18 177.8 127.4 181.96 133.54 181.96V183.95Z" fill="#003359"/>
<path d="M73.09 102.5H72.22L72.1 101.64C71.7 98.71 71.32 96.15 70.98 93.9C69.43 83.58 68.79 79.31 71.94 74.35C75.19 69.24 79.7 66.03 84.07 62.92C88.68 59.63 93.45 56.24 96.71 50.56C99.85 45.11 99.69 39.09 96.29 34.84C92.23 29.77 84.64 28.34 75.97 31.03C70.8 32.63 67.44 34.34 64.98 35.59C57.76 39.26 57.24 38.44 48.45 24.82C47.54 23.41 46.54 21.86 45.43 20.15L44.95 19.41L45.63 18.84C63.74 3.64998 85.94 -1.04002 105 6.28998C118.94 11.65 128.34 22.46 130.12 35.21C132.15 49.7 124.07 64.62 107.37 77.2C96.5 85.4 96.98 90.98 97.29 94.67C97.44 96.47 97.59 98.18 96.36 99.52C94.29 101.77 88.63 102.5 73.09 102.5ZM84.18 27.69C89.91 27.69 94.75 29.71 97.85 33.59C101.77 38.49 102 45.37 98.44 51.55C94.96 57.6 90.01 61.13 85.22 64.54C80.82 67.68 76.66 70.64 73.62 75.42C70.86 79.75 71.43 83.52 72.95 93.6C73.26 95.64 73.6 97.92 73.96 100.5C87.49 100.47 93.38 99.81 94.89 98.17C95.5 97.51 95.45 96.57 95.3 94.84C94.95 90.71 94.42 84.46 106.17 75.6C122.27 63.47 130.07 49.22 128.14 35.48C126.45 23.46 117.54 13.24 104.28 8.14998C86.14 1.17998 65.01 5.53998 47.58 19.8C48.5 21.22 49.35 22.53 50.12 23.73C54.32 30.24 56.63 33.82 58.37 35.01C59.72 35.93 60.82 35.45 64.07 33.8C66.59 32.52 70.04 30.76 75.38 29.11C78.46 28.16 81.43 27.69 84.18 27.69Z" fill="#FFB412"/>
<path d="M82.79 144.61C74.83 144.61 66.26 139.57 66.26 128.52C66.26 117.5 74.83 112.48 82.79 112.48C91.05 112.48 99.42 117.99 99.42 128.52C99.42 139.08 91.06 144.61 82.79 144.61ZM82.79 114.47C75.79 114.47 68.26 118.87 68.26 128.51C68.26 138.19 75.79 142.6 82.79 142.6C89.84 142.6 97.42 138.19 97.42 128.51C97.42 118.87 89.84 114.47 82.79 114.47Z" fill="#FFB412"/>
<path d="M73.09 107.12H68.18L67.52 102.26C67.12 99.35 66.74 96.82 66.41 94.58C64.78 83.72 63.96 78.28 68.05 71.85C68.15 71.7 68.25 71.54 68.35 71.39L70 72.5L69.72 72.93C66.03 78.72 66.82 83.92 68.37 94.29C68.71 96.53 69.09 99.08 69.49 101.99L69.92 105.12H73.08C89.9 105.12 95.56 104.26 98.29 101.29C99.12 100.38 99.64 99.35 99.87 98.12L101.83 98.49C101.53 100.1 100.85 101.46 99.76 102.64C96.54 106.16 90.8 107.12 73.09 107.12Z" fill="#FFB412"/>
<path d="M96.26 43.94L94.27 43.71C94.31 43.34 94.34 42.98 94.34 42.62C94.34 41.17 93.99 39.84 93.3 38.65C91.47 35.49 87.34 33.9 82.22 34.42L82.02 32.43C87.96 31.82 92.8 33.78 95.03 37.65C95.9 39.15 96.34 40.82 96.34 42.62C96.34 43.05 96.31 43.49 96.26 43.94Z" fill="#FFB412"/>
<path d="M59.75 42.11C54.1 42.11 51.5 38.09 44.57 27.33C43.66 25.92 42.66 24.37 41.55 22.67L38.83 18.49L42.65 15.29C51.13 8.17999 60.35 3.21999 70.04 0.549988L70.57 2.47999C61.16 5.07999 52.2 9.89999 43.94 16.83L41.48 18.89L43.23 21.58C44.34 23.29 45.34 24.84 46.25 26.25C52.94 36.62 55.2 40.11 59.75 40.11C60.89 40.11 62.03 39.84 63.44 39.24L64.22 41.08C62.55 41.79 61.17 42.11 59.75 42.11Z" fill="#FFB412"/>
<path d="M123.13 68.83L121.6 67.54C129.11 58.69 133.08 49.06 133.08 39.67C133.08 37.23 132.81 34.77 132.29 32.37L134.24 31.94C134.8 34.48 135.08 37.08 135.08 39.67C135.09 49.53 130.95 59.61 123.13 68.83Z" fill="#FFB412"/>
<path d="M82.89 149.23H82.79C72.28 149.23 61.63 142.11 61.63 128.51C61.63 126.01 62 123.63 62.73 121.45L64.63 122.08C63.97 124.06 63.64 126.22 63.64 128.51C63.64 140.8 73.28 147.23 82.8 147.23L82.89 149.23ZM101.84 138.23L100.06 137.33C101.38 134.73 102.05 131.77 102.05 128.52C102.05 124.28 100.92 120.56 98.69 117.48L100.31 116.31C102.79 119.74 104.05 123.85 104.05 128.52C104.05 132.08 103.31 135.35 101.84 138.23Z" fill="#FFB412"/>
<path d="M21.63 89.83H20.76L20.64 88.97C20.43 87.4 20.22 86.0199 20.04 84.8099C19.21 79.2999 18.83 76.7799 20.63 73.9599C22.43 71.13 24.89 69.38 27.28 67.68C29.83 65.86 32.25 64.1399 33.95 61.1699C35.54 58.3999 35.47 55.36 33.76 53.2299C31.7 50.65 27.8 49.94 23.32 51.33C20.57 52.18 18.78 53.0899 17.48 53.7599C13.22 55.9199 12.73 55.15 7.97999 47.7999C7.48999 47.0399 6.94999 46.2099 6.34999 45.2799L5.87 44.54L6.54999 43.97C16.43 35.69 28.56 33.1299 38.98 37.1399C46.65 40.0899 51.81 46.0399 52.8 53.07C53.92 61.0499 49.51 69.2299 40.37 76.11C34.72 80.3699 34.96 83.11 35.13 85.11C35.22 86.1399 35.31 87.2 34.51 88.07C33.26 89.4199 30.25 89.83 21.63 89.83ZM27.6 48.6399C30.83 48.6399 33.56 49.79 35.32 51.99C37.55 54.78 37.69 58.68 35.68 62.18C33.76 65.53 31.05 67.45 28.43 69.32C26.1 70.9799 23.9 72.55 22.31 75.05C20.92 77.24 21.22 79.2199 22.01 84.5199C22.16 85.5099 22.32 86.6099 22.5 87.8399C27.35 87.8199 32.18 87.6499 33.02 86.7399C33.22 86.5299 33.19 86.08 33.12 85.3C32.93 83.12 32.62 79.46 39.15 74.54C47.68 68.1199 51.81 60.6 50.8 53.38C49.92 47.08 45.22 41.7199 38.25 39.0299C28.76 35.3799 17.7 37.6 8.50999 44.97C8.91999 45.6 9.29999 46.19 9.64999 46.74C11.88 50.19 13.1 52.09 13.96 52.68C14.43 53 14.75 52.92 16.56 52C17.93 51.2999 19.81 50.35 22.72 49.45C24.43 48.9 26.07 48.6399 27.6 48.6399Z" fill="#0087EB"/>
<path d="M21.63 93.99H17.13L16.52 89.53C16.31 88 16.11 86.66 15.93 85.47C15.03 79.46 14.48 75.86 17.11 71.73C19.34 68.22 22.27 66.13 24.86 64.29C25.81 63.61 26.71 62.97 27.52 62.3L28.8 63.84C27.93 64.56 27 65.22 26.02 65.92C23.59 67.65 20.83 69.62 18.8 72.8C16.57 76.3 17.02 79.25 17.9 85.12C18.09 86.36 18.29 87.71 18.5 89.25L18.87 91.98H21.62C30.23 91.98 34.14 91.64 36.08 89.53C37.52 87.96 37.36 86.06 37.26 84.93C37.09 82.92 37.3 81.12 41.65 77.84C42.19 77.43 42.72 77.02 43.23 76.61L44.5 78.16C43.97 78.59 43.42 79.02 42.86 79.44C39.05 82.31 39.15 83.5 39.26 84.76C39.37 86.03 39.59 88.67 37.56 90.89C35.14 93.52 31.28 93.99 21.63 93.99Z" fill="#0087EB"/>
<path d="M32.71 58.6299L30.79 58.0599C30.89 57.7399 30.93 57.4299 30.93 57.1299C30.93 56.7299 30.84 56.3699 30.66 56.0499L32.29 54.8799C32.33 54.9399 32.36 54.9999 32.4 55.0599C32.75 55.6699 32.93 56.3699 32.93 57.1299C32.94 57.6199 32.86 58.1299 32.71 58.6299Z" fill="#0087EB"/>
<path d="M14.45 58.99C10.25 58.99 8.44 56.19 4.49 50.06L4.37001 49.88C3.91001 49.17 3.42 48.4 2.87 47.56L0.380005 43.73L3.88 40.79C11.41 34.48 20.04 31.15 28.84 31.15C30.46 31.15 32.09 31.27 33.67 31.49L33.38 33.47C31.89 33.26 30.36 33.15 28.84 33.15C20.51 33.15 12.32 36.32 5.16 42.33L3.02001 44.13L4.55 46.48C5.1 47.33 5.6 48.1 6.06 48.81L6.17 48.99C10.18 55.21 11.47 57 14.45 57C15.89 57 17.08 56.4 18.45 55.69C19.76 55.03 21.38 54.2 23.95 53.4C25.88 52.8 27.69 52.65 29.16 52.94L28.77 54.9C27.64 54.67 26.15 54.81 24.54 55.31C22.13 56.06 20.59 56.84 19.35 57.47C17.88 58.22 16.36 58.99 14.45 58.99Z" fill="#0087EB"/>
<path d="M54.5 66.1999L52.71 65.2999C54.32 62.0999 55.13 58.8299 55.13 55.5699C55.13 54.0899 54.96 52.5999 54.62 51.1399L56.57 50.6899C56.94 52.2999 57.13 53.9399 57.13 55.5699C57.14 59.1399 56.25 62.7099 54.5 66.1999Z" fill="#0087EB"/>
<path d="M26.85 123.11C20.13 123.11 13.33 118.55 13.33 109.83C13.33 101.13 20.13 96.5699 26.85 96.5699C33.43 96.5699 40.42 101.22 40.42 109.83C40.42 114.12 38.62 117.84 35.36 120.3L34.16 118.7C36.11 117.23 38.43 114.51 38.43 109.83C38.43 102.52 32.47 98.5699 26.86 98.5699C21.14 98.5699 15.34 102.44 15.34 109.83C15.34 117.23 21.13 121.11 26.86 121.11V123.11H26.85Z" fill="#0087EB"/>
<path d="M26.85 118.96C22.2 118.96 17.49 115.83 17.49 109.84C17.49 103.87 22.2 100.74 26.85 100.74C31.53 100.74 36.26 103.87 36.26 109.84C36.26 115.82 31.53 118.96 26.85 118.96ZM26.85 102.74C23.31 102.74 19.49 104.96 19.49 109.84C19.49 114.73 23.31 116.96 26.85 116.96C30.42 116.96 34.26 114.73 34.26 109.84C34.26 107.64 33.47 105.81 31.98 104.53C30.63 103.37 28.81 102.74 26.85 102.74Z" fill="#0087EB"/>
</svg>
