<svg width="243" height="302" viewBox="0 0 243 302" fill="none" xmlns="http://www.w3.org/2000/svg">
<path d="M242.106 27.8874V273.429C242.106 278.956 240.499 284.106 237.726 288.437C232.773 296.182 224.094 301.317 214.219 301.317H27.8874C26.2269 301.317 24.6023 301.171 23.0212 300.892C15.1999 299.518 8.50181 294.882 4.38011 288.44C1.60672 284.106 0 278.956 0 273.429V27.8874C0 12.4854 12.4854 0 27.8874 0H214.219C229.621 0 242.106 12.4854 242.106 27.8874Z" fill="#434041"/>
<path d="M242.106 27.8874V75.9611C233.43 70.2353 226.266 62.4959 223.685 53.9531C220.126 42.1765 226.665 33.4521 219.737 23.6915C212.246 13.1403 200.4 17.4207 193.421 7.90057C191.778 5.65935 190.627 2.95504 189.931 0H214.219C229.621 0 242.106 12.4854 242.106 27.8874Z" fill="url(#paint0_linear_80_846)"/>
<path d="M205.645 183.092C190.773 177.847 175.018 171.367 159.142 166.628C156.609 163.886 155.092 161.238 154.345 158.469H148.862C147.795 153.109 147.424 147.655 147.555 141.663L147.754 141.474C152.388 137.068 155.351 131.199 156.133 124.851C156.254 123.884 156.379 122.904 156.507 121.911C157.372 122.6 158.702 122.666 159.603 121.722C160.562 120.714 161.371 119.348 161.992 117.534C164.282 110.961 165.51 102.951 166.065 94.024C166.193 91.9619 164.599 90.4959 162.824 90.3884C163.448 85.315 163.875 80.4974 164.093 75.9689C164.231 76.0533 164.428 76.0584 164.515 75.8895C167.01 71.054 167.207 65.3256 164.924 60.3442C164.809 60.0935 164.674 59.8556 164.546 59.6125C164.244 56.2839 162.916 53.1882 160.36 50.883C160.498 50.553 160.618 50.2204 160.721 49.8801C162.415 51.0723 163.594 53.05 164.699 54.7054C165.034 55.2094 165.735 54.7744 165.497 54.2397C164.484 51.9678 163.174 49.5193 161.115 48.0124C161.47 45.2211 160.946 42.2047 160.365 39.3264C160.317 39.0833 159.897 39.137 159.928 39.3852C160.255 41.9053 160.519 44.7478 160.025 47.337C160.007 47.3293 159.992 47.3165 159.974 47.3063C159.078 46.8688 158.178 46.7255 157.252 46.6411C158.789 40.1016 157.172 32.9455 151.669 28.1407C151.075 27.6239 150.244 28.4349 150.799 29.0106C151.71 29.9572 152.426 31.0292 153.017 32.1626C150.037 29.2664 146.107 27.7007 142.292 27.8337C141.599 27.1404 140.801 26.5238 140.03 25.9046C138.933 25.0219 137.439 26.4189 138.452 27.4832C138.751 27.7979 138.969 28.0768 139.153 28.3352C137.574 28.811 136.088 29.6425 134.755 30.8169C134.583 30.8092 134.415 30.8118 134.243 30.8066C135.576 29.3432 135.034 27.7953 133.816 26.4419C132.68 23.8271 129.784 21.8494 126.353 20.9898C125.337 20.7365 124.938 22.0106 125.685 22.5735C128.939 25.0219 128.942 28.5373 125.138 28.7752C125.665 27.7979 126.007 26.731 126.033 25.595C126.1 22.8447 124.124 19.644 121.113 19.5647C118.787 19.5033 117.086 21.22 117.439 23.4613C117.516 23.9499 118.314 23.932 118.406 23.4613C122.748 21.8648 124.508 22.3381 123.71 24.8659C123.753 24.5512 123.789 24.2365 123.787 23.8962C123.779 23.318 122.94 23.3308 122.899 23.8962C122.738 26.1118 121.446 27.1276 119.701 27.5625C117.838 26.7156 115.84 26.2295 113.778 26.2244C111.465 25.8918 109.162 25.9046 106.699 26.3523C105.642 26.5442 104.688 27.2913 104.033 28.2098C103.616 28.3428 103.199 28.5015 102.789 28.7138C102.692 28.765 102.62 28.8315 102.544 28.8955C104.396 26.5468 107.267 25.091 110.564 25.178C113.78 25.265 116.505 26.1835 119.744 25.8713C120.062 25.8406 120.195 25.3238 119.826 25.2675C115.812 24.6407 112.276 22.2767 108.075 22.9419C105.348 23.3743 102.533 24.9401 100.479 26.7438C98.3989 28.5705 97.4932 30.5175 96.9355 33.0351C96.5133 32.9455 96.1219 32.8227 95.2878 32.9532C93.9267 33.1656 92.7984 33.7054 91.9643 34.8311C91.0177 36.1078 90.8054 37.7708 91.2096 39.2854C91.3017 39.6283 91.4219 39.8918 91.5524 40.14C90.987 40.9126 90.4932 41.7697 90.1376 42.6473C88.8609 42.3223 87.5254 42.2814 86.2206 42.5066C82.8408 43.0924 80.1288 45.2799 78.2612 48.0738C76.0916 51.3205 74.5718 55.7108 74.4516 59.6228C74.3979 61.4009 74.7177 63.0767 75.4545 64.6962C75.6259 65.0697 75.8204 65.4305 76.025 65.7861C75.0912 72.126 75.1807 78.9981 78.604 84.399C78.7601 86.4049 78.9724 88.4056 79.2283 90.3961C77.4731 90.5317 75.9125 91.9875 76.0378 94.0291C76.593 102.953 77.8236 110.966 80.1109 117.539C80.7326 119.353 81.5437 120.719 82.5005 121.727C83.4011 122.674 84.729 122.605 85.5963 121.917C85.7242 122.904 85.8496 123.881 85.9673 124.846C86.7527 131.199 89.718 137.073 94.3591 141.479L94.5023 141.614C94.6303 147.624 94.2567 153.097 93.1796 158.475H87.7045C86.9728 161.166 85.5119 163.745 83.0941 166.411C66.8248 171.136 50.7524 177.712 36.2433 183.182C32.0858 184.75 29.0847 188.416 28.4041 192.809C26.4469 205.441 22.5759 230.414 22.5759 230.414H219.53L213.715 192.812C213.021 188.322 209.923 184.599 205.645 183.092ZM143.582 35.6345C144.078 36.8012 144.638 37.8194 144.779 38.894C143.707 38.2441 142.597 37.6506 141.458 37.1031C142.251 36.4404 142.937 35.614 143.418 34.6879C143.408 35.0153 143.459 35.3428 143.582 35.6345ZM99.824 38.5614C99.7984 38.5793 99.7754 38.5998 99.7523 38.6177C99.7907 38.4514 99.8342 38.2851 99.87 38.1188C99.8931 38.1162 99.9186 38.1111 99.9417 38.106C99.9033 38.2595 99.8547 38.4079 99.824 38.5614ZM104.675 34.6904C104.91 34.8976 105.166 35.0819 105.44 35.2405C104.949 35.4554 104.465 35.6831 103.989 35.9262C104.196 35.5014 104.424 35.0895 104.675 34.6904ZM145.099 32.9941C144.582 32.9583 144.19 33.1425 143.912 33.4342C144.063 32.9046 144.139 32.3596 144.134 31.807C145.176 32.2368 146.168 32.8227 147.071 33.5442C146.452 33.2577 145.802 33.0453 145.099 32.9941ZM101.052 34.9463C100.916 35.0639 100.783 35.1842 100.648 35.3019C100.525 35.3786 100.397 35.4503 100.269 35.5194C100.313 35.1509 100.361 34.7876 100.392 34.4167C100.397 34.3578 100.41 34.3015 100.415 34.2427C101.052 33.8768 101.656 33.4342 102.226 32.9379C101.781 33.5749 101.39 34.2452 101.052 34.9463ZM94.748 40.5109C94.6226 40.2884 94.5049 40.0965 94.4 39.9302C94.6533 39.746 94.904 39.5745 95.1573 39.4159C95.0217 39.7818 94.8887 40.1476 94.748 40.5109ZM92.7677 43.9188C92.3148 43.6016 91.8671 43.3074 91.4219 43.0822C91.7008 42.6166 92.0334 42.1612 92.4172 41.7288C92.7984 42.5808 92.9289 43.3253 92.7677 43.9188ZM88.2085 47.012C88.2187 47.0402 88.2264 47.0683 88.2392 47.0939C85.7677 47.5877 83.4702 48.8311 81.6179 50.6118C79.6171 52.5332 78.5272 54.9535 77.7699 57.5171C78.494 54.603 79.7962 51.8834 82.0758 49.7829C84.0382 47.974 86.0952 47.209 88.2085 47.012ZM78.1 64.3534C78.0974 64.9981 78.0923 65.6301 78.0897 66.2876C78.0002 66.1136 77.9081 65.9345 77.8185 65.7554C77.9055 65.2923 78.0002 64.8241 78.1 64.3534ZM164.129 75.1808C164.372 69.2401 163.307 63.5014 161.194 58.2668C162.739 60.0858 164.016 62.0635 164.712 64.5376C165.718 68.099 165.364 71.7397 164.129 75.1808ZM162.502 56.5679C161.47 55.2759 160.334 54.053 159.26 52.8121C159.288 52.7737 159.314 52.7328 159.344 52.6918C160.693 53.7459 161.752 55.0712 162.502 56.5679ZM159.5 49.2123C159.406 49.4656 159.301 49.7163 159.183 49.962C158.528 49.5398 157.784 49.156 156.996 48.7876C157.748 48.7851 158.495 48.8439 159.222 49.0895C159.321 49.1228 159.406 49.1739 159.5 49.2123ZM102.579 30.886C102.032 31.3081 101.464 31.7072 100.878 32.0373C101.19 31.0727 101.635 30.1773 102.193 29.3713C102.006 29.8779 102.185 30.474 102.579 30.886ZM96.4826 35.1535C96.3445 35.7317 96.1909 36.3023 96.0221 36.8626C95.5181 36.9854 95.032 37.1491 94.5433 37.3973C94.6635 37.231 94.7863 37.0647 94.9424 36.8523C96.0221 35.3966 96.0784 35.1714 96.4826 35.1535ZM79.5404 49.4349C81.1599 46.9353 83.4728 44.9678 86.4866 44.497C87.487 44.341 88.3006 44.4049 89.0375 44.5866C86.4406 44.8527 83.9589 45.7021 81.9198 47.3267C80.2542 48.652 79.021 50.2383 78.123 51.9831C78.5477 51.0902 79.0236 50.2332 79.5404 49.4349ZM77.4603 68.0171C77.6804 68.3574 77.8953 68.6977 78.0923 69.0431C78.1 72.9089 78.1716 76.9411 78.3942 81.0244C77.028 76.8157 76.8565 72.5124 77.4603 68.0171Z" fill="white"/>
<path d="M242.106 199.528V273.429C242.106 278.956 240.499 284.106 237.726 288.437C232.773 296.182 224.094 301.317 214.219 301.317H27.8873C26.2269 301.317 24.6023 301.171 23.0211 300.892C27.6673 270.114 84.6292 226.095 139.473 216.455C174.286 210.335 195.347 220.331 232.895 203.954C236.178 202.521 239.24 201.04 242.106 199.528Z" fill="url(#paint1_linear_80_846)"/>
<path d="M213.935 301.317H27.8874C18.0117 301.317 9.33588 296.185 4.38011 288.44C1.60672 284.106 0 278.956 0 273.429V31.4923C21.6831 53.769 39.3801 83.2554 46.0526 113.164C54.9893 153.209 37.5456 164.367 51.3153 190.796C75.9074 238 139.596 217.87 189.473 268.428C198.515 277.59 207.04 289.013 213.935 301.317Z" fill="url(#paint2_linear_80_846)"/>
<path d="M149.07 301.317H27.8874C18.0117 301.317 9.33588 296.184 4.38011 288.44C1.60672 284.106 0 278.956 0 273.429V119.084C5.1016 129.648 9.05444 140.609 11.5131 151.628C20.4499 191.671 3.00621 202.828 16.7759 229.26C40.4137 274.632 100.175 257.795 149.07 301.317Z" fill="url(#paint3_linear_80_846)"/>
<path d="M55.7713 240.2H58.5433V250H55.7713V240.2ZM51.9913 250H49.2193V240.2H51.9913V250ZM55.9673 246.178H51.7953V243.882H55.9673V246.178ZM65.7066 250V248.586L65.5246 248.236V245.632C65.5246 245.212 65.3939 244.89 65.1326 244.666C64.8806 244.433 64.4746 244.316 63.9146 244.316C63.5506 244.316 63.1819 244.377 62.8086 244.498C62.4352 244.61 62.1179 244.769 61.8566 244.974L60.9606 243.168C61.3899 242.888 61.9032 242.673 62.5006 242.524C63.1072 242.365 63.7092 242.286 64.3066 242.286C65.5386 242.286 66.4906 242.571 67.1626 243.14C67.8439 243.7 68.1846 244.582 68.1846 245.786V250H65.7066ZM63.4666 250.126C62.8599 250.126 62.3466 250.023 61.9266 249.818C61.5066 249.613 61.1846 249.333 60.9606 248.978C60.7459 248.623 60.6386 248.227 60.6386 247.788C60.6386 247.321 60.7552 246.92 60.9886 246.584C61.2312 246.239 61.5999 245.977 62.0946 245.8C62.5892 245.613 63.2286 245.52 64.0126 245.52H65.8046V246.906H64.3766C63.9472 246.906 63.6439 246.976 63.4666 247.116C63.2986 247.256 63.2146 247.443 63.2146 247.676C63.2146 247.909 63.3032 248.096 63.4806 248.236C63.6579 248.376 63.9006 248.446 64.2086 248.446C64.4979 248.446 64.7592 248.376 64.9926 248.236C65.2352 248.087 65.4126 247.863 65.5246 247.564L65.8886 248.544C65.7486 249.067 65.4732 249.463 65.0626 249.734C64.6612 249.995 64.1292 250.126 63.4666 250.126ZM73.3216 250.126C72.6776 250.126 72.0476 250.051 71.4316 249.902C70.8249 249.753 70.3349 249.566 69.9616 249.342L70.7596 247.522C71.1142 247.737 71.5296 247.909 72.0056 248.04C72.4816 248.161 72.9482 248.222 73.4056 248.222C73.8536 248.222 74.1616 248.175 74.3296 248.082C74.5069 247.989 74.5956 247.863 74.5956 247.704C74.5956 247.555 74.5116 247.447 74.3436 247.382C74.1849 247.307 73.9702 247.251 73.6996 247.214C73.4382 247.177 73.1489 247.135 72.8316 247.088C72.5142 247.041 72.1922 246.981 71.8656 246.906C71.5482 246.822 71.2542 246.701 70.9836 246.542C70.7222 246.374 70.5122 246.15 70.3536 245.87C70.1949 245.59 70.1156 245.235 70.1156 244.806C70.1156 244.321 70.2556 243.891 70.5356 243.518C70.8249 243.135 71.2449 242.837 71.7956 242.622C72.3462 242.398 73.0182 242.286 73.8116 242.286C74.3436 242.286 74.8802 242.342 75.4216 242.454C75.9722 242.557 76.4342 242.715 76.8076 242.93L76.0096 244.736C75.6362 244.521 75.2629 244.377 74.8896 244.302C74.5162 244.218 74.1616 244.176 73.8256 244.176C73.3776 244.176 73.0602 244.227 72.8736 244.33C72.6962 244.433 72.6076 244.559 72.6076 244.708C72.6076 244.857 72.6869 244.974 72.8456 245.058C73.0042 245.133 73.2142 245.193 73.4756 245.24C73.7462 245.277 74.0402 245.319 74.3576 245.366C74.6749 245.403 74.9922 245.464 75.3096 245.548C75.6362 245.632 75.9302 245.758 76.1916 245.926C76.4622 246.085 76.6769 246.304 76.8356 246.584C76.9942 246.855 77.0736 247.205 77.0736 247.634C77.0736 248.101 76.9289 248.521 76.6396 248.894C76.3596 249.267 75.9396 249.566 75.3796 249.79C74.8289 250.014 74.1429 250.126 73.3216 250.126ZM83.5538 250V248.586L83.3718 248.236V245.632C83.3718 245.212 83.2412 244.89 82.9798 244.666C82.7278 244.433 82.3218 244.316 81.7618 244.316C81.3978 244.316 81.0292 244.377 80.6558 244.498C80.2825 244.61 79.9652 244.769 79.7038 244.974L78.8078 243.168C79.2372 242.888 79.7505 242.673 80.3478 242.524C80.9545 242.365 81.5565 242.286 82.1538 242.286C83.3858 242.286 84.3378 242.571 85.0098 243.14C85.6912 243.7 86.0318 244.582 86.0318 245.786V250H83.5538ZM81.3138 250.126C80.7072 250.126 80.1938 250.023 79.7738 249.818C79.3538 249.613 79.0318 249.333 78.8078 248.978C78.5932 248.623 78.4858 248.227 78.4858 247.788C78.4858 247.321 78.6025 246.92 78.8358 246.584C79.0785 246.239 79.4472 245.977 79.9418 245.8C80.4365 245.613 81.0758 245.52 81.8598 245.52H83.6518V246.906H82.2238C81.7945 246.906 81.4912 246.976 81.3138 247.116C81.1458 247.256 81.0618 247.443 81.0618 247.676C81.0618 247.909 81.1505 248.096 81.3278 248.236C81.5052 248.376 81.7478 248.446 82.0558 248.446C82.3452 248.446 82.6065 248.376 82.8398 248.236C83.0825 248.087 83.2598 247.863 83.3718 247.564L83.7358 248.544C83.5958 249.067 83.3205 249.463 82.9098 249.734C82.5085 249.995 81.9765 250.126 81.3138 250.126ZM93.3528 242.286C93.9408 242.286 94.4728 242.407 94.9488 242.65C95.4248 242.883 95.7982 243.247 96.0688 243.742C96.3488 244.237 96.4888 244.876 96.4888 245.66V250H93.8288V246.094C93.8288 245.553 93.7168 245.161 93.4928 244.918C93.2782 244.666 92.9748 244.54 92.5828 244.54C92.3028 244.54 92.0462 244.605 91.8128 244.736C91.5795 244.857 91.3975 245.049 91.2668 245.31C91.1362 245.571 91.0708 245.912 91.0708 246.332V250H88.4108V242.412H90.9448V244.568L90.4548 243.938C90.7442 243.387 91.1408 242.977 91.6448 242.706C92.1488 242.426 92.7182 242.286 93.3528 242.286ZM107.203 250.196C106.4 250.196 105.626 250.098 104.879 249.902C104.142 249.697 103.54 249.435 103.073 249.118L103.983 247.074C104.422 247.354 104.926 247.587 105.495 247.774C106.074 247.951 106.648 248.04 107.217 248.04C107.6 248.04 107.908 248.007 108.141 247.942C108.374 247.867 108.542 247.774 108.645 247.662C108.757 247.541 108.813 247.401 108.813 247.242C108.813 247.018 108.71 246.841 108.505 246.71C108.3 246.579 108.034 246.472 107.707 246.388C107.38 246.304 107.016 246.22 106.615 246.136C106.223 246.052 105.826 245.945 105.425 245.814C105.033 245.683 104.674 245.515 104.347 245.31C104.02 245.095 103.754 244.82 103.549 244.484C103.344 244.139 103.241 243.705 103.241 243.182C103.241 242.594 103.4 242.062 103.717 241.586C104.044 241.11 104.529 240.727 105.173 240.438C105.817 240.149 106.62 240.004 107.581 240.004C108.225 240.004 108.855 240.079 109.471 240.228C110.096 240.368 110.652 240.578 111.137 240.858L110.283 242.916C109.816 242.664 109.354 242.477 108.897 242.356C108.44 242.225 107.996 242.16 107.567 242.16C107.184 242.16 106.876 242.202 106.643 242.286C106.41 242.361 106.242 242.463 106.139 242.594C106.036 242.725 105.985 242.874 105.985 243.042C105.985 243.257 106.083 243.429 106.279 243.56C106.484 243.681 106.75 243.784 107.077 243.868C107.413 243.943 107.777 244.022 108.169 244.106C108.57 244.19 108.967 244.297 109.359 244.428C109.76 244.549 110.124 244.717 110.451 244.932C110.778 245.137 111.039 245.413 111.235 245.758C111.44 246.094 111.543 246.519 111.543 247.032C111.543 247.601 111.38 248.129 111.053 248.614C110.736 249.09 110.255 249.473 109.611 249.762C108.976 250.051 108.174 250.196 107.203 250.196ZM117.374 250.126C116.478 250.126 115.694 249.958 115.022 249.622C114.359 249.277 113.841 248.81 113.468 248.222C113.104 247.625 112.922 246.948 112.922 246.192C112.922 245.436 113.099 244.764 113.454 244.176C113.818 243.579 114.317 243.117 114.952 242.79C115.586 242.454 116.3 242.286 117.094 242.286C117.84 242.286 118.522 242.44 119.138 242.748C119.754 243.047 120.244 243.49 120.608 244.078C120.972 244.666 121.154 245.38 121.154 246.22C121.154 246.313 121.149 246.421 121.14 246.542C121.13 246.663 121.121 246.775 121.112 246.878H115.106V245.478H119.698L118.69 245.87C118.699 245.525 118.634 245.226 118.494 244.974C118.363 244.722 118.176 244.526 117.934 244.386C117.7 244.246 117.425 244.176 117.108 244.176C116.79 244.176 116.51 244.246 116.268 244.386C116.034 244.526 115.852 244.727 115.722 244.988C115.591 245.24 115.526 245.539 115.526 245.884V246.29C115.526 246.663 115.6 246.985 115.75 247.256C115.908 247.527 116.132 247.737 116.422 247.886C116.711 248.026 117.056 248.096 117.458 248.096C117.831 248.096 118.148 248.045 118.41 247.942C118.68 247.83 118.946 247.662 119.208 247.438L120.608 248.894C120.244 249.295 119.796 249.603 119.264 249.818C118.732 250.023 118.102 250.126 117.374 250.126ZM123.08 250V242.412H125.614V244.624L125.236 243.994C125.46 243.425 125.824 243 126.328 242.72C126.832 242.431 127.443 242.286 128.162 242.286V244.68C128.041 244.661 127.933 244.652 127.84 244.652C127.756 244.643 127.663 244.638 127.56 244.638C127.019 244.638 126.58 244.787 126.244 245.086C125.908 245.375 125.74 245.851 125.74 246.514V250H123.08ZM133.601 252.842C132.873 252.842 132.178 252.758 131.515 252.59C130.862 252.422 130.302 252.175 129.835 251.848L130.801 249.986C131.119 250.238 131.511 250.434 131.977 250.574C132.453 250.723 132.915 250.798 133.363 250.798C134.082 250.798 134.6 250.639 134.917 250.322C135.235 250.014 135.393 249.561 135.393 248.964V248.068L135.533 245.94L135.519 243.798V242.412H138.053V248.614C138.053 250.051 137.666 251.115 136.891 251.806C136.117 252.497 135.02 252.842 133.601 252.842ZM133.139 249.608C132.467 249.608 131.847 249.459 131.277 249.16C130.717 248.852 130.265 248.427 129.919 247.886C129.583 247.335 129.415 246.687 129.415 245.94C129.415 245.193 129.583 244.549 129.919 244.008C130.265 243.457 130.717 243.033 131.277 242.734C131.847 242.435 132.467 242.286 133.139 242.286C133.783 242.286 134.334 242.417 134.791 242.678C135.249 242.93 135.594 243.327 135.827 243.868C136.07 244.409 136.191 245.1 136.191 245.94C136.191 246.78 136.07 247.471 135.827 248.012C135.594 248.553 135.249 248.955 134.791 249.216C134.334 249.477 133.783 249.608 133.139 249.608ZM133.769 247.494C134.087 247.494 134.367 247.429 134.609 247.298C134.861 247.167 135.057 246.985 135.197 246.752C135.347 246.519 135.421 246.248 135.421 245.94C135.421 245.632 135.347 245.361 135.197 245.128C135.057 244.895 134.861 244.717 134.609 244.596C134.367 244.465 134.087 244.4 133.769 244.4C133.452 244.4 133.167 244.465 132.915 244.596C132.663 244.717 132.463 244.895 132.313 245.128C132.173 245.361 132.103 245.632 132.103 245.94C132.103 246.248 132.173 246.519 132.313 246.752C132.463 246.985 132.663 247.167 132.915 247.298C133.167 247.429 133.452 247.494 133.769 247.494ZM144.438 250.126C143.542 250.126 142.758 249.958 142.086 249.622C141.424 249.277 140.906 248.81 140.532 248.222C140.168 247.625 139.986 246.948 139.986 246.192C139.986 245.436 140.164 244.764 140.518 244.176C140.882 243.579 141.382 243.117 142.016 242.79C142.651 242.454 143.365 242.286 144.158 242.286C144.905 242.286 145.586 242.44 146.202 242.748C146.818 243.047 147.308 243.49 147.672 244.078C148.036 244.666 148.218 245.38 148.218 246.22C148.218 246.313 148.214 246.421 148.204 246.542C148.195 246.663 148.186 246.775 148.176 246.878H142.17V245.478H146.762L145.754 245.87C145.764 245.525 145.698 245.226 145.558 244.974C145.428 244.722 145.241 244.526 144.998 244.386C144.765 244.246 144.49 244.176 144.172 244.176C143.855 244.176 143.575 244.246 143.332 244.386C143.099 244.526 142.917 244.727 142.786 244.988C142.656 245.24 142.59 245.539 142.59 245.884V246.29C142.59 246.663 142.665 246.985 142.814 247.256C142.973 247.527 143.197 247.737 143.486 247.886C143.776 248.026 144.121 248.096 144.522 248.096C144.896 248.096 145.213 248.045 145.474 247.942C145.745 247.83 146.011 247.662 146.272 247.438L147.672 248.894C147.308 249.295 146.86 249.603 146.328 249.818C145.796 250.023 145.166 250.126 144.438 250.126ZM155.087 242.286C155.675 242.286 156.207 242.407 156.683 242.65C157.159 242.883 157.532 243.247 157.803 243.742C158.083 244.237 158.223 244.876 158.223 245.66V250H155.563V246.094C155.563 245.553 155.451 245.161 155.227 244.918C155.012 244.666 154.709 244.54 154.317 244.54C154.037 244.54 153.78 244.605 153.547 244.736C153.313 244.857 153.131 245.049 153.001 245.31C152.87 245.571 152.805 245.912 152.805 246.332V250H150.145V242.412H152.679V244.568L152.189 243.938C152.478 243.387 152.875 242.977 153.379 242.706C153.883 242.426 154.452 242.286 155.087 242.286ZM170.379 250.196C169.604 250.196 168.886 250.075 168.223 249.832C167.57 249.58 167 249.225 166.515 248.768C166.039 248.311 165.666 247.774 165.395 247.158C165.124 246.533 164.989 245.847 164.989 245.1C164.989 244.353 165.124 243.672 165.395 243.056C165.666 242.431 166.039 241.889 166.515 241.432C167 240.975 167.57 240.625 168.223 240.382C168.886 240.13 169.604 240.004 170.379 240.004C171.284 240.004 172.092 240.163 172.801 240.48C173.52 240.797 174.117 241.255 174.593 241.852L172.829 243.448C172.512 243.075 172.162 242.79 171.779 242.594C171.406 242.398 170.986 242.3 170.519 242.3C170.118 242.3 169.749 242.365 169.413 242.496C169.077 242.627 168.788 242.818 168.545 243.07C168.312 243.313 168.125 243.607 167.985 243.952C167.854 244.297 167.789 244.68 167.789 245.1C167.789 245.52 167.854 245.903 167.985 246.248C168.125 246.593 168.312 246.892 168.545 247.144C168.788 247.387 169.077 247.573 169.413 247.704C169.749 247.835 170.118 247.9 170.519 247.9C170.986 247.9 171.406 247.802 171.779 247.606C172.162 247.41 172.512 247.125 172.829 246.752L174.593 248.348C174.117 248.936 173.52 249.393 172.801 249.72C172.092 250.037 171.284 250.196 170.379 250.196ZM181.01 250V248.586L180.828 248.236V245.632C180.828 245.212 180.697 244.89 180.436 244.666C180.184 244.433 179.778 244.316 179.218 244.316C178.854 244.316 178.485 244.377 178.112 244.498C177.738 244.61 177.421 244.769 177.16 244.974L176.264 243.168C176.693 242.888 177.206 242.673 177.804 242.524C178.41 242.365 179.012 242.286 179.61 242.286C180.842 242.286 181.794 242.571 182.466 243.14C183.147 243.7 183.488 244.582 183.488 245.786V250H181.01ZM178.77 250.126C178.163 250.126 177.65 250.023 177.23 249.818C176.81 249.613 176.488 249.333 176.264 248.978C176.049 248.623 175.942 248.227 175.942 247.788C175.942 247.321 176.058 246.92 176.292 246.584C176.534 246.239 176.903 245.977 177.398 245.8C177.892 245.613 178.532 245.52 179.316 245.52H181.108V246.906H179.68C179.25 246.906 178.947 246.976 178.77 247.116C178.602 247.256 178.518 247.443 178.518 247.676C178.518 247.909 178.606 248.096 178.784 248.236C178.961 248.376 179.204 248.446 179.512 248.446C179.801 248.446 180.062 248.376 180.296 248.236C180.538 248.087 180.716 247.863 180.828 247.564L181.192 248.544C181.052 249.067 180.776 249.463 180.366 249.734C179.964 249.995 179.432 250.126 178.77 250.126ZM190.809 242.286C191.397 242.286 191.929 242.407 192.405 242.65C192.881 242.883 193.254 243.247 193.525 243.742C193.805 244.237 193.945 244.876 193.945 245.66V250H191.285V246.094C191.285 245.553 191.173 245.161 190.949 244.918C190.734 244.666 190.431 244.54 190.039 244.54C189.759 244.54 189.502 244.605 189.269 244.736C189.035 244.857 188.853 245.049 188.723 245.31C188.592 245.571 188.527 245.912 188.527 246.332V250H185.867V242.412H188.401V244.568L187.911 243.938C188.2 243.387 188.597 242.977 189.101 242.706C189.605 242.426 190.174 242.286 190.809 242.286Z" fill="white"/>
<path d="M110.984 273.14C110.237 273.14 109.542 273.019 108.898 272.776C108.263 272.524 107.708 272.174 107.232 271.726C106.765 271.269 106.401 270.732 106.14 270.116C105.879 269.5 105.748 268.828 105.748 268.1C105.748 267.372 105.879 266.7 106.14 266.084C106.401 265.468 106.77 264.936 107.246 264.488C107.722 264.031 108.277 263.681 108.912 263.438C109.547 263.186 110.242 263.06 110.998 263.06C111.801 263.06 112.533 263.2 113.196 263.48C113.859 263.751 114.419 264.157 114.876 264.698L113.7 265.804C113.345 265.421 112.949 265.137 112.51 264.95C112.071 264.754 111.595 264.656 111.082 264.656C110.569 264.656 110.097 264.74 109.668 264.908C109.248 265.076 108.879 265.314 108.562 265.622C108.254 265.93 108.011 266.294 107.834 266.714C107.666 267.134 107.582 267.596 107.582 268.1C107.582 268.604 107.666 269.066 107.834 269.486C108.011 269.906 108.254 270.27 108.562 270.578C108.879 270.886 109.248 271.124 109.668 271.292C110.097 271.46 110.569 271.544 111.082 271.544C111.595 271.544 112.071 271.451 112.51 271.264C112.949 271.068 113.345 270.774 113.7 270.382L114.876 271.502C114.419 272.034 113.859 272.44 113.196 272.72C112.533 273 111.796 273.14 110.984 273.14ZM119 267.274H123.872V268.772H119V267.274ZM119.14 271.474H124.67V273H117.32V263.2H124.474V264.726H119.14V271.474ZM131.991 273.14C131.225 273.14 130.521 273.014 129.877 272.762C129.233 272.51 128.673 272.16 128.197 271.712C127.721 271.255 127.352 270.723 127.091 270.116C126.829 269.5 126.699 268.828 126.699 268.1C126.699 267.372 126.829 266.705 127.091 266.098C127.352 265.482 127.721 264.95 128.197 264.502C128.673 264.045 129.233 263.69 129.877 263.438C130.521 263.186 131.221 263.06 131.977 263.06C132.742 263.06 133.442 263.186 134.077 263.438C134.721 263.69 135.281 264.045 135.757 264.502C136.233 264.95 136.601 265.482 136.863 266.098C137.124 266.705 137.255 267.372 137.255 268.1C137.255 268.828 137.124 269.5 136.863 270.116C136.601 270.732 136.233 271.264 135.757 271.712C135.281 272.16 134.721 272.51 134.077 272.762C133.442 273.014 132.747 273.14 131.991 273.14ZM131.977 271.544C132.471 271.544 132.929 271.46 133.349 271.292C133.769 271.124 134.133 270.886 134.441 270.578C134.749 270.261 134.987 269.897 135.155 269.486C135.332 269.066 135.421 268.604 135.421 268.1C135.421 267.596 135.332 267.139 135.155 266.728C134.987 266.308 134.749 265.944 134.441 265.636C134.133 265.319 133.769 265.076 133.349 264.908C132.929 264.74 132.471 264.656 131.977 264.656C131.482 264.656 131.025 264.74 130.605 264.908C130.194 265.076 129.83 265.319 129.513 265.636C129.205 265.944 128.962 266.308 128.785 266.728C128.617 267.139 128.533 267.596 128.533 268.1C128.533 268.595 128.617 269.052 128.785 269.472C128.962 269.892 129.205 270.261 129.513 270.578C129.821 270.886 130.185 271.124 130.605 271.292C131.025 271.46 131.482 271.544 131.977 271.544Z" fill="black"/>
<defs>
<linearGradient id="paint0_linear_80_846" x1="189.931" y1="37.9806" x2="242.106" y2="37.9806" gradientUnits="userSpaceOnUse">
<stop stop-color="#D632C0"/>
<stop offset="1" stop-color="#8D34BF"/>
</linearGradient>
<linearGradient id="paint1_linear_80_846" x1="23.0211" y1="250.422" x2="242.106" y2="250.422" gradientUnits="userSpaceOnUse">
<stop stop-color="#D632C0"/>
<stop offset="1" stop-color="#8D34BF"/>
</linearGradient>
<linearGradient id="paint2_linear_80_846" x1="0" y1="166.405" x2="213.935" y2="166.405" gradientUnits="userSpaceOnUse">
<stop stop-color="#D632C0"/>
<stop offset="1" stop-color="#8D34BF"/>
</linearGradient>
<linearGradient id="paint3_linear_80_846" x1="0" y1="210.2" x2="149.07" y2="210.2" gradientUnits="userSpaceOnUse">
<stop stop-color="#D632C0"/>
<stop offset="1" stop-color="#8D34BF"/>
</linearGradient>
</defs>
</svg>
