<svg width="243" height="302" viewBox="0 0 243 302" fill="none" xmlns="http://www.w3.org/2000/svg">
<path d="M242.16 27.8874V273.429C242.16 278.956 240.553 284.106 237.78 288.437C232.827 296.182 224.149 301.317 214.273 301.317H27.9416C26.2812 301.317 24.6566 301.171 23.0754 300.892C15.2542 299.518 8.55607 294.882 4.43437 288.44C1.66098 284.106 0.0542603 278.956 0.0542603 273.429V27.8874C0.0542603 12.4854 12.5396 0 27.9416 0H214.273C229.675 0 242.16 12.4854 242.16 27.8874Z" fill="#434041"/>
<path d="M212.645 200.794C209.462 188.066 199.807 177.968 187.232 174.222C184.74 173.48 182.084 172.707 179.321 171.929C176.814 165.454 171.449 160.409 164.686 158.372C158.413 156.484 152.273 155.018 146.201 153.92C145.871 150.917 145.657 147.785 145.526 144.561L145.987 144.157C153.416 137.618 158.293 128.753 159.93 119.107C160.81 119.685 162.049 119.691 162.873 118.767C163.804 117.726 164.574 116.326 165.137 114.479C167.432 107.077 168.348 97.9358 168.453 87.7659C168.468 86.3152 166.9 85.3609 165.641 86.085C164.738 86.6043 163.786 87.3028 162.803 88.0959C163.932 78.9289 163.637 69.4805 161.885 61.7232C161.816 60.1241 161.675 58.5609 161.491 57.1077C160.741 51.1899 158.771 45.7276 156.013 40.4673C155.683 39.8354 154.762 40.3906 155.067 41.02C156.86 44.7477 158.088 48.7236 158.805 52.7941C158.723 52.6355 158.636 52.4871 158.554 52.331C158.469 51.9754 158.387 51.6121 158.3 51.2718C157.515 48.2196 156.377 45.3975 154.969 42.7086C155.169 42.6088 155.289 42.3248 155.092 42.138C154.844 41.9027 154.565 41.6877 154.294 41.4677C153.13 39.3979 151.815 37.3972 150.367 35.4246C150.009 34.9359 149.182 35.4067 149.543 35.9056C150.477 37.2002 151.311 38.569 152.068 39.9838C151.216 39.5182 150.316 39.1011 149.359 38.7583C148.453 37.8603 147.542 36.9341 146.659 35.9158C146.381 35.596 145.813 36.0335 146.068 36.3712C146.542 36.9955 147.023 37.5993 147.506 38.1929C145.567 37.6888 143.518 37.4381 141.481 37.4381C141.829 37.1158 142.162 36.7985 142.484 36.4915C142.63 36.3533 142.758 36.2126 142.896 36.0719L143.988 35.573C143.848 35.4988 143.699 35.4323 143.559 35.3606C145.326 33.3292 146.26 31.1136 146.081 28.2251C146.048 27.6827 145.257 27.6775 145.234 28.2251C145.132 30.7861 143.2 32.6742 141.146 34.2375C140.657 34.0302 140.161 33.8307 139.659 33.6414C142.062 32.4286 143.994 30.6019 144.881 27.3321C144.989 26.933 144.398 26.6695 144.206 27.0482C142.776 29.842 140.366 31.7199 137.423 32.618C137.812 32.1446 138.168 31.6713 138.444 31.2159C138.449 31.2057 138.454 31.1955 138.46 31.1852C140.673 30.0544 142.453 28.4911 142.709 25.8815C142.76 25.3493 142.018 25.3519 141.855 25.7664C141.361 27.0149 140.524 27.8771 139.521 28.5397C139.828 27.0788 139.7 25.5693 139.03 24.1264C138.882 23.804 138.388 24.0394 138.475 24.3618C138.966 26.1732 138.623 27.9283 137.766 29.4608C136.774 29.883 135.727 30.2258 134.711 30.5814C135.719 29.5606 136.643 28.4195 137.439 27.0865C138.477 25.3417 136.423 23.387 134.706 24.3541C133.496 25.0372 132.196 25.5361 130.848 25.925C132.475 24.4974 133.527 22.3687 130.912 21.1355C130.597 20.9871 130.329 21.4246 130.636 21.6088C130.608 23.8859 129.694 25.1984 127.898 25.5463C127.525 25.664 127.149 25.7817 126.775 25.8994C125.649 26.2371 124.503 26.493 123.367 26.7923C123.111 26.8588 122.858 26.9305 122.605 26.9995C123.178 26.6746 123.753 26.3522 124.329 26.0196C125.475 25.3596 124.692 23.3512 123.411 23.8398C119.514 25.3212 115.927 26.7386 112.621 28.5142C114.852 27.13 117.058 25.6947 119.227 24.1545C119.46 23.9882 119.25 23.607 119 23.7631C111.997 28.0895 104.514 31.3004 97.2885 35.1841C96.4494 35.637 95.6716 36.1333 94.9348 36.6578C96.0656 35.353 97.46 34.1786 99.2023 33.1757C104.212 30.2872 109.756 28.7086 114.418 25.1754C114.65 24.9988 114.433 24.5997 114.182 24.7737C108.502 28.7316 101.193 29.3457 95.6102 33.4929C93.5404 35.0306 92.0027 36.9648 90.8591 39.1267C91.1328 38.2261 91.4271 37.3307 91.7648 36.4506C92.1511 35.4476 90.5956 34.524 89.9202 35.376C86.5404 39.641 84.5294 44.9882 83.744 50.6015C83.2451 51.7093 82.8536 52.8453 82.5492 54.0017C79.085 63.3222 78.1947 75.1756 79.3639 88.0678C78.3968 87.2875 77.4552 86.5992 76.5649 86.0875C75.3061 85.3609 73.7378 86.3152 73.7531 87.7684C73.8555 97.9409 74.7739 107.082 77.0689 114.481C77.6318 116.326 78.3993 117.726 79.3332 118.77C80.1596 119.693 81.3979 119.688 82.278 119.11C83.9205 128.758 88.8021 137.623 96.237 144.162L96.4852 144.382C96.3445 147.688 96.1244 150.894 95.797 153.974C89.7973 155.069 83.7286 156.525 77.5294 158.385C70.752 160.419 65.3767 165.48 62.8694 171.97C60.1216 172.748 57.4812 173.516 55.0046 174.258C42.4681 178.003 32.838 188.061 29.6374 200.746L22.7346 228.098H219.481L212.645 200.794ZM153.552 43.0642C153.004 42.4425 152.436 41.8361 151.848 41.2426C152.219 41.3858 152.585 41.5598 152.948 41.7364C153.155 42.1739 153.36 42.6165 153.552 43.0642ZM152.669 44.7477C150.446 42.55 148.31 41.0302 146.237 40.0145C147.317 40.1194 148.379 40.2806 149.42 40.5185C150.564 41.8976 151.677 43.2766 152.669 44.7477Z" fill="white"/>
<path d="M242.106 27.8874V75.9611C233.43 70.2353 226.266 62.4959 223.685 53.9531C220.126 42.1765 226.666 33.4521 219.737 23.6915C212.246 13.1403 200.4 17.4207 193.421 7.90057C191.778 5.65935 190.627 2.95504 189.931 0H214.219C229.621 0 242.106 12.4854 242.106 27.8874Z" fill="url(#paint0_linear_80_844)"/>
<path d="M242.106 199.528V273.429C242.106 278.956 240.499 284.106 237.726 288.437C232.773 296.182 224.094 301.317 214.219 301.317H27.8874C26.227 301.317 24.6023 301.171 23.0212 300.892C27.6674 270.114 84.6293 226.095 139.473 216.455C174.286 210.335 195.347 220.331 232.895 203.954C236.178 202.521 239.241 201.04 242.106 199.528Z" fill="url(#paint1_linear_80_844)"/>
<path d="M213.935 301.317H27.8874C18.0117 301.317 9.33588 296.184 4.38011 288.44C1.60672 284.106 0 278.956 0 273.429V31.4922C21.6831 53.7688 39.3801 83.2553 46.0526 113.164C54.9893 153.209 37.5456 164.367 51.3154 190.796C75.9074 238 139.596 217.869 189.473 268.428C198.515 277.589 207.039 289.013 213.935 301.317Z" fill="url(#paint2_linear_80_844)"/>
<path d="M149.07 301.317H27.8874C18.0117 301.317 9.33588 296.184 4.38011 288.44C1.60672 284.106 0 278.956 0 273.429V119.084C5.1016 129.648 9.05444 140.609 11.5131 151.628C20.4499 191.671 3.00623 202.828 16.7759 229.26C40.4137 274.632 100.175 257.795 149.07 301.317Z" fill="url(#paint3_linear_80_844)"/>
<path d="M81.6398 251.958C80.8371 251.958 80.0624 251.86 79.3158 251.664C78.5784 251.459 77.9764 251.197 77.5098 250.88L78.4198 248.836C78.8584 249.116 79.3624 249.349 79.9318 249.536C80.5104 249.713 81.0844 249.802 81.6538 249.802C82.0364 249.802 82.3444 249.769 82.5778 249.704C82.8111 249.629 82.9791 249.536 83.0818 249.424C83.1938 249.303 83.2498 249.163 83.2498 249.004C83.2498 248.78 83.1471 248.603 82.9418 248.472C82.7364 248.341 82.4704 248.234 82.1438 248.15C81.8171 248.066 81.4531 247.982 81.0518 247.898C80.6598 247.814 80.2631 247.707 79.8618 247.576C79.4698 247.445 79.1104 247.277 78.7838 247.072C78.4571 246.857 78.1911 246.582 77.9858 246.246C77.7804 245.901 77.6778 245.467 77.6778 244.944C77.6778 244.356 77.8364 243.824 78.1538 243.348C78.4804 242.872 78.9658 242.489 79.6098 242.2C80.2538 241.911 81.0564 241.766 82.0178 241.766C82.6618 241.766 83.2918 241.841 83.9078 241.99C84.5331 242.13 85.0884 242.34 85.5738 242.62L84.7198 244.678C84.2531 244.426 83.7911 244.239 83.3338 244.118C82.8764 243.987 82.4331 243.922 82.0038 243.922C81.6211 243.922 81.3131 243.964 81.0798 244.048C80.8464 244.123 80.6784 244.225 80.5758 244.356C80.4731 244.487 80.4218 244.636 80.4218 244.804C80.4218 245.019 80.5198 245.191 80.7158 245.322C80.9211 245.443 81.1871 245.546 81.5138 245.63C81.8498 245.705 82.2138 245.784 82.6058 245.868C83.0071 245.952 83.4038 246.059 83.7958 246.19C84.1971 246.311 84.5611 246.479 84.8878 246.694C85.2144 246.899 85.4758 247.175 85.6718 247.52C85.8771 247.856 85.9798 248.281 85.9798 248.794C85.9798 249.363 85.8164 249.891 85.4898 250.376C85.1724 250.852 84.6918 251.235 84.0478 251.524C83.4131 251.813 82.6104 251.958 81.6398 251.958ZM91.8102 251.888C90.9142 251.888 90.1302 251.72 89.4582 251.384C88.7956 251.039 88.2776 250.572 87.9042 249.984C87.5402 249.387 87.3582 248.71 87.3582 247.954C87.3582 247.198 87.5356 246.526 87.8902 245.938C88.2542 245.341 88.7536 244.879 89.3882 244.552C90.0229 244.216 90.7369 244.048 91.5302 244.048C92.2769 244.048 92.9582 244.202 93.5742 244.51C94.1902 244.809 94.6802 245.252 95.0442 245.84C95.4082 246.428 95.5902 247.142 95.5902 247.982C95.5902 248.075 95.5856 248.183 95.5762 248.304C95.5669 248.425 95.5576 248.537 95.5482 248.64H89.5422V247.24H94.1342L93.1262 247.632C93.1356 247.287 93.0702 246.988 92.9302 246.736C92.7996 246.484 92.6129 246.288 92.3702 246.148C92.1369 246.008 91.8616 245.938 91.5442 245.938C91.2269 245.938 90.9469 246.008 90.7042 246.148C90.4709 246.288 90.2889 246.489 90.1582 246.75C90.0276 247.002 89.9622 247.301 89.9622 247.646V248.052C89.9622 248.425 90.0369 248.747 90.1862 249.018C90.3449 249.289 90.5689 249.499 90.8582 249.648C91.1476 249.788 91.4929 249.858 91.8942 249.858C92.2676 249.858 92.5849 249.807 92.8462 249.704C93.1169 249.592 93.3829 249.424 93.6442 249.2L95.0442 250.656C94.6802 251.057 94.2322 251.365 93.7002 251.58C93.1682 251.785 92.5382 251.888 91.8102 251.888ZM97.5167 251.762V244.174H100.051V246.386L99.6727 245.756C99.8967 245.187 100.261 244.762 100.765 244.482C101.269 244.193 101.88 244.048 102.599 244.048V246.442C102.477 246.423 102.37 246.414 102.277 246.414C102.193 246.405 102.099 246.4 101.997 246.4C101.455 246.4 101.017 246.549 100.681 246.848C100.345 247.137 100.177 247.613 100.177 248.276V251.762H97.5167ZM108.017 251.888C107.046 251.888 106.29 251.65 105.749 251.174C105.207 250.689 104.937 249.961 104.937 248.99V242.48H107.597V248.962C107.597 249.233 107.671 249.447 107.821 249.606C107.97 249.755 108.161 249.83 108.395 249.83C108.712 249.83 108.983 249.751 109.207 249.592L109.865 251.454C109.641 251.603 109.365 251.711 109.039 251.776C108.712 251.851 108.371 251.888 108.017 251.888ZM103.831 246.442V244.454H109.333V246.442H103.831ZM116.224 251.762V250.348L116.042 249.998V247.394C116.042 246.974 115.912 246.652 115.65 246.428C115.398 246.195 114.992 246.078 114.432 246.078C114.068 246.078 113.7 246.139 113.326 246.26C112.953 246.372 112.636 246.531 112.374 246.736L111.478 244.93C111.908 244.65 112.421 244.435 113.018 244.286C113.625 244.127 114.227 244.048 114.824 244.048C116.056 244.048 117.008 244.333 117.68 244.902C118.362 245.462 118.702 246.344 118.702 247.548V251.762H116.224ZM113.984 251.888C113.378 251.888 112.864 251.785 112.444 251.58C112.024 251.375 111.702 251.095 111.478 250.74C111.264 250.385 111.156 249.989 111.156 249.55C111.156 249.083 111.273 248.682 111.506 248.346C111.749 248.001 112.118 247.739 112.612 247.562C113.107 247.375 113.746 247.282 114.53 247.282H116.322V248.668H114.894C114.465 248.668 114.162 248.738 113.984 248.878C113.816 249.018 113.732 249.205 113.732 249.438C113.732 249.671 113.821 249.858 113.998 249.998C114.176 250.138 114.418 250.208 114.726 250.208C115.016 250.208 115.277 250.138 115.51 249.998C115.753 249.849 115.93 249.625 116.042 249.326L116.406 250.306C116.266 250.829 115.991 251.225 115.58 251.496C115.179 251.757 114.647 251.888 113.984 251.888ZM126.024 244.048C126.612 244.048 127.144 244.169 127.62 244.412C128.096 244.645 128.469 245.009 128.74 245.504C129.02 245.999 129.16 246.638 129.16 247.422V251.762H126.5V247.856C126.5 247.315 126.388 246.923 126.164 246.68C125.949 246.428 125.646 246.302 125.254 246.302C124.974 246.302 124.717 246.367 124.484 246.498C124.25 246.619 124.068 246.811 123.938 247.072C123.807 247.333 123.742 247.674 123.742 248.094V251.762H121.082V244.174H123.616V246.33L123.126 245.7C123.415 245.149 123.812 244.739 124.316 244.468C124.82 244.188 125.389 244.048 126.024 244.048ZM138.516 251.762V244.16H135.506V241.962H144.284V244.16H141.288V251.762H138.516ZM148.933 251.888C148.102 251.888 147.365 251.72 146.721 251.384C146.077 251.048 145.568 250.586 145.195 249.998C144.831 249.401 144.649 248.719 144.649 247.954C144.649 247.189 144.831 246.512 145.195 245.924C145.568 245.336 146.077 244.879 146.721 244.552C147.365 244.216 148.102 244.048 148.933 244.048C149.764 244.048 150.501 244.216 151.145 244.552C151.798 244.879 152.307 245.336 152.671 245.924C153.035 246.512 153.217 247.189 153.217 247.954C153.217 248.719 153.035 249.401 152.671 249.998C152.307 250.586 151.798 251.048 151.145 251.384C150.501 251.72 149.764 251.888 148.933 251.888ZM148.933 249.774C149.241 249.774 149.512 249.704 149.745 249.564C149.988 249.424 150.179 249.219 150.319 248.948C150.459 248.668 150.529 248.337 150.529 247.954C150.529 247.571 150.459 247.249 150.319 246.988C150.179 246.717 149.988 246.512 149.745 246.372C149.512 246.232 149.241 246.162 148.933 246.162C148.634 246.162 148.364 246.232 148.121 246.372C147.888 246.512 147.696 246.717 147.547 246.988C147.407 247.249 147.337 247.571 147.337 247.954C147.337 248.337 147.407 248.668 147.547 248.948C147.696 249.219 147.888 249.424 148.121 249.564C148.364 249.704 148.634 249.774 148.933 249.774ZM157.361 250.362L157.431 247.184L160.525 244.174H163.675L160.245 247.716L158.887 248.808L157.361 250.362ZM155.149 251.762V241.374H157.809V251.762H155.149ZM160.721 251.762L158.397 248.85L160.049 246.806L163.941 251.762H160.721Z" fill="white"/>
<path d="M67.4963 274.902C66.731 274.902 65.9983 274.795 65.2983 274.58C64.5983 274.356 64.043 274.071 63.6323 273.726L64.2623 272.312C64.6543 272.62 65.1397 272.877 65.7183 273.082C66.297 273.287 66.8897 273.39 67.4963 273.39C68.0097 273.39 68.425 273.334 68.7423 273.222C69.0597 273.11 69.293 272.961 69.4423 272.774C69.5917 272.578 69.6663 272.359 69.6663 272.116C69.6663 271.817 69.559 271.579 69.3443 271.402C69.1297 271.215 68.8497 271.071 68.5043 270.968C68.1683 270.856 67.7903 270.753 67.3703 270.66C66.9597 270.567 66.5443 270.459 66.1243 270.338C65.7137 270.207 65.3357 270.044 64.9903 269.848C64.6543 269.643 64.379 269.372 64.1643 269.036C63.9497 268.7 63.8423 268.271 63.8423 267.748C63.8423 267.216 63.9823 266.731 64.2623 266.292C64.5517 265.844 64.9857 265.489 65.5643 265.228C66.1523 264.957 66.8943 264.822 67.7903 264.822C68.3783 264.822 68.9617 264.897 69.5403 265.046C70.119 265.195 70.623 265.41 71.0523 265.69L70.4783 267.104C70.0397 266.843 69.587 266.651 69.1203 266.53C68.6537 266.399 68.2057 266.334 67.7763 266.334C67.2723 266.334 66.8617 266.395 66.5443 266.516C66.2363 266.637 66.0077 266.796 65.8583 266.992C65.7183 267.188 65.6483 267.412 65.6483 267.664C65.6483 267.963 65.751 268.205 65.9563 268.392C66.171 268.569 66.4463 268.709 66.7823 268.812C67.1277 268.915 67.5103 269.017 67.9303 269.12C68.3503 269.213 68.7657 269.321 69.1763 269.442C69.5963 269.563 69.9743 269.722 70.3103 269.918C70.6557 270.114 70.931 270.38 71.1363 270.716C71.351 271.052 71.4583 271.477 71.4583 271.99C71.4583 272.513 71.3137 272.998 71.0243 273.446C70.7443 273.885 70.3103 274.239 69.7223 274.51C69.1343 274.771 68.3923 274.902 67.4963 274.902ZM78.401 274.762V273.25L78.303 272.928V270.282C78.303 269.769 78.149 269.372 77.841 269.092C77.533 268.803 77.0664 268.658 76.441 268.658C76.021 268.658 75.6057 268.723 75.195 268.854C74.7937 268.985 74.453 269.167 74.173 269.4L73.487 268.126C73.8884 267.818 74.3644 267.589 74.915 267.44C75.475 267.281 76.0537 267.202 76.651 267.202C77.7337 267.202 78.569 267.463 79.157 267.986C79.7544 268.499 80.053 269.297 80.053 270.38V274.762H78.401ZM76.049 274.86C75.489 274.86 74.999 274.767 74.579 274.58C74.159 274.384 73.8324 274.118 73.599 273.782C73.375 273.437 73.263 273.049 73.263 272.62C73.263 272.2 73.361 271.822 73.557 271.486C73.7624 271.15 74.0937 270.884 74.551 270.688C75.0084 270.492 75.615 270.394 76.371 270.394H78.541V271.556H76.497C75.8997 271.556 75.4984 271.654 75.293 271.85C75.0877 272.037 74.985 272.27 74.985 272.55C74.985 272.867 75.111 273.119 75.363 273.306C75.615 273.493 75.965 273.586 76.413 273.586C76.8424 273.586 77.225 273.488 77.561 273.292C77.9064 273.096 78.1537 272.807 78.303 272.424L78.597 273.474C78.429 273.913 78.1257 274.253 77.687 274.496C77.2577 274.739 76.7117 274.86 76.049 274.86ZM82.9989 274.762V264.374H84.7489V274.762H82.9989ZM91.2598 274.86C90.4291 274.86 89.7011 274.697 89.0758 274.37C88.4598 274.034 87.9791 273.577 87.6338 272.998C87.2978 272.419 87.1298 271.761 87.1298 271.024C87.1298 270.277 87.2931 269.619 87.6198 269.05C87.9558 268.471 88.4131 268.019 88.9918 267.692C89.5798 267.365 90.2471 267.202 90.9938 267.202C91.7218 267.202 92.3705 267.361 92.9398 267.678C93.5091 267.995 93.9571 268.443 94.2838 269.022C94.6105 269.601 94.7738 270.282 94.7738 271.066C94.7738 271.141 94.7691 271.225 94.7598 271.318C94.7598 271.411 94.7551 271.5 94.7458 271.584H88.5158V270.422H93.8218L93.1358 270.786C93.1451 270.357 93.0565 269.979 92.8698 269.652C92.6831 269.325 92.4265 269.069 92.0998 268.882C91.7825 268.695 91.4138 268.602 90.9938 268.602C90.5645 268.602 90.1865 268.695 89.8598 268.882C89.5425 269.069 89.2905 269.33 89.1038 269.666C88.9265 269.993 88.8378 270.38 88.8378 270.828V271.108C88.8378 271.556 88.9405 271.953 89.1458 272.298C89.3511 272.643 89.6405 272.909 90.0138 273.096C90.3871 273.283 90.8165 273.376 91.3018 273.376C91.7218 273.376 92.0998 273.311 92.4358 273.18C92.7718 273.049 93.0705 272.844 93.3318 272.564L94.2698 273.642C93.9338 274.034 93.5091 274.337 92.9958 274.552C92.4918 274.757 91.9131 274.86 91.2598 274.86ZM99.4648 274.86C98.8395 274.86 98.2375 274.781 97.6588 274.622C97.0895 274.454 96.6368 274.253 96.3008 274.02L96.9728 272.69C97.3088 272.905 97.7101 273.082 98.1768 273.222C98.6435 273.362 99.1101 273.432 99.5768 273.432C100.127 273.432 100.524 273.357 100.767 273.208C101.019 273.059 101.145 272.858 101.145 272.606C101.145 272.401 101.061 272.247 100.893 272.144C100.725 272.032 100.505 271.948 100.235 271.892C99.9641 271.836 99.6608 271.785 99.3248 271.738C98.9981 271.691 98.6668 271.631 98.3308 271.556C98.0041 271.472 97.7055 271.355 97.4348 271.206C97.1641 271.047 96.9448 270.837 96.7768 270.576C96.6088 270.315 96.5248 269.969 96.5248 269.54C96.5248 269.064 96.6601 268.653 96.9308 268.308C97.2015 267.953 97.5795 267.683 98.0648 267.496C98.5595 267.3 99.1428 267.202 99.8148 267.202C100.319 267.202 100.827 267.258 101.341 267.37C101.854 267.482 102.279 267.641 102.615 267.846L101.943 269.176C101.588 268.961 101.229 268.817 100.865 268.742C100.51 268.658 100.155 268.616 99.8008 268.616C99.2688 268.616 98.8721 268.695 98.6108 268.854C98.3588 269.013 98.2328 269.213 98.2328 269.456C98.2328 269.68 98.3168 269.848 98.4848 269.96C98.6528 270.072 98.8721 270.161 99.1428 270.226C99.4135 270.291 99.7121 270.347 100.039 270.394C100.375 270.431 100.706 270.492 101.033 270.576C101.359 270.66 101.658 270.777 101.929 270.926C102.209 271.066 102.433 271.267 102.601 271.528C102.769 271.789 102.853 272.13 102.853 272.55C102.853 273.017 102.713 273.423 102.433 273.768C102.162 274.113 101.775 274.384 101.271 274.58C100.767 274.767 100.165 274.86 99.4648 274.86ZM109.797 274.762V264.962H111.295L115.579 272.116H114.795L119.009 264.962H120.507L120.521 274.762H118.799L118.785 267.664H119.149L115.565 273.642H114.753L111.113 267.664H111.533V274.762H109.797ZM128.306 274.762V273.25L128.208 272.928V270.282C128.208 269.769 128.054 269.372 127.746 269.092C127.438 268.803 126.971 268.658 126.346 268.658C125.926 268.658 125.511 268.723 125.1 268.854C124.699 268.985 124.358 269.167 124.078 269.4L123.392 268.126C123.793 267.818 124.269 267.589 124.82 267.44C125.38 267.281 125.959 267.202 126.556 267.202C127.639 267.202 128.474 267.463 129.062 267.986C129.659 268.499 129.958 269.297 129.958 270.38V274.762H128.306ZM125.954 274.86C125.394 274.86 124.904 274.767 124.484 274.58C124.064 274.384 123.737 274.118 123.504 273.782C123.28 273.437 123.168 273.049 123.168 272.62C123.168 272.2 123.266 271.822 123.462 271.486C123.667 271.15 123.999 270.884 124.456 270.688C124.913 270.492 125.52 270.394 126.276 270.394H128.446V271.556H126.402C125.805 271.556 125.403 271.654 125.198 271.85C124.993 272.037 124.89 272.27 124.89 272.55C124.89 272.867 125.016 273.119 125.268 273.306C125.52 273.493 125.87 273.586 126.318 273.586C126.747 273.586 127.13 273.488 127.466 273.292C127.811 273.096 128.059 272.807 128.208 272.424L128.502 273.474C128.334 273.913 128.031 274.253 127.592 274.496C127.163 274.739 126.617 274.86 125.954 274.86ZM137.146 267.202C137.743 267.202 138.275 267.319 138.742 267.552C139.218 267.785 139.591 268.145 139.862 268.63C140.133 269.106 140.268 269.722 140.268 270.478V274.762H138.518V270.702C138.518 270.039 138.359 269.545 138.042 269.218C137.734 268.891 137.3 268.728 136.74 268.728C136.329 268.728 135.965 268.812 135.648 268.98C135.331 269.148 135.083 269.4 134.906 269.736C134.738 270.063 134.654 270.478 134.654 270.982V274.762H132.904V267.286H134.57V269.302L134.276 268.686C134.537 268.21 134.915 267.846 135.41 267.594C135.914 267.333 136.493 267.202 137.146 267.202ZM147.794 274.762V273.25L147.696 272.928V270.282C147.696 269.769 147.542 269.372 147.234 269.092C146.926 268.803 146.459 268.658 145.834 268.658C145.414 268.658 144.999 268.723 144.588 268.854C144.187 268.985 143.846 269.167 143.566 269.4L142.88 268.126C143.281 267.818 143.757 267.589 144.308 267.44C144.868 267.281 145.447 267.202 146.044 267.202C147.127 267.202 147.962 267.463 148.55 267.986C149.147 268.499 149.446 269.297 149.446 270.38V274.762H147.794ZM145.442 274.86C144.882 274.86 144.392 274.767 143.972 274.58C143.552 274.384 143.225 274.118 142.992 273.782C142.768 273.437 142.656 273.049 142.656 272.62C142.656 272.2 142.754 271.822 142.95 271.486C143.155 271.15 143.487 270.884 143.944 270.688C144.401 270.492 145.008 270.394 145.764 270.394H147.934V271.556H145.89C145.293 271.556 144.891 271.654 144.686 271.85C144.481 272.037 144.378 272.27 144.378 272.55C144.378 272.867 144.504 273.119 144.756 273.306C145.008 273.493 145.358 273.586 145.806 273.586C146.235 273.586 146.618 273.488 146.954 273.292C147.299 273.096 147.547 272.807 147.696 272.424L147.99 273.474C147.822 273.913 147.519 274.253 147.08 274.496C146.651 274.739 146.105 274.86 145.442 274.86ZM155.794 277.576C155.103 277.576 154.426 277.483 153.764 277.296C153.11 277.119 152.574 276.857 152.154 276.512L152.938 275.196C153.264 275.467 153.675 275.681 154.17 275.84C154.674 276.008 155.182 276.092 155.696 276.092C156.517 276.092 157.119 275.901 157.502 275.518C157.884 275.145 158.076 274.58 158.076 273.824V272.494L158.216 270.8L158.16 269.106V267.286H159.826V273.628C159.826 274.981 159.48 275.975 158.79 276.61C158.099 277.254 157.1 277.576 155.794 277.576ZM155.57 274.426C154.86 274.426 154.216 274.277 153.638 273.978C153.068 273.67 152.616 273.245 152.28 272.704C151.953 272.163 151.79 271.528 151.79 270.8C151.79 270.081 151.953 269.451 152.28 268.91C152.616 268.369 153.068 267.949 153.638 267.65C154.216 267.351 154.86 267.202 155.57 267.202C156.204 267.202 156.774 267.328 157.278 267.58C157.782 267.832 158.183 268.224 158.482 268.756C158.79 269.288 158.944 269.969 158.944 270.8C158.944 271.631 158.79 272.317 158.482 272.858C158.183 273.39 157.782 273.787 157.278 274.048C156.774 274.3 156.204 274.426 155.57 274.426ZM155.836 272.942C156.274 272.942 156.666 272.853 157.012 272.676C157.357 272.489 157.623 272.237 157.81 271.92C158.006 271.593 158.104 271.22 158.104 270.8C158.104 270.38 158.006 270.011 157.81 269.694C157.623 269.367 157.357 269.12 157.012 268.952C156.666 268.775 156.274 268.686 155.836 268.686C155.397 268.686 155 268.775 154.646 268.952C154.3 269.12 154.03 269.367 153.834 269.694C153.647 270.011 153.554 270.38 153.554 270.8C153.554 271.22 153.647 271.593 153.834 271.92C154.03 272.237 154.3 272.489 154.646 272.676C155 272.853 155.397 272.942 155.836 272.942ZM166.34 274.86C165.51 274.86 164.782 274.697 164.156 274.37C163.54 274.034 163.06 273.577 162.714 272.998C162.378 272.419 162.21 271.761 162.21 271.024C162.21 270.277 162.374 269.619 162.7 269.05C163.036 268.471 163.494 268.019 164.072 267.692C164.66 267.365 165.328 267.202 166.074 267.202C166.802 267.202 167.451 267.361 168.02 267.678C168.59 267.995 169.038 268.443 169.364 269.022C169.691 269.601 169.854 270.282 169.854 271.066C169.854 271.141 169.85 271.225 169.84 271.318C169.84 271.411 169.836 271.5 169.826 271.584H163.596V270.422H168.902L168.216 270.786C168.226 270.357 168.137 269.979 167.95 269.652C167.764 269.325 167.507 269.069 167.18 268.882C166.863 268.695 166.494 268.602 166.074 268.602C165.645 268.602 165.267 268.695 164.94 268.882C164.623 269.069 164.371 269.33 164.184 269.666C164.007 269.993 163.918 270.38 163.918 270.828V271.108C163.918 271.556 164.021 271.953 164.226 272.298C164.432 272.643 164.721 272.909 165.094 273.096C165.468 273.283 165.897 273.376 166.382 273.376C166.802 273.376 167.18 273.311 167.516 273.18C167.852 273.049 168.151 272.844 168.412 272.564L169.35 273.642C169.014 274.034 168.59 274.337 168.076 274.552C167.572 274.757 166.994 274.86 166.34 274.86ZM172.235 274.762V267.286H173.901V269.344L173.705 268.742C173.929 268.238 174.279 267.855 174.755 267.594C175.241 267.333 175.843 267.202 176.561 267.202V268.868C176.487 268.849 176.417 268.84 176.351 268.84C176.286 268.831 176.221 268.826 176.155 268.826C175.493 268.826 174.965 269.022 174.573 269.414C174.181 269.797 173.985 270.371 173.985 271.136V274.762H172.235Z" fill="black"/>
<defs>
<linearGradient id="paint0_linear_80_844" x1="189.932" y1="37.9814" x2="242.107" y2="37.9814" gradientUnits="userSpaceOnUse">
<stop stop-color="#3AAA35"/>
<stop offset="1" stop-color="#006633"/>
</linearGradient>
<linearGradient id="paint1_linear_80_844" x1="23.0223" y1="250.423" x2="242.107" y2="250.423" gradientUnits="userSpaceOnUse">
<stop offset="0.0154" stop-color="#3AAA35"/>
<stop offset="1" stop-color="#006633"/>
</linearGradient>
<linearGradient id="paint2_linear_80_844" x1="0.00112573" y1="166.405" x2="213.936" y2="166.405" gradientUnits="userSpaceOnUse">
<stop stop-color="#3AAA35"/>
<stop offset="1" stop-color="#006633"/>
</linearGradient>
<linearGradient id="paint3_linear_80_844" x1="0.00112573" y1="210.201" x2="149.071" y2="210.201" gradientUnits="userSpaceOnUse">
<stop stop-color="#3AAA35"/>
<stop offset="1" stop-color="#006633"/>
</linearGradient>
</defs>
</svg>
