<svg width="243" height="302" viewBox="0 0 243 302" fill="none" xmlns="http://www.w3.org/2000/svg">
<path d="M242.16 27.8874V273.429C242.16 278.956 240.553 284.106 237.78 288.437C232.827 296.182 224.149 301.317 214.273 301.317H27.9416C26.2812 301.317 24.6566 301.171 23.0754 300.892C15.2542 299.518 8.55607 294.882 4.43437 288.44C1.66098 284.106 0.0542603 278.956 0.0542603 273.429V27.8874C0.0542603 12.4854 12.5396 0 27.9416 0H214.273C229.675 0 242.16 12.4854 242.16 27.8874Z" fill="#434041"/>
<path d="M195.618 175.304C181.255 171.055 165.986 163.545 150.965 158.165C149.077 152.984 147.552 147.596 146.521 141.926C154.499 134.637 159.424 124.628 160.347 113.896C161.071 114.031 161.87 113.901 162.476 113.369C163.433 112.529 164.241 111.391 164.866 109.881C167.15 104.409 168.378 97.7363 168.934 90.304C169.118 87.8453 165.781 86.3486 163.423 87.8325C163.133 88.0141 162.832 88.229 162.537 88.426C162.75 86.8065 162.944 85.21 163.116 83.6417C163.133 83.6187 163.156 83.6084 163.164 83.5752C164.047 79.8731 167.306 76.1351 166.193 72.1669C166.14 71.975 166.073 71.7832 165.996 71.5938C165.999 71.4608 166.009 71.3303 166.014 71.1973C166.037 71.1154 166.068 71.0386 166.089 70.9568C166.769 68.2422 166.677 64.5836 166.457 61.8332C166.298 59.8223 165.231 58.7912 163.814 58.4279C164.131 57.425 164.592 56.5884 164.31 55.4754C163.985 54.186 162.995 53.2189 161.734 52.5741C162.274 51.3691 162.555 50.0822 162.407 49.0204C162.197 47.493 160.989 46.5438 159.536 46.0091C159.38 45.4999 159.168 44.9985 158.828 44.5226C157.963 43.3048 156.737 42.8161 155.522 42.3095C155.747 41.9616 155.919 41.652 155.972 41.4141C156.241 40.2576 156.029 39.137 155.44 38.1162C154.928 37.2284 154.245 36.6758 153.432 36.2178C153.242 34.4729 152.229 32.9071 150.154 32.1626C149.113 31.7891 147.616 31.5818 146.304 31.8044C144.065 29.0796 141.806 27.4627 138.209 27.739C137.771 27.2145 137.237 26.7386 136.428 26.4163C136.239 26.3395 136.044 26.2858 135.85 26.2397C134.491 25.0065 132.892 24.0727 130.927 23.6787C128.758 23.2438 126.389 24.1136 124.406 25.5055C122.725 24.7712 120.844 24.6356 119.335 25.4952C117.874 26.3242 118.698 27.061 116.109 27.7262C114.75 28.0767 113.09 27.5753 111.836 27.0891C110.232 26.4649 108.689 25.7485 106.942 25.6359C103.859 25.4389 101.062 26.6133 98.7852 28.6166C98.5371 28.8366 98.862 29.2485 99.1358 29.072C101.546 27.5215 104.14 26.9254 106.821 27.3731C106.381 27.4294 105.952 27.5113 105.55 27.6367C104.353 28.0051 103.608 28.6345 103.045 29.3662C101.937 29.1692 100.773 29.205 99.5068 29.5888C97.0302 30.341 94.6175 31.7251 93.7732 34.2938C93.6964 34.5241 94.0418 34.6597 94.157 34.455C95.4695 32.1447 98.491 30.8066 101.129 30.7094C101.479 30.6966 101.817 30.7324 102.147 30.7938C102.035 30.9959 101.922 31.1981 101.807 31.3976C100.919 31.3081 100.052 31.3311 99.3788 31.4283C98.4117 31.569 97.5725 31.9375 97.1529 32.879C97.0915 33.0171 97.0557 33.1502 97.0301 33.2832C96.4212 33.3932 95.8251 33.603 95.2546 33.9407C94.2184 34.5522 93.4406 35.4937 93.0005 36.5837C92.6782 36.6399 92.3609 36.6911 92.0462 36.7883C90.0378 36.2229 87.7838 36.6732 87.3131 39.1396C87.1928 39.7664 87.377 40.2883 87.597 40.7719C87.2568 41.0584 87.0444 41.4678 87.1698 41.9002C86.9446 41.8439 86.7221 41.7825 86.4892 41.7467C86.0006 41.6699 85.5093 41.6162 85.0155 41.5829C84.926 41.2938 84.8518 41.0021 84.8006 40.7054C84.0382 36.1436 88.5437 36.1334 91.7111 35.9747C92.1281 35.9543 92.1307 35.3377 91.7111 35.3249C88.8098 35.2405 85.0718 34.7569 83.6826 38.0215C83.2016 39.1498 83.1914 40.36 83.4293 41.5727C82.3829 41.6366 81.3492 41.8388 80.3642 42.2353C77.3862 43.4353 75.7795 45.9144 75.9662 48.9309C74.513 49.8698 73.4078 51.2181 73.1954 53.1498C73.0572 54.4009 73.3361 55.5803 74.0883 56.5909C74.5258 57.1819 74.9684 57.668 75.3675 58.1772C74.7203 58.8961 74.1829 59.6969 73.8401 60.577C73.2184 62.1684 73.6431 63.4783 74.1599 64.9418C73.6329 66.1775 73.2773 67.4696 73.2568 68.8435C73.2312 70.5295 73.8657 72.1234 74.1369 73.7685C74.4055 75.4008 74.2981 77.0664 74.6256 78.6885C74.9838 80.4641 75.9023 82.3983 77.1943 83.982C77.2685 85.2203 77.4706 86.3972 77.9004 87.4794C75.6515 86.7042 73.0137 88.1139 73.1775 90.3116C73.7327 97.744 74.9607 104.417 77.2455 109.889C77.8672 111.399 78.6756 112.537 79.6325 113.376C80.2389 113.908 81.0371 114.039 81.7612 113.903C82.6848 124.611 87.5945 134.594 95.5386 141.875C94.5075 147.535 92.9852 152.912 91.1022 158.083C75.956 163.41 60.5386 170.868 46.4056 175.166C34.5471 178.771 26.0248 189.148 24.917 201.49L22.6808 226.407H219.428L217.207 201.664C216.094 189.276 207.538 178.83 195.618 175.304ZM151.252 38.72C150.766 37.9857 150.295 37.2284 149.799 36.5018C150.18 36.6092 150.561 36.7192 150.901 36.8881C150.996 36.9342 151.109 37.0032 151.216 37.0646C151.295 37.6019 151.306 38.1648 151.252 38.72ZM157.431 46.7971C157.771 47.3548 157.999 47.8921 158.119 48.4294C157.753 47.8333 157.374 47.2499 156.978 46.6768C157.131 46.7127 157.282 46.751 157.431 46.7971ZM165.014 69.6954C165.009 69.7568 164.991 69.8131 164.983 69.8745C164.712 69.5394 164.413 69.2298 164.085 68.9484C164.065 67.7433 163.991 66.5511 163.865 65.3665C164.413 66.0854 164.883 66.8734 165.08 67.9557C165.083 68.5416 165.07 69.1223 165.014 69.6954ZM124.639 28.2277C124.667 28.2046 124.695 28.1842 124.723 28.1612C124.741 28.1739 124.761 28.1842 124.779 28.197C124.731 28.2046 124.685 28.22 124.639 28.2277ZM164.06 71.9469C164.165 72.1055 164.267 72.2667 164.349 72.4305C164.231 72.7503 164.106 73.065 163.978 73.3796C164.003 72.9038 164.037 72.4177 164.06 71.9469ZM149.632 34.4524C149.689 34.4806 149.748 34.5087 149.801 34.5394C149.745 34.5138 149.689 34.4831 149.632 34.4524ZM133.046 29.1641C133.025 29.1385 133.005 29.1155 132.984 29.0899C133.043 29.0745 133.133 29.0643 133.243 29.0566C133.171 29.0873 133.11 29.1257 133.046 29.1641ZM127.724 28.2021C127.673 28.1279 127.63 28.0511 127.576 27.9769C128.024 28.0946 128.443 28.2507 128.832 28.4554C128.466 28.3479 128.098 28.2635 127.724 28.2021ZM76.6724 67.1805C76.6852 67.3084 76.7082 67.4261 76.7414 67.5361C76.6954 67.3723 76.6493 67.2086 76.5956 67.0449C76.6237 67.0884 76.6468 67.1344 76.6724 67.1805ZM92.8854 41.5266C92.1639 41.2503 92.3405 40.6414 92.865 39.9787C93.0415 40.5314 93.2794 41.0635 93.5225 41.5906C93.4457 41.7108 93.369 41.8311 93.2948 41.9513C93.2513 41.9283 93.2078 41.8976 93.1643 41.8746C93.1233 41.7262 93.0338 41.5829 92.8854 41.5266ZM93.9932 39.3852C93.9983 39.1626 94.0521 38.9809 94.0802 38.7814C94.3924 38.5204 94.7045 38.2825 94.9834 38.0804C95.3441 38.1392 95.7176 38.1929 96.1117 38.2185C95.4106 38.9989 94.7557 39.8201 94.1442 40.6823C94.047 40.2602 93.983 39.8329 93.9932 39.3852ZM77.1815 72.3665C77.1508 72.8859 77.138 73.4078 77.1354 73.9323C77.1201 73.5025 77.1226 73.047 77.1482 72.5507C77.161 72.4893 77.1687 72.4279 77.1815 72.3665ZM91.335 39.073C91.271 39.2138 91.1866 39.334 91.1329 39.4824C90.9538 39.9813 90.8821 40.4828 90.9103 40.9331C90.6596 40.8512 90.4088 40.7642 90.1479 40.6951C90.3577 40.1195 90.7926 39.5438 91.335 39.073ZM76.8156 67.7791C76.7977 67.7075 76.7721 67.6359 76.7517 67.5642C76.8617 67.9045 77.074 68.1604 77.422 68.296C77.4885 68.3881 77.5525 68.4802 77.6164 68.5697C77.4424 68.887 77.271 69.2017 77.1047 69.5189C77.0433 68.9381 76.9589 68.3599 76.8156 67.7791ZM164.51 76.6545C164.142 77.9005 163.783 79.1055 163.464 80.3259C163.584 79.0492 163.684 77.7981 163.776 76.5573C164.09 75.7718 164.454 75.0196 164.814 74.2598C164.863 75.0401 164.75 75.846 164.51 76.6545ZM164.883 63.944C164.891 64.077 164.899 64.2126 164.907 64.3457C164.236 63.1637 163.689 62.1351 163.545 60.9275C164.313 61.3574 164.799 62.2221 164.883 63.944ZM160.406 50.558C160.299 50.9879 160.13 51.364 159.925 51.7145C159.746 51.3512 159.593 50.9725 159.403 50.6169C159.626 49.7521 159.777 48.8771 159.802 48.0098C160.457 48.6494 160.675 49.4733 160.406 50.558ZM156.11 45.4539C155.898 45.1673 155.699 44.868 155.476 44.5866C155.926 44.7887 156.318 45.0676 156.622 45.4616C156.448 45.4539 156.277 45.4513 156.11 45.4539ZM154.757 40.7744C154.811 41.2094 154.737 41.5701 154.588 41.8874C154.197 41.7006 153.813 41.4985 153.457 41.2401C153.099 40.9791 152.774 40.667 152.47 40.3318C152.805 39.769 153.061 39.1677 153.232 38.5511C154.015 39.2675 154.67 40.0785 154.757 40.7744ZM144.666 32.4364C144.61 32.4773 144.541 32.5054 144.487 32.5489C144.288 32.7127 144.07 33.0146 143.86 33.36C143.794 33.3676 143.725 33.3779 143.658 33.3881C143.605 33.2116 143.541 33.035 143.459 32.8585C143.451 32.8432 143.436 32.8329 143.428 32.815C143.218 31.6918 142.671 31.4565 141.944 31.2236C141.903 31.1981 141.873 31.1597 141.832 31.1341C141.42 30.584 140.898 30.1465 140.327 29.7807C140.944 29.8958 141.581 30.1056 142.246 30.4535C143.203 30.955 143.958 31.6688 144.666 32.4364ZM132.363 26.3984C132.562 26.4726 132.739 26.5749 132.928 26.6619C132.432 26.9356 132.002 27.3066 131.674 27.7544C130.751 26.9996 129.676 26.4316 128.543 26.0888C129.687 25.8176 130.935 25.856 132.363 26.3984ZM118.908 28.7189C120.274 28.0716 119.836 27.3987 121.098 27.2989C120.448 27.8106 119.87 28.4042 119.263 28.962C118.949 28.9645 118.634 28.9747 118.322 28.9824C118.516 28.8954 118.706 28.8136 118.908 28.7189ZM109.203 30.1261C108.38 30.3486 107.566 30.6019 106.773 30.9013C106.473 30.7171 106.174 30.5508 105.872 30.3896C106.88 29.7193 108.014 29.7679 109.203 30.1261ZM104.642 31.8223C104.608 31.8377 104.575 31.853 104.542 31.8709C104.557 31.8454 104.573 31.8147 104.588 31.7891C104.606 31.7993 104.624 31.8121 104.642 31.8223ZM100.195 33.2167C100.249 33.1988 100.333 33.1988 100.4 33.1911C100.277 33.2935 100.141 33.3907 100.001 33.4828C99.9442 33.4649 99.8905 33.4444 99.8342 33.4291C99.9391 33.3421 100.054 33.2679 100.195 33.2167ZM89.7564 38.019C89.4468 38.285 89.1731 38.5818 88.9658 38.9298C88.9761 38.7967 88.9735 38.6739 88.9991 38.5332C89.2524 38.326 89.5031 38.1622 89.7564 38.019ZM82.7692 43.645C82.3138 43.7653 81.8635 43.8907 81.426 44.0314C79.6248 44.6122 77.8262 45.8709 77.7085 47.9561C77.7111 47.9331 77.7188 47.9663 77.7316 48.02C77.4015 48.148 77.0817 48.2964 76.7696 48.455C77.138 45.4334 79.8756 43.8676 82.7692 43.645ZM77.9158 49.2174C77.9235 49.2865 77.9286 49.3428 77.9235 49.353C77.7597 49.8519 77.4373 49.6447 77.0408 50.1385C76.5214 50.7832 76.0942 50.9495 75.8818 51.7759C75.7846 52.1545 75.7795 52.5844 75.8178 53.0321C75.6157 53.664 75.4852 54.3318 75.4596 54.974C74.3672 52.3567 75.7922 50.489 77.9158 49.2174ZM75.3727 60.5361C75.4827 60.1984 75.649 59.8709 75.8383 59.5511C76.0123 59.8453 76.2425 60.1242 76.5163 60.3877C76.5393 60.4696 76.5649 60.5438 76.5854 60.6308C76.5879 60.6461 76.5879 60.664 76.5905 60.6768C76.4293 60.9199 76.2681 61.1629 76.1095 61.4111C76.0225 61.4776 75.9253 61.5186 75.846 61.6004C75.4622 61.9868 75.2959 62.391 75.2422 62.8055C75.2422 62.808 75.2396 62.8106 75.2396 62.8106C75.1219 62.0635 75.1219 61.3062 75.3727 60.5361ZM74.3365 66.5971C74.3825 66.3976 74.4618 66.2082 74.5207 66.0112C75.1987 68.0964 75.5799 70.1355 75.4366 72.3358C75.3573 73.569 75.191 74.7228 75.475 75.9407C75.5952 76.4601 75.7666 76.9564 75.9816 77.422C76.2732 78.3763 76.6928 79.2974 77.2148 80.1775C77.2122 80.2901 77.2096 80.4027 77.2045 80.5178C77.1866 80.9297 77.1738 81.3365 77.1636 81.7407C76.0302 79.5584 75.5031 76.8387 75.168 74.316C74.8123 71.6501 73.6917 69.3577 74.3365 66.5971Z" fill="white"/>
<path d="M242.106 27.8874V75.9611C233.43 70.2353 226.266 62.4959 223.685 53.9531C220.126 42.1765 226.666 33.4521 219.737 23.6915C212.246 13.1403 200.4 17.4207 193.421 7.90057C191.778 5.65935 190.627 2.95504 189.931 0H214.219C229.621 0 242.106 12.4854 242.106 27.8874Z" fill="url(#paint0_linear_80_843)"/>
<path d="M242.106 199.528V273.429C242.106 278.956 240.499 284.106 237.726 288.437C232.773 296.182 224.094 301.317 214.219 301.317H27.8874C26.227 301.317 24.6023 301.171 23.0212 300.892C27.6674 270.114 84.6293 226.095 139.473 216.455C174.286 210.335 195.347 220.331 232.895 203.954C236.178 202.521 239.241 201.04 242.106 199.528Z" fill="url(#paint1_linear_80_843)"/>
<path d="M213.935 301.317H27.8874C18.0117 301.317 9.33588 296.185 4.38011 288.44C1.60672 284.106 0 278.956 0 273.429V31.4923C21.6831 53.769 39.3801 83.2554 46.0526 113.164C54.9893 153.209 37.5456 164.367 51.3154 190.796C75.9074 238 139.596 217.87 189.473 268.428C198.515 277.59 207.039 289.013 213.935 301.317Z" fill="url(#paint2_linear_80_843)"/>
<path d="M149.07 301.317H27.8874C18.0117 301.317 9.33588 296.184 4.38011 288.44C1.60672 284.106 0 278.956 0 273.429V119.084C5.1016 129.648 9.05444 140.609 11.5131 151.628C20.4499 191.671 3.00623 202.828 16.7759 229.26C40.4137 274.632 100.175 257.795 149.07 301.317Z" fill="url(#paint3_linear_80_843)"/>
<path d="M83.712 250.196C82.9094 250.196 82.1347 250.098 81.388 249.902C80.6507 249.697 80.0487 249.435 79.582 249.118L80.492 247.074C80.9307 247.354 81.4347 247.587 82.004 247.774C82.5827 247.951 83.1567 248.04 83.726 248.04C84.1087 248.04 84.4167 248.007 84.65 247.942C84.8834 247.867 85.0514 247.774 85.154 247.662C85.266 247.541 85.322 247.401 85.322 247.242C85.322 247.018 85.2194 246.841 85.014 246.71C84.8087 246.579 84.5427 246.472 84.216 246.388C83.8894 246.304 83.5254 246.22 83.124 246.136C82.732 246.052 82.3354 245.945 81.934 245.814C81.542 245.683 81.1827 245.515 80.856 245.31C80.5294 245.095 80.2634 244.82 80.058 244.484C79.8527 244.139 79.75 243.705 79.75 243.182C79.75 242.594 79.9087 242.062 80.226 241.586C80.5527 241.11 81.038 240.727 81.682 240.438C82.326 240.149 83.1287 240.004 84.09 240.004C84.734 240.004 85.364 240.079 85.98 240.228C86.6054 240.368 87.1607 240.578 87.646 240.858L86.792 242.916C86.3254 242.664 85.8634 242.477 85.406 242.356C84.9487 242.225 84.5054 242.16 84.076 242.16C83.6934 242.16 83.3854 242.202 83.152 242.286C82.9187 242.361 82.7507 242.463 82.648 242.594C82.5454 242.725 82.494 242.874 82.494 243.042C82.494 243.257 82.592 243.429 82.788 243.56C82.9934 243.681 83.2594 243.784 83.586 243.868C83.922 243.943 84.286 244.022 84.678 244.106C85.0794 244.19 85.476 244.297 85.868 244.428C86.2694 244.549 86.6334 244.717 86.96 244.932C87.2867 245.137 87.548 245.413 87.744 245.758C87.9494 246.094 88.052 246.519 88.052 247.032C88.052 247.601 87.8887 248.129 87.562 248.614C87.2447 249.09 86.764 249.473 86.12 249.762C85.4854 250.051 84.6827 250.196 83.712 250.196ZM94.5405 250V248.586L94.3585 248.236V245.632C94.3585 245.212 94.2278 244.89 93.9665 244.666C93.7145 244.433 93.3085 244.316 92.7485 244.316C92.3845 244.316 92.0158 244.377 91.6425 244.498C91.2692 244.61 90.9518 244.769 90.6905 244.974L89.7945 243.168C90.2238 242.888 90.7372 242.673 91.3345 242.524C91.9412 242.365 92.5432 242.286 93.1405 242.286C94.3725 242.286 95.3245 242.571 95.9965 243.14C96.6778 243.7 97.0185 244.582 97.0185 245.786V250H94.5405ZM92.3005 250.126C91.6938 250.126 91.1805 250.023 90.7605 249.818C90.3405 249.613 90.0185 249.333 89.7945 248.978C89.5798 248.623 89.4725 248.227 89.4725 247.788C89.4725 247.321 89.5892 246.92 89.8225 246.584C90.0652 246.239 90.4338 245.977 90.9285 245.8C91.4232 245.613 92.0625 245.52 92.8465 245.52H94.6385V246.906H93.2105C92.7812 246.906 92.4778 246.976 92.3005 247.116C92.1325 247.256 92.0485 247.443 92.0485 247.676C92.0485 247.909 92.1372 248.096 92.3145 248.236C92.4918 248.376 92.7345 248.446 93.0425 248.446C93.3318 248.446 93.5932 248.376 93.8265 248.236C94.0692 248.087 94.2465 247.863 94.3585 247.564L94.7225 248.544C94.5825 249.067 94.3072 249.463 93.8965 249.734C93.4952 249.995 92.9632 250.126 92.3005 250.126ZM99.3975 250V239.612H102.058V250H99.3975ZM104.486 250V242.412H107.146V250H104.486ZM105.816 241.572C105.331 241.572 104.939 241.437 104.64 241.166C104.342 240.895 104.192 240.559 104.192 240.158C104.192 239.757 104.342 239.421 104.64 239.15C104.939 238.879 105.331 238.744 105.816 238.744C106.302 238.744 106.694 238.875 106.992 239.136C107.291 239.388 107.44 239.715 107.44 240.116C107.44 240.536 107.291 240.886 106.992 241.166C106.703 241.437 106.311 241.572 105.816 241.572ZM114.517 242.286C115.105 242.286 115.637 242.407 116.113 242.65C116.589 242.883 116.962 243.247 117.233 243.742C117.513 244.237 117.653 244.876 117.653 245.66V250H114.993V246.094C114.993 245.553 114.881 245.161 114.657 244.918C114.442 244.666 114.139 244.54 113.747 244.54C113.467 244.54 113.21 244.605 112.977 244.736C112.744 244.857 112.562 245.049 112.431 245.31C112.3 245.571 112.235 245.912 112.235 246.332V250H109.575V239.612H112.235V244.568L111.619 243.938C111.908 243.387 112.305 242.977 112.809 242.706C113.313 242.426 113.882 242.286 114.517 242.286ZM129.445 250.196C127.998 250.196 126.869 249.799 126.057 249.006C125.245 248.213 124.839 247.088 124.839 245.632V240.2H127.611V245.548C127.611 246.388 127.774 246.99 128.101 247.354C128.437 247.718 128.894 247.9 129.473 247.9C130.052 247.9 130.504 247.718 130.831 247.354C131.158 246.99 131.321 246.388 131.321 245.548V240.2H134.051V245.632C134.051 247.088 133.645 248.213 132.833 249.006C132.021 249.799 130.892 250.196 129.445 250.196ZM140.213 252.842C139.485 252.842 138.79 252.758 138.127 252.59C137.474 252.422 136.914 252.175 136.447 251.848L137.413 249.986C137.73 250.238 138.122 250.434 138.589 250.574C139.065 250.723 139.527 250.798 139.975 250.798C140.694 250.798 141.212 250.639 141.529 250.322C141.846 250.014 142.005 249.561 142.005 248.964V248.068L142.145 245.94L142.131 243.798V242.412H144.665V248.614C144.665 250.051 144.278 251.115 143.503 251.806C142.728 252.497 141.632 252.842 140.213 252.842ZM139.751 249.608C139.079 249.608 138.458 249.459 137.889 249.16C137.329 248.852 136.876 248.427 136.531 247.886C136.195 247.335 136.027 246.687 136.027 245.94C136.027 245.193 136.195 244.549 136.531 244.008C136.876 243.457 137.329 243.033 137.889 242.734C138.458 242.435 139.079 242.286 139.751 242.286C140.395 242.286 140.946 242.417 141.403 242.678C141.86 242.93 142.206 243.327 142.439 243.868C142.682 244.409 142.803 245.1 142.803 245.94C142.803 246.78 142.682 247.471 142.439 248.012C142.206 248.553 141.86 248.955 141.403 249.216C140.946 249.477 140.395 249.608 139.751 249.608ZM140.381 247.494C140.698 247.494 140.978 247.429 141.221 247.298C141.473 247.167 141.669 246.985 141.809 246.752C141.958 246.519 142.033 246.248 142.033 245.94C142.033 245.632 141.958 245.361 141.809 245.128C141.669 244.895 141.473 244.717 141.221 244.596C140.978 244.465 140.698 244.4 140.381 244.4C140.064 244.4 139.779 244.465 139.527 244.596C139.275 244.717 139.074 244.895 138.925 245.128C138.785 245.361 138.715 245.632 138.715 245.94C138.715 246.248 138.785 246.519 138.925 246.752C139.074 246.985 139.275 247.167 139.527 247.298C139.779 247.429 140.064 247.494 140.381 247.494ZM140.521 241.628C139.737 241.628 139.088 241.427 138.575 241.026C138.071 240.625 137.805 240.074 137.777 239.374H139.401C139.42 239.663 139.532 239.892 139.737 240.06C139.952 240.219 140.213 240.298 140.521 240.298C140.829 240.298 141.09 240.219 141.305 240.06C141.52 239.892 141.632 239.663 141.641 239.374H143.265C143.237 240.074 142.966 240.625 142.453 241.026C141.949 241.427 141.305 241.628 140.521 241.628ZM150.266 250.126C149.65 250.126 149.095 250.005 148.6 249.762C148.115 249.519 147.732 249.141 147.452 248.628C147.181 248.105 147.046 247.447 147.046 246.654V242.412H149.706V246.22C149.706 246.808 149.813 247.228 150.028 247.48C150.252 247.732 150.565 247.858 150.966 247.858C151.227 247.858 151.465 247.797 151.68 247.676C151.895 247.555 152.067 247.363 152.198 247.102C152.329 246.831 152.394 246.486 152.394 246.066V242.412H155.054V250H152.52V247.858L153.01 248.46C152.749 249.02 152.371 249.44 151.876 249.72C151.381 249.991 150.845 250.126 150.266 250.126ZM157.467 250V242.412H160.001V244.624L159.623 243.994C159.847 243.425 160.211 243 160.715 242.72C161.219 242.431 161.831 242.286 162.549 242.286V244.68C162.428 244.661 162.321 244.652 162.227 244.652C162.143 244.643 162.05 244.638 161.947 244.638C161.406 244.638 160.967 244.787 160.631 245.086C160.295 245.375 160.127 245.851 160.127 246.514V250H157.467Z" fill="white"/>
<path d="M42.2437 264.708H47.1297V266.248H42.2437V264.708ZM42.3977 270H40.5777V260.2H47.7317V261.726H42.3977V270ZM52.9827 270.098C52.348 270.098 51.788 269.981 51.3027 269.748C50.8173 269.505 50.4393 269.141 50.1687 268.656C49.898 268.161 49.7627 267.541 49.7627 266.794V262.524H51.5127V266.556C51.5127 267.228 51.662 267.732 51.9607 268.068C52.2687 268.395 52.7027 268.558 53.2627 268.558C53.6733 268.558 54.028 268.474 54.3267 268.306C54.6347 268.138 54.8727 267.886 55.0407 267.55C55.218 267.214 55.3067 266.799 55.3067 266.304V262.524H57.0567V270H55.3907V267.984L55.6847 268.6C55.4327 269.085 55.064 269.459 54.5787 269.72C54.0933 269.972 53.5613 270.098 52.9827 270.098ZM60.048 270V259.612H61.798V270H60.048ZM64.7948 270V259.612H66.5448V270H64.7948ZM77.3169 270.14C76.5515 270.14 75.8189 270.033 75.1189 269.818C74.4189 269.594 73.8635 269.309 73.4529 268.964L74.0829 267.55C74.4749 267.858 74.9602 268.115 75.5389 268.32C76.1175 268.525 76.7102 268.628 77.3169 268.628C77.8302 268.628 78.2455 268.572 78.5629 268.46C78.8802 268.348 79.1135 268.199 79.2629 268.012C79.4122 267.816 79.4869 267.597 79.4869 267.354C79.4869 267.055 79.3795 266.817 79.1649 266.64C78.9502 266.453 78.6702 266.309 78.3249 266.206C77.9889 266.094 77.6109 265.991 77.1909 265.898C76.7802 265.805 76.3649 265.697 75.9449 265.576C75.5342 265.445 75.1562 265.282 74.8109 265.086C74.4749 264.881 74.1995 264.61 73.9849 264.274C73.7702 263.938 73.6629 263.509 73.6629 262.986C73.6629 262.454 73.8029 261.969 74.0829 261.53C74.3722 261.082 74.8062 260.727 75.3849 260.466C75.9729 260.195 76.7149 260.06 77.6109 260.06C78.1989 260.06 78.7822 260.135 79.3609 260.284C79.9395 260.433 80.4435 260.648 80.8729 260.928L80.2989 262.342C79.8602 262.081 79.4075 261.889 78.9409 261.768C78.4742 261.637 78.0262 261.572 77.5969 261.572C77.0929 261.572 76.6822 261.633 76.3649 261.754C76.0569 261.875 75.8282 262.034 75.6789 262.23C75.5389 262.426 75.4689 262.65 75.4689 262.902C75.4689 263.201 75.5715 263.443 75.7769 263.63C75.9915 263.807 76.2669 263.947 76.6029 264.05C76.9482 264.153 77.3309 264.255 77.7509 264.358C78.1709 264.451 78.5862 264.559 78.9969 264.68C79.4169 264.801 79.7949 264.96 80.1309 265.156C80.4762 265.352 80.7515 265.618 80.9569 265.954C81.1715 266.29 81.2789 266.715 81.2789 267.228C81.2789 267.751 81.1342 268.236 80.8449 268.684C80.5649 269.123 80.1309 269.477 79.5429 269.748C78.9549 270.009 78.2129 270.14 77.3169 270.14ZM86.4295 270.098C85.6082 270.098 84.9735 269.888 84.5255 269.468C84.0775 269.039 83.8535 268.409 83.8535 267.578V260.872H85.6035V267.536C85.6035 267.891 85.6922 268.166 85.8695 268.362C86.0562 268.558 86.3129 268.656 86.6395 268.656C87.0315 268.656 87.3582 268.553 87.6195 268.348L88.1095 269.594C87.9042 269.762 87.6522 269.888 87.3535 269.972C87.0549 270.056 86.7469 270.098 86.4295 270.098ZM82.6215 263.98V262.58H87.6055V263.98H82.6215ZM94.8551 270V268.488L94.7571 268.166V265.52C94.7571 265.007 94.6031 264.61 94.2951 264.33C93.9871 264.041 93.5205 263.896 92.8951 263.896C92.4751 263.896 92.0598 263.961 91.6491 264.092C91.2478 264.223 90.9071 264.405 90.6271 264.638L89.9411 263.364C90.3425 263.056 90.8185 262.827 91.3691 262.678C91.9291 262.519 92.5078 262.44 93.1051 262.44C94.1878 262.44 95.0231 262.701 95.6111 263.224C96.2085 263.737 96.5071 264.535 96.5071 265.618V270H94.8551ZM92.5031 270.098C91.9431 270.098 91.4531 270.005 91.0331 269.818C90.6131 269.622 90.2865 269.356 90.0531 269.02C89.8291 268.675 89.7171 268.287 89.7171 267.858C89.7171 267.438 89.8151 267.06 90.0111 266.724C90.2165 266.388 90.5478 266.122 91.0051 265.926C91.4625 265.73 92.0691 265.632 92.8251 265.632H94.9951V266.794H92.9511C92.3538 266.794 91.9525 266.892 91.7471 267.088C91.5418 267.275 91.4391 267.508 91.4391 267.788C91.4391 268.105 91.5651 268.357 91.8171 268.544C92.0691 268.731 92.4191 268.824 92.8671 268.824C93.2965 268.824 93.6791 268.726 94.0151 268.53C94.3605 268.334 94.6078 268.045 94.7571 267.662L95.0511 268.712C94.8831 269.151 94.5798 269.491 94.1411 269.734C93.7118 269.977 93.1658 270.098 92.5031 270.098ZM102.897 270.098C102.113 270.098 101.413 269.935 100.797 269.608C100.19 269.272 99.714 268.815 99.3687 268.236C99.0234 267.657 98.8507 266.999 98.8507 266.262C98.8507 265.515 99.0234 264.857 99.3687 264.288C99.714 263.709 100.19 263.257 100.797 262.93C101.413 262.603 102.113 262.44 102.897 262.44C103.625 262.44 104.264 262.589 104.815 262.888C105.375 263.177 105.799 263.607 106.089 264.176L104.745 264.96C104.521 264.605 104.245 264.344 103.919 264.176C103.601 264.008 103.256 263.924 102.883 263.924C102.453 263.924 102.066 264.017 101.721 264.204C101.375 264.391 101.105 264.661 100.909 265.016C100.713 265.361 100.615 265.777 100.615 266.262C100.615 266.747 100.713 267.167 100.909 267.522C101.105 267.867 101.375 268.133 101.721 268.32C102.066 268.507 102.453 268.6 102.883 268.6C103.256 268.6 103.601 268.516 103.919 268.348C104.245 268.18 104.521 267.919 104.745 267.564L106.089 268.348C105.799 268.908 105.375 269.342 104.815 269.65C104.264 269.949 103.625 270.098 102.897 270.098ZM109.661 268.334L109.703 266.136L113.609 262.524H115.709L112.391 265.856L111.467 266.626L109.661 268.334ZM108.233 270V259.612H109.983V270H108.233ZM113.875 270L111.145 266.626L112.251 265.226L116.003 270H113.875ZM122.571 270V260.2H126.855C127.919 260.2 128.852 260.405 129.655 260.816C130.457 261.227 131.083 261.796 131.531 262.524C131.979 263.252 132.203 264.111 132.203 265.1C132.203 266.08 131.979 266.939 131.531 267.676C131.083 268.404 130.457 268.973 129.655 269.384C128.852 269.795 127.919 270 126.855 270H122.571ZM124.391 268.46H126.771C127.508 268.46 128.143 268.32 128.675 268.04C129.216 267.76 129.631 267.368 129.921 266.864C130.219 266.36 130.369 265.772 130.369 265.1C130.369 264.419 130.219 263.831 129.921 263.336C129.631 262.832 129.216 262.44 128.675 262.16C128.143 261.88 127.508 261.74 126.771 261.74H124.391V268.46ZM138.183 270.098C137.352 270.098 136.624 269.935 135.999 269.608C135.383 269.272 134.902 268.815 134.557 268.236C134.221 267.657 134.053 266.999 134.053 266.262C134.053 265.515 134.216 264.857 134.543 264.288C134.879 263.709 135.336 263.257 135.915 262.93C136.503 262.603 137.17 262.44 137.917 262.44C138.645 262.44 139.294 262.599 139.863 262.916C140.432 263.233 140.88 263.681 141.207 264.26C141.534 264.839 141.697 265.52 141.697 266.304C141.697 266.379 141.692 266.463 141.683 266.556C141.683 266.649 141.678 266.738 141.669 266.822H135.439V265.66H140.745L140.059 266.024C140.068 265.595 139.98 265.217 139.793 264.89C139.606 264.563 139.35 264.307 139.023 264.12C138.706 263.933 138.337 263.84 137.917 263.84C137.488 263.84 137.11 263.933 136.783 264.12C136.466 264.307 136.214 264.568 136.027 264.904C135.85 265.231 135.761 265.618 135.761 266.066V266.346C135.761 266.794 135.864 267.191 136.069 267.536C136.274 267.881 136.564 268.147 136.937 268.334C137.31 268.521 137.74 268.614 138.225 268.614C138.645 268.614 139.023 268.549 139.359 268.418C139.695 268.287 139.994 268.082 140.255 267.802L141.193 268.88C140.857 269.272 140.432 269.575 139.919 269.79C139.415 269.995 138.836 270.098 138.183 270.098ZM145.929 270L142.723 262.524H144.543L147.301 269.118H146.405L149.261 262.524H150.941L147.735 270H145.929ZM156.044 270.098C155.213 270.098 154.485 269.935 153.86 269.608C153.244 269.272 152.763 268.815 152.418 268.236C152.082 267.657 151.914 266.999 151.914 266.262C151.914 265.515 152.077 264.857 152.404 264.288C152.74 263.709 153.197 263.257 153.776 262.93C154.364 262.603 155.031 262.44 155.778 262.44C156.506 262.44 157.155 262.599 157.724 262.916C158.293 263.233 158.741 263.681 159.068 264.26C159.395 264.839 159.558 265.52 159.558 266.304C159.558 266.379 159.553 266.463 159.544 266.556C159.544 266.649 159.539 266.738 159.53 266.822H153.3V265.66H158.606L157.92 266.024C157.929 265.595 157.841 265.217 157.654 264.89C157.467 264.563 157.211 264.307 156.884 264.12C156.567 263.933 156.198 263.84 155.778 263.84C155.349 263.84 154.971 263.933 154.644 264.12C154.327 264.307 154.075 264.568 153.888 264.904C153.711 265.231 153.622 265.618 153.622 266.066V266.346C153.622 266.794 153.725 267.191 153.93 267.536C154.135 267.881 154.425 268.147 154.798 268.334C155.171 268.521 155.601 268.614 156.086 268.614C156.506 268.614 156.884 268.549 157.22 268.418C157.556 268.287 157.855 268.082 158.116 267.802L159.054 268.88C158.718 269.272 158.293 269.575 157.78 269.79C157.276 269.995 156.697 270.098 156.044 270.098ZM161.939 270V259.612H163.689V270H161.939ZM170.046 270.098C169.281 270.098 168.599 269.935 168.002 269.608C167.405 269.272 166.933 268.815 166.588 268.236C166.243 267.657 166.07 266.999 166.07 266.262C166.07 265.515 166.243 264.857 166.588 264.288C166.933 263.709 167.405 263.257 168.002 262.93C168.599 262.603 169.281 262.44 170.046 262.44C170.821 262.44 171.507 262.603 172.104 262.93C172.711 263.257 173.182 263.705 173.518 264.274C173.863 264.843 174.036 265.506 174.036 266.262C174.036 266.999 173.863 267.657 173.518 268.236C173.182 268.815 172.711 269.272 172.104 269.608C171.507 269.935 170.821 270.098 170.046 270.098ZM170.046 268.6C170.475 268.6 170.858 268.507 171.194 268.32C171.53 268.133 171.791 267.863 171.978 267.508C172.174 267.153 172.272 266.738 172.272 266.262C172.272 265.777 172.174 265.361 171.978 265.016C171.791 264.661 171.53 264.391 171.194 264.204C170.858 264.017 170.48 263.924 170.06 263.924C169.631 263.924 169.248 264.017 168.912 264.204C168.585 264.391 168.324 264.661 168.128 265.016C167.932 265.361 167.834 265.777 167.834 266.262C167.834 266.738 167.932 267.153 168.128 267.508C168.324 267.863 168.585 268.133 168.912 268.32C169.248 268.507 169.626 268.6 170.046 268.6ZM180.553 270.098C179.947 270.098 179.391 269.958 178.887 269.678C178.393 269.398 177.996 268.978 177.697 268.418C177.408 267.849 177.263 267.13 177.263 266.262C177.263 265.385 177.403 264.666 177.683 264.106C177.973 263.546 178.365 263.131 178.859 262.86C179.354 262.58 179.919 262.44 180.553 262.44C181.291 262.44 181.939 262.599 182.499 262.916C183.069 263.233 183.517 263.677 183.843 264.246C184.179 264.815 184.347 265.487 184.347 266.262C184.347 267.037 184.179 267.713 183.843 268.292C183.517 268.861 183.069 269.305 182.499 269.622C181.939 269.939 181.291 270.098 180.553 270.098ZM176.409 272.716V262.524H178.075V264.288L178.019 266.276L178.159 268.264V272.716H176.409ZM180.357 268.6C180.777 268.6 181.151 268.507 181.477 268.32C181.813 268.133 182.079 267.863 182.275 267.508C182.471 267.153 182.569 266.738 182.569 266.262C182.569 265.777 182.471 265.361 182.275 265.016C182.079 264.661 181.813 264.391 181.477 264.204C181.151 264.017 180.777 263.924 180.357 263.924C179.937 263.924 179.559 264.017 179.223 264.204C178.887 264.391 178.621 264.661 178.425 265.016C178.229 265.361 178.131 265.777 178.131 266.262C178.131 266.738 178.229 267.153 178.425 267.508C178.621 267.863 178.887 268.133 179.223 268.32C179.559 268.507 179.937 268.6 180.357 268.6ZM190.221 270.098C189.39 270.098 188.662 269.935 188.037 269.608C187.421 269.272 186.94 268.815 186.595 268.236C186.259 267.657 186.091 266.999 186.091 266.262C186.091 265.515 186.254 264.857 186.581 264.288C186.917 263.709 187.374 263.257 187.953 262.93C188.541 262.603 189.208 262.44 189.955 262.44C190.683 262.44 191.332 262.599 191.901 262.916C192.47 263.233 192.918 263.681 193.245 264.26C193.572 264.839 193.735 265.52 193.735 266.304C193.735 266.379 193.73 266.463 193.721 266.556C193.721 266.649 193.716 266.738 193.707 266.822H187.477V265.66H192.783L192.097 266.024C192.106 265.595 192.018 265.217 191.831 264.89C191.644 264.563 191.388 264.307 191.061 264.12C190.744 263.933 190.375 263.84 189.955 263.84C189.526 263.84 189.148 263.933 188.821 264.12C188.504 264.307 188.252 264.568 188.065 264.904C187.888 265.231 187.799 265.618 187.799 266.066V266.346C187.799 266.794 187.902 267.191 188.107 267.536C188.312 267.881 188.602 268.147 188.975 268.334C189.348 268.521 189.778 268.614 190.263 268.614C190.683 268.614 191.061 268.549 191.397 268.418C191.733 268.287 192.032 268.082 192.293 267.802L193.231 268.88C192.895 269.272 192.47 269.575 191.957 269.79C191.453 269.995 190.874 270.098 190.221 270.098ZM196.116 270V262.524H197.782V264.582L197.586 263.98C197.81 263.476 198.16 263.093 198.636 262.832C199.121 262.571 199.723 262.44 200.442 262.44V264.106C200.367 264.087 200.297 264.078 200.232 264.078C200.167 264.069 200.101 264.064 200.036 264.064C199.373 264.064 198.846 264.26 198.454 264.652C198.062 265.035 197.866 265.609 197.866 266.374V270H196.116Z" fill="black"/>
<defs>
<linearGradient id="paint0_linear_80_843" x1="189.932" y1="37.9806" x2="242.107" y2="37.9806" gradientUnits="userSpaceOnUse">
<stop stop-color="#01FFFF"/>
<stop offset="1" stop-color="#02C6FE"/>
</linearGradient>
<linearGradient id="paint1_linear_80_843" x1="23.0223" y1="250.422" x2="242.107" y2="250.422" gradientUnits="userSpaceOnUse">
<stop stop-color="#01FFFF"/>
<stop offset="1" stop-color="#02C6FE"/>
</linearGradient>
<linearGradient id="paint2_linear_80_843" x1="0.00112573" y1="166.405" x2="213.936" y2="166.405" gradientUnits="userSpaceOnUse">
<stop stop-color="#01FFFF"/>
<stop offset="1" stop-color="#02C6FE"/>
</linearGradient>
<linearGradient id="paint3_linear_80_843" x1="0.00112573" y1="210.2" x2="149.071" y2="210.2" gradientUnits="userSpaceOnUse">
<stop stop-color="#01FFFF"/>
<stop offset="1" stop-color="#02C6FE"/>
</linearGradient>
</defs>
</svg>
